<svg id="Capa_1" data-name="Capa 1" xmlns="http://www.w3.org/2000/svg" viewBox="0 0 407.72 117.36"><defs><style>.cls-1{fill:#585857;}.cls-2{fill:#088e89;fill-rule:evenodd;}</style></defs><title>logo</title><path class="cls-1" d="M152.28,66.81h-5.57a2.54,2.54,0,0,1-1.53-.43,2.21,2.21,0,0,1-.84-1.12l-1.83-5.39H130.75l-1.82,5.39a2.47,2.47,0,0,1-2.34,1.55H121l12-30.93h7.34ZM132.41,55h8.45L138,46.52c-.18-.54-.4-1.17-.64-1.9s-.5-1.52-.74-2.37c-.22.87-.46,1.66-.7,2.4s-.46,1.37-.68,1.91Z"/><path class="cls-1" d="M159.35,35.93a1.72,1.72,0,0,1,.57.16,1.79,1.79,0,0,1,.49.32c.15.15.33.34.53.58l14.69,18.57c-.06-.59-.1-1.17-.13-1.73s0-1.09,0-1.58V35.88h6.32V66.81h-3.73a3.41,3.41,0,0,1-1.4-.25,3,3,0,0,1-1.11-.94L161,47.2c0,.54.08,1.06.11,1.58s0,1,0,1.45V66.81h-6.33V35.88h3.78A5.83,5.83,0,0,1,159.35,35.93Z"/><path class="cls-1" d="M207.66,58.81a1.52,1.52,0,0,1,.51.09,1.63,1.63,0,0,1,.49.33l2.84,3a12,12,0,0,1-4.68,3.68,16.39,16.39,0,0,1-6.66,1.24,15.81,15.81,0,0,1-6.31-1.2,13.59,13.59,0,0,1-4.73-3.31,14.66,14.66,0,0,1-3-5,18.57,18.57,0,0,1-1-6.29A16.63,16.63,0,0,1,186.28,45a14.83,14.83,0,0,1,3.32-5,15.14,15.14,0,0,1,5.11-3.27,17.76,17.76,0,0,1,6.56-1.17,17.15,17.15,0,0,1,3.28.31,16.55,16.55,0,0,1,2.87.85,13.15,13.15,0,0,1,2.47,1.3,11.61,11.61,0,0,1,2,1.66l-2.42,3.25a3.13,3.13,0,0,1-.55.54,1.45,1.45,0,0,1-.89.24,1.58,1.58,0,0,1-.72-.16q-.35-.18-.72-.42l-.84-.53a6.52,6.52,0,0,0-1.09-.53,8.62,8.62,0,0,0-1.46-.41,9.54,9.54,0,0,0-2-.17,9,9,0,0,0-3.57.69,7.71,7.71,0,0,0-2.77,2,9.34,9.34,0,0,0-1.81,3.11,12.25,12.25,0,0,0-.64,4.1,12.77,12.77,0,0,0,.64,4.22,9.31,9.31,0,0,0,1.77,3.11,7.49,7.49,0,0,0,2.6,1.92,7.74,7.74,0,0,0,3.18.66,13.81,13.81,0,0,0,1.78-.1,6.86,6.86,0,0,0,1.5-.33,6.53,6.53,0,0,0,1.32-.6,9.14,9.14,0,0,0,1.26-.92A2.44,2.44,0,0,1,207,59,1.34,1.34,0,0,1,207.66,58.81Z"/><path class="cls-1" d="M241.77,66.81h-7.22V53.74H222V66.81h-7.21V35.88H222V48.81h12.57V35.88h7.22Z"/><path class="cls-1" d="M254.72,66.81H247.5V35.88h7.22Z"/><path class="cls-1" d="M267.62,56.47V66.81h-7.17V35.88h10.91a17.83,17.83,0,0,1,5.61.78,11,11,0,0,1,3.87,2.13A8.38,8.38,0,0,1,283.08,42a10.88,10.88,0,0,1,.72,4,11.8,11.8,0,0,1-.74,4.24,8.56,8.56,0,0,1-2.28,3.31,10.7,10.7,0,0,1-3.87,2.16,17.63,17.63,0,0,1-5.55.77Zm0-5.41h3.74a5.26,5.26,0,0,0,4-1.34A5.29,5.29,0,0,0,276.62,46a5.39,5.39,0,0,0-.32-1.93,3.94,3.94,0,0,0-1-1.5,4.36,4.36,0,0,0-1.64-1,7.36,7.36,0,0,0-2.34-.34h-3.74Z"/><path class="cls-1" d="M300.4,61.14a6.69,6.69,0,0,0,2.57-.47,5.23,5.23,0,0,0,1.92-1.37,5.91,5.91,0,0,0,1.2-2.18,9.4,9.4,0,0,0,.42-2.92V35.88h7.17V54.2a14.38,14.38,0,0,1-.92,5.22,11.55,11.55,0,0,1-6.83,6.78,16.69,16.69,0,0,1-11.1,0,12,12,0,0,1-4.18-2.68,11.56,11.56,0,0,1-2.63-4.1,14.38,14.38,0,0,1-.91-5.22V35.88h7.17v18.3a9.4,9.4,0,0,0,.42,2.92,6.17,6.17,0,0,0,1.19,2.19,5.26,5.26,0,0,0,1.93,1.38A6.71,6.71,0,0,0,300.4,61.14Z"/><path class="cls-1" d="M325.53,55.37V66.81h-7.18V35.88h10.06a20.71,20.71,0,0,1,5.73.69A10.82,10.82,0,0,1,338,38.49a7.26,7.26,0,0,1,2.17,2.91,9.52,9.52,0,0,1,.68,3.65,9.77,9.77,0,0,1-.4,2.85,8.7,8.7,0,0,1-1.2,2.47,9.35,9.35,0,0,1-1.95,2,10.46,10.46,0,0,1-2.66,1.46,6.64,6.64,0,0,1,1.34.89,5.38,5.38,0,0,1,1.1,1.3l6.58,10.76h-6.5a2.75,2.75,0,0,1-2.59-1.36l-5.14-9a2.18,2.18,0,0,0-.79-.85,2.69,2.69,0,0,0-1.29-.25Zm0-4.95h2.88a7.36,7.36,0,0,0,2.5-.37,4.51,4.51,0,0,0,1.69-1,3.91,3.91,0,0,0,.95-1.54,5.82,5.82,0,0,0,.3-1.9,4,4,0,0,0-1.33-3.18,6.19,6.19,0,0,0-4.11-1.15h-2.88Z"/><path class="cls-1" d="M375.37,66.81h-5.56a2.55,2.55,0,0,1-1.54-.43,2.32,2.32,0,0,1-.84-1.12l-1.83-5.39H353.84L352,65.26a2.47,2.47,0,0,1-2.34,1.55h-5.6l12-30.93h7.35ZM355.5,55H364l-2.85-8.47c-.18-.54-.4-1.17-.64-1.9s-.5-1.52-.74-2.37c-.22.87-.46,1.66-.7,2.4s-.46,1.37-.68,1.91Z"/><path class="cls-1" d="M397.38,58.81a1.52,1.52,0,0,1,.51.09,1.63,1.63,0,0,1,.49.33l2.84,3a11.88,11.88,0,0,1-4.68,3.68,16.34,16.34,0,0,1-6.65,1.24,15.86,15.86,0,0,1-6.32-1.2,13.59,13.59,0,0,1-4.73-3.31,14.48,14.48,0,0,1-3-5,18.33,18.33,0,0,1-1-6.29A16.63,16.63,0,0,1,376,45a14.71,14.71,0,0,1,8.43-8.27A17.76,17.76,0,0,1,391,35.54a17.15,17.15,0,0,1,3.28.31,16.66,16.66,0,0,1,2.88.85,13.07,13.07,0,0,1,2.46,1.3,11.61,11.61,0,0,1,2,1.66l-2.42,3.25a2.82,2.82,0,0,1-.55.54,1.45,1.45,0,0,1-.89.24,1.58,1.58,0,0,1-.72-.16q-.34-.18-.72-.42l-.84-.53a6.79,6.79,0,0,0-1.08-.53,9,9,0,0,0-1.47-.41,9.47,9.47,0,0,0-2-.17,9,9,0,0,0-3.57.69,7.8,7.8,0,0,0-2.77,2,9.15,9.15,0,0,0-1.8,3.11,12.25,12.25,0,0,0-.65,4.1,12.77,12.77,0,0,0,.65,4.22,9.29,9.29,0,0,0,1.76,3.11,7.49,7.49,0,0,0,2.6,1.92,7.74,7.74,0,0,0,3.18.66,14.08,14.08,0,0,0,1.79-.1,6.9,6.9,0,0,0,1.49-.33,6.53,6.53,0,0,0,1.32-.6,9.14,9.14,0,0,0,1.26-.92,2.44,2.44,0,0,1,.55-.35A1.37,1.37,0,0,1,397.38,58.81Z"/><path class="cls-1" d="M132.72,87a.39.39,0,0,1,.31.14l.82.89a6.45,6.45,0,0,1-2.29,1.7,7.79,7.79,0,0,1-3.25.61,7.69,7.69,0,0,1-3-.57A6.5,6.5,0,0,1,123,88.2a7.25,7.25,0,0,1-1.48-2.48,9.32,9.32,0,0,1-.53-3.19,8.81,8.81,0,0,1,.56-3.18,7.28,7.28,0,0,1,1.59-2.49,7.07,7.07,0,0,1,2.44-1.61,8.12,8.12,0,0,1,3.13-.58,7.36,7.36,0,0,1,2.92.53,7.27,7.27,0,0,1,2.19,1.43l-.68,1a1,1,0,0,1-.17.18.55.55,0,0,1-.28.07.53.53,0,0,1-.29-.11,4,4,0,0,1-.37-.25c-.15-.1-.31-.21-.51-.32a4.5,4.5,0,0,0-.69-.32,4.86,4.86,0,0,0-.92-.25,6.22,6.22,0,0,0-1.21-.1,5.94,5.94,0,0,0-2.26.42,5,5,0,0,0-1.76,1.2A5.54,5.54,0,0,0,123.53,80a7.16,7.16,0,0,0-.42,2.52,7.33,7.33,0,0,0,.42,2.57,5.66,5.66,0,0,0,1.12,1.9,4.9,4.9,0,0,0,1.69,1.19,5.42,5.42,0,0,0,2.1.4,7.83,7.83,0,0,0,1.24-.08,4.53,4.53,0,0,0,1-.25,4.4,4.4,0,0,0,.87-.43,7.41,7.41,0,0,0,.81-.63A.53.53,0,0,1,132.72,87Z"/><path class="cls-1" d="M146.05,74.85v1.69h-7.37v5.1h6v1.63h-6v5.25h7.37v1.69h-9.46V74.85Z"/><path class="cls-1" d="M150.53,74.91a1.31,1.31,0,0,1,.31.29l8.9,11.58c0-.19,0-.37-.05-.54s0-.35,0-.51V74.85h1.83V90.21h-1.06a1,1,0,0,1-.41-.08,1.23,1.23,0,0,1-.33-.29l-8.89-11.57c0,.17,0,.35,0,.52s0,.33,0,.47V90.21h-1.82V74.85h1.07A1.07,1.07,0,0,1,150.53,74.91Z"/><path class="cls-1" d="M175.73,74.85v1.74h-5V90.21h-2.08V76.59h-5V74.85Z"/><path class="cls-1" d="M180.2,83.8v6.41h-2.07V74.85h4.34a9.39,9.39,0,0,1,2.52.29,4.85,4.85,0,0,1,1.75.85,3.39,3.39,0,0,1,1,1.35,4.75,4.75,0,0,1,.07,3.29,4.15,4.15,0,0,1-.74,1.27,4.92,4.92,0,0,1-1.19,1,6.18,6.18,0,0,1-1.6.6,2.12,2.12,0,0,1,.69.65l4.48,6.1h-1.84a.9.9,0,0,1-.84-.44l-4-5.49a1.23,1.23,0,0,0-.39-.37,1.55,1.55,0,0,0-.65-.11Zm0-1.51h2.17a5.55,5.55,0,0,0,1.61-.22,3.41,3.41,0,0,0,1.15-.62,2.56,2.56,0,0,0,.71-1,3.34,3.34,0,0,0,.23-1.24,2.47,2.47,0,0,0-.9-2.07,4.44,4.44,0,0,0-2.7-.69H180.2Z"/><path class="cls-1" d="M205.51,82.53A9,9,0,0,1,205,85.7a7.23,7.23,0,0,1-1.55,2.49A6.86,6.86,0,0,1,201,89.8a8.15,8.15,0,0,1-3.1.57,8,8,0,0,1-3.08-.57,6.86,6.86,0,0,1-2.39-1.61,7.23,7.23,0,0,1-1.55-2.49,9.41,9.41,0,0,1,0-6.34,7.1,7.1,0,0,1,1.55-2.48,6.91,6.91,0,0,1,2.39-1.63,8,8,0,0,1,3.08-.58,8.15,8.15,0,0,1,3.1.58,6.91,6.91,0,0,1,2.39,1.63A7.1,7.1,0,0,1,205,79.36,9,9,0,0,1,205.51,82.53Zm-2.14,0A8,8,0,0,0,203,80a5.31,5.31,0,0,0-1.1-1.9,4.73,4.73,0,0,0-1.71-1.2,5.87,5.87,0,0,0-2.26-.41,5.8,5.8,0,0,0-2.24.41,4.86,4.86,0,0,0-1.72,1.2,5.46,5.46,0,0,0-1.1,1.9,8.68,8.68,0,0,0,0,5.08A5.46,5.46,0,0,0,194,87a4.83,4.83,0,0,0,1.72,1.19,6,6,0,0,0,2.24.41,6.06,6.06,0,0,0,2.26-.41A4.71,4.71,0,0,0,201.89,87a5.31,5.31,0,0,0,1.1-1.9A8,8,0,0,0,203.37,82.53Z"/><path class="cls-1" d="M225.13,90.21h-1.61a.67.67,0,0,1-.45-.14.92.92,0,0,1-.26-.35L221.38,86h-6.9L213,89.72a.74.74,0,0,1-.25.34.7.7,0,0,1-.45.15h-1.61l6.14-15.36H219Zm-10.07-5.7h5.74l-2.42-6.25a13.33,13.33,0,0,1-.46-1.45c-.07.29-.15.56-.23.81s-.15.46-.22.65Z"/><path class="cls-1" d="M234.89,85.2c.08.19.15.38.22.57.08-.2.15-.39.23-.57s.17-.37.27-.55l5.2-9.45a.56.56,0,0,1,.29-.3,1.23,1.23,0,0,1,.43-.05h1.53V90.21h-1.82V78.92c0-.15,0-.31,0-.48l0-.53L236,87.52a.81.81,0,0,1-.75.48H235a.83.83,0,0,1-.75-.48l-5.38-9.64c0,.19,0,.37,0,.55s0,.34,0,.49V90.21h-1.82V74.85h1.53a1.23,1.23,0,0,1,.43.05.56.56,0,0,1,.29.3l5.31,9.46A3.36,3.36,0,0,1,234.89,85.2Z"/><path class="cls-1" d="M246.8,90.21V74.85h4.9a9.61,9.61,0,0,1,2.44.27,4.66,4.66,0,0,1,1.69.8,3.06,3.06,0,0,1,1,1.26,4.23,4.23,0,0,1,.32,1.68,3.37,3.37,0,0,1-.18,1.09,3.22,3.22,0,0,1-.53,1,3.9,3.9,0,0,1-.9.8,5,5,0,0,1-1.28.58,4.73,4.73,0,0,1,2.55,1.21,3.19,3.19,0,0,1,.85,2.32,4.32,4.32,0,0,1-.36,1.78,3.76,3.76,0,0,1-1,1.38,4.92,4.92,0,0,1-1.7.9,7.64,7.64,0,0,1-2.29.31Zm2.08-8.48h2.75a5.26,5.26,0,0,0,1.52-.19,3.07,3.07,0,0,0,1.07-.54,2.21,2.21,0,0,0,.63-.83,2.87,2.87,0,0,0,.2-1.07,2.33,2.33,0,0,0-.82-2,4.11,4.11,0,0,0-2.53-.63h-2.82Zm0,1.48v5.35h3.33a5.31,5.31,0,0,0,1.53-.2,3,3,0,0,0,1-.58,2.23,2.23,0,0,0,.6-.88,3.1,3.1,0,0,0,.2-1.12,2.32,2.32,0,0,0-.85-1.88,3.93,3.93,0,0,0-2.54-.69Z"/><path class="cls-1" d="M263.15,90.21h-2.08V74.85h2.08Z"/><path class="cls-1" d="M276.73,74.85v1.69h-7.38v5.1h6v1.63h-6v5.25h7.38v1.69h-9.47V74.85Z"/><path class="cls-1" d="M281.21,74.91a1.31,1.31,0,0,1,.31.29l8.9,11.58c0-.19,0-.37-.05-.54s0-.35,0-.51V74.85h1.83V90.21h-1.06a1,1,0,0,1-.41-.08,1.07,1.07,0,0,1-.32-.29l-8.9-11.57c0,.17,0,.35,0,.52s0,.33,0,.47V90.21h-1.82V74.85h1.07A1.07,1.07,0,0,1,281.21,74.91Z"/><path class="cls-1" d="M306.41,74.85v1.74h-5V90.21h-2.08V76.59h-5V74.85Z"/><path class="cls-1" d="M319.82,90.21h-1.61a.67.67,0,0,1-.45-.14.81.81,0,0,1-.25-.35L316.07,86h-6.9l-1.43,3.71a.84.84,0,0,1-.26.34.68.68,0,0,1-.45.15h-1.61l6.14-15.36h2.12Zm-10.07-5.7h5.74l-2.41-6.25a10,10,0,0,1-.46-1.45l-.23.81c-.08.24-.15.46-.22.65Z"/><path class="cls-1" d="M323.84,88.46h6.65v1.75h-8.73V74.85h2.08Z"/><path class="cls-2" d="M80.15,82.08A66.89,66.89,0,0,1,74.7,92l-.51.76v0l-.25.36,0,0-.24.35,0,0-.25.34,0,0c-.26.38-.53.76-.81,1.13v0l-.22.3-.06.08-.22.29L72,95.8l-.22.29-.07.09-.27.36v0l-.21.26-.08.11-.2.25-.09.12-.2.25-.1.12L70.3,98l-.23.29-.12.14-.08.1-.19.22,0,0-.17.21-.13.16-.24.28-.23.27-.14.17v0l-.26.3,0,0-.15.18-.16.18-.25.29-.06.07-.14.15-.18.2-.27.3,0,.06-.13.14-.19.21-.12.13,0,0-.27.3-.21.23-.11.11-.22.23-.1.11-.22.24-.18.18-.48.5-.08.08,0,.06-.46.46-.27.27-.2.2-.28.28,0,0L63,106l-.27.27-.49.46,0,0,0,0-.08.08-.4.37-.34.32-.5.46,0,0h0l0,0-.53.47-.11.1,0,0,0,0c-.42.38-.85.75-1.29,1.13l-.05,0-.06,0-.64.55-.08.06-.28.23-.21.18-.29.23-.57.47-.12.09-.25.2-.23.19-.29.23-1.3,1c-1-.08-2.09-.2-3.13-.35A99.15,99.15,0,0,0,72.57,90.64a69.7,69.7,0,0,0,5-8.64,9.12,9.12,0,0,0,2.56.08M62.49,113.41c-1.46.1-2.92.14-4.39.12a94.34,94.34,0,0,0,10.14-9.43l0,0,.07-.08.49-.53,0,0,.08-.09.21-.23.21-.24.08-.09.09-.1.19-.22.23-.26.06-.06.11-.13.17-.2.21-.25.19-.22.16-.19.23-.27.09-.11.51-.62.15-.17.13-.16.27-.34.16-.19.11-.14.24-.31,0,0,.17-.22.09-.12.18-.23,0,0,.25-.32.08-.11.18-.24h0l.25-.34.07-.09.19-.27.27-.35,0-.08.21-.28,0-.07.21-.29,0-.06.21-.29,0-.06.22-.31,0,0,.22-.32,0,0,.23-.33.18-.27.07-.1h0l.23-.35h0l.24-.36c5.68-8.59,9.49-18.06,10.27-27.73,0-.43.06-.81.08-1.14h0c0-.45,0-.82,0-1.13,0-2-2.45-1.6-2.52.06,0,.43,0,.79,0,1.08h0c0,.41-.05.77-.07,1.08a49.64,49.64,0,0,1-3.09,13.44,4.75,4.75,0,0,1-2.52.14,44.21,44.21,0,0,0,3.73-16.74c0-2.05.83-3.4,1.88-4A2.49,2.49,0,0,1,86,58.05a2.92,2.92,0,0,1,1.54.75c1.4,1.25,2.31,3.92,1.63,8.28a73.23,73.23,0,0,1-9.74,27.28A70.89,70.89,0,0,1,62.49,113.41Zm-9.69-4.72q-2.36,2-4.8,3.75c-.93-.19-1.85-.4-2.77-.64,1.59-1.15,3.14-2.35,4.67-3.62A13.1,13.1,0,0,0,52.8,108.69Zm27.44-11c.46-.69.91-1.4,1.35-2.12A76.11,76.11,0,0,0,91.68,67.31c.81-5.28-.46-8.67-2.36-10.37a5.19,5.19,0,0,0-2.85-1.32,5,5,0,0,0-3,.55c-1.85,1-3.28,3.12-3.31,6.23-.08,9.18-3.93,18.49-9.65,27a92.89,92.89,0,0,1-14.71,16.76,10.62,10.62,0,0,1-3.12-.32,104.79,104.79,0,0,0,10-10.26c6.7-7.89,11.87-16.42,13.9-23.81a46,46,0,0,0,1.5-10l.1-1.42c.33-4.3,2.31-7,4.77-8.08a6.91,6.91,0,0,1,3.26-.59,7.49,7.49,0,0,1,3.32,1c2.7,1.6,4.76,5,4.67,10.17a65.94,65.94,0,0,1-6.76,27,85.5,85.5,0,0,1-4.21,7.76A4.55,4.55,0,0,1,80.24,97.66ZM72,111.92q-2.53.63-5.1,1a71.87,71.87,0,0,0,11.7-12.82,7.48,7.48,0,0,0,2.87.17A81.45,81.45,0,0,1,72,111.92Zm8.86-3c-1.42.63-2.86,1.19-4.31,1.69A82.7,82.7,0,0,0,89.68,90.74a68.61,68.61,0,0,0,7-28c.11-6.12-2.45-10.21-5.8-12.19a9.76,9.76,0,0,0-4.41-1.37A9.59,9.59,0,0,0,82,50c-3.28,1.48-5.91,4.89-6.32,10.27l-.11,1.42a44.37,44.37,0,0,1-1.42,9.57c-1.93,7-6.9,15.2-13.36,22.81a98.62,98.62,0,0,1-18.52,16.9c-1.27-.41-2.52-.86-3.76-1.36A91.36,91.36,0,0,0,60.73,89.09c6.52-8.64,10.56-18,11-27.2C72.2,53.71,75.37,48.5,79.39,46a11.38,11.38,0,0,1,11.34-.43c3.89,2,7,6.34,7.72,12.79,1,9.53-.73,19.62-4.26,28.79A63.8,63.8,0,0,1,80.83,108.88Zm11.8-7.16q-1.87,1.5-3.93,2.85c-.7.46-1.42.91-2.14,1.34a69.1,69.1,0,0,0,10-18c3.67-9.52,5.5-20,4.43-29.94-.79-7.3-4.43-12.24-9-14.58a13.84,13.84,0,0,0-6.93-1.57,14.09,14.09,0,0,0-7,2.14c-4.7,2.91-8.39,8.83-8.88,17.95C68.8,70.56,65,79.45,58.73,87.7c-6.09,8.07-14.46,15.14-23.06,20.66-1.42-.67-2.83-1.4-4.2-2.2A76.44,76.44,0,0,0,48,93.45c1-1,2-2.07,2.9-3.13s1.82-2.15,2.67-3.26h0A60.08,60.08,0,0,0,64,66.39c.38-1.41.7-2.84,1-4.28s.43-2.87.54-4.31h0c.42-6.24,2.38-11.06,5.23-14.48a18,18,0,0,1,1.75-1.84,18.39,18.39,0,0,1,1.92-1.53h0a17.43,17.43,0,0,1,6-2.63c.41-.1.82-.17,1.24-.24s.84-.11,1.25-.14h0a18,18,0,0,1,6.48.67c.41.12.82.25,1.23.4s.8.32,1.2.5h0a19.54,19.54,0,0,1,9.29,9,21.52,21.52,0,0,1,1.17,2.67,25,25,0,0,1,.88,3l0,0v0h0A43.7,43.7,0,0,1,104,68.68c-.13,1.2-.29,2.42-.49,3.64s-.41,2.44-.66,3.65c-.16.74-.32,1.49-.5,2.23-1.66,7.07-3.77,13.59-6.43,18.58-.52,1-1.06,1.89-1.62,2.74A25.55,25.55,0,0,1,92.63,101.72ZM29,13.91A54.29,54.29,0,0,1,99.26,95.49a86.36,86.36,0,0,0,4.33-11.64c.26-.86.51-1.73.74-2.6s.45-1.73.65-2.57h0A73,73,0,0,0,107,62.18c0-1.17,0-2.33-.13-3.45s-.21-2.22-.38-3.28a30.58,30.58,0,0,0-.64-3,24.21,24.21,0,0,0-8-13.46,21.15,21.15,0,0,0-4.67-2.91h0a21,21,0,0,0-7.33-1.83c-.49,0-1,0-1.47,0s-1,0-1.46.07h0a20.41,20.41,0,0,0-7.29,2c-.45.22-.9.45-1.34.71s-.86.52-1.29.81l0,0h0a23,23,0,0,0-8.85,12.61,30,30,0,0,0-.84,3.51,37.78,37.78,0,0,0-.46,3.86h0A49.68,49.68,0,0,1,56.23,78.2c-.71,1.26-1.48,2.5-2.29,3.72s-1.66,2.42-2.56,3.59h0A68.26,68.26,0,0,1,35,100.37c-1.21.8-2.44,1.57-3.67,2.31-.94.56-1.88,1.1-2.83,1.61A54.3,54.3,0,0,1,29,13.91Z"/></svg>