<svg id="Capa_1" data-name="Capa 1" xmlns="http://www.w3.org/2000/svg" viewBox="0 0 709.02 64.83"><defs><style>.cls-1{fill:#585857;}</style></defs><title>pie ok</title><path class="cls-1" d="M194,18.94h-.68a.33.33,0,0,1-.21-.07.37.37,0,0,1-.1-.17L192.09,15h-5.71l-1.81,3.72a.4.4,0,0,1-.15.17.41.41,0,0,1-.22.07h-.69L189.88,6.2h.88Zm-7.28-4.62h5.23l-1.58-6.48a2.84,2.84,0,0,1-.08-.34c0-.13-.05-.26-.07-.4,0,0,0,.09-.07.17s-.07.15-.1.23-.07.15-.1.21l-.06.14Z"/><path class="cls-1" d="M201.46,12.31a3.55,3.55,0,0,1-.13.9,3.81,3.81,0,0,1-.3.74,4.81,4.81,0,0,1-.39.63c-.14.2-.28.39-.4.58a3.31,3.31,0,0,0-.29.56,1.63,1.63,0,0,0-.12.62,1.14,1.14,0,0,0,.11.49,2.51,2.51,0,0,0,.26.45c.11.14.22.29.35.44a4,4,0,0,1,.35.46,2.9,2.9,0,0,1,.26.53,1.87,1.87,0,0,1,.11.64,2.25,2.25,0,0,1-.29,1.09,3,3,0,0,1-.81.94,4.09,4.09,0,0,1-1.25.64,5,5,0,0,1-1.64.25,5.33,5.33,0,0,1-1.3-.15,3,3,0,0,1-1-.42,2,2,0,0,1-.67-.66,1.83,1.83,0,0,1-.23-.9,2,2,0,0,1,.34-1.15,2.78,2.78,0,0,1,.92-.84,4.58,4.58,0,0,1,1.35-.52,7.19,7.19,0,0,1,1.65-.18l.61,0,.62.07a2.43,2.43,0,0,1-.26-.44,1.47,1.47,0,0,1-.1-.53,2.1,2.1,0,0,1,.11-.64,3.3,3.3,0,0,1,.41-.78,3,3,0,0,1-1.67.52,3,3,0,0,1-1-.16,2.23,2.23,0,0,1-.76-.48,2.2,2.2,0,0,1-.49-.79,3,3,0,0,1-.19-1.07,3.43,3.43,0,0,1,.23-1.22,3.29,3.29,0,0,1,.63-1.07,3.19,3.19,0,0,1,1-.75,3.23,3.23,0,0,1,1.39-.28,3,3,0,0,1,.86.11,2.17,2.17,0,0,1,.72.34h2.34l0,.28a.29.29,0,0,1-.07.16.26.26,0,0,1-.18.09l-1.46.11a2.51,2.51,0,0,1,.25.63A2.83,2.83,0,0,1,201.46,12.31Zm-1,7.09a1.73,1.73,0,0,0-.15-.75,2.63,2.63,0,0,0-.35-.58v0c-.29-.05-.57-.08-.83-.1l-.77,0a6.44,6.44,0,0,0-1.55.17,3.54,3.54,0,0,0-1.09.45,2.08,2.08,0,0,0-.66.66,1.52,1.52,0,0,0-.22.79,1.31,1.31,0,0,0,.18.69,1.43,1.43,0,0,0,.5.51,2.82,2.82,0,0,0,.78.31,4.52,4.52,0,0,0,1,.1,4.24,4.24,0,0,0,1.27-.18,3.3,3.3,0,0,0,1-.51,2.37,2.37,0,0,0,.63-.72A1.84,1.84,0,0,0,200.49,19.4Zm-2.24-4.29a2.2,2.2,0,0,0,1-.24,2.58,2.58,0,0,0,1.24-1.53,3.14,3.14,0,0,0,.17-1,1.69,1.69,0,0,0-1.83-1.88,2.14,2.14,0,0,0-1,.23,2.25,2.25,0,0,0-.76.61,2.87,2.87,0,0,0-.47.86,3.14,3.14,0,0,0-.16,1,2,2,0,0,0,.48,1.45A1.79,1.79,0,0,0,198.25,15.11Z"/><path class="cls-1" d="M205.13,10l-.67,5.7a5.54,5.54,0,0,0-.06.78,2.39,2.39,0,0,0,.35,1.4,1.25,1.25,0,0,0,1.09.48,2.18,2.18,0,0,0,1-.25,4,4,0,0,0,1-.72,6.66,6.66,0,0,0,.9-1.14,9,9,0,0,0,.75-1.49l.58-4.76h.84l-1.08,9h-.39a.3.3,0,0,1-.25-.09.37.37,0,0,1-.08-.25l.27-2.54a7.79,7.79,0,0,1-.81,1.26,5.64,5.64,0,0,1-.94.95,4,4,0,0,1-1,.58,2.79,2.79,0,0,1-1,.2,1.75,1.75,0,0,1-1.49-.66,3,3,0,0,1-.5-1.88v-.18a2.86,2.86,0,0,1,0-.32c0-.16,0-.37.07-.64s.07-.63.12-1.1.12-1,.2-1.74.19-1.55.31-2.55Z"/><path class="cls-1" d="M218.13,11.08a.23.23,0,0,1-.2.12.35.35,0,0,1-.22-.11,3.56,3.56,0,0,0-.36-.25,2.58,2.58,0,0,0-.55-.25,2.53,2.53,0,0,0-.83-.11,2.49,2.49,0,0,0-.87.15,2.36,2.36,0,0,0-.71.41,2.08,2.08,0,0,0-.48.59,1.53,1.53,0,0,0-.17.72,1,1,0,0,0,.17.62,1.58,1.58,0,0,0,.45.44,3.47,3.47,0,0,0,.64.32l.73.26.74.31a3,3,0,0,1,.64.4,1.59,1.59,0,0,1,.45.57,1.83,1.83,0,0,1,.17.81,2.71,2.71,0,0,1-.23,1.12,3,3,0,0,1-.65,1,3.17,3.17,0,0,1-1,.67,3.4,3.4,0,0,1-1.34.25A3,3,0,0,1,212,18l.2-.3a.38.38,0,0,1,.11-.11.21.21,0,0,1,.14,0c.06,0,.13.05.22.15a3.32,3.32,0,0,0,.37.31,2.48,2.48,0,0,0,.61.32,2.82,2.82,0,0,0,1.9,0,2,2,0,0,0,.74-.48,2.2,2.2,0,0,0,.66-1.56,1.16,1.16,0,0,0-.18-.66,1.54,1.54,0,0,0-.45-.47,3.09,3.09,0,0,0-.63-.32l-.74-.27c-.25-.09-.49-.18-.73-.29a2.71,2.71,0,0,1-.64-.38,1.6,1.6,0,0,1-.45-.55,1.71,1.71,0,0,1-.17-.79,2.31,2.31,0,0,1,.22-1,2.77,2.77,0,0,1,.63-.86,2.87,2.87,0,0,1,1-.59A3.23,3.23,0,0,1,216,9.85a3.3,3.3,0,0,1,1.31.23,2.88,2.88,0,0,1,1,.7Z"/><path class="cls-1" d="M220.25,17.43a.66.66,0,0,1,0-.13,2.27,2.27,0,0,1,0-.24c0-.11,0-.25,0-.42s0-.39.07-.66L221,10.9h-1.18c-.12,0-.18-.06-.18-.17l0-.37,1.42-.11.59-3.2a.31.31,0,0,1,.08-.15.2.2,0,0,1,.15-.06h.42l-.43,3.42h2.6l-.08.64h-2.59l-.62,5c0,.25,0,.45-.07.6s0,.29,0,.39,0,.17,0,.22v.1a1.16,1.16,0,0,0,.27.85,1,1,0,0,0,.71.26,1.47,1.47,0,0,0,.53-.09l.4-.21.27-.21a.34.34,0,0,1,.17-.09.11.11,0,0,1,.08,0s0,0,0,.07l.16.37a2.75,2.75,0,0,1-.87.62,2.52,2.52,0,0,1-1,.23,1.59,1.59,0,0,1-1.16-.4A1.73,1.73,0,0,1,220.25,17.43Z"/><path class="cls-1" d="M227.6,10l-1.09,9h-.83l1.09-9Zm2-3.92-2.09,2.28a.43.43,0,0,1-.33.15h-.5l1.56-2.14a1,1,0,0,1,.22-.23.7.7,0,0,1,.32-.06Z"/><path class="cls-1" d="M229.54,18.94l1.08-9H231q.3,0,.3.33l-.26,2.59a7.93,7.93,0,0,1,.82-1.27,5.36,5.36,0,0,1,.94-1,3.75,3.75,0,0,1,1-.59,2.81,2.81,0,0,1,1.06-.2,1.8,1.8,0,0,1,1.5.65,3.09,3.09,0,0,1,.5,1.88v.19a2.79,2.79,0,0,1,0,.33c0,.15,0,.36-.07.63l-.12,1.11c-.06.46-.12,1-.2,1.74s-.19,1.55-.31,2.56h-.84l.67-5.73a5.56,5.56,0,0,0,.06-.79,2.38,2.38,0,0,0-.35-1.39,1.28,1.28,0,0,0-1.09-.47,2.26,2.26,0,0,0-1,.25,4.34,4.34,0,0,0-1,.73,6,6,0,0,0-.91,1.15,9.24,9.24,0,0,0-.75,1.51l-.55,4.74Z"/><path class="cls-1" d="M247.67,18.35a7.59,7.59,0,0,0,1.11-.07,5.59,5.59,0,0,0,.94-.2,7.67,7.67,0,0,0,.84-.32,8.06,8.06,0,0,0,.81-.44l.43-3.46h-2.22c-.13,0-.2-.06-.2-.17a.28.28,0,0,1,0-.08s0-.08,0-.15a1.89,1.89,0,0,1,0-.29h3.26l-.56,4.52a9.1,9.1,0,0,1-1,.59,7.15,7.15,0,0,1-1.06.44,10.38,10.38,0,0,1-1.19.27,9.75,9.75,0,0,1-1.37.09,5.13,5.13,0,0,1-2.07-.4,4.45,4.45,0,0,1-1.57-1.13,5.08,5.08,0,0,1-1-1.75,7,7,0,0,1-.35-2.26,9,9,0,0,1,.5-3.07,7,7,0,0,1,1.38-2.36,6.24,6.24,0,0,1,2.13-1.52,6.81,6.81,0,0,1,2.7-.53,7,7,0,0,1,1.27.1,5.17,5.17,0,0,1,1,.3,3.93,3.93,0,0,1,.85.49,4.54,4.54,0,0,1,.73.66l-.27.35a.32.32,0,0,1-.24.13.35.35,0,0,1-.14,0,1.44,1.44,0,0,1-.21-.15L252,7.67a4.54,4.54,0,0,0-.43-.29,5.37,5.37,0,0,0-.58-.27,5.87,5.87,0,0,0-.78-.2,6,6,0,0,0-1-.08,5.69,5.69,0,0,0-2.32.47,5.19,5.19,0,0,0-1.81,1.33,6.13,6.13,0,0,0-1.18,2.1,8.63,8.63,0,0,0-.42,2.78,6.33,6.33,0,0,0,.3,2,4.51,4.51,0,0,0,.84,1.53,3.63,3.63,0,0,0,1.33,1A4.17,4.17,0,0,0,247.67,18.35Z"/><path class="cls-1" d="M257.6,19.05a3.26,3.26,0,0,1-1.31-.25,2.82,2.82,0,0,1-1-.73,3.48,3.48,0,0,1-.65-1.15,5,5,0,0,1-.23-1.55,6.67,6.67,0,0,1,.33-2.09,5.7,5.7,0,0,1,.91-1.77,4.64,4.64,0,0,1,1.4-1.22,3.62,3.62,0,0,1,1.78-.45,3.26,3.26,0,0,1,1.31.25,2.85,2.85,0,0,1,1,.73,3.27,3.27,0,0,1,.65,1.16,4.91,4.91,0,0,1,.23,1.53,6.63,6.63,0,0,1-.33,2.09,6.17,6.17,0,0,1-.91,1.77,4.52,4.52,0,0,1-1.4,1.22A3.5,3.5,0,0,1,257.6,19.05Zm.07-.67A2.65,2.65,0,0,0,259.1,18a3.8,3.8,0,0,0,1.1-1.09,5.31,5.31,0,0,0,.71-1.56,6.74,6.74,0,0,0,.24-1.8,3.45,3.45,0,0,0-.63-2.22,2.16,2.16,0,0,0-1.78-.79,2.48,2.48,0,0,0-1,.19,2.91,2.91,0,0,0-.84.51,4.08,4.08,0,0,0-.7.79,4.73,4.73,0,0,0-.52,1,6,6,0,0,0-.33,1.14,7.12,7.12,0,0,0-.11,1.23,3.45,3.45,0,0,0,.63,2.22A2.16,2.16,0,0,0,257.67,18.38ZM261.11,6,259,8.32a.43.43,0,0,1-.33.15h-.5l1.56-2.14a.78.78,0,0,1,.23-.22.53.53,0,0,1,.31-.07Z"/><path class="cls-1" d="M263.5,18.94l1.08-9H265a.29.29,0,0,1,.32.33l-.26,2.5a6.71,6.71,0,0,1,1.62-2.16,3,3,0,0,1,1.94-.77,1.41,1.41,0,0,1,1.28.56,2.87,2.87,0,0,1,.38,1.63c0,.21,0,.43,0,.66a6.92,6.92,0,0,1,.77-1.26,5,5,0,0,1,.88-.89,3.75,3.75,0,0,1,.95-.53,2.7,2.7,0,0,1,1-.17,1.6,1.6,0,0,1,1.39.6,3.06,3.06,0,0,1,.42,1.74,1.48,1.48,0,0,1,0,.2c0,.07,0,.19,0,.35s0,.39-.07.67-.07.67-.13,1.15-.12,1.08-.2,1.79-.19,1.57-.31,2.59H274l.68-5.73c0-.19,0-.37.05-.53a3.86,3.86,0,0,0,0-.47,2.2,2.2,0,0,0-.28-1.23,1.07,1.07,0,0,0-1-.42,2.09,2.09,0,0,0-.89.2,3.33,3.33,0,0,0-.9.61,5.15,5.15,0,0,0-.82,1,7.16,7.16,0,0,0-.71,1.44l-.6,5.11h-.84l.67-5.73a8,8,0,0,0,.09-1.11,2,2,0,0,0-.27-1.15,1,1,0,0,0-.92-.39,2.57,2.57,0,0,0-1.9.93,8.11,8.11,0,0,0-1.52,2.65l-.57,4.8Z"/><path class="cls-1" d="M284.16,11.69a2.28,2.28,0,0,1-.1.7,1.8,1.8,0,0,1-.35.63,2.91,2.91,0,0,1-.69.57,5.53,5.53,0,0,1-1.1.48,13,13,0,0,1-1.61.4c-.63.11-1.36.22-2.2.31l0,.37c0,.13,0,.25,0,.37a3.27,3.27,0,0,0,.61,2.09,2.21,2.21,0,0,0,1.83.76,3.69,3.69,0,0,0,.86-.1,3.1,3.1,0,0,0,.69-.27,4.4,4.4,0,0,0,.53-.34l.41-.34.31-.27a.36.36,0,0,1,.24-.1.26.26,0,0,1,.19.09l.19.23a9.05,9.05,0,0,1-.86.81,4.65,4.65,0,0,1-.84.55,4.12,4.12,0,0,1-.89.32,4.34,4.34,0,0,1-1,.1,3.47,3.47,0,0,1-1.33-.24,2.65,2.65,0,0,1-1-.71,3,3,0,0,1-.61-1.1,5.17,5.17,0,0,1-.2-1.47,6.86,6.86,0,0,1,.13-1.35,6.34,6.34,0,0,1,1.06-2.5,5,5,0,0,1,.89-.95,4.28,4.28,0,0,1,1.12-.64,3.59,3.59,0,0,1,1.32-.23,3,3,0,0,1,1.11.18,2.23,2.23,0,0,1,.74.46,1.62,1.62,0,0,1,.41.59A1.59,1.59,0,0,1,284.16,11.69Zm-2.43-1.2a2.77,2.77,0,0,0-1.3.3,3.52,3.52,0,0,0-1,.82,5,5,0,0,0-.75,1.17,6.32,6.32,0,0,0-.44,1.4c.76-.08,1.42-.18,2-.29a13.54,13.54,0,0,0,1.4-.35,4.48,4.48,0,0,0,.94-.4,2.35,2.35,0,0,0,.55-.44,1.46,1.46,0,0,0,.27-.48,2.07,2.07,0,0,0,.06-.5,1.29,1.29,0,0,0-.08-.41,1,1,0,0,0-.29-.4,1.56,1.56,0,0,0-.51-.3A2.3,2.3,0,0,0,281.73,10.49Z"/><path class="cls-1" d="M292.07,10.34a.71.71,0,0,1-.16.34l-6,7.58h5l-.08.68h-6.07l0-.35a.41.41,0,0,1,0-.16.88.88,0,0,1,.12-.17l6.06-7.6h-5l.09-.68h6Z"/><path class="cls-1" d="M298,21.85a.4.4,0,0,1-.37.25H297l1.89-3.5L296.46,10h.67a.24.24,0,0,1,.18.06.35.35,0,0,1,.09.16l1.89,7a2.56,2.56,0,0,1,0,.27,2.48,2.48,0,0,0,0,.27c0-.09.07-.18.11-.27s.08-.18.13-.27l3.61-7a.26.26,0,0,1,.13-.14.3.3,0,0,1,.16,0h.65Z"/><path class="cls-1" d="M307.74,22.1,309.21,10h.39a.29.29,0,0,1,.32.33l-.29,2.82a7.53,7.53,0,0,1,.79-1.33,6.18,6.18,0,0,1,.92-1,4.43,4.43,0,0,1,1-.66,2.63,2.63,0,0,1,1.08-.23,2.26,2.26,0,0,1,1,.22,2.06,2.06,0,0,1,.74.64,3,3,0,0,1,.45,1,5.3,5.3,0,0,1,.15,1.31,7.47,7.47,0,0,1-.14,1.4,9.27,9.27,0,0,1-.41,1.39,7.48,7.48,0,0,1-.65,1.26,5.27,5.27,0,0,1-.87,1,4,4,0,0,1-1.07.7,3,3,0,0,1-1.22.25,2.8,2.8,0,0,1-1.35-.32,2.53,2.53,0,0,1-1-.95l-.53,4.32Zm5.42-11.56a2.13,2.13,0,0,0-1,.28,4,4,0,0,0-1,.81,7.3,7.3,0,0,0-.9,1.25,10.81,10.81,0,0,0-.75,1.64l-.31,2.57a2.24,2.24,0,0,0,1,1,2.65,2.65,0,0,0,1.2.29,2.48,2.48,0,0,0,1-.23,3.06,3.06,0,0,0,.9-.63,4.77,4.77,0,0,0,.71-.92,7,7,0,0,0,.84-2.31,6.23,6.23,0,0,0,.11-1.2,3.35,3.35,0,0,0-.45-1.88A1.53,1.53,0,0,0,313.16,10.54Z"/><path class="cls-1" d="M319.37,10l-1.08,9h-.84l1.09-9ZM320,6.89a.81.81,0,0,1-.06.31.81.81,0,0,1-.17.24.7.7,0,0,1-.25.17.58.58,0,0,1-.28.07.57.57,0,0,1-.29-.07.66.66,0,0,1-.24-.17,1,1,0,0,1-.17-.24.81.81,0,0,1-.06-.31.77.77,0,0,1,.06-.3,1.17,1.17,0,0,1,.17-.26.81.81,0,0,1,.24-.17.57.57,0,0,1,.29-.07.58.58,0,0,1,.28.07.78.78,0,0,1,.48.73Z"/><path class="cls-1" d="M328,11.69a2.63,2.63,0,0,1-.1.7,1.83,1.83,0,0,1-.36.63,2.66,2.66,0,0,1-.68.57,5.93,5.93,0,0,1-1.11.48,12.59,12.59,0,0,1-1.61.4c-.62.11-1.35.22-2.19.31,0,.12,0,.25,0,.37s0,.25,0,.37a3.21,3.21,0,0,0,.61,2.09,2.18,2.18,0,0,0,1.83.76,3.76,3.76,0,0,0,.86-.1,3.21,3.21,0,0,0,.68-.27,3.73,3.73,0,0,0,.53-.34c.16-.12.29-.24.41-.34l.31-.27a.4.4,0,0,1,.24-.1.23.23,0,0,1,.19.09l.2.23a9.05,9.05,0,0,1-.86.81,4.72,4.72,0,0,1-.85.55,4,4,0,0,1-.88.32,4.46,4.46,0,0,1-1,.1,3.47,3.47,0,0,1-1.33-.24,2.69,2.69,0,0,1-1-.71,3.15,3.15,0,0,1-.6-1.1,4.83,4.83,0,0,1-.21-1.47,6.88,6.88,0,0,1,.14-1.35,6.51,6.51,0,0,1,.4-1.32,5.94,5.94,0,0,1,.66-1.18,4.73,4.73,0,0,1,.89-.95,4.28,4.28,0,0,1,1.12-.64,3.59,3.59,0,0,1,1.32-.23,3,3,0,0,1,1.11.18,2.34,2.34,0,0,1,.74.46,1.62,1.62,0,0,1,.41.59A1.81,1.81,0,0,1,328,11.69Zm-2.43-1.2a2.81,2.81,0,0,0-1.31.3,3.61,3.61,0,0,0-1,.82,4.68,4.68,0,0,0-.75,1.17,6.32,6.32,0,0,0-.44,1.4c.76-.08,1.41-.18,2-.29a13.54,13.54,0,0,0,1.4-.35,4.37,4.37,0,0,0,.93-.4,2.43,2.43,0,0,0,.56-.44,1.27,1.27,0,0,0,.26-.48,1.68,1.68,0,0,0,.07-.5,1.09,1.09,0,0,0-.09-.41,1,1,0,0,0-.28-.4,1.52,1.52,0,0,0-.52-.3A2.21,2.21,0,0,0,325.58,10.49Z"/><path class="cls-1" d="M338.75,18.94a.33.33,0,0,1-.24-.08.35.35,0,0,1-.07-.2l.3-2.86a7.53,7.53,0,0,1-.79,1.33,6.18,6.18,0,0,1-.92,1,4,4,0,0,1-1,.66,2.56,2.56,0,0,1-1.08.23,2.19,2.19,0,0,1-1-.22,2,2,0,0,1-.74-.64,3,3,0,0,1-.45-1,5.3,5.3,0,0,1-.15-1.31,7.47,7.47,0,0,1,.14-1.4,8.23,8.23,0,0,1,.41-1.39,6.81,6.81,0,0,1,.65-1.26,4.85,4.85,0,0,1,.87-1,4.06,4.06,0,0,1,1.06-.7,3,3,0,0,1,1.23-.25,2.74,2.74,0,0,1,1.34.32,2.55,2.55,0,0,1,1,.95l.66-5.28h.83l-1.61,13.1Zm-3.54-.58a2.08,2.08,0,0,0,1-.28,4,4,0,0,0,1-.81,7.3,7.3,0,0,0,.9-1.25,10.69,10.69,0,0,0,.75-1.63l.31-2.59a2.3,2.3,0,0,0-1-1,2.69,2.69,0,0,0-1.2-.29,2.52,2.52,0,0,0-1.06.23,3.15,3.15,0,0,0-.89.63,5,5,0,0,0-.71.91,7,7,0,0,0-.52,1.11,6.94,6.94,0,0,0-.32,1.21,6.24,6.24,0,0,0-.12,1.19,3.38,3.38,0,0,0,.46,1.89A1.53,1.53,0,0,0,335.21,18.36Z"/><path class="cls-1" d="M348.72,11.69a2.28,2.28,0,0,1-.1.7,1.65,1.65,0,0,1-.35.63,2.84,2.84,0,0,1-.68.57,5.93,5.93,0,0,1-1.11.48,13,13,0,0,1-1.61.4c-.62.11-1.36.22-2.2.31,0,.12,0,.25,0,.37s0,.25,0,.37a3.21,3.21,0,0,0,.61,2.09,2.18,2.18,0,0,0,1.83.76,3.83,3.83,0,0,0,.86-.1,3.21,3.21,0,0,0,.68-.27,3.73,3.73,0,0,0,.53-.34l.41-.34.31-.27a.4.4,0,0,1,.24-.1.25.25,0,0,1,.19.09l.2.23a10.44,10.44,0,0,1-.86.81,4.72,4.72,0,0,1-.85.55,3.94,3.94,0,0,1-.89.32,4.34,4.34,0,0,1-1,.1,3.41,3.41,0,0,1-1.32-.24,2.61,2.61,0,0,1-1-.71A3,3,0,0,1,342,17a4.83,4.83,0,0,1-.21-1.47,6.86,6.86,0,0,1,.13-1.35,8.08,8.08,0,0,1,.4-1.32,6.48,6.48,0,0,1,.66-1.18,4.78,4.78,0,0,1,.9-.95,4.23,4.23,0,0,1,1.11-.64,3.61,3.61,0,0,1,1.33-.23,3,3,0,0,1,1.11.18,2.34,2.34,0,0,1,.74.46,1.75,1.75,0,0,1,.41.59A1.77,1.77,0,0,1,348.72,11.69Zm-2.43-1.2a2.8,2.8,0,0,0-1.3.3,3.36,3.36,0,0,0-1,.82,4.68,4.68,0,0,0-.75,1.17,6.93,6.93,0,0,0-.45,1.4c.76-.08,1.42-.18,2-.29a13.8,13.8,0,0,0,1.41-.35,4.61,4.61,0,0,0,.93-.4,2.16,2.16,0,0,0,.55-.44,1.46,1.46,0,0,0,.27-.48,2.08,2.08,0,0,0,.07-.5,1.16,1.16,0,0,0-.37-.81,1.62,1.62,0,0,0-.52-.3A2.26,2.26,0,0,0,346.29,10.49Z"/><path class="cls-1" d="M353.55,18.94l1.08-9H355a.29.29,0,0,1,.32.33l-.26,2.5a6.71,6.71,0,0,1,1.62-2.16,3,3,0,0,1,1.94-.77,1.41,1.41,0,0,1,1.28.56A2.87,2.87,0,0,1,360.3,12c0,.21,0,.43,0,.66a6.92,6.92,0,0,1,.77-1.26,5.3,5.3,0,0,1,.88-.89,3.75,3.75,0,0,1,.95-.53,2.7,2.7,0,0,1,1-.17,1.58,1.58,0,0,1,1.39.6,3.06,3.06,0,0,1,.42,1.74v.2c0,.07,0,.19,0,.35s0,.39-.07.67l-.12,1.15c-.06.48-.13,1.08-.21,1.79s-.19,1.57-.31,2.59h-.83l.67-5.73c0-.19,0-.37.05-.53a3.86,3.86,0,0,0,0-.47,2.2,2.2,0,0,0-.28-1.23,1.07,1.07,0,0,0-1-.42,2.09,2.09,0,0,0-.89.2,3.49,3.49,0,0,0-.9.61,5.15,5.15,0,0,0-.82,1,7.73,7.73,0,0,0-.71,1.44l-.6,5.11h-.84l.68-5.73a9.63,9.63,0,0,0,.08-1.11A2,2,0,0,0,359.3,11a1,1,0,0,0-.92-.39,2.59,2.59,0,0,0-1.9.93A8.29,8.29,0,0,0,355,14.14l-.57,4.8Z"/><path class="cls-1" d="M370.5,19.05a3.26,3.26,0,0,1-1.31-.25,2.82,2.82,0,0,1-1-.73,3.48,3.48,0,0,1-.65-1.15,5,5,0,0,1-.22-1.55,6.66,6.66,0,0,1,.32-2.09,5.92,5.92,0,0,1,.91-1.77,4.64,4.64,0,0,1,1.4-1.22,3.62,3.62,0,0,1,1.78-.45,3.26,3.26,0,0,1,1.31.25,2.85,2.85,0,0,1,1,.73,3.27,3.27,0,0,1,.65,1.16,4.91,4.91,0,0,1,.23,1.53,6.63,6.63,0,0,1-.33,2.09,6.17,6.17,0,0,1-.91,1.77,4.52,4.52,0,0,1-1.4,1.22A3.5,3.5,0,0,1,370.5,19.05Zm.07-.67A2.62,2.62,0,0,0,372,18a3.68,3.68,0,0,0,1.1-1.09,5.31,5.31,0,0,0,.71-1.56,6.74,6.74,0,0,0,.25-1.8,3.45,3.45,0,0,0-.64-2.22,2.16,2.16,0,0,0-1.78-.79,2.52,2.52,0,0,0-1,.19,3,3,0,0,0-.84.51,4.44,4.44,0,0,0-.7.79,4.73,4.73,0,0,0-.52,1,6.84,6.84,0,0,0-.33,1.14,7.12,7.12,0,0,0-.11,1.23,3.4,3.4,0,0,0,.64,2.22A2.13,2.13,0,0,0,370.57,18.38Z"/><path class="cls-1" d="M376.4,18.94l1.08-9h.39c.21,0,.31.11.31.33l-.26,2.59a7.9,7.9,0,0,1,.81-1.27,5.72,5.72,0,0,1,.94-1,3.8,3.8,0,0,1,1-.59,2.79,2.79,0,0,1,1.05-.2,1.77,1.77,0,0,1,1.5.65,3,3,0,0,1,.51,1.88,1.28,1.28,0,0,1,0,.19c0,.07,0,.18,0,.33s0,.36-.07.63-.07.64-.13,1.11-.12,1-.2,1.74-.18,1.55-.3,2.56h-.85l.68-5.73a7.45,7.45,0,0,0,0-.79,2.38,2.38,0,0,0-.34-1.39,1.29,1.29,0,0,0-1.1-.47,2.25,2.25,0,0,0-1,.25,4.18,4.18,0,0,0-1,.73,6.38,6.38,0,0,0-.9,1.15,9.24,9.24,0,0,0-.75,1.51l-.55,4.74Z"/><path class="cls-1" d="M386.35,17.43V17.3c0-.06,0-.14,0-.24s0-.25.05-.42,0-.39.07-.66l.62-5.08h-1.18c-.12,0-.18-.06-.18-.17l0-.37,1.41-.11.6-3.2a.31.31,0,0,1,.08-.15.2.2,0,0,1,.15-.06h.42L388,10.26h2.59l-.07.64H388l-.62,5c0,.25-.05.45-.07.6s0,.29-.05.39,0,.17,0,.22v.1a1.16,1.16,0,0,0,.27.85,1,1,0,0,0,.71.26,1.51,1.51,0,0,0,.53-.09l.4-.21.27-.21a.37.37,0,0,1,.16-.09s.07,0,.09,0l.05.07.16.37a2.75,2.75,0,0,1-.87.62,2.53,2.53,0,0,1-1,.23,1.58,1.58,0,0,1-1.15-.4A1.73,1.73,0,0,1,386.35,17.43Z"/><path class="cls-1" d="M398.24,11.69a2.63,2.63,0,0,1-.1.7,1.8,1.8,0,0,1-.35.63,3.06,3.06,0,0,1-.68.57,5.93,5.93,0,0,1-1.11.48,13,13,0,0,1-1.61.4c-.63.11-1.36.22-2.2.31l0,.37c0,.13,0,.25,0,.37a3.27,3.27,0,0,0,.61,2.09,2.21,2.21,0,0,0,1.83.76,3.69,3.69,0,0,0,.86-.1,3.1,3.1,0,0,0,.69-.27,3.73,3.73,0,0,0,.53-.34l.41-.34.31-.27a.36.36,0,0,1,.24-.1.26.26,0,0,1,.19.09l.19.23a9.05,9.05,0,0,1-.86.81,5,5,0,0,1-.84.55,4.12,4.12,0,0,1-.89.32,4.4,4.4,0,0,1-1,.1,3.47,3.47,0,0,1-1.33-.24,2.65,2.65,0,0,1-1-.71,3,3,0,0,1-.61-1.1,5.17,5.17,0,0,1-.2-1.47,6.86,6.86,0,0,1,.13-1.35,7.21,7.21,0,0,1,.4-1.32,6.48,6.48,0,0,1,.66-1.18,5,5,0,0,1,.89-.95,4.28,4.28,0,0,1,1.12-.64,3.59,3.59,0,0,1,1.32-.23A3,3,0,0,1,397,10a2.23,2.23,0,0,1,.74.46,1.62,1.62,0,0,1,.41.59A1.59,1.59,0,0,1,398.24,11.69Zm-2.43-1.2a2.77,2.77,0,0,0-1.3.3,3.52,3.52,0,0,0-1,.82,5.33,5.33,0,0,0-.75,1.17,6.32,6.32,0,0,0-.44,1.4c.76-.08,1.42-.18,2-.29a13.54,13.54,0,0,0,1.4-.35,4.48,4.48,0,0,0,.94-.4,2.35,2.35,0,0,0,.55-.44,1.46,1.46,0,0,0,.27-.48,2.07,2.07,0,0,0,.06-.5,1.29,1.29,0,0,0-.08-.41,1,1,0,0,0-.29-.4,1.56,1.56,0,0,0-.51-.3A2.3,2.3,0,0,0,395.81,10.49Z"/><path class="cls-1" d="M409,18.94a.26.26,0,0,1-.3-.28L409,15.8a8.16,8.16,0,0,1-.78,1.33,6.66,6.66,0,0,1-.92,1,4.43,4.43,0,0,1-1,.66,2.63,2.63,0,0,1-1.08.23,2.26,2.26,0,0,1-1-.22,2.06,2.06,0,0,1-.74-.64,3.41,3.41,0,0,1-.45-1,5.3,5.3,0,0,1-.15-1.31,6.74,6.74,0,0,1,.15-1.4,7.4,7.4,0,0,1,.41-1.39,6.78,6.78,0,0,1,.64-1.26,5.51,5.51,0,0,1,.87-1,4.24,4.24,0,0,1,1.06-.7,3.05,3.05,0,0,1,1.24-.25,2.79,2.79,0,0,1,1.34.32,2.62,2.62,0,0,1,1,.95l.65-5.28H411l-1.6,13.1Zm-3.53-.58a2.07,2.07,0,0,0,1-.28,4,4,0,0,0,1-.81,7.3,7.3,0,0,0,.9-1.25,10.68,10.68,0,0,0,.74-1.63l.32-2.59a2.26,2.26,0,0,0-1-1,2.64,2.64,0,0,0-1.19-.29,2.49,2.49,0,0,0-1.06.23,2.89,2.89,0,0,0-.89.63,4.27,4.27,0,0,0-.71.91,6.29,6.29,0,0,0-.53,1.11,6.94,6.94,0,0,0-.32,1.21,6.2,6.2,0,0,0-.11,1.19,3.3,3.3,0,0,0,.46,1.89A1.5,1.5,0,0,0,405.45,18.36Z"/><path class="cls-1" d="M419,11.69a2.63,2.63,0,0,1-.1.7,2,2,0,0,1-.35.63,2.91,2.91,0,0,1-.69.57,5.65,5.65,0,0,1-1.11.48,12.4,12.4,0,0,1-1.6.4c-.63.11-1.36.22-2.2.31l0,.37c0,.13,0,.25,0,.37a3.21,3.21,0,0,0,.61,2.09,2.19,2.19,0,0,0,1.83.76,3.69,3.69,0,0,0,.86-.1,3.31,3.31,0,0,0,.69-.27,4.4,4.4,0,0,0,.53-.34l.4-.34.32-.27a.36.36,0,0,1,.23-.1.23.23,0,0,1,.19.09l.2.23a9.05,9.05,0,0,1-.86.81,5,5,0,0,1-.84.55,4.12,4.12,0,0,1-.89.32,4.4,4.4,0,0,1-1,.1,3.47,3.47,0,0,1-1.33-.24,2.57,2.57,0,0,1-1-.71,3,3,0,0,1-.61-1.1,4.83,4.83,0,0,1-.21-1.47,6.88,6.88,0,0,1,.14-1.35,6.34,6.34,0,0,1,1.06-2.5,5,5,0,0,1,.89-.95,4.28,4.28,0,0,1,1.12-.64,3.59,3.59,0,0,1,1.32-.23,3,3,0,0,1,1.11.18,2.23,2.23,0,0,1,.74.46,1.62,1.62,0,0,1,.41.59A1.81,1.81,0,0,1,419,11.69Zm-2.43-1.2a2.77,2.77,0,0,0-1.3.3,3.52,3.52,0,0,0-1,.82,4.68,4.68,0,0,0-.75,1.17,6.32,6.32,0,0,0-.44,1.4c.76-.08,1.42-.18,2-.29a13.54,13.54,0,0,0,1.4-.35,4.16,4.16,0,0,0,.93-.4,2.23,2.23,0,0,0,.56-.44,1.27,1.27,0,0,0,.26-.48,1.68,1.68,0,0,0,.07-.5,1.09,1.09,0,0,0-.09-.41,1,1,0,0,0-.28-.4,1.52,1.52,0,0,0-.52-.3A2.21,2.21,0,0,0,416.53,10.49Z"/><path class="cls-1" d="M424,18.94l1.58-13.1h.84l-1.6,13.1Z"/><path class="cls-1" d="M433.87,18.94h-.42a.26.26,0,0,1-.3-.28l.3-2.82a9.57,9.57,0,0,1-.75,1.31,6.31,6.31,0,0,1-.88,1,4,4,0,0,1-1,.66,2.52,2.52,0,0,1-1.07.23,2.07,2.07,0,0,1-1-.22,1.89,1.89,0,0,1-.7-.62,3,3,0,0,1-.43-1,5.24,5.24,0,0,1-.14-1.3,6.05,6.05,0,0,1,.19-1.53,6.57,6.57,0,0,1,.57-1.43,6.69,6.69,0,0,1,.86-1.24,5.75,5.75,0,0,1,1.12-1,4.8,4.8,0,0,1,1.3-.65A4.29,4.29,0,0,1,433,9.86a5.21,5.21,0,0,1,1,.1,3.34,3.34,0,0,1,.93.33Zm-3.81-.6a1.92,1.92,0,0,0,1-.29,3.54,3.54,0,0,0,.95-.81,6.68,6.68,0,0,0,.85-1.27,10.79,10.79,0,0,0,.72-1.64l.45-3.65a3.55,3.55,0,0,0-1.15-.18,3.36,3.36,0,0,0-1.17.21,4.05,4.05,0,0,0-1.07.56,5.25,5.25,0,0,0-.92.85,5.72,5.72,0,0,0-.72,1.09,5.46,5.46,0,0,0-.47,1.24,5.55,5.55,0,0,0-.17,1.35,3.6,3.6,0,0,0,.41,1.87A1.38,1.38,0,0,0,430.06,18.34Z"/><path class="cls-1" d="M447.51,7.74a.27.27,0,0,1-.23.15.38.38,0,0,1-.26-.17,2.74,2.74,0,0,0-.42-.37,2.81,2.81,0,0,0-1.73-.55,3.09,3.09,0,0,0-1.22.23,2.59,2.59,0,0,0-1.48,1.49A2.8,2.8,0,0,0,442,9.6a1.78,1.78,0,0,0,.22.93,2.09,2.09,0,0,0,.59.63,4.13,4.13,0,0,0,.83.46c.31.13.63.26,1,.38s.64.26.95.41a3.36,3.36,0,0,1,.83.53,2.51,2.51,0,0,1,.59.77,2.45,2.45,0,0,1,.22,1.1,4.56,4.56,0,0,1-.3,1.65,3.91,3.91,0,0,1-.85,1.36,4,4,0,0,1-1.34.92,4.4,4.4,0,0,1-1.77.34,3.73,3.73,0,0,1-3.28-1.67l.3-.38a.33.33,0,0,1,.25-.13.3.3,0,0,1,.18.11l.26.27c.09.1.21.21.35.34a2.35,2.35,0,0,0,.49.34,3.22,3.22,0,0,0,.67.27,3.33,3.33,0,0,0,.88.1,3.52,3.52,0,0,0,1.37-.25,3.09,3.09,0,0,0,1.05-.71,3.28,3.28,0,0,0,.66-1.06,3.72,3.72,0,0,0,.23-1.31,1.78,1.78,0,0,0-.23-.93,2,2,0,0,0-.59-.63,3.44,3.44,0,0,0-.83-.44l-1-.36c-.32-.12-.64-.26-.95-.4a3.13,3.13,0,0,1-.83-.54,2.44,2.44,0,0,1-.59-.78,2.76,2.76,0,0,1-.22-1.14,4,4,0,0,1,.26-1.4,3.76,3.76,0,0,1,.75-1.19,3.62,3.62,0,0,1,1.21-.83,4.11,4.11,0,0,1,1.62-.3,3.57,3.57,0,0,1,1.61.34,3.4,3.4,0,0,1,1.2,1Z"/><path class="cls-1" d="M450.93,10l-1.09,9H449l1.09-9Zm.66-3.09a.81.81,0,0,1-.06.31,1,1,0,0,1-.17.24.79.79,0,0,1-.25.17.58.58,0,0,1-.28.07.57.57,0,0,1-.29-.07.66.66,0,0,1-.24-.17.81.81,0,0,1-.17-.24.81.81,0,0,1-.06-.31.77.77,0,0,1,.06-.3.9.9,0,0,1,.17-.26.81.81,0,0,1,.24-.17.57.57,0,0,1,.29-.07.58.58,0,0,1,.28.07,1,1,0,0,1,.25.17,1.1,1.1,0,0,1,.17.25A.85.85,0,0,1,451.59,6.89Z"/><path class="cls-1" d="M459.56,11.69a2.28,2.28,0,0,1-.1.7,1.65,1.65,0,0,1-.35.63,2.66,2.66,0,0,1-.68.57,5.93,5.93,0,0,1-1.11.48,12.59,12.59,0,0,1-1.61.4c-.62.11-1.35.22-2.19.31a2.31,2.31,0,0,0,0,.37c0,.13,0,.25,0,.37a3.21,3.21,0,0,0,.61,2.09,2.18,2.18,0,0,0,1.83.76,3.76,3.76,0,0,0,.86-.1,3.21,3.21,0,0,0,.68-.27,3.73,3.73,0,0,0,.53-.34c.16-.12.29-.24.41-.34l.31-.27A.4.4,0,0,1,459,17a.25.25,0,0,1,.19.09l.2.23a10.44,10.44,0,0,1-.86.81,4.72,4.72,0,0,1-.85.55,4,4,0,0,1-.88.32,4.46,4.46,0,0,1-1,.1,3.47,3.47,0,0,1-1.33-.24,2.69,2.69,0,0,1-1-.71,3.15,3.15,0,0,1-.6-1.1,4.83,4.83,0,0,1-.21-1.47,6.88,6.88,0,0,1,.14-1.35,6.51,6.51,0,0,1,.4-1.32,5.9,5.9,0,0,1,.65-1.18,5.09,5.09,0,0,1,.9-.95,4.28,4.28,0,0,1,1.12-.64,3.52,3.52,0,0,1,1.32-.23,3,3,0,0,1,1.11.18,2.34,2.34,0,0,1,.74.46,1.75,1.75,0,0,1,.41.59A1.77,1.77,0,0,1,459.56,11.69Zm-2.43-1.2a2.8,2.8,0,0,0-1.3.3,3.48,3.48,0,0,0-1,.82,4.68,4.68,0,0,0-.75,1.17,6.93,6.93,0,0,0-.45,1.4c.77-.08,1.42-.18,2-.29a13.54,13.54,0,0,0,1.4-.35,4.61,4.61,0,0,0,.93-.4,2.16,2.16,0,0,0,.55-.44,1.17,1.17,0,0,0,.27-.48,2.08,2.08,0,0,0,.07-.5,1.09,1.09,0,0,0-.09-.41,1,1,0,0,0-.28-.4,1.62,1.62,0,0,0-.52-.3A2.23,2.23,0,0,0,457.13,10.49Z"/><path class="cls-1" d="M460.92,18.94,462,10h.39c.21,0,.31.11.31.33l-.26,2.66a7.13,7.13,0,0,1,1.4-2.26,2.37,2.37,0,0,1,1.68-.8,2.1,2.1,0,0,1,.76.15l-.16.81a2,2,0,0,0-.77-.16,2.22,2.22,0,0,0-1.73,1,8.42,8.42,0,0,0-1.32,2.74l-.54,4.57Z"/><path class="cls-1" d="M467,18.94l1.08-9h.39c.21,0,.31.11.31.33l-.26,2.66a7,7,0,0,1,1.4-2.26,2.36,2.36,0,0,1,1.68-.8,2.1,2.1,0,0,1,.76.15l-.16.81a2,2,0,0,0-.77-.16,2.22,2.22,0,0,0-1.73,1,8,8,0,0,0-1.32,2.74l-.54,4.57Z"/><path class="cls-1" d="M478.71,18.94h-.42a.33.33,0,0,1-.24-.08.34.34,0,0,1-.06-.2l.29-2.82a8.63,8.63,0,0,1-.75,1.31,5.81,5.81,0,0,1-.87,1,3.84,3.84,0,0,1-1,.66,2.44,2.44,0,0,1-1.06.23,2.07,2.07,0,0,1-1-.22,1.91,1.91,0,0,1-.71-.62,3,3,0,0,1-.42-1,5.22,5.22,0,0,1-.15-1.3,6.06,6.06,0,0,1,.2-1.53,6.54,6.54,0,0,1,.56-1.43,7.26,7.26,0,0,1,.87-1.24,6,6,0,0,1,1.11-1,5.1,5.1,0,0,1,1.3-.65,4.38,4.38,0,0,1,1.43-.24,5.24,5.24,0,0,1,1,.1,3.46,3.46,0,0,1,.93.33Zm-3.81-.6a1.92,1.92,0,0,0,1-.29,3.54,3.54,0,0,0,.95-.81,6.68,6.68,0,0,0,.85-1.27,10.79,10.79,0,0,0,.72-1.64l.45-3.65a3.6,3.6,0,0,0-1.15-.18,3.28,3.28,0,0,0-1.17.21,4.05,4.05,0,0,0-1.07.56,5.25,5.25,0,0,0-.92.85,5.72,5.72,0,0,0-.72,1.09,6,6,0,0,0-.48,1.24,5.54,5.54,0,0,0-.16,1.35,3.51,3.51,0,0,0,.41,1.87A1.38,1.38,0,0,0,474.9,18.34Z"/><path class="cls-1" d="M490.22,18.32a5.54,5.54,0,0,0,2.1-.4,3.8,3.8,0,0,0,.7-.36,3.6,3.6,0,0,0,.5-.36l.34-.28c.09-.07.15-.11.2-.11a.14.14,0,0,1,.12.06l.31.37a6,6,0,0,1-1.9,1.34,5.83,5.83,0,0,1-1.16.37,6.44,6.44,0,0,1-1.35.13,4.7,4.7,0,0,1-2-.4,4.09,4.09,0,0,1-1.51-1.12,5.21,5.21,0,0,1-1-1.75,7.25,7.25,0,0,1-.34-2.26,8.7,8.7,0,0,1,.51-3,7.13,7.13,0,0,1,1.39-2.37,6.15,6.15,0,0,1,4.68-2.08,6,6,0,0,1,1.18.1,4.5,4.5,0,0,1,1,.3,3.47,3.47,0,0,1,.8.5,5.55,5.55,0,0,1,.71.67l-.28.36a.34.34,0,0,1-.24.11c-.07,0-.17-.07-.29-.2a3.38,3.38,0,0,0-.54-.43,3.86,3.86,0,0,0-.91-.44,4.43,4.43,0,0,0-1.43-.2,5.27,5.27,0,0,0-4,1.8,6.5,6.5,0,0,0-1.19,2.1,8.24,8.24,0,0,0-.43,2.76,6.25,6.25,0,0,0,.29,2,4.52,4.52,0,0,0,.83,1.52,3.51,3.51,0,0,0,1.27,1A4,4,0,0,0,490.22,18.32Z"/><path class="cls-1" d="M496.43,18.94,498,5.84h.85L498,12.68a6.59,6.59,0,0,1,.8-1.2,5.43,5.43,0,0,1,.91-.89,4.3,4.3,0,0,1,1-.56,3,3,0,0,1,1-.18,1.77,1.77,0,0,1,1.5.64,3,3,0,0,1,.5,1.87v.16a2.67,2.67,0,0,1,0,.32c0,.15,0,.37-.07.65l-.12,1.12c-.06.47-.12,1.06-.2,1.77s-.19,1.55-.3,2.56h-.85l.67-5.73a5.32,5.32,0,0,0,.06-.78,2.39,2.39,0,0,0-.35-1.4,1.27,1.27,0,0,0-1.09-.47,2.25,2.25,0,0,0-1,.24,4,4,0,0,0-1,.72,6.18,6.18,0,0,0-.89,1.12,8,8,0,0,0-.75,1.46l-.59,4.84Z"/><path class="cls-1" d="M507.78,10l-1.08,9h-.84L507,10Zm.66-3.09a.81.81,0,0,1-.06.31.81.81,0,0,1-.17.24.7.7,0,0,1-.25.17.58.58,0,0,1-.28.07.59.59,0,0,1-.29-.07.66.66,0,0,1-.24-.17A1,1,0,0,1,507,7.2a.81.81,0,0,1-.06-.31.77.77,0,0,1,.06-.3,1.17,1.17,0,0,1,.17-.26.81.81,0,0,1,.24-.17.59.59,0,0,1,.29-.07.58.58,0,0,1,.28.07.78.78,0,0,1,.48.73Z"/><path class="cls-1" d="M515.14,18.17a4.18,4.18,0,0,1-.83.54,3.29,3.29,0,0,1-.84.27,5.14,5.14,0,0,1-.9.07,3.27,3.27,0,0,1-1.34-.26,2.68,2.68,0,0,1-1-.74,3.39,3.39,0,0,1-.57-1.14,5.38,5.38,0,0,1-.19-1.43,6.76,6.76,0,0,1,.15-1.41,6.67,6.67,0,0,1,.43-1.33,6,6,0,0,1,.67-1.16,5.19,5.19,0,0,1,.89-.92,4.08,4.08,0,0,1,1.08-.6A3.41,3.41,0,0,1,514,9.84a3.77,3.77,0,0,1,.79.08,2.74,2.74,0,0,1,.66.25,2.84,2.84,0,0,1,.54.39,4.32,4.32,0,0,1,.45.5l-.26.3a.24.24,0,0,1-.19.1.34.34,0,0,1-.21-.15,3.11,3.11,0,0,0-.36-.31,2.27,2.27,0,0,0-1.45-.45,2.64,2.64,0,0,0-1.41.4A3.89,3.89,0,0,0,511.41,12a5.79,5.79,0,0,0-.76,1.58,6.39,6.39,0,0,0-.27,1.86,4.17,4.17,0,0,0,.14,1.15,2.45,2.45,0,0,0,.43.92,1.93,1.93,0,0,0,.73.6,2.29,2.29,0,0,0,1.05.22,3.67,3.67,0,0,0,.85-.1,3.47,3.47,0,0,0,.67-.26,2.92,2.92,0,0,0,.52-.34l.39-.34.29-.25a.35.35,0,0,1,.22-.11.26.26,0,0,1,.19.09l.19.24A8,8,0,0,1,515.14,18.17Z"/><path class="cls-1" d="M523.52,18.94h-.42a.33.33,0,0,1-.24-.08.34.34,0,0,1-.06-.2l.29-2.82a8.63,8.63,0,0,1-.75,1.31,5.81,5.81,0,0,1-.87,1,3.84,3.84,0,0,1-1,.66,2.44,2.44,0,0,1-1.06.23,2.07,2.07,0,0,1-1-.22,1.91,1.91,0,0,1-.71-.62,3,3,0,0,1-.42-1,5.22,5.22,0,0,1-.15-1.3,6.06,6.06,0,0,1,.2-1.53,6.54,6.54,0,0,1,.56-1.43,7.26,7.26,0,0,1,.87-1.24,6,6,0,0,1,1.11-1,5.1,5.1,0,0,1,1.3-.65,4.38,4.38,0,0,1,1.43-.24,5.24,5.24,0,0,1,1,.1,3.46,3.46,0,0,1,.93.33Zm-3.81-.6a1.92,1.92,0,0,0,1-.29,3.54,3.54,0,0,0,.95-.81,6.68,6.68,0,0,0,.85-1.27,10.79,10.79,0,0,0,.72-1.64l.45-3.65a3.6,3.6,0,0,0-1.15-.18,3.28,3.28,0,0,0-1.17.21,4.05,4.05,0,0,0-1.07.56,5.25,5.25,0,0,0-.92.85,5.72,5.72,0,0,0-.72,1.09,5.46,5.46,0,0,0-.47,1.24A5.1,5.1,0,0,0,518,15.8a3.51,3.51,0,0,0,.41,1.87A1.38,1.38,0,0,0,519.71,18.34Z"/><path class="cls-1" d="M246.36,34.77l-.71,5.77h-.89l1.56-12.74h3a4.42,4.42,0,0,1,2.76.73,2.57,2.57,0,0,1,.91,2.13,4.33,4.33,0,0,1-.26,1.52,3.9,3.9,0,0,1-.77,1.21,4.12,4.12,0,0,1-1.19.84,5.36,5.36,0,0,1-1.55.43,1.2,1.2,0,0,1,.32.35l3.32,5.53h-.76a.44.44,0,0,1-.41-.23l-3.07-5.18a.73.73,0,0,0-.27-.28,1,1,0,0,0-.49-.08Zm.78-6.26-.69,5.59h2a4.93,4.93,0,0,0,1.54-.23,3.26,3.26,0,0,0,1.15-.67,2.84,2.84,0,0,0,.73-1,3.51,3.51,0,0,0,.25-1.36,2,2,0,0,0-.73-1.72,3.38,3.38,0,0,0-2.13-.57Z"/><path class="cls-1" d="M256.8,31.58l-1.08,9h-.84l1.09-9Zm.66-3.09a.81.81,0,0,1-.06.31.81.81,0,0,1-.17.24.7.7,0,0,1-.25.17.58.58,0,0,1-.28.07.57.57,0,0,1-.29-.07.66.66,0,0,1-.24-.17,1,1,0,0,1-.17-.24.81.81,0,0,1-.06-.31.77.77,0,0,1,.06-.3,1.17,1.17,0,0,1,.17-.26.81.81,0,0,1,.24-.17.57.57,0,0,1,.29-.07.58.58,0,0,1,.28.07.78.78,0,0,1,.48.73Z"/><path class="cls-1" d="M258.64,31.58h.66a.24.24,0,0,1,.19.07.29.29,0,0,1,.09.15l1.82,7.06a3.12,3.12,0,0,1,.06.41c0,.13,0,.26,0,.4a7.73,7.73,0,0,1,.31-.81l3.57-7.06a.34.34,0,0,1,.13-.16.33.33,0,0,1,.19-.06h.64l-4.6,9H261Z"/><path class="cls-1" d="M272.75,40.54h-.41a.3.3,0,0,1-.24-.08.29.29,0,0,1-.07-.2l.3-2.82a9.57,9.57,0,0,1-.75,1.31,6.31,6.31,0,0,1-.88,1,4,4,0,0,1-1,.66,2.47,2.47,0,0,1-1.06.23,2.07,2.07,0,0,1-1-.22,1.84,1.84,0,0,1-.71-.62,3,3,0,0,1-.43-1,5.76,5.76,0,0,1-.14-1.3,5.64,5.64,0,0,1,.2-1.53,6.54,6.54,0,0,1,.56-1.43,6.29,6.29,0,0,1,.87-1.24,5.42,5.42,0,0,1,1.11-1,5.27,5.27,0,0,1,1.3-.65,4.34,4.34,0,0,1,1.43-.24,5.32,5.32,0,0,1,1,.1,3.28,3.28,0,0,1,.92.33Zm-3.81-.6a2,2,0,0,0,1-.29,3.7,3.7,0,0,0,1-.81,7.18,7.18,0,0,0,.85-1.27,11.89,11.89,0,0,0,.71-1.64l.45-3.65a3.55,3.55,0,0,0-1.15-.18,3.36,3.36,0,0,0-1.17.21,4.21,4.21,0,0,0-1.07.56,4.86,4.86,0,0,0-.91.85,6.28,6.28,0,0,0-.73,1.09,6,6,0,0,0-.47,1.24,5.55,5.55,0,0,0-.17,1.35,3.6,3.6,0,0,0,.41,1.87A1.38,1.38,0,0,0,268.94,39.94Z"/><path class="cls-1" d="M281.44,40.54a.3.3,0,0,1-.24-.08.29.29,0,0,1-.07-.2l.3-2.86a9,9,0,0,1-.79,1.33,6.66,6.66,0,0,1-.92,1,4.43,4.43,0,0,1-1,.66,2.56,2.56,0,0,1-1.08.23,2.26,2.26,0,0,1-1-.22,2,2,0,0,1-.73-.64,3,3,0,0,1-.45-1,4.85,4.85,0,0,1-.16-1.31,6.74,6.74,0,0,1,.15-1.4,7.4,7.4,0,0,1,.41-1.39,6.25,6.25,0,0,1,.65-1.26,5.41,5.41,0,0,1,.86-1,4.11,4.11,0,0,1,1.07-.7,3,3,0,0,1,1.23-.25,2.79,2.79,0,0,1,1.34.32,2.58,2.58,0,0,1,1,1l.66-5.29h.82l-1.6,13.1ZM277.9,40a2.13,2.13,0,0,0,1-.28,4,4,0,0,0,1-.81,6.93,6.93,0,0,0,.9-1.25,9.79,9.79,0,0,0,.74-1.63l.32-2.59a2.3,2.3,0,0,0-1-1,2.72,2.72,0,0,0-1.2-.29,2.52,2.52,0,0,0-1.06.23,3,3,0,0,0-.89.63,4.41,4.41,0,0,0-.71.92,5.84,5.84,0,0,0-.52,1.1,8,8,0,0,0-.33,1.21,7.12,7.12,0,0,0-.11,1.19,3.3,3.3,0,0,0,.46,1.89A1.5,1.5,0,0,0,277.9,40Z"/><path class="cls-1" d="M290.76,40.54h-.41a.3.3,0,0,1-.24-.08.29.29,0,0,1-.07-.2l.3-2.82a9.57,9.57,0,0,1-.75,1.31,6.31,6.31,0,0,1-.88,1,4,4,0,0,1-1,.66,2.48,2.48,0,0,1-1.07.23,2.05,2.05,0,0,1-1-.22,1.84,1.84,0,0,1-.71-.62,3,3,0,0,1-.43-1,5.76,5.76,0,0,1-.14-1.3,5.64,5.64,0,0,1,.2-1.53,6.07,6.07,0,0,1,.56-1.43,6.29,6.29,0,0,1,.87-1.24,5.42,5.42,0,0,1,1.11-1,5.27,5.27,0,0,1,1.3-.65,4.34,4.34,0,0,1,1.43-.24,5.32,5.32,0,0,1,1,.1,3.28,3.28,0,0,1,.92.33Zm-3.81-.6a2,2,0,0,0,1-.29,3.7,3.7,0,0,0,.95-.81,7.18,7.18,0,0,0,.85-1.27,11.89,11.89,0,0,0,.71-1.64l.45-3.65a3.55,3.55,0,0,0-1.15-.18,3.36,3.36,0,0,0-1.17.21,4.21,4.21,0,0,0-1.07.56,4.86,4.86,0,0,0-.91.85,6.28,6.28,0,0,0-.73,1.09,6,6,0,0,0-.47,1.24,5.55,5.55,0,0,0-.17,1.35,3.6,3.6,0,0,0,.41,1.87A1.38,1.38,0,0,0,287,39.94Z"/><path class="cls-1" d="M293.43,31.58h.66a.26.26,0,0,1,.2.07.28.28,0,0,1,.08.15l1.83,7.06.06.41c0,.13,0,.26,0,.4a7.53,7.53,0,0,1,.3-.81l3.58-7.06a.34.34,0,0,1,.13-.16.28.28,0,0,1,.18-.06h.64l-4.59,9h-.7Z"/><path class="cls-1" d="M303.82,31.58l-1.09,9h-.84l1.09-9Zm.66-3.09a.67.67,0,0,1-.07.31.87.87,0,0,1-.41.41.62.62,0,0,1-.29.07.59.59,0,0,1-.29-.07.63.63,0,0,1-.23-.17.81.81,0,0,1-.17-.24.81.81,0,0,1-.06-.31.77.77,0,0,1,.06-.3.9.9,0,0,1,.17-.26.76.76,0,0,1,.23-.17.59.59,0,0,1,.29-.07.62.62,0,0,1,.29.07.81.81,0,0,1,.24.17.83.83,0,0,1,.24.56Z"/><path class="cls-1" d="M311.8,40.54h-.41a.33.33,0,0,1-.24-.08.35.35,0,0,1-.07-.2l.3-2.82a9.57,9.57,0,0,1-.75,1.31,6.28,6.28,0,0,1-.87,1,4,4,0,0,1-1,.66,2.47,2.47,0,0,1-1.06.23,2.07,2.07,0,0,1-1-.22,1.91,1.91,0,0,1-.71-.62,3,3,0,0,1-.43-1,5.76,5.76,0,0,1-.14-1.3,5.64,5.64,0,0,1,.2-1.53,6.54,6.54,0,0,1,.56-1.43,6.29,6.29,0,0,1,.87-1.24,5.7,5.7,0,0,1,1.11-1,5.27,5.27,0,0,1,1.3-.65,4.34,4.34,0,0,1,1.43-.24,5.32,5.32,0,0,1,1,.1,3.46,3.46,0,0,1,.93.33Zm-3.8-.6a1.92,1.92,0,0,0,1-.29,3.7,3.7,0,0,0,.95-.81,7.18,7.18,0,0,0,.85-1.27,10.79,10.79,0,0,0,.71-1.64l.45-3.65a3.51,3.51,0,0,0-1.15-.18,3.36,3.36,0,0,0-1.17.21,4,4,0,0,0-1.06.56,4.92,4.92,0,0,0-.92.85,6.28,6.28,0,0,0-.73,1.09,6,6,0,0,0-.47,1.24,5.55,5.55,0,0,0-.17,1.35,3.6,3.6,0,0,0,.41,1.87A1.4,1.4,0,0,0,308,39.94Z"/><path class="cls-1" d="M317.77,39.77a.79.79,0,0,1,1.38-.5,1.1,1.1,0,0,1,.21.7,3.2,3.2,0,0,1-.09.75,3.39,3.39,0,0,1-.28.75,4,4,0,0,1-.43.71,4.2,4.2,0,0,1-.56.63l-.14-.13a.21.21,0,0,1-.06-.08v-.08a.44.44,0,0,1,.14-.24c.09-.11.19-.25.31-.42a5.4,5.4,0,0,0,.34-.59,2.56,2.56,0,0,0,.21-.73l-.13,0h-.14a.71.71,0,0,1-.55-.22A.81.81,0,0,1,317.77,39.77Z"/><path class="cls-1" d="M332.47,29.34a.27.27,0,0,1-.23.15.38.38,0,0,1-.26-.17,2.74,2.74,0,0,0-.42-.37,2.81,2.81,0,0,0-1.73-.55,3.12,3.12,0,0,0-1.22.23,2.59,2.59,0,0,0-1.48,1.49,3,3,0,0,0-.2,1.08,1.78,1.78,0,0,0,.23.93,2.11,2.11,0,0,0,.59.64,3.77,3.77,0,0,0,.82.45c.31.13.63.26,1,.38s.64.26,1,.41a3.36,3.36,0,0,1,.83.53,2.51,2.51,0,0,1,.59.77,2.45,2.45,0,0,1,.22,1.1,4.77,4.77,0,0,1-.29,1.65,3.94,3.94,0,0,1-2.2,2.28,4.4,4.4,0,0,1-1.77.34,4,4,0,0,1-1.95-.44A4.18,4.18,0,0,1,324.58,39l.3-.39a.34.34,0,0,1,.25-.13.32.32,0,0,1,.19.11l.25.27c.1.1.21.22.35.34a2.35,2.35,0,0,0,.49.34,3.22,3.22,0,0,0,.67.27,3.36,3.36,0,0,0,.89.1,3.47,3.47,0,0,0,1.36-.25,3.09,3.09,0,0,0,1.05-.71,3,3,0,0,0,.66-1.06,3.72,3.72,0,0,0,.23-1.31,1.78,1.78,0,0,0-.23-.93,2,2,0,0,0-.59-.63,3.57,3.57,0,0,0-.82-.44l-.95-.36a10.2,10.2,0,0,1-1-.4,3.36,3.36,0,0,1-.83-.53,2.6,2.6,0,0,1-.59-.79,2.76,2.76,0,0,1-.22-1.14,3.75,3.75,0,0,1,.27-1.4,3.44,3.44,0,0,1,.75-1.19,3.48,3.48,0,0,1,1.2-.83,4.11,4.11,0,0,1,1.62-.3,3.57,3.57,0,0,1,1.61.34,3.4,3.4,0,0,1,1.2,1Z"/><path class="cls-1" d="M339.78,40.54h-.41a.31.31,0,0,1-.24-.08.35.35,0,0,1-.07-.2l.3-2.82a9.57,9.57,0,0,1-.75,1.31,6.28,6.28,0,0,1-.87,1,4,4,0,0,1-1,.66,2.47,2.47,0,0,1-1.06.23,2.07,2.07,0,0,1-1-.22,1.84,1.84,0,0,1-.71-.62,3,3,0,0,1-.43-1,5.76,5.76,0,0,1-.14-1.3,5.64,5.64,0,0,1,.2-1.53,6.54,6.54,0,0,1,.56-1.43,6.29,6.29,0,0,1,.87-1.24,5.42,5.42,0,0,1,1.11-1,5.27,5.27,0,0,1,1.3-.65,4.34,4.34,0,0,1,1.43-.24,5.32,5.32,0,0,1,1,.1,3.46,3.46,0,0,1,.93.33Zm-3.8-.6a1.92,1.92,0,0,0,1-.29,3.7,3.7,0,0,0,.95-.81,7.18,7.18,0,0,0,.85-1.27,11.89,11.89,0,0,0,.71-1.64l.45-3.65a3.51,3.51,0,0,0-1.15-.18,3.36,3.36,0,0,0-1.17.21,4,4,0,0,0-1.06.56,4.92,4.92,0,0,0-.92.85,6.28,6.28,0,0,0-.73,1.09,6,6,0,0,0-.47,1.24,5.55,5.55,0,0,0-.17,1.35,3.6,3.6,0,0,0,.41,1.87A1.4,1.4,0,0,0,336,39.94Z"/><path class="cls-1" d="M342.55,40.54l1.08-9H344c.21,0,.31.11.31.33l-.26,2.59a7.9,7.9,0,0,1,.81-1.27,5.72,5.72,0,0,1,.94-1,3.8,3.8,0,0,1,1-.59,2.79,2.79,0,0,1,1.05-.2,1.77,1.77,0,0,1,1.5.65A3,3,0,0,1,349.9,34a1.21,1.21,0,0,1,0,.18c0,.07,0,.18,0,.33s0,.36-.07.63-.07.64-.13,1.11-.12,1-.2,1.75l-.3,2.55h-.85l.68-5.73a5.49,5.49,0,0,0,.05-.79,2.32,2.32,0,0,0-.34-1.38,1.27,1.27,0,0,0-1.1-.48,2.25,2.25,0,0,0-1,.25,4.18,4.18,0,0,0-1,.73,6.38,6.38,0,0,0-.9,1.15A9.24,9.24,0,0,0,344,35.8l-.55,4.74Z"/><path class="cls-1" d="M360.13,36.57a7,7,0,0,1-.46,1.83,4,4,0,0,1-.82,1.28,3.06,3.06,0,0,1-1.14.75,4,4,0,0,1-1.44.25,6.13,6.13,0,0,1-.89-.06,4.25,4.25,0,0,1-.78-.2l.07-.49a.38.38,0,0,1,.06-.13.21.21,0,0,1,.17-.06l.2,0,.27.06a2.73,2.73,0,0,0,.37.07,4.16,4.16,0,0,0,.54,0,3.2,3.2,0,0,0,1-.16,2.28,2.28,0,0,0,.87-.56,3.06,3.06,0,0,0,.67-1,6,6,0,0,0,.39-1.58l1.08-8.79h.9Z"/><path class="cls-1" d="M364.51,31.58l-.68,5.7a5.45,5.45,0,0,0-.05.78,2.39,2.39,0,0,0,.34,1.4,1.27,1.27,0,0,0,1.1.48,2.14,2.14,0,0,0,1-.25,4,4,0,0,0,1-.72,7.19,7.19,0,0,0,.9-1.14,8,8,0,0,0,.74-1.49l.58-4.76h.85l-1.08,9h-.4a.32.32,0,0,1-.25-.09.37.37,0,0,1-.08-.25l.28-2.54a8.4,8.4,0,0,1-.82,1.27,6,6,0,0,1-.94.94,3.82,3.82,0,0,1-1,.58,2.74,2.74,0,0,1-1,.2,1.75,1.75,0,0,1-1.5-.66,3.09,3.09,0,0,1-.5-1.88,1.09,1.09,0,0,1,0-.18c0-.06,0-.17,0-.32s0-.37.07-.64.07-.63.13-1.1.12-1,.2-1.74.18-1.55.3-2.55Z"/><path class="cls-1" d="M378,40.54h-.42a.33.33,0,0,1-.24-.08.34.34,0,0,1-.06-.2l.29-2.82a8.63,8.63,0,0,1-.75,1.31,5.81,5.81,0,0,1-.87,1,4,4,0,0,1-1,.66,2.44,2.44,0,0,1-1.06.23,2.07,2.07,0,0,1-1-.22,1.91,1.91,0,0,1-.71-.62,3.26,3.26,0,0,1-.43-1,5.76,5.76,0,0,1-.14-1.3,6.06,6.06,0,0,1,.2-1.53,6.54,6.54,0,0,1,.56-1.43,7.26,7.26,0,0,1,.87-1.24,6,6,0,0,1,1.11-1,5.45,5.45,0,0,1,1.3-.65,4.34,4.34,0,0,1,1.43-.24,5.32,5.32,0,0,1,1,.1,3.46,3.46,0,0,1,.93.33Zm-3.81-.6a1.92,1.92,0,0,0,1-.29,3.7,3.7,0,0,0,.95-.81,7.18,7.18,0,0,0,.85-1.27,10.79,10.79,0,0,0,.72-1.64l.45-3.65A3.6,3.6,0,0,0,377,32.1a3.28,3.28,0,0,0-1.17.21,4.05,4.05,0,0,0-1.07.56,5.25,5.25,0,0,0-.92.85,5.72,5.72,0,0,0-.72,1.09,6,6,0,0,0-.48,1.24,5.54,5.54,0,0,0-.16,1.35,3.51,3.51,0,0,0,.41,1.87A1.38,1.38,0,0,0,374.19,39.94Z"/><path class="cls-1" d="M380.77,40.54l1.08-9h.39q.3,0,.3.33l-.26,2.59a7.93,7.93,0,0,1,.82-1.27,5.32,5.32,0,0,1,.93-1,3.8,3.8,0,0,1,1-.59,2.81,2.81,0,0,1,1.06-.2,1.8,1.8,0,0,1,1.5.65,3.1,3.1,0,0,1,.5,1.89v.18a2.79,2.79,0,0,1,0,.33c0,.15,0,.36-.07.63l-.12,1.11c-.06.46-.12,1-.2,1.75s-.19,1.54-.31,2.55h-.84l.67-5.73a5.56,5.56,0,0,0,.06-.79,2.32,2.32,0,0,0-.35-1.38,1.26,1.26,0,0,0-1.09-.48,2.26,2.26,0,0,0-1,.25,4.62,4.62,0,0,0-1,.73,6.38,6.38,0,0,0-.9,1.15,9.24,9.24,0,0,0-.75,1.51l-.55,4.74Z"/><path class="cls-1" d="M389.7,39.77a.77.77,0,0,1,.22-.54.83.83,0,0,1,1.17,0,1.1,1.1,0,0,1,.21.7,2.76,2.76,0,0,1-.1.75,3.36,3.36,0,0,1-.27.75,4,4,0,0,1-.43.71,4.84,4.84,0,0,1-.56.63l-.15-.13a.35.35,0,0,1-.05-.08.22.22,0,0,1,0-.08.51.51,0,0,1,.14-.24c.09-.11.2-.25.32-.42a5.39,5.39,0,0,0,.33-.59,2.27,2.27,0,0,0,.21-.73l-.12,0h-.15a.7.7,0,0,1-.54-.22A.82.82,0,0,1,389.7,39.77Z"/><path class="cls-1" d="M406.17,40.54h-.68a.32.32,0,0,1-.2-.07.39.39,0,0,1-.11-.17l-.9-3.72h-5.71l-1.82,3.72a.46.46,0,0,1-.14.17.45.45,0,0,1-.23.07h-.68l6.36-12.74h.88Zm-7.28-4.62h5.23l-1.57-6.48c0-.1-.06-.22-.09-.34s0-.26-.07-.4c0,0,0,.09-.06.17s-.07.15-.11.23a2.09,2.09,0,0,1-.1.21l-.06.14Z"/><path class="cls-1" d="M407.63,40.54l1.08-9h.39c.21,0,.31.11.31.33l-.26,2.66a7.25,7.25,0,0,1,1.4-2.26,2.37,2.37,0,0,1,1.68-.8,1.92,1.92,0,0,1,.76.16l-.16.8a2,2,0,0,0-.77-.16,2.22,2.22,0,0,0-1.73.95A8,8,0,0,0,409,36l-.54,4.57Z"/><path class="cls-1" d="M419.69,33.91a3.15,3.15,0,0,1-.13.9,4.19,4.19,0,0,1-.3.75,6.65,6.65,0,0,1-.39.63q-.21.29-.39.57a3.37,3.37,0,0,0-.3.56,1.63,1.63,0,0,0-.12.62,1.22,1.22,0,0,0,.11.5,2.27,2.27,0,0,0,.27.44c.1.15.22.29.34.44a3.1,3.1,0,0,1,.35.46,2.9,2.9,0,0,1,.26.53,1.66,1.66,0,0,1,.11.64,2.15,2.15,0,0,1-.29,1.09,3,3,0,0,1-.8.94,4.15,4.15,0,0,1-1.26.64,4.94,4.94,0,0,1-1.63.25,5.22,5.22,0,0,1-1.3-.15,3.16,3.16,0,0,1-1-.41,2,2,0,0,1-.66-.67,1.73,1.73,0,0,1-.24-.9,2,2,0,0,1,.34-1.15,2.78,2.78,0,0,1,.92-.84,5.13,5.13,0,0,1,1.35-.52,7.19,7.19,0,0,1,1.65-.18l.61,0,.62.07a2.38,2.38,0,0,1-.25-.44,1.29,1.29,0,0,1-.11-.53,2.1,2.1,0,0,1,.11-.64,3.5,3.5,0,0,1,.41-.78,2.91,2.91,0,0,1-.77.38,2.61,2.61,0,0,1-.9.14,2.67,2.67,0,0,1-.95-.16,2.06,2.06,0,0,1-.76-.48,2.22,2.22,0,0,1-.5-.79,2.93,2.93,0,0,1-.18-1.07,3.42,3.42,0,0,1,.22-1.22,3.31,3.31,0,0,1,.64-1.07,3.15,3.15,0,0,1,1-.75,3.26,3.26,0,0,1,1.39-.28,3.05,3.05,0,0,1,.87.11,2.17,2.17,0,0,1,.72.34h2.34l0,.29a.3.3,0,0,1-.07.15.26.26,0,0,1-.18.09l-1.46.11a2.51,2.51,0,0,1,.25.63A2.83,2.83,0,0,1,419.69,33.91Zm-1,7.09a1.89,1.89,0,0,0-.14-.75,3.13,3.13,0,0,0-.36-.58v0c-.29-.05-.57-.08-.83-.1l-.77,0a6.44,6.44,0,0,0-1.55.17,3.65,3.65,0,0,0-1.09.45,2.08,2.08,0,0,0-.66.66,1.62,1.62,0,0,0-.22.79,1.31,1.31,0,0,0,.18.69,1.52,1.52,0,0,0,.5.51,3,3,0,0,0,.78.31,4.64,4.64,0,0,0,1,.1,4.3,4.3,0,0,0,1.28-.18,3.36,3.36,0,0,0,1-.51,2.41,2.41,0,0,0,.64-.72A1.83,1.83,0,0,0,418.72,41Zm-2.24-4.29a2.17,2.17,0,0,0,1-.24,2.38,2.38,0,0,0,.77-.64,2.73,2.73,0,0,0,.48-.89,3.43,3.43,0,0,0,.16-1,1.69,1.69,0,0,0-1.83-1.88,2.22,2.22,0,0,0-1,.23,2.29,2.29,0,0,0-.77.61,2.87,2.87,0,0,0-.47.86,3.18,3.18,0,0,0-.16,1,2,2,0,0,0,.49,1.45A1.75,1.75,0,0,0,416.48,36.71Z"/><path class="cls-1" d="M428.3,33.29a2.63,2.63,0,0,1-.09.7,1.78,1.78,0,0,1-.35.63,2.91,2.91,0,0,1-.69.57,5.33,5.33,0,0,1-1.11.48,12.59,12.59,0,0,1-1.61.4c-.62.12-1.35.22-2.19.31,0,.12,0,.25,0,.37s0,.25,0,.37a3.21,3.21,0,0,0,.61,2.09,2.18,2.18,0,0,0,1.83.76,3.28,3.28,0,0,0,.86-.1,3,3,0,0,0,.68-.27,3.73,3.73,0,0,0,.53-.34,5.29,5.29,0,0,0,.41-.34l.31-.27a.4.4,0,0,1,.24-.1.23.23,0,0,1,.19.09l.2.23a9.05,9.05,0,0,1-.86.81,4.72,4.72,0,0,1-.85.55,4,4,0,0,1-.88.32,4.4,4.4,0,0,1-1,.1,3.47,3.47,0,0,1-1.33-.24,2.69,2.69,0,0,1-1-.71,3.15,3.15,0,0,1-.6-1.1,4.83,4.83,0,0,1-.21-1.47,7,7,0,0,1,.14-1.35,6.51,6.51,0,0,1,.4-1.32,5.94,5.94,0,0,1,.66-1.18,4.73,4.73,0,0,1,.89-1,4.28,4.28,0,0,1,1.12-.64,3.59,3.59,0,0,1,1.32-.23,3,3,0,0,1,1.11.18,2.34,2.34,0,0,1,.74.46,1.62,1.62,0,0,1,.41.59A1.77,1.77,0,0,1,428.3,33.29Zm-2.43-1.2a2.8,2.8,0,0,0-1.3.3,3.8,3.8,0,0,0-1,.82,4.57,4.57,0,0,0-.75,1.18,6.08,6.08,0,0,0-.44,1.39c.76-.08,1.42-.18,2-.29a13.54,13.54,0,0,0,1.4-.35,4.37,4.37,0,0,0,.93-.4,2.43,2.43,0,0,0,.56-.44,1.2,1.2,0,0,0,.26-.48,1.68,1.68,0,0,0,.07-.5,1.09,1.09,0,0,0-.09-.41,1,1,0,0,0-.28-.4,1.62,1.62,0,0,0-.52-.3A2.23,2.23,0,0,0,425.87,32.09Z"/><path class="cls-1" d="M429.66,40.54l1.08-9h.39c.2,0,.31.11.31.33l-.26,2.59A7.26,7.26,0,0,1,432,33.2a5.72,5.72,0,0,1,.94-1,3.8,3.8,0,0,1,1-.59,2.76,2.76,0,0,1,1.05-.2,1.77,1.77,0,0,1,1.5.65A3,3,0,0,1,437,34a1.21,1.21,0,0,1,0,.18c0,.07,0,.18,0,.33s0,.36-.07.63-.07.64-.13,1.11-.12,1-.2,1.75-.18,1.54-.3,2.55h-.85l.68-5.73a7.45,7.45,0,0,0,.05-.79,2.25,2.25,0,0,0-.35-1.38,1.25,1.25,0,0,0-1.09-.48,2.32,2.32,0,0,0-1,.25,4.34,4.34,0,0,0-1,.73,6.38,6.38,0,0,0-.9,1.15,8.5,8.5,0,0,0-.75,1.51l-.55,4.74Z"/><path class="cls-1" d="M439.61,39V38.9c0-.06,0-.14,0-.24s0-.25.05-.42,0-.39.07-.66l.61-5.08h-1.17c-.12,0-.18-.06-.18-.17l0-.37,1.41-.11.6-3.2a.31.31,0,0,1,.08-.15.2.2,0,0,1,.15-.06h.41l-.42,3.42h2.59l-.07.64h-2.59l-.62,5c0,.25-.06.45-.07.6s0,.29,0,.39,0,.17,0,.22v.1a1.16,1.16,0,0,0,.27.85,1,1,0,0,0,.71.26,1.42,1.42,0,0,0,.52-.09,2.92,2.92,0,0,0,.4-.21,2.88,2.88,0,0,0,.28-.21.33.33,0,0,1,.16-.09s.07,0,.08,0a.22.22,0,0,1,.06.07l.16.37a2.75,2.75,0,0,1-.87.62,2.56,2.56,0,0,1-1,.23,1.56,1.56,0,0,1-1.15-.4A1.67,1.67,0,0,1,439.61,39Z"/><path class="cls-1" d="M447,31.58l-1.09,9H445l1.09-9Zm.66-3.09a.67.67,0,0,1-.07.31.87.87,0,0,1-.41.41.62.62,0,0,1-.29.07.55.55,0,0,1-.28-.07.59.59,0,0,1-.24-.17.81.81,0,0,1-.17-.24.81.81,0,0,1-.06-.31.77.77,0,0,1,.06-.3.9.9,0,0,1,.17-.26.7.7,0,0,1,.24-.17.55.55,0,0,1,.28-.07.62.62,0,0,1,.29.07.81.81,0,0,1,.24.17.83.83,0,0,1,.24.56Z"/><path class="cls-1" d="M448.9,40.54l1.08-9h.38c.21,0,.31.11.31.33l-.26,2.59a7.9,7.9,0,0,1,.81-1.27,5.72,5.72,0,0,1,.94-1,3.8,3.8,0,0,1,1-.59,2.79,2.79,0,0,1,1.05-.2,1.81,1.81,0,0,1,1.51.65,3.1,3.1,0,0,1,.5,1.89v.18q0,.11,0,.33c0,.15,0,.36-.07.63L456,36.24c-.06.46-.13,1-.21,1.75s-.18,1.54-.3,2.55h-.84l.67-5.73a5.49,5.49,0,0,0,.05-.79,2.32,2.32,0,0,0-.34-1.38,1.27,1.27,0,0,0-1.1-.48,2.25,2.25,0,0,0-1,.25,4.39,4.39,0,0,0-1,.73,6.38,6.38,0,0,0-.9,1.15,9.24,9.24,0,0,0-.75,1.51l-.55,4.74Z"/><path class="cls-1" d="M464.16,40.54h-.41a.3.3,0,0,1-.24-.08.29.29,0,0,1-.07-.2l.3-2.82a9.57,9.57,0,0,1-.75,1.31,6.31,6.31,0,0,1-.88,1,4,4,0,0,1-1,.66,2.52,2.52,0,0,1-1.07.23,2.09,2.09,0,0,1-1-.22,1.89,1.89,0,0,1-.7-.62,3,3,0,0,1-.43-1,5.24,5.24,0,0,1-.14-1.3A6.05,6.05,0,0,1,458,36a6.57,6.57,0,0,1,.57-1.43,6.29,6.29,0,0,1,.87-1.24,5.42,5.42,0,0,1,1.11-1,5.11,5.11,0,0,1,1.3-.65,4.29,4.29,0,0,1,1.43-.24,5.21,5.21,0,0,1,1,.1,3.23,3.23,0,0,1,.93.33Zm-3.81-.6a1.9,1.9,0,0,0,1-.29,3.39,3.39,0,0,0,.95-.81,7.2,7.2,0,0,0,.86-1.27,11.89,11.89,0,0,0,.71-1.64l.45-3.65a3.55,3.55,0,0,0-1.15-.18,3.36,3.36,0,0,0-1.17.21,4.21,4.21,0,0,0-1.07.56,4.86,4.86,0,0,0-.91.85,5.76,5.76,0,0,0-.73,1.09,6,6,0,0,0-.47,1.24,5.55,5.55,0,0,0-.17,1.35,3.6,3.6,0,0,0,.41,1.87A1.38,1.38,0,0,0,460.35,39.94Z"/><path class="cls-1" d="M14.65,62.14H14a.32.32,0,0,1-.2-.07.37.37,0,0,1-.1-.17l-.91-3.72H7L5.22,61.9a.38.38,0,0,1-.14.17.44.44,0,0,1-.22.07H4.17L10.53,49.4h.89ZM7.37,57.52H12.6L11,51a2.84,2.84,0,0,1-.08-.34c0-.13,0-.26-.07-.4,0,0,0,.09-.07.17s-.07.15-.1.23l-.1.21a.88.88,0,0,1-.07.14Z"/><path class="cls-1" d="M22,62.14a.31.31,0,0,1-.24-.08.35.35,0,0,1-.07-.2L22,59a8.19,8.19,0,0,1-.79,1.33,6.66,6.66,0,0,1-.92,1,4,4,0,0,1-1,.66,2.56,2.56,0,0,1-1.08.23,2.19,2.19,0,0,1-1-.22,2,2,0,0,1-.74-.64,3,3,0,0,1-.45-1,5.3,5.3,0,0,1-.15-1.31,6.72,6.72,0,0,1,.14-1.4,8.23,8.23,0,0,1,.41-1.39A6.81,6.81,0,0,1,17,55a4.85,4.85,0,0,1,.87-1A3.9,3.9,0,0,1,19,53.3a3,3,0,0,1,1.23-.25,2.76,2.76,0,0,1,1.34.32,2.55,2.55,0,0,1,1,1L23.21,49H24l-1.61,13.1Zm-3.54-.58a2.1,2.1,0,0,0,1-.28,4,4,0,0,0,1-.81,7.3,7.3,0,0,0,.9-1.25,9.79,9.79,0,0,0,.74-1.63L22.46,55a2.3,2.3,0,0,0-1-1,2.72,2.72,0,0,0-1.2-.29,2.52,2.52,0,0,0-1.06.23,3.15,3.15,0,0,0-.89.63,4.62,4.62,0,0,0-.71.91,6.25,6.25,0,0,0-.52,1.11,8,8,0,0,0-.33,1.21A7.12,7.12,0,0,0,16.68,59a3.38,3.38,0,0,0,.46,1.89A1.52,1.52,0,0,0,18.48,61.56Z"/><path class="cls-1" d="M25.3,62.14l1.08-9h.38a.29.29,0,0,1,.32.33L26.83,56a6.44,6.44,0,0,1,1.62-2.16,2.92,2.92,0,0,1,1.93-.77,1.44,1.44,0,0,1,1.28.56,2.87,2.87,0,0,1,.39,1.63q0,.32,0,.66a6.92,6.92,0,0,1,.77-1.26,5.3,5.3,0,0,1,.88-.89,3.92,3.92,0,0,1,.95-.53,2.94,2.94,0,0,1,1-.17,1.58,1.58,0,0,1,1.39.6,3.06,3.06,0,0,1,.42,1.74v.2c0,.07,0,.19,0,.35s0,.39-.07.67l-.12,1.15c-.06.48-.13,1.08-.21,1.79s-.19,1.57-.31,2.59h-.83l.67-5.73c0-.19,0-.37.06-.53s0-.32,0-.47a2.2,2.2,0,0,0-.28-1.23,1.07,1.07,0,0,0-1-.42,2.09,2.09,0,0,0-.89.2,3.29,3.29,0,0,0-.89.61,4.84,4.84,0,0,0-.83,1A7.73,7.73,0,0,0,32,57l-.6,5.11h-.84l.68-5.73a9.63,9.63,0,0,0,.08-1.11,2.1,2.1,0,0,0-.26-1.15,1.05,1.05,0,0,0-.93-.39,2.59,2.59,0,0,0-1.9.93,8.48,8.48,0,0,0-1.52,2.65l-.57,4.8Z"/><path class="cls-1" d="M41.41,53.18l-1.08,9h-.84l1.09-9Zm.66-3.09a.81.81,0,0,1-.06.31.81.81,0,0,1-.17.24.7.7,0,0,1-.25.17.58.58,0,0,1-.28.07.57.57,0,0,1-.29-.07.66.66,0,0,1-.24-.17,1,1,0,0,1-.17-.24.81.81,0,0,1-.06-.31.77.77,0,0,1,.06-.3,1.17,1.17,0,0,1,.17-.26.81.81,0,0,1,.24-.17.57.57,0,0,1,.29-.07.58.58,0,0,1,.28.07.78.78,0,0,1,.48.73Z"/><path class="cls-1" d="M43.35,62.14l1.08-9h.39q.3,0,.3.33l-.26,2.59a7.93,7.93,0,0,1,.82-1.27,5.36,5.36,0,0,1,.94-1,3.91,3.91,0,0,1,1-.59,2.81,2.81,0,0,1,1.06-.2,1.8,1.8,0,0,1,1.5.65,3.09,3.09,0,0,1,.5,1.88v.19a2.79,2.79,0,0,1,0,.33c0,.15,0,.36-.07.63l-.12,1.11c-.06.46-.12,1-.2,1.74s-.19,1.55-.31,2.56h-.84l.67-5.73a5.56,5.56,0,0,0,.06-.79,2.32,2.32,0,0,0-.35-1.38,1.25,1.25,0,0,0-1.09-.48,2.26,2.26,0,0,0-1,.25,4.34,4.34,0,0,0-1,.73,6,6,0,0,0-.91,1.15,9.24,9.24,0,0,0-.75,1.51l-.54,4.74Z"/><path class="cls-1" d="M54.72,53.18l-1.08,9H52.8l1.09-9Zm.66-3.09a.81.81,0,0,1-.06.31.81.81,0,0,1-.17.24.7.7,0,0,1-.25.17.58.58,0,0,1-.28.07.57.57,0,0,1-.29-.07.66.66,0,0,1-.24-.17,1,1,0,0,1-.17-.24.81.81,0,0,1-.06-.31.77.77,0,0,1,.06-.3,1.17,1.17,0,0,1,.17-.26.81.81,0,0,1,.24-.17.57.57,0,0,1,.29-.07.58.58,0,0,1,.28.07.78.78,0,0,1,.48.73Z"/><path class="cls-1" d="M62.21,54.28a.22.22,0,0,1-.2.12.35.35,0,0,1-.22-.11,2.49,2.49,0,0,0-.35-.25,2.68,2.68,0,0,0-.56-.25,2.49,2.49,0,0,0-.83-.11,2.57,2.57,0,0,0-.87.15,2.36,2.36,0,0,0-.71.41,1.89,1.89,0,0,0-.47.59,1.54,1.54,0,0,0-.18.72,1.13,1.13,0,0,0,.17.62,1.76,1.76,0,0,0,.46.44,3.18,3.18,0,0,0,.64.32l.73.27c.25.09.49.19.73.3a2.77,2.77,0,0,1,.64.4,1.73,1.73,0,0,1,.46.57,1.83,1.83,0,0,1,.17.81,2.88,2.88,0,0,1-.23,1.12,3,3,0,0,1-.66,1,3.17,3.17,0,0,1-1,.67,3.35,3.35,0,0,1-1.33.25,3.16,3.16,0,0,1-1.46-.3,3.25,3.25,0,0,1-1-.79l.21-.3a.29.29,0,0,1,.11-.11.18.18,0,0,1,.13,0,.37.37,0,0,1,.23.15,2.6,2.6,0,0,0,.37.31,2.31,2.31,0,0,0,.61.32,2.42,2.42,0,0,0,.92.15,2.5,2.5,0,0,0,1-.18,2.19,2.19,0,0,0,1.23-1.18,2.27,2.27,0,0,0,.17-.86,1.24,1.24,0,0,0-.17-.66,1.54,1.54,0,0,0-.45-.47A3.47,3.47,0,0,0,59.8,58l-.73-.27c-.25-.09-.5-.18-.74-.29a2.71,2.71,0,0,1-.64-.38,1.87,1.87,0,0,1-.45-.55,1.71,1.71,0,0,1-.17-.79,2.32,2.32,0,0,1,.23-1,2.77,2.77,0,0,1,.63-.86,2.92,2.92,0,0,1,1-.59,3.24,3.24,0,0,1,1.23-.22,3.3,3.3,0,0,1,1.31.23,2.94,2.94,0,0,1,1,.7Z"/><path class="cls-1" d="M64.34,60.63V60.5c0-.06,0-.14,0-.24s0-.25,0-.42,0-.39.08-.66l.61-5.08H63.91c-.12,0-.18-.06-.18-.17l.05-.37,1.41-.11.6-3.2a.25.25,0,0,1,.08-.15A.2.2,0,0,1,66,50h.41L66,53.46H68.6l-.07.64H65.94l-.62,5c0,.25-.06.45-.07.6s0,.29,0,.39,0,.17,0,.22a.41.41,0,0,0,0,.1,1.12,1.12,0,0,0,.28.85,1,1,0,0,0,.7.26,1.44,1.44,0,0,0,.53-.09,3.65,3.65,0,0,0,.4-.21l.28-.21a.33.33,0,0,1,.16-.09s.07,0,.08,0a.22.22,0,0,1,.06.07l.16.37a2.75,2.75,0,0,1-.87.62,2.6,2.6,0,0,1-1,.23,1.6,1.6,0,0,1-1.16-.4A1.71,1.71,0,0,1,64.34,60.63Z"/><path class="cls-1" d="M69.53,62.14l1.08-9H71c.21,0,.31.11.31.33l-.26,2.66a7,7,0,0,1,1.4-2.26,2.34,2.34,0,0,1,1.68-.8,1.84,1.84,0,0,1,.75.16l-.15.8a2,2,0,0,0-.77-.16,2.25,2.25,0,0,0-1.74.95,8.23,8.23,0,0,0-1.31,2.74l-.54,4.57Z"/><path class="cls-1" d="M81.27,62.14h-.42a.33.33,0,0,1-.24-.08.34.34,0,0,1-.06-.2L80.84,59a8.63,8.63,0,0,1-.75,1.31,5.81,5.81,0,0,1-.87,1,4,4,0,0,1-1,.66,2.44,2.44,0,0,1-1.06.23,2.07,2.07,0,0,1-1-.22,1.91,1.91,0,0,1-.71-.62,3,3,0,0,1-.42-1,5.22,5.22,0,0,1-.15-1.3,6.06,6.06,0,0,1,.2-1.53,6.54,6.54,0,0,1,.56-1.43,7.26,7.26,0,0,1,.87-1.24,6,6,0,0,1,1.11-1A5.1,5.1,0,0,1,79,53.3a4.38,4.38,0,0,1,1.43-.24,5.32,5.32,0,0,1,1,.1,3.46,3.46,0,0,1,.93.33Zm-3.81-.6a1.92,1.92,0,0,0,1-.29,3.7,3.7,0,0,0,1-.81,6.68,6.68,0,0,0,.85-1.27A10.79,10.79,0,0,0,81,57.53l.45-3.65a3.6,3.6,0,0,0-1.15-.18,3.28,3.28,0,0,0-1.17.21,4.05,4.05,0,0,0-1.07.56,5.25,5.25,0,0,0-.92.85,5.72,5.72,0,0,0-.72,1.09,6,6,0,0,0-.48,1.24A5.54,5.54,0,0,0,75.77,59a3.51,3.51,0,0,0,.41,1.87A1.38,1.38,0,0,0,77.46,61.54Z"/><path class="cls-1" d="M89.46,61.37a4.23,4.23,0,0,1-.84.54,3.22,3.22,0,0,1-.83.27,5.14,5.14,0,0,1-.9.07A3.23,3.23,0,0,1,85.55,62a2.6,2.6,0,0,1-1-.74A3.06,3.06,0,0,1,84,60.11a5,5,0,0,1-.19-1.43A6.76,6.76,0,0,1,84,57.27a6.67,6.67,0,0,1,.43-1.33,6,6,0,0,1,.67-1.16,4.86,4.86,0,0,1,.89-.92,4.08,4.08,0,0,1,1.08-.6A3.36,3.36,0,0,1,88.29,53a3.87,3.87,0,0,1,.8.08,2.51,2.51,0,0,1,.65.25,2.66,2.66,0,0,1,.54.39,3,3,0,0,1,.45.5l-.25.3a.26.26,0,0,1-.19.1c-.06,0-.13,0-.22-.15a2.92,2.92,0,0,0-.35-.31,3,3,0,0,0-.57-.31,2.46,2.46,0,0,0-.88-.14,2.6,2.6,0,0,0-1.41.4,3.92,3.92,0,0,0-1.14,1.09A5.5,5.5,0,0,0,85,56.82a6.39,6.39,0,0,0-.28,1.86,4.59,4.59,0,0,0,.14,1.15,2.62,2.62,0,0,0,.44.92,1.93,1.93,0,0,0,.73.6,2.25,2.25,0,0,0,1,.22,3.69,3.69,0,0,0,.86-.1,3.74,3.74,0,0,0,.67-.26,3.23,3.23,0,0,0,.51-.34,4.75,4.75,0,0,0,.39-.34l.3-.25a.35.35,0,0,1,.22-.11.28.28,0,0,1,.19.09l.18.24A7.21,7.21,0,0,1,89.46,61.37Z"/><path class="cls-1" d="M94,53.18l-1.09,9H92l1.09-9Zm.65-3.09a.81.81,0,0,1-.06.31.81.81,0,0,1-.17.24.62.62,0,0,1-.25.17.58.58,0,0,1-.28.07.59.59,0,0,1-.29-.07.66.66,0,0,1-.24-.17.78.78,0,0,1-.16-.24.67.67,0,0,1-.07-.31.63.63,0,0,1,.07-.3.87.87,0,0,1,.16-.26.81.81,0,0,1,.24-.17.59.59,0,0,1,.29-.07.58.58,0,0,1,.28.07.74.74,0,0,1,.25.17.77.77,0,0,1,.23.56Z"/><path class="cls-1" d="M98.87,62.25A3.26,3.26,0,0,1,97.56,62a2.82,2.82,0,0,1-1-.73,3.48,3.48,0,0,1-.65-1.15,5,5,0,0,1-.23-1.55A6.67,6.67,0,0,1,96,56.48a5.7,5.7,0,0,1,.91-1.77,4.52,4.52,0,0,1,1.4-1.22,3.62,3.62,0,0,1,1.78-.45,3.26,3.26,0,0,1,1.31.25,2.85,2.85,0,0,1,1,.73,3.27,3.27,0,0,1,.65,1.16,4.91,4.91,0,0,1,.23,1.53A6.63,6.63,0,0,1,103,58.8a6.17,6.17,0,0,1-.91,1.77,4.52,4.52,0,0,1-1.4,1.22A3.5,3.5,0,0,1,98.87,62.25Zm.07-.67a2.65,2.65,0,0,0,1.43-.41,3.8,3.8,0,0,0,1.1-1.09,5.31,5.31,0,0,0,.71-1.56,6.74,6.74,0,0,0,.24-1.8,3.45,3.45,0,0,0-.63-2.22,2.16,2.16,0,0,0-1.78-.79,2.48,2.48,0,0,0-1,.19,2.91,2.91,0,0,0-.84.51,4.08,4.08,0,0,0-.7.79,4.73,4.73,0,0,0-.52,1,6,6,0,0,0-.33,1.14,7.12,7.12,0,0,0-.11,1.23,3.45,3.45,0,0,0,.63,2.22A2.16,2.16,0,0,0,98.94,61.58Zm3.44-12.34-2.09,2.29a.45.45,0,0,1-.33.14h-.5L101,49.53a.78.78,0,0,1,.23-.22.53.53,0,0,1,.31-.07Z"/><path class="cls-1" d="M104.77,62.14l1.08-9h.39c.2,0,.31.11.31.33l-.26,2.59a7.26,7.26,0,0,1,.81-1.27,5.72,5.72,0,0,1,.94-1,3.8,3.8,0,0,1,1-.59,2.76,2.76,0,0,1,1-.2,1.77,1.77,0,0,1,1.5.65,3,3,0,0,1,.51,1.88,1.28,1.28,0,0,1,0,.19c0,.07,0,.18,0,.33s0,.36-.07.63-.07.64-.13,1.11-.12,1-.2,1.74-.18,1.55-.3,2.56h-.85l.68-5.73a7.45,7.45,0,0,0,0-.79,2.25,2.25,0,0,0-.35-1.38,1.25,1.25,0,0,0-1.09-.48,2.32,2.32,0,0,0-1,.25,4.34,4.34,0,0,0-1,.73,6.38,6.38,0,0,0-.9,1.15,7.87,7.87,0,0,0-.75,1.51l-.55,4.74Z"/><path class="cls-1" d="M122.9,51.72l-.5,4.06h3.89l-.07.64h-3.9l-.49,4.08h-.69l.51-4.08h-3.88l.08-.64h3.87l.5-4.06Z"/><path class="cls-1" d="M136.72,49.76a.48.48,0,0,1-.15.29.52.52,0,0,1-.38.12h-4.63l-1.3,4.27a9.6,9.6,0,0,1,2.13-.28,4.77,4.77,0,0,1,1.63.25,3.1,3.1,0,0,1,1.16.68,2.64,2.64,0,0,1,.69,1,3.73,3.73,0,0,1,.23,1.32,4.83,4.83,0,0,1-.41,2,4.47,4.47,0,0,1-1.1,1.52A4.72,4.72,0,0,1,133,62a5.39,5.39,0,0,1-1.88.33,5.21,5.21,0,0,1-1-.09,4.32,4.32,0,0,1-.86-.25,3.82,3.82,0,0,1-.73-.36,3.15,3.15,0,0,1-.57-.43l.29-.35a.34.34,0,0,1,.26-.12.61.61,0,0,1,.32.13,5.57,5.57,0,0,0,.53.3,3.72,3.72,0,0,0,.79.31,3.88,3.88,0,0,0,1.09.13,4.38,4.38,0,0,0,1.54-.27,3.84,3.84,0,0,0,1.27-.79,3.66,3.66,0,0,0,.86-1.26,4.23,4.23,0,0,0,.32-1.68,3.16,3.16,0,0,0-.18-1.09,2.18,2.18,0,0,0-.56-.84,2.63,2.63,0,0,0-1-.55,4.35,4.35,0,0,0-1.37-.2,9.14,9.14,0,0,0-2.3.34l-.5-.17,1.68-5.64h5.72Z"/><path class="cls-1" d="M145.22,57.81h2.34l-.07.45a.2.2,0,0,1-.07.15.25.25,0,0,1-.19.06h-2.09l-.44,3.67h-.76l.45-3.67h-6a.38.38,0,0,1-.22-.06.23.23,0,0,1-.1-.15l0-.41,7.45-8.47h.75Zm.07-6.72a3.63,3.63,0,0,1,.13-.64L139,57.81h5.49Z"/><path class="cls-1" d="M157.84,49.26a4,4,0,0,1,1.27.19,2.86,2.86,0,0,1,1,.56,2.55,2.55,0,0,1,.7.94,2.93,2.93,0,0,1,.26,1.3,4.2,4.2,0,0,1-.26,1.49,5.45,5.45,0,0,1-.72,1.29,9,9,0,0,1-1.07,1.18c-.4.39-.83.78-1.28,1.19l-4.53,4.11a4.1,4.1,0,0,1,.61-.11,4.58,4.58,0,0,1,.64,0H160q.27,0,.27.3l-.06.48H152l0-.3a.53.53,0,0,1,.07-.2,1.15,1.15,0,0,1,.14-.17l4.91-4.41c.45-.4.86-.79,1.23-1.16a8.75,8.75,0,0,0,1-1.11,5,5,0,0,0,.63-1.15,3.7,3.7,0,0,0,.23-1.3,2.4,2.4,0,0,0-.21-1.05,2,2,0,0,0-.54-.74,2.36,2.36,0,0,0-.81-.44,3.45,3.45,0,0,0-1-.14,3.78,3.78,0,0,0-1.14.17,3.22,3.22,0,0,0-1,.51,3.32,3.32,0,0,0-.75.79,3.91,3.91,0,0,0-.49,1,.45.45,0,0,1-.16.23.41.41,0,0,1-.22.07h-.1l-.41-.06a4.42,4.42,0,0,1,.62-1.45,4.07,4.07,0,0,1,1-1.08,4.27,4.27,0,0,1,1.26-.68A4.82,4.82,0,0,1,157.84,49.26Z"/><path class="cls-1" d="M167.88,54.53a3.75,3.75,0,0,1,1.37.24,3.14,3.14,0,0,1,1.06.67,3,3,0,0,1,.68,1,3.61,3.61,0,0,1,.24,1.35,4.28,4.28,0,0,1-1.36,3.2,4.56,4.56,0,0,1-1.5.92,5.12,5.12,0,0,1-1.86.33,3.94,3.94,0,0,1-1.45-.25,3,3,0,0,1-1.12-.71,3.18,3.18,0,0,1-.7-1.13A4.12,4.12,0,0,1,163,58.7a4.46,4.46,0,0,1,.12-1,4.83,4.83,0,0,1,.39-1.05,7.8,7.8,0,0,1,.66-1.1c.27-.38.59-.79,1-1.22l4.07-4.69a.75.75,0,0,1,.2-.15.55.55,0,0,1,.26-.06h.73l-4.4,5c-.23.25-.44.49-.62.71s-.36.45-.52.66a4.36,4.36,0,0,1,1.38-.89A4.42,4.42,0,0,1,167.88,54.53Zm-4.1,4.2a3.49,3.49,0,0,0,.19,1.14,2.57,2.57,0,0,0,.55.9,2.38,2.38,0,0,0,.88.6,2.92,2.92,0,0,0,1.18.22,4.07,4.07,0,0,0,1.55-.28,3.51,3.51,0,0,0,1.21-.76,3.37,3.37,0,0,0,.77-1.15,3.72,3.72,0,0,0,.28-1.46,3.17,3.17,0,0,0-.2-1.14,2.46,2.46,0,0,0-.56-.87,2.54,2.54,0,0,0-.89-.56,3.28,3.28,0,0,0-1.16-.19,3.7,3.7,0,0,0-1.55.31,3.76,3.76,0,0,0-1.2.8,3.53,3.53,0,0,0-.77,1.14A3.17,3.17,0,0,0,163.78,58.73Z"/><path class="cls-1" d="M180,57.81h2.34l-.06.45a.2.2,0,0,1-.08.15.24.24,0,0,1-.18.06h-2.1l-.44,3.67h-.76l.45-3.67h-6a.36.36,0,0,1-.22-.06.21.21,0,0,1-.11-.15l0-.41,7.45-8.47H181Zm.07-6.72a3.63,3.63,0,0,1,.13-.64l-6.44,7.36h5.49Z"/><path class="cls-1" d="M193.92,57.81h2.34l-.06.45a.24.24,0,0,1-.07.15.27.27,0,0,1-.19.06h-2.1l-.44,3.67h-.76l.45-3.67h-6a.38.38,0,0,1-.22-.06.2.2,0,0,1-.1-.15l0-.41,7.44-8.47H195Zm.07-6.72a3.63,3.63,0,0,1,.13-.64l-6.43,7.36h5.48Z"/><path class="cls-1" d="M207.3,49.4l0,.32a1,1,0,0,1-.05.24l-.09.21-7.35,11.71a.74.74,0,0,1-.17.18.45.45,0,0,1-.26.08h-.65L206,50.58a1.64,1.64,0,0,1,.14-.22l.17-.19H199a.21.21,0,0,1-.16-.06.2.2,0,0,1-.06-.15l.08-.56Z"/><path class="cls-1" d="M212.38,56.72a3.64,3.64,0,0,1-1.31-.23,3,3,0,0,1-1-.64,2.84,2.84,0,0,1-.65-1,3.42,3.42,0,0,1-.23-1.3,4.08,4.08,0,0,1,1.33-3.06,4.67,4.67,0,0,1,1.45-.9,4.72,4.72,0,0,1,1.77-.33,3.66,3.66,0,0,1,1.39.25,3,3,0,0,1,1.07.71,3.12,3.12,0,0,1,.69,1.1,4,4,0,0,1,.24,1.41,4.39,4.39,0,0,1-.54,2.14,8.46,8.46,0,0,1-.64,1L215,57l-4,4.92a.52.52,0,0,1-.44.2h-.75l4.41-5.27c.19-.23.38-.45.56-.68s.37-.47.54-.71a4,4,0,0,1-1.38.91A4.25,4.25,0,0,1,212.38,56.72Zm3.92-4a3.08,3.08,0,0,0-.19-1.11,2.56,2.56,0,0,0-.54-.87,2.65,2.65,0,0,0-.85-.57,2.94,2.94,0,0,0-1.09-.2,4,4,0,0,0-1.43.26,3.4,3.4,0,0,0-1.15.72,3.24,3.24,0,0,0-.76,1.1,3.49,3.49,0,0,0-.28,1.42,2.9,2.9,0,0,0,.19,1.09,2.19,2.19,0,0,0,.53.82,2.25,2.25,0,0,0,.84.52,3.23,3.23,0,0,0,1.11.18A3.67,3.67,0,0,0,215.33,55a3.36,3.36,0,0,0,.72-1.07A3.11,3.11,0,0,0,216.3,52.7Z"/><path class="cls-1" d="M218.51,56.44h3.85l-.08.71h-3.87Z"/><path class="cls-1" d="M225.35,61.49h2.93L229.57,51l.13-.62L226.53,53a.35.35,0,0,1-.22.09.23.23,0,0,1-.22-.11l-.2-.35L230,49.35h.65l-1.48,12.14h2.78l-.07.65h-6.55Z"/><path class="cls-1" d="M238.13,62.28a4.94,4.94,0,0,1-1.54-.22,3.6,3.6,0,0,1-1.18-.63,2.88,2.88,0,0,1-.76-1,3,3,0,0,1-.27-1.28,4,4,0,0,1,.25-1.42,3.27,3.27,0,0,1,.67-1.09,3.74,3.74,0,0,1,1-.75,5.15,5.15,0,0,1,1.29-.43,2.78,2.78,0,0,1-1.49-1,2.64,2.64,0,0,1-.5-1.62,3.37,3.37,0,0,1,.29-1.42,3.42,3.42,0,0,1,.84-1.15,4.13,4.13,0,0,1,1.29-.77,4.68,4.68,0,0,1,1.67-.28,3.84,3.84,0,0,1,1.4.23,3.27,3.27,0,0,1,1,.62,2.47,2.47,0,0,1,.64.92,2.8,2.8,0,0,1,.22,1.12,3.55,3.55,0,0,1-.18,1.15,3.15,3.15,0,0,1-.53,1,3.42,3.42,0,0,1-.85.75,4.1,4.1,0,0,1-1.15.48,4.23,4.23,0,0,1,1,.37,2.82,2.82,0,0,1,.77.59,2.59,2.59,0,0,1,.49.82,3,3,0,0,1,.18,1.07,3.76,3.76,0,0,1-.35,1.64,3.69,3.69,0,0,1-1,1.24A4.35,4.35,0,0,1,240,62,5.93,5.93,0,0,1,238.13,62.28Zm.07-.67a4.42,4.42,0,0,0,1.48-.23,3.46,3.46,0,0,0,1.16-.65,3.05,3.05,0,0,0,1-2.37,2.45,2.45,0,0,0-.27-1.2,2.29,2.29,0,0,0-.71-.77,2.94,2.94,0,0,0-1-.41,4.6,4.6,0,0,0-1-.13,5.78,5.78,0,0,0-.81.07,4.84,4.84,0,0,0-.83.22,3.58,3.58,0,0,0-.77.41,3.08,3.08,0,0,0-.64.61,3,3,0,0,0-.43.84,3.4,3.4,0,0,0-.16,1.1,2.63,2.63,0,0,0,.2,1,2.31,2.31,0,0,0,.59.79,2.64,2.64,0,0,0,.92.51A3.86,3.86,0,0,0,238.2,61.61Zm.79-6.43a3.6,3.6,0,0,0,1.42-.26,2.92,2.92,0,0,0,1-.67,2.86,2.86,0,0,0,.59-1,3.18,3.18,0,0,0,.2-1.09,2.4,2.4,0,0,0-.17-.9,2,2,0,0,0-.49-.73,2.39,2.39,0,0,0-.8-.49,3.13,3.13,0,0,0-1.1-.18,3.73,3.73,0,0,0-1.34.23,3,3,0,0,0-1,.62,2.62,2.62,0,0,0-.64.93,3,3,0,0,0-.22,1.16,2.83,2.83,0,0,0,.14.87,2.11,2.11,0,0,0,.47.75,2.36,2.36,0,0,0,.79.52A3.34,3.34,0,0,0,239,55.18Z"/><path class="cls-1" d="M251.63,57.81H254l-.07.45a.2.2,0,0,1-.07.15.25.25,0,0,1-.19.06h-2.09l-.44,3.67h-.76l.45-3.67h-6a.38.38,0,0,1-.22-.06.23.23,0,0,1-.1-.15l0-.41,7.45-8.47h.75Zm.07-6.72a3.63,3.63,0,0,1,.13-.64l-6.44,7.36h5.49Z"/><path class="cls-1" d="M260.59,49.26a3.56,3.56,0,0,1,1.53.32,3.43,3.43,0,0,1,1.22,1,5.06,5.06,0,0,1,.8,1.63,8.17,8.17,0,0,1,.28,2.28,11.88,11.88,0,0,1-.44,3.46,7.65,7.65,0,0,1-1.18,2.43,4.84,4.84,0,0,1-1.74,1.44,4.63,4.63,0,0,1-2.07.48,3.71,3.71,0,0,1-1.53-.32,3.43,3.43,0,0,1-1.22-1,4.87,4.87,0,0,1-.8-1.63,8.15,8.15,0,0,1-.29-2.28,11.83,11.83,0,0,1,.45-3.45,7.31,7.31,0,0,1,1.19-2.44,4.87,4.87,0,0,1,1.74-1.45A4.74,4.74,0,0,1,260.59,49.26Zm-1.49,12.3a3.48,3.48,0,0,0,1.69-.43,4.16,4.16,0,0,0,1.43-1.3,7.18,7.18,0,0,0,1-2.21,12.19,12.19,0,0,0,.36-3.15,7.51,7.51,0,0,0-.24-2,4,4,0,0,0-.65-1.4,2.63,2.63,0,0,0-1-.82,2.84,2.84,0,0,0-1.2-.26,3.55,3.55,0,0,0-1.7.43,4.06,4.06,0,0,0-1.43,1.3,7.18,7.18,0,0,0-1,2.21,12.16,12.16,0,0,0-.36,3.14,7.59,7.59,0,0,0,.24,2,4.23,4.23,0,0,0,.65,1.4,2.66,2.66,0,0,0,1,.82A2.84,2.84,0,0,0,259.1,61.56Z"/><path class="cls-1" d="M270.14,58.56a1.8,1.8,0,0,1,.13-.69,2,2,0,0,1,.38-.57,1.79,1.79,0,0,1,.56-.38,1.67,1.67,0,0,1,.67-.14,1.8,1.8,0,0,1,1.26.52,1.81,1.81,0,0,1,.37.57,1.64,1.64,0,0,1,.14.69,1.56,1.56,0,0,1-.14.68,1.78,1.78,0,0,1-1.63,1.07,1.67,1.67,0,0,1-.67-.14,1.79,1.79,0,0,1-.56-.38,1.93,1.93,0,0,1-.38-.55A1.72,1.72,0,0,1,270.14,58.56Z"/><path class="cls-1" d="M287.9,62.14h-.41a.3.3,0,0,1-.24-.08.29.29,0,0,1-.07-.2l.3-2.82a9.57,9.57,0,0,1-.75,1.31,6.31,6.31,0,0,1-.88,1,4,4,0,0,1-1,.66,2.48,2.48,0,0,1-1.07.23,2.05,2.05,0,0,1-1-.22,1.84,1.84,0,0,1-.71-.62,3,3,0,0,1-.43-1,5.24,5.24,0,0,1-.14-1.3,5.64,5.64,0,0,1,.2-1.53,6.07,6.07,0,0,1,.56-1.43,6.29,6.29,0,0,1,.87-1.24,5.42,5.42,0,0,1,1.11-1,5,5,0,0,1,1.3-.65,4.34,4.34,0,0,1,1.43-.24,5.32,5.32,0,0,1,1,.1,3.28,3.28,0,0,1,.92.33Zm-3.81-.6a2,2,0,0,0,1-.29,3.7,3.7,0,0,0,.95-.81,7.18,7.18,0,0,0,.85-1.27,11.89,11.89,0,0,0,.71-1.64l.45-3.65a3.55,3.55,0,0,0-1.15-.18,3.36,3.36,0,0,0-1.17.21,4.21,4.21,0,0,0-1.07.56,4.86,4.86,0,0,0-.91.85,6.28,6.28,0,0,0-.73,1.09,6,6,0,0,0-.47,1.24A5.55,5.55,0,0,0,282.4,59a3.6,3.6,0,0,0,.41,1.87A1.38,1.38,0,0,0,284.09,61.54Z"/><path class="cls-1" d="M296.23,54.28a.23.23,0,0,1-.2.12.33.33,0,0,1-.22-.11,3.56,3.56,0,0,0-.36-.25,2.46,2.46,0,0,0-.56-.25,2.43,2.43,0,0,0-.82-.11,2.49,2.49,0,0,0-.87.15,2.24,2.24,0,0,0-.71.41,1.92,1.92,0,0,0-.48.59,1.54,1.54,0,0,0-.18.72,1.13,1.13,0,0,0,.17.62,1.76,1.76,0,0,0,.46.44,3.47,3.47,0,0,0,.64.32l.73.27c.25.09.5.19.73.3a2.77,2.77,0,0,1,.64.4,1.73,1.73,0,0,1,.46.57,1.83,1.83,0,0,1,.17.81,2.88,2.88,0,0,1-.23,1.12,3,3,0,0,1-.65,1,3.29,3.29,0,0,1-1,.67,3.4,3.4,0,0,1-1.34.25,3.19,3.19,0,0,1-1.46-.3,3.37,3.37,0,0,1-1-.79l.21-.3a.38.38,0,0,1,.11-.11.18.18,0,0,1,.13,0,.37.37,0,0,1,.23.15,2.6,2.6,0,0,0,.37.31,2.31,2.31,0,0,0,.61.32,2.79,2.79,0,0,0,1.89,0,2,2,0,0,0,.75-.48,2.14,2.14,0,0,0,.65-1.56,1.16,1.16,0,0,0-.17-.66,1.54,1.54,0,0,0-.45-.47,3.18,3.18,0,0,0-.64-.32l-.73-.27c-.25-.09-.49-.18-.73-.29a2.52,2.52,0,0,1-.64-.38,1.62,1.62,0,0,1-.62-1.34,2.31,2.31,0,0,1,.22-1,2.77,2.77,0,0,1,.63-.86,2.92,2.92,0,0,1,1-.59,3.7,3.7,0,0,1,2.54,0,2.94,2.94,0,0,1,1,.7Z"/><path class="cls-1" d="M304.32,54.89a2.63,2.63,0,0,1-.1.7,1.78,1.78,0,0,1-.35.63,2.91,2.91,0,0,1-.69.57,5.93,5.93,0,0,1-1.11.48,12.59,12.59,0,0,1-1.61.4c-.62.11-1.35.22-2.19.31l0,.37c0,.13,0,.25,0,.37a3.21,3.21,0,0,0,.61,2.09,2.18,2.18,0,0,0,1.83.76,3.76,3.76,0,0,0,.86-.1,3,3,0,0,0,.68-.27,3.87,3.87,0,0,0,.54-.34l.4-.34.32-.27a.36.36,0,0,1,.23-.1.23.23,0,0,1,.19.09l.2.23a9.05,9.05,0,0,1-.86.81,4.72,4.72,0,0,1-.85.55,4,4,0,0,1-.88.32,4.4,4.4,0,0,1-1,.1,3.47,3.47,0,0,1-1.33-.24,2.69,2.69,0,0,1-1-.71,3.15,3.15,0,0,1-.6-1.1,4.83,4.83,0,0,1-.21-1.47,6.88,6.88,0,0,1,.14-1.35,6.34,6.34,0,0,1,1.06-2.5,5,5,0,0,1,.89-1,4.28,4.28,0,0,1,1.12-.64,3.59,3.59,0,0,1,1.32-.23,3,3,0,0,1,1.11.18,2.34,2.34,0,0,1,.74.46,1.62,1.62,0,0,1,.41.59A1.81,1.81,0,0,1,304.32,54.89Zm-2.43-1.2a2.77,2.77,0,0,0-1.3.3,3.69,3.69,0,0,0-1,.82,4.57,4.57,0,0,0-.75,1.18,6.08,6.08,0,0,0-.44,1.39c.76-.08,1.42-.18,2-.29a13.54,13.54,0,0,0,1.4-.35,4.16,4.16,0,0,0,.93-.4,2.43,2.43,0,0,0,.56-.44,1.27,1.27,0,0,0,.26-.48,1.68,1.68,0,0,0,.07-.5,1.09,1.09,0,0,0-.09-.41,1,1,0,0,0-.28-.4,1.52,1.52,0,0,0-.52-.3A2.21,2.21,0,0,0,301.89,53.69Z"/><path class="cls-1" d="M311.23,54.28a.23.23,0,0,1-.2.12.35.35,0,0,1-.22-.11,3.56,3.56,0,0,0-.36-.25,2.58,2.58,0,0,0-.55-.25,2.53,2.53,0,0,0-.83-.11,2.49,2.49,0,0,0-.87.15,2.36,2.36,0,0,0-.71.41,2.08,2.08,0,0,0-.48.59,1.53,1.53,0,0,0-.17.72,1,1,0,0,0,.17.62,1.58,1.58,0,0,0,.45.44,3.47,3.47,0,0,0,.64.32l.73.27c.26.09.5.19.74.3a3,3,0,0,1,.64.4,1.7,1.7,0,0,1,.45.57,1.83,1.83,0,0,1,.17.81,2.71,2.71,0,0,1-.23,1.12,3,3,0,0,1-.65,1,3.17,3.17,0,0,1-1,.67,3.4,3.4,0,0,1-1.34.25,3,3,0,0,1-2.46-1.09l.2-.3a.38.38,0,0,1,.11-.11.21.21,0,0,1,.14,0,.38.38,0,0,1,.22.15,2.6,2.6,0,0,0,.37.31,2.48,2.48,0,0,0,.61.32,2.52,2.52,0,0,0,.93.15,2.58,2.58,0,0,0,1-.18,2,2,0,0,0,.74-.48,2.2,2.2,0,0,0,.66-1.56,1.16,1.16,0,0,0-.18-.66,1.54,1.54,0,0,0-.45-.47,3.38,3.38,0,0,0-.63-.32l-.74-.27c-.25-.09-.49-.18-.73-.29a2.71,2.71,0,0,1-.64-.38,1.6,1.6,0,0,1-.45-.55,1.71,1.71,0,0,1-.17-.79,2.31,2.31,0,0,1,.22-1,2.77,2.77,0,0,1,.63-.86,2.87,2.87,0,0,1,1-.59,3.23,3.23,0,0,1,1.22-.22,3.3,3.3,0,0,1,1.31.23,2.75,2.75,0,0,1,1,.7Z"/><path class="cls-1" d="M315.61,62.25A3.26,3.26,0,0,1,314.3,62a2.82,2.82,0,0,1-1-.73,3.48,3.48,0,0,1-.65-1.15,5,5,0,0,1-.23-1.55,6.67,6.67,0,0,1,.33-2.09,5.7,5.7,0,0,1,.91-1.77,4.64,4.64,0,0,1,1.4-1.22,3.62,3.62,0,0,1,1.78-.45,3.26,3.26,0,0,1,1.31.25,2.85,2.85,0,0,1,1,.73,3.27,3.27,0,0,1,.65,1.16,4.91,4.91,0,0,1,.23,1.53,6.63,6.63,0,0,1-.33,2.09,6.17,6.17,0,0,1-.91,1.77,4.52,4.52,0,0,1-1.4,1.22A3.5,3.5,0,0,1,315.61,62.25Zm.07-.67a2.65,2.65,0,0,0,1.43-.41,3.8,3.8,0,0,0,1.1-1.09,5.31,5.31,0,0,0,.71-1.56,6.74,6.74,0,0,0,.24-1.8,3.45,3.45,0,0,0-.63-2.22,2.16,2.16,0,0,0-1.78-.79,2.48,2.48,0,0,0-1,.19,2.91,2.91,0,0,0-.84.51,4.08,4.08,0,0,0-.7.79,4.73,4.73,0,0,0-.52,1,6,6,0,0,0-.33,1.14,7.12,7.12,0,0,0-.11,1.23,3.45,3.45,0,0,0,.63,2.22A2.16,2.16,0,0,0,315.68,61.58Z"/><path class="cls-1" d="M321.51,62.14l1.08-9H323a.29.29,0,0,1,.32.33L323,56.14a7.13,7.13,0,0,1,1.4-2.26,2.37,2.37,0,0,1,1.68-.8,1.92,1.92,0,0,1,.76.16l-.15.8a2.13,2.13,0,0,0-.78-.16,2.22,2.22,0,0,0-1.73.95,8.42,8.42,0,0,0-1.32,2.74l-.54,4.57Z"/><path class="cls-1" d="M333.9,54.89a2.63,2.63,0,0,1-.1.7,1.64,1.64,0,0,1-.35.63,2.91,2.91,0,0,1-.69.57,5.53,5.53,0,0,1-1.1.48,13,13,0,0,1-1.61.4c-.63.11-1.36.22-2.2.31l0,.37c0,.13,0,.25,0,.37a3.27,3.27,0,0,0,.61,2.09,2.21,2.21,0,0,0,1.83.76,3.69,3.69,0,0,0,.86-.1,3.31,3.31,0,0,0,.69-.27,4.4,4.4,0,0,0,.53-.34l.41-.34.31-.27a.36.36,0,0,1,.24-.1.23.23,0,0,1,.18.09l.2.23a9.05,9.05,0,0,1-.86.81,5,5,0,0,1-.84.55,4.12,4.12,0,0,1-.89.32,4.4,4.4,0,0,1-1,.1,3.47,3.47,0,0,1-1.33-.24,2.57,2.57,0,0,1-1-.71,3,3,0,0,1-.61-1.1,4.84,4.84,0,0,1-.2-1.47,6.86,6.86,0,0,1,.13-1.35,6.34,6.34,0,0,1,1.06-2.5,5,5,0,0,1,.89-1,4.28,4.28,0,0,1,1.12-.64,3.59,3.59,0,0,1,1.32-.23,3,3,0,0,1,1.11.18,2.23,2.23,0,0,1,.74.46,1.62,1.62,0,0,1,.41.59A1.59,1.59,0,0,1,333.9,54.89Zm-2.43-1.2a2.77,2.77,0,0,0-1.3.3,3.69,3.69,0,0,0-1,.82,4.57,4.57,0,0,0-.75,1.18,6.08,6.08,0,0,0-.44,1.39c.76-.08,1.42-.18,2-.29a13.54,13.54,0,0,0,1.4-.35,4.48,4.48,0,0,0,.94-.4,2.35,2.35,0,0,0,.55-.44,1.27,1.27,0,0,0,.26-.48,1.68,1.68,0,0,0,.07-.5,1.29,1.29,0,0,0-.08-.41,1.11,1.11,0,0,0-.29-.4,1.56,1.56,0,0,0-.51-.3A2.3,2.3,0,0,0,331.47,53.69Z"/><path class="cls-1" d="M340.81,54.28a.22.22,0,0,1-.2.12.35.35,0,0,1-.22-.11A3.28,3.28,0,0,0,340,54a2.93,2.93,0,0,0-.56-.25,2.85,2.85,0,0,0-1.7,0,2.36,2.36,0,0,0-.71.41,2.08,2.08,0,0,0-.48.59,1.65,1.65,0,0,0-.17.72,1,1,0,0,0,.17.62,1.58,1.58,0,0,0,.45.44,3.47,3.47,0,0,0,.64.32l.74.27c.25.09.49.19.73.3a2.77,2.77,0,0,1,.64.4,1.59,1.59,0,0,1,.45.57,1.7,1.7,0,0,1,.17.81,2.71,2.71,0,0,1-.23,1.12,3,3,0,0,1-.65,1,3.17,3.17,0,0,1-1,.67,3.37,3.37,0,0,1-1.34.25,3.15,3.15,0,0,1-1.45-.3,3.25,3.25,0,0,1-1-.79l.2-.3a.56.56,0,0,1,.11-.11.21.21,0,0,1,.14,0c.06,0,.13,0,.22.15a2.76,2.76,0,0,0,.38.31,2.41,2.41,0,0,0,.6.32,2.82,2.82,0,0,0,1.9,0A2.1,2.1,0,0,0,339,61a2.42,2.42,0,0,0,.48-.7,2.27,2.27,0,0,0,.17-.86,1.24,1.24,0,0,0-.17-.66,1.83,1.83,0,0,0-.45-.47,3.47,3.47,0,0,0-.64-.32l-.74-.27c-.24-.09-.49-.18-.73-.29a2.71,2.71,0,0,1-.64-.38,1.87,1.87,0,0,1-.45-.55,1.71,1.71,0,0,1-.17-.79,2.32,2.32,0,0,1,.23-1,2.77,2.77,0,0,1,.63-.86,2.92,2.92,0,0,1,1-.59,3.23,3.23,0,0,1,1.22-.22,3.35,3.35,0,0,1,1.32.23,2.94,2.94,0,0,1,1,.7Z"/><path class="cls-1" d="M347.63,61.37a4.54,4.54,0,0,1-.84.54,3.22,3.22,0,0,1-.83.27,5.29,5.29,0,0,1-.9.07,3.28,3.28,0,0,1-1.35-.26,2.68,2.68,0,0,1-.95-.74,3.39,3.39,0,0,1-.57-1.14,5.38,5.38,0,0,1-.18-1.43,6.74,6.74,0,0,1,.14-1.41,7.38,7.38,0,0,1,.43-1.33,6.08,6.08,0,0,1,.68-1.16,4.86,4.86,0,0,1,.89-.92,4.19,4.19,0,0,1,1.07-.6,3.41,3.41,0,0,1,1.24-.22,3.94,3.94,0,0,1,.8.08,2.83,2.83,0,0,1,.65.25,2.66,2.66,0,0,1,.54.39,4.32,4.32,0,0,1,.45.5l-.25.3a.28.28,0,0,1-.19.1c-.06,0-.13,0-.22-.15a4,4,0,0,0-.35-.31,3,3,0,0,0-.57-.31,2.52,2.52,0,0,0-.89-.14,2.59,2.59,0,0,0-1.4.4,3.8,3.8,0,0,0-1.14,1.09,5.79,5.79,0,0,0-.76,1.58,6.39,6.39,0,0,0-.27,1.86,4.59,4.59,0,0,0,.14,1.15,2.61,2.61,0,0,0,.43.92,2,2,0,0,0,.74.6,2.25,2.25,0,0,0,1,.22,3.2,3.2,0,0,0,1.53-.36,3.23,3.23,0,0,0,.51-.34c.14-.12.28-.23.39-.34l.29-.25a.38.38,0,0,1,.22-.11.26.26,0,0,1,.19.09l.19.24A8.9,8.9,0,0,1,347.63,61.37Z"/><path class="cls-1" d="M351.71,53.18l-.68,5.7a7.43,7.43,0,0,0,0,.78,2.32,2.32,0,0,0,.35,1.4,1.25,1.25,0,0,0,1.09.48,2.21,2.21,0,0,0,1-.25,4.16,4.16,0,0,0,1-.72,6.66,6.66,0,0,0,.9-1.14,9,9,0,0,0,.75-1.49l.57-4.76h.85l-1.08,9H356a.32.32,0,0,1-.25-.09.37.37,0,0,1-.07-.25l.27-2.54a8.4,8.4,0,0,1-.82,1.27,5.92,5.92,0,0,1-.93.94,4,4,0,0,1-1,.58,2.71,2.71,0,0,1-1,.2,1.78,1.78,0,0,1-1.5-.66,3.09,3.09,0,0,1-.5-1.88,1.09,1.09,0,0,1,0-.18c0-.06,0-.17,0-.32s0-.37.07-.64.07-.63.13-1.1.12-1,.2-1.74.18-1.55.3-2.55Z"/><path class="cls-1" d="M359.36,62.14,360.94,49h.84l-1.59,13.1Z"/><path class="cls-1" d="M363.91,60.63a.66.66,0,0,1,0-.13c0-.06,0-.14,0-.24a4.12,4.12,0,0,1,0-.42c0-.17,0-.39.08-.66l.61-5.08h-1.18c-.12,0-.18-.06-.18-.17l0-.37,1.42-.11.59-3.2a.31.31,0,0,1,.08-.15.21.21,0,0,1,.16-.06H366l-.42,3.42h2.59l-.07.64h-2.6l-.62,5c0,.25-.05.45-.07.6s0,.29,0,.39,0,.17,0,.22v.1a1.16,1.16,0,0,0,.27.85,1,1,0,0,0,.71.26,1.47,1.47,0,0,0,.53-.09l.4-.21.28-.21a.29.29,0,0,1,.16-.09.11.11,0,0,1,.08,0s0,0,.05.07l.16.37a2.64,2.64,0,0,1-.87.62,2.52,2.52,0,0,1-1,.23,1.59,1.59,0,0,1-1.16-.4A1.71,1.71,0,0,1,363.91,60.63Z"/><path class="cls-1" d="M370.86,53.18l-.67,5.7a5.54,5.54,0,0,0-.06.78,2.39,2.39,0,0,0,.35,1.4,1.25,1.25,0,0,0,1.09.48,2.21,2.21,0,0,0,1-.25,4,4,0,0,0,1-.72,6.66,6.66,0,0,0,.9-1.14,9,9,0,0,0,.75-1.49l.57-4.76h.85l-1.08,9h-.4a.3.3,0,0,1-.24-.09.37.37,0,0,1-.08-.25l.27-2.54a9.22,9.22,0,0,1-.81,1.27,6,6,0,0,1-.94.94,4,4,0,0,1-1,.58,2.79,2.79,0,0,1-1.05.2,1.78,1.78,0,0,1-1.5-.66,3.09,3.09,0,0,1-.5-1.88c0-.06,0-.12,0-.18a2.86,2.86,0,0,1,0-.32c0-.16,0-.37.06-.64s.08-.63.13-1.1.12-1,.2-1.74.18-1.55.3-2.55Z"/><path class="cls-1" d="M378.3,62.14l1.08-9h.39a.29.29,0,0,1,.32.33l-.27,2.66a7.13,7.13,0,0,1,1.4-2.26,2.37,2.37,0,0,1,1.68-.8,1.92,1.92,0,0,1,.76.16l-.15.8a2.13,2.13,0,0,0-.78-.16,2.22,2.22,0,0,0-1.73.95,8.42,8.42,0,0,0-1.32,2.74l-.54,4.57Z"/><path class="cls-1" d="M390,62.14h-.42a.26.26,0,0,1-.3-.28l.29-2.82a7.86,7.86,0,0,1-.75,1.31,5.81,5.81,0,0,1-.87,1,4,4,0,0,1-1,.66,2.52,2.52,0,0,1-1.07.23,2.07,2.07,0,0,1-1-.22,1.89,1.89,0,0,1-.7-.62,3,3,0,0,1-.43-1,5.24,5.24,0,0,1-.14-1.3,6.05,6.05,0,0,1,.19-1.53,6.57,6.57,0,0,1,.57-1.43,6.69,6.69,0,0,1,.86-1.24,5.75,5.75,0,0,1,1.12-1,4.8,4.8,0,0,1,1.3-.65,4.29,4.29,0,0,1,1.43-.24,5.21,5.21,0,0,1,1,.1,3.34,3.34,0,0,1,.93.33Zm-3.81-.6a1.92,1.92,0,0,0,1-.29,3.54,3.54,0,0,0,.95-.81,6.68,6.68,0,0,0,.85-1.27,10.79,10.79,0,0,0,.72-1.64l.45-3.65a3.55,3.55,0,0,0-1.15-.18,3.36,3.36,0,0,0-1.17.21,4.05,4.05,0,0,0-1.07.56,5.25,5.25,0,0,0-.92.85,5.72,5.72,0,0,0-.72,1.09,5.46,5.46,0,0,0-.47,1.24,5.55,5.55,0,0,0-.17,1.35,3.6,3.6,0,0,0,.41,1.87A1.38,1.38,0,0,0,386.23,61.54Z"/><path class="cls-1" d="M393,62.14,394.6,49h.84l-1.59,13.1Z"/><path class="cls-1" d="M403.54,54.89a2.28,2.28,0,0,1-.1.7,1.64,1.64,0,0,1-.35.63,2.91,2.91,0,0,1-.69.57,5.53,5.53,0,0,1-1.1.48,13,13,0,0,1-1.61.4c-.63.11-1.36.22-2.2.31l0,.37c0,.13,0,.25,0,.37a3.27,3.27,0,0,0,.61,2.09,2.21,2.21,0,0,0,1.83.76,3.69,3.69,0,0,0,.86-.1,3.1,3.1,0,0,0,.69-.27,4.4,4.4,0,0,0,.53-.34l.41-.34.31-.27a.4.4,0,0,1,.24-.1.23.23,0,0,1,.18.09l.2.23a9.05,9.05,0,0,1-.86.81,4.65,4.65,0,0,1-.84.55,4.12,4.12,0,0,1-.89.32,4.34,4.34,0,0,1-1,.1,3.47,3.47,0,0,1-1.33-.24,2.65,2.65,0,0,1-1-.71,3,3,0,0,1-.61-1.1,5.17,5.17,0,0,1-.2-1.47,6.86,6.86,0,0,1,.13-1.35,6.34,6.34,0,0,1,1.06-2.5,5,5,0,0,1,.89-1,4.28,4.28,0,0,1,1.12-.64,3.59,3.59,0,0,1,1.32-.23,3.09,3.09,0,0,1,1.12.18,2.28,2.28,0,0,1,.73.46,1.62,1.62,0,0,1,.41.59A1.59,1.59,0,0,1,403.54,54.89Zm-2.43-1.2a2.8,2.8,0,0,0-1.3.3,3.69,3.69,0,0,0-1,.82A4.85,4.85,0,0,0,398,56a6.62,6.62,0,0,0-.44,1.39c.76-.08,1.42-.18,2-.29a13.54,13.54,0,0,0,1.4-.35,4.48,4.48,0,0,0,.94-.4,2.35,2.35,0,0,0,.55-.44,1.27,1.27,0,0,0,.26-.48,1.68,1.68,0,0,0,.07-.5,1.29,1.29,0,0,0-.08-.41,1.11,1.11,0,0,0-.29-.4,1.56,1.56,0,0,0-.51-.3A2.3,2.3,0,0,0,401.11,53.69Z"/><path class="cls-1" d="M410.45,54.28a.22.22,0,0,1-.2.12.35.35,0,0,1-.22-.11,2.49,2.49,0,0,0-.35-.25,2.68,2.68,0,0,0-.56-.25,2.49,2.49,0,0,0-.83-.11,2.53,2.53,0,0,0-.87.15,2.36,2.36,0,0,0-.71.41,2.08,2.08,0,0,0-.48.59,1.65,1.65,0,0,0-.17.72,1,1,0,0,0,.17.62,1.58,1.58,0,0,0,.45.44,3.82,3.82,0,0,0,.64.32l.74.27c.25.09.49.19.73.3a2.77,2.77,0,0,1,.64.4,1.59,1.59,0,0,1,.45.57,1.7,1.7,0,0,1,.17.81,2.71,2.71,0,0,1-.23,1.12,3,3,0,0,1-.65,1,3.17,3.17,0,0,1-1,.67,3.37,3.37,0,0,1-1.34.25,3.15,3.15,0,0,1-1.45-.3,3.25,3.25,0,0,1-1-.79l.2-.3a.56.56,0,0,1,.11-.11.21.21,0,0,1,.14,0c.06,0,.13,0,.22.15a2.76,2.76,0,0,0,.38.31,2.41,2.41,0,0,0,.6.32,2.82,2.82,0,0,0,1.9,0,2.1,2.1,0,0,0,.75-.48,2.42,2.42,0,0,0,.48-.7,2.27,2.27,0,0,0,.17-.86,1.24,1.24,0,0,0-.17-.66,1.83,1.83,0,0,0-.45-.47A3.47,3.47,0,0,0,408,58l-.74-.27c-.24-.09-.49-.18-.73-.29a2.71,2.71,0,0,1-.64-.38,1.87,1.87,0,0,1-.45-.55,1.71,1.71,0,0,1-.17-.79,2.32,2.32,0,0,1,.23-1,2.77,2.77,0,0,1,.63-.86,2.92,2.92,0,0,1,1-.59,3.23,3.23,0,0,1,1.22-.22,3.35,3.35,0,0,1,1.32.23,2.94,2.94,0,0,1,1,.7Z"/><path class="cls-1" d="M420.29,60.44a1.24,1.24,0,0,1-1-.35,1.43,1.43,0,0,1-.32-1V59a.71.71,0,0,1,0-.14,3.79,3.79,0,0,1-1.2,1.2,2.51,2.51,0,0,1-1.31.38,1.54,1.54,0,0,1-.7-.15,1.28,1.28,0,0,1-.49-.4,1.89,1.89,0,0,1-.28-.59,2.55,2.55,0,0,1-.1-.74,4.15,4.15,0,0,1,.15-1.09,5,5,0,0,1,.43-1.08,5.05,5.05,0,0,1,.68-1,4.37,4.37,0,0,1,.92-.8,4.3,4.3,0,0,1,1.12-.54,4,4,0,0,1,1.31-.2,4.18,4.18,0,0,1,.82.07,3.19,3.19,0,0,1,.68.23l-1.15,3.13a6.51,6.51,0,0,0-.29.95,3.26,3.26,0,0,0-.09.69,1.16,1.16,0,0,0,.09.49.68.68,0,0,0,.21.3.77.77,0,0,0,.3.15,2.21,2.21,0,0,0,.37,0,2,2,0,0,0,1-.33,3.18,3.18,0,0,0,.92-.94,5,5,0,0,0,.65-1.47,6.72,6.72,0,0,0,.25-1.92,5.4,5.4,0,0,0-.34-2,3.88,3.88,0,0,0-.94-1.4,3.83,3.83,0,0,0-1.4-.84,5.21,5.21,0,0,0-1.74-.29,5.38,5.38,0,0,0-1.63.25,5.94,5.94,0,0,0-1.51.71,6.49,6.49,0,0,0-1.31,1.11,7.21,7.21,0,0,0-1,1.49,7.89,7.89,0,0,0-.68,1.8,8.18,8.18,0,0,0-.25,2.08,6.58,6.58,0,0,0,.39,2.35A5,5,0,0,0,414,62.26a4.47,4.47,0,0,0,1.63,1.06,5.5,5.5,0,0,0,2,.36,8.29,8.29,0,0,0,2.29-.3,7,7,0,0,0,1.9-.87.35.35,0,0,1,.18-.06.18.18,0,0,1,.19.16l.06.28a8,8,0,0,1-2.15,1,8.55,8.55,0,0,1-2.53.36,6.21,6.21,0,0,1-2.28-.41,4.93,4.93,0,0,1-1.8-1.19,5.61,5.61,0,0,1-1.18-1.9,7.25,7.25,0,0,1-.42-2.55,8.86,8.86,0,0,1,.27-2.21,8.5,8.5,0,0,1,.75-1.94A7.85,7.85,0,0,1,414,52.46a6.91,6.91,0,0,1,3.13-2,6.22,6.22,0,0,1,1.82-.27,5.76,5.76,0,0,1,1.91.32,4.53,4.53,0,0,1,2.67,2.57,5.46,5.46,0,0,1,.4,2.17,6.74,6.74,0,0,1-.31,2.12,5.52,5.52,0,0,1-.81,1.65,3.93,3.93,0,0,1-1.17,1.07A2.75,2.75,0,0,1,420.29,60.44Zm-3.56-.61a1.73,1.73,0,0,0,.62-.11,1.87,1.87,0,0,0,.65-.39,3.44,3.44,0,0,0,.64-.77,5.78,5.78,0,0,0,.58-1.24l1-2.8a2.59,2.59,0,0,0-.4-.09,3.43,3.43,0,0,0-.48,0,3.2,3.2,0,0,0-1,.16,3.82,3.82,0,0,0-.9.46,4.87,4.87,0,0,0-.75.69,4.78,4.78,0,0,0-.57.84,4.1,4.1,0,0,0-.37.93,3.51,3.51,0,0,0-.13,1,1.93,1.93,0,0,0,.07.55,1.32,1.32,0,0,0,.2.45,1,1,0,0,0,.85.4Z"/><path class="cls-1" d="M431.43,62.14H431a.3.3,0,0,1-.24-.08.29.29,0,0,1-.07-.2L431,59a9.57,9.57,0,0,1-.75,1.31,6.31,6.31,0,0,1-.88,1,4,4,0,0,1-1,.66,2.52,2.52,0,0,1-1.07.23,2.07,2.07,0,0,1-1-.22,1.89,1.89,0,0,1-.7-.62,3,3,0,0,1-.43-1,5.24,5.24,0,0,1-.14-1.3,6.05,6.05,0,0,1,.19-1.53,6.57,6.57,0,0,1,.57-1.43,6.69,6.69,0,0,1,.86-1.24,5.75,5.75,0,0,1,1.12-1,4.8,4.8,0,0,1,1.3-.65,4.29,4.29,0,0,1,1.43-.24,5.21,5.21,0,0,1,1,.1,3.23,3.23,0,0,1,.93.33Zm-3.81-.6a1.92,1.92,0,0,0,1-.29,3.54,3.54,0,0,0,.95-.81,7.2,7.2,0,0,0,.86-1.27,11.89,11.89,0,0,0,.71-1.64l.45-3.65a3.55,3.55,0,0,0-1.15-.18,3.36,3.36,0,0,0-1.17.21,4.05,4.05,0,0,0-1.07.56,5.25,5.25,0,0,0-.92.85,6.24,6.24,0,0,0-.72,1.09,5.46,5.46,0,0,0-.47,1.24,5.55,5.55,0,0,0-.17,1.35,3.6,3.6,0,0,0,.41,1.87A1.38,1.38,0,0,0,427.62,61.54Z"/><path class="cls-1" d="M434.2,62.14l1.08-9h.39q.3,0,.3.33l-.26,2.59a7.93,7.93,0,0,1,.82-1.27,5.36,5.36,0,0,1,.94-1,3.91,3.91,0,0,1,1-.59,2.81,2.81,0,0,1,1.06-.2,1.8,1.8,0,0,1,1.5.65,3,3,0,0,1,.5,1.88v.19a2.79,2.79,0,0,1,0,.33q0,.23-.06.63c0,.27-.08.64-.13,1.11s-.12,1-.2,1.74-.18,1.55-.3,2.56H440l.67-5.73a5.56,5.56,0,0,0,.06-.79,2.32,2.32,0,0,0-.35-1.38,1.25,1.25,0,0,0-1.09-.48,2.26,2.26,0,0,0-1,.25,4.34,4.34,0,0,0-1,.73,6.41,6.41,0,0,0-.91,1.15,8.48,8.48,0,0,0-.74,1.51l-.55,4.74Z"/><path class="cls-1" d="M448.84,61.37a4.23,4.23,0,0,1-.84.54,3.22,3.22,0,0,1-.83.27,5.14,5.14,0,0,1-.9.07,3.28,3.28,0,0,1-1.35-.26,2.77,2.77,0,0,1-.95-.74,3.2,3.2,0,0,1-.56-1.14,5,5,0,0,1-.19-1.43,6.76,6.76,0,0,1,.15-1.41,7.36,7.36,0,0,1,.42-1.33,6.08,6.08,0,0,1,.68-1.16,4.86,4.86,0,0,1,.89-.92,4.08,4.08,0,0,1,1.08-.6,3.36,3.36,0,0,1,1.23-.22,3.87,3.87,0,0,1,.8.08,2.64,2.64,0,0,1,1.19.64,4.32,4.32,0,0,1,.45.5l-.25.3a.26.26,0,0,1-.19.1c-.06,0-.13,0-.22-.15a2.92,2.92,0,0,0-.35-.31,3,3,0,0,0-.57-.31,2.5,2.5,0,0,0-.88-.14,2.6,2.6,0,0,0-1.41.4,3.92,3.92,0,0,0-1.14,1.09,5.5,5.5,0,0,0-.75,1.58,6.39,6.39,0,0,0-.28,1.86,4.59,4.59,0,0,0,.14,1.15,2.79,2.79,0,0,0,.43.92,2,2,0,0,0,.74.6,2.25,2.25,0,0,0,1,.22,3.69,3.69,0,0,0,.86-.1,3.74,3.74,0,0,0,.67-.26,3.23,3.23,0,0,0,.51-.34,4.75,4.75,0,0,0,.39-.34l.29-.25a.41.41,0,0,1,.22-.11.26.26,0,0,1,.19.09l.19.24A8,8,0,0,1,448.84,61.37Z"/><path class="cls-1" d="M451.24,62.14,452.82,49h.85l-.83,6.84a7.15,7.15,0,0,1,.8-1.2,5.43,5.43,0,0,1,.91-.89,3.75,3.75,0,0,1,1-.55,2.75,2.75,0,0,1,1-.19,1.77,1.77,0,0,1,1.5.64,3,3,0,0,1,.5,1.87v.16a2.67,2.67,0,0,1,0,.32c0,.15,0,.37-.07.65s-.07.65-.12,1.12-.12,1.06-.2,1.77-.19,1.55-.31,2.56H457l.67-5.73a5.32,5.32,0,0,0,.06-.78,2.39,2.39,0,0,0-.35-1.4,1.27,1.27,0,0,0-1.09-.47,2.25,2.25,0,0,0-1,.24,4,4,0,0,0-1,.72,6.54,6.54,0,0,0-.89,1.12,7.41,7.41,0,0,0-.75,1.46l-.59,4.84Z"/><path class="cls-1" d="M462.6,53.18l-1.09,9h-.84l1.09-9Zm.65-3.09a.81.81,0,0,1-.06.31.81.81,0,0,1-.17.24.7.7,0,0,1-.25.17.58.58,0,0,1-.28.07.57.57,0,0,1-.29-.07.66.66,0,0,1-.24-.17,1,1,0,0,1-.17-.24.81.81,0,0,1-.06-.31.77.77,0,0,1,.06-.3,1.17,1.17,0,0,1,.17-.26.81.81,0,0,1,.24-.17.57.57,0,0,1,.29-.07.58.58,0,0,1,.28.07.78.78,0,0,1,.48.73Z"/><path class="cls-1" d="M464.13,65.3l1.48-12.15H466c.21,0,.31.11.31.33L466,56.3a9,9,0,0,1,.79-1.33,6.22,6.22,0,0,1,.93-1,4.43,4.43,0,0,1,1-.66,2.56,2.56,0,0,1,1.08-.23,2.19,2.19,0,0,1,1,.22,1.91,1.91,0,0,1,.74.64,2.82,2.82,0,0,1,.45,1,4.85,4.85,0,0,1,.16,1.31,6.74,6.74,0,0,1-.15,1.4,7.4,7.4,0,0,1-.41,1.39,6.78,6.78,0,0,1-.64,1.26,5.27,5.27,0,0,1-.87,1,4.11,4.11,0,0,1-1.07.7,3,3,0,0,1-1.23.25,2.79,2.79,0,0,1-1.34-.32,2.63,2.63,0,0,1-1-1L465,65.3Zm5.43-11.56a2.1,2.1,0,0,0-1,.28,4,4,0,0,0-1,.81,7.87,7.87,0,0,0-.89,1.25,9.92,9.92,0,0,0-.75,1.64l-.32,2.57a2.31,2.31,0,0,0,1,1,2.64,2.64,0,0,0,1.19.29,2.52,2.52,0,0,0,1.06-.23,3,3,0,0,0,.89-.63,4.1,4.1,0,0,0,.71-.92,6.25,6.25,0,0,0,.52-1.11,6.93,6.93,0,0,0,.44-2.4,3.27,3.27,0,0,0-.46-1.88A1.5,1.5,0,0,0,469.56,53.74Z"/><path class="cls-1" d="M475.36,53.18l-.67,5.7a5.45,5.45,0,0,0-.05.78,2.39,2.39,0,0,0,.34,1.4,1.27,1.27,0,0,0,1.1.48,2.21,2.21,0,0,0,1-.25,4.16,4.16,0,0,0,1-.72,7.19,7.19,0,0,0,.9-1.14,8.28,8.28,0,0,0,.74-1.49l.58-4.76h.85l-1.08,9h-.4a.3.3,0,0,1-.25-.09.37.37,0,0,1-.07-.25l.27-2.54a8.4,8.4,0,0,1-.82,1.27,6.37,6.37,0,0,1-.93.94,4,4,0,0,1-1,.58,2.74,2.74,0,0,1-1,.2,1.75,1.75,0,0,1-1.5-.66,3.09,3.09,0,0,1-.5-1.88v-.18c0-.06,0-.17,0-.32s0-.37.07-.64.07-.63.13-1.1.12-1,.2-1.74.18-1.55.3-2.55Z"/><path class="cls-1" d="M482.81,62.14l1.08-9h.39c.21,0,.31.11.31.33l-.26,2.66a7,7,0,0,1,1.4-2.26,2.34,2.34,0,0,1,1.68-.8,1.88,1.88,0,0,1,.75.16L488,54a2.08,2.08,0,0,0-.77-.16,2.23,2.23,0,0,0-1.74.95,8.23,8.23,0,0,0-1.31,2.74l-.55,4.57Z"/><path class="cls-1" d="M494.54,62.14h-.41a.33.33,0,0,1-.24-.08.35.35,0,0,1-.07-.2l.3-2.82a9.57,9.57,0,0,1-.75,1.31,5.81,5.81,0,0,1-.87,1,4,4,0,0,1-1,.66,2.47,2.47,0,0,1-1.06.23,2.07,2.07,0,0,1-1-.22,1.91,1.91,0,0,1-.71-.62,3,3,0,0,1-.43-1,5.76,5.76,0,0,1-.14-1.3,6.06,6.06,0,0,1,.2-1.53,6.54,6.54,0,0,1,.56-1.43,6.74,6.74,0,0,1,.87-1.24,6,6,0,0,1,1.11-1,5.1,5.1,0,0,1,1.3-.65,4.34,4.34,0,0,1,1.43-.24,5.32,5.32,0,0,1,1,.1,3.46,3.46,0,0,1,.93.33Zm-3.8-.6a1.92,1.92,0,0,0,1-.29,3.7,3.7,0,0,0,.95-.81,7.18,7.18,0,0,0,.85-1.27,10.79,10.79,0,0,0,.72-1.64l.45-3.65a3.62,3.62,0,0,0-1.16-.18,3.36,3.36,0,0,0-1.17.21,4.15,4.15,0,0,0-1.06.56,4.92,4.92,0,0,0-.92.85,5.72,5.72,0,0,0-.72,1.09,5.49,5.49,0,0,0-.48,1.24A5.55,5.55,0,0,0,489,59a3.6,3.6,0,0,0,.41,1.87A1.41,1.41,0,0,0,490.74,61.54Z"/><path class="cls-1" d="M502.74,61.37a4.54,4.54,0,0,1-.84.54,3.22,3.22,0,0,1-.83.27,5.14,5.14,0,0,1-.9.07,3.28,3.28,0,0,1-1.35-.26,2.77,2.77,0,0,1-.95-.74,3.2,3.2,0,0,1-.56-1.14,5,5,0,0,1-.19-1.43,6.76,6.76,0,0,1,.15-1.41,6.12,6.12,0,0,1,1.1-2.49,4.86,4.86,0,0,1,.89-.92,4.08,4.08,0,0,1,1.08-.6,3.32,3.32,0,0,1,1.23-.22,3.87,3.87,0,0,1,.8.08,2.64,2.64,0,0,1,1.19.64,4.32,4.32,0,0,1,.45.5l-.25.3a.26.26,0,0,1-.19.1c-.06,0-.13,0-.22-.15a2.92,2.92,0,0,0-.35-.31,3,3,0,0,0-.57-.31,2.5,2.5,0,0,0-.88-.14,2.6,2.6,0,0,0-1.41.4A3.8,3.8,0,0,0,499,55.24a5.5,5.5,0,0,0-.75,1.58,6.07,6.07,0,0,0-.28,1.86,4.59,4.59,0,0,0,.14,1.15,2.61,2.61,0,0,0,.43.92,2,2,0,0,0,.74.6,2.25,2.25,0,0,0,1,.22,3.69,3.69,0,0,0,.86-.1,3.74,3.74,0,0,0,.67-.26,3.23,3.23,0,0,0,.51-.34,4.75,4.75,0,0,0,.39-.34l.29-.25a.37.37,0,0,1,.23-.11.26.26,0,0,1,.18.09l.19.24A8.9,8.9,0,0,1,502.74,61.37Z"/><path class="cls-1" d="M504.74,61.44a.87.87,0,0,1,.06-.32,1,1,0,0,1,.18-.27,1,1,0,0,1,.26-.18.88.88,0,0,1,.33-.06,1,1,0,0,1,.33.06.83.83,0,0,1,.45.45.88.88,0,0,1,.07.32.8.8,0,0,1-.25.59.85.85,0,0,1-.6.24A.81.81,0,0,1,505,62,.79.79,0,0,1,504.74,61.44Z"/><path class="cls-1" d="M514,61.37a4,4,0,0,1-.84.54,3.22,3.22,0,0,1-.83.27,5.14,5.14,0,0,1-.9.07,3.27,3.27,0,0,1-1.34-.26,2.68,2.68,0,0,1-.95-.74,3.39,3.39,0,0,1-.57-1.14,5,5,0,0,1-.19-1.43,6.76,6.76,0,0,1,.15-1.41,6.67,6.67,0,0,1,.43-1.33,6,6,0,0,1,.67-1.16,5.19,5.19,0,0,1,.89-.92,4.08,4.08,0,0,1,1.08-.6,3.41,3.41,0,0,1,1.24-.22,3.77,3.77,0,0,1,.79.08,2.74,2.74,0,0,1,.66.25,2.9,2.9,0,0,1,.53.39,3.64,3.64,0,0,1,.46.5l-.26.3a.24.24,0,0,1-.19.1c-.06,0-.13,0-.22-.15a2.3,2.3,0,0,0-.35-.31,2.27,2.27,0,0,0-1.45-.45,2.64,2.64,0,0,0-1.41.4,3.89,3.89,0,0,0-1.13,1.09,5.51,5.51,0,0,0-.76,1.58,6.39,6.39,0,0,0-.27,1.86,4.17,4.17,0,0,0,.14,1.15,2.45,2.45,0,0,0,.43.92,1.93,1.93,0,0,0,.73.6,2.25,2.25,0,0,0,1,.22,3.69,3.69,0,0,0,.86-.1,3.47,3.47,0,0,0,.67-.26,2.51,2.51,0,0,0,.51-.34l.4-.34.29-.25a.35.35,0,0,1,.22-.11.28.28,0,0,1,.19.09l.19.24A8,8,0,0,1,514,61.37Z"/><path class="cls-1" d="M519.36,62.25a3.26,3.26,0,0,1-1.31-.25,2.73,2.73,0,0,1-1-.73,3.31,3.31,0,0,1-.65-1.15,5,5,0,0,1-.23-1.55,6.67,6.67,0,0,1,.33-2.09,5.7,5.7,0,0,1,.91-1.77,4.52,4.52,0,0,1,1.4-1.22,3.59,3.59,0,0,1,1.78-.45,3.26,3.26,0,0,1,1.31.25,2.94,2.94,0,0,1,1,.73,3.43,3.43,0,0,1,.65,1.16,4.91,4.91,0,0,1,.23,1.53,6.63,6.63,0,0,1-.33,2.09,6.2,6.2,0,0,1-.92,1.77,4.49,4.49,0,0,1-1.39,1.22A3.5,3.5,0,0,1,519.36,62.25Zm.07-.67a2.65,2.65,0,0,0,1.43-.41,3.93,3.93,0,0,0,1.1-1.09,5.3,5.3,0,0,0,.7-1.56,6.36,6.36,0,0,0,.25-1.8,3.4,3.4,0,0,0-.64-2.22,2.13,2.13,0,0,0-1.77-.79,2.45,2.45,0,0,0-1,.19,3,3,0,0,0-.85.51,4.44,4.44,0,0,0-.7.79,5.25,5.25,0,0,0-.52,1,6,6,0,0,0-.32,1.14,6.25,6.25,0,0,0-.11,1.23,3.45,3.45,0,0,0,.63,2.22A2.15,2.15,0,0,0,519.43,61.58Z"/><path class="cls-1" d="M525.26,62.14l1.08-9h.39c.21,0,.31.11.31.33l-.25,2.5a6.71,6.71,0,0,1,1.62-2.16,2.94,2.94,0,0,1,1.94-.77,1.45,1.45,0,0,1,1.28.56,3,3,0,0,1,.38,1.63q0,.32,0,.66a7.52,7.52,0,0,1,.77-1.26,5.71,5.71,0,0,1,.88-.89,3.92,3.92,0,0,1,1-.53,3.05,3.05,0,0,1,1-.17,1.57,1.57,0,0,1,1.38.6,3.06,3.06,0,0,1,.43,1.74,1.48,1.48,0,0,1,0,.2,3.23,3.23,0,0,1,0,.35c0,.17,0,.39-.06.67s-.07.67-.13,1.15-.12,1.08-.21,1.79-.18,1.57-.3,2.59h-.84l.68-5.73c0-.19,0-.37,0-.53s0-.32,0-.47a2.2,2.2,0,0,0-.28-1.23,1.08,1.08,0,0,0-1-.42,2.13,2.13,0,0,0-.9.2,3.45,3.45,0,0,0-.89.61,5.17,5.17,0,0,0-.83,1A7.73,7.73,0,0,0,532,57l-.61,5.11h-.83l.67-5.73a7.81,7.81,0,0,0,.08-1.11,2,2,0,0,0-.26-1.15,1,1,0,0,0-.93-.39,2.57,2.57,0,0,0-1.89.93,8.3,8.3,0,0,0-1.53,2.65l-.56,4.8Z"/><path class="cls-1" d="M543.72,58.56a1.81,1.81,0,0,1,.14-.69,1.84,1.84,0,0,1,.38-.57,1.79,1.79,0,0,1,.56-.38,1.67,1.67,0,0,1,.67-.14,1.77,1.77,0,0,1,.69.14,1.68,1.68,0,0,1,.56.38,1.84,1.84,0,0,1,.38.57,1.64,1.64,0,0,1,.14.69,1.56,1.56,0,0,1-.14.68,1.75,1.75,0,0,1-.38.55,1.68,1.68,0,0,1-.56.38,1.77,1.77,0,0,1-.69.14,1.67,1.67,0,0,1-.67-.14,1.79,1.79,0,0,1-.56-.38,1.75,1.75,0,0,1-.38-.55A1.72,1.72,0,0,1,543.72,58.56Z"/><path class="cls-1" d="M551.9,53.18h.6a.25.25,0,0,1,.27.22L554,60.46c0,.13,0,.26,0,.39v.36l.15-.36a3.12,3.12,0,0,1,.15-.39l3.08-7.13a.26.26,0,0,1,.27-.19H558a.19.19,0,0,1,.22.19l1.33,7.13a3,3,0,0,1,.06.4l0,.38a2.4,2.4,0,0,1,.12-.38,4,4,0,0,1,.15-.4l2.93-7.06a.4.4,0,0,1,.12-.16.3.3,0,0,1,.18-.06h.59l-3.83,9h-.61c-.09,0-.15-.07-.17-.19l-1.38-7.27a2.18,2.18,0,0,1-.05-.42,3.22,3.22,0,0,1-.16.42L554.36,62c-.05.12-.13.19-.22.19h-.6Z"/><path class="cls-1" d="M564.16,53.18h.61a.25.25,0,0,1,.27.22l1.2,7.06a1.72,1.72,0,0,1,0,.39c0,.12,0,.24,0,.36l.14-.36c.05-.13.1-.26.16-.39l3.07-7.13a.27.27,0,0,1,.27-.19h.33a.2.2,0,0,1,.22.19l1.32,7.13a1.44,1.44,0,0,1,.06.4l0,.38.12-.38a4.16,4.16,0,0,1,.16-.4l2.93-7.06a.4.4,0,0,1,.12-.16.28.28,0,0,1,.18-.06H576l-3.83,9h-.62c-.09,0-.14-.07-.17-.19L570,54.68a2.18,2.18,0,0,1,0-.42,3.22,3.22,0,0,1-.16.42L566.62,62c0,.12-.12.19-.22.19h-.59Z"/><path class="cls-1" d="M576.43,53.18h.6a.25.25,0,0,1,.27.22l1.21,7.06a2.58,2.58,0,0,1,0,.39v.36l.15-.36.15-.39,3.08-7.13a.27.27,0,0,1,.27-.19h.32a.2.2,0,0,1,.23.19l1.32,7.13a3,3,0,0,1,.06.4l0,.38.12-.38a4,4,0,0,1,.15-.4l2.93-7.06a.53.53,0,0,1,.13-.16.27.27,0,0,1,.17-.06h.6l-3.84,9h-.61c-.09,0-.15-.07-.17-.19l-1.38-7.27a2.12,2.12,0,0,1,0-.42c0,.13-.1.27-.16.42L578.89,62c0,.12-.12.19-.22.19h-.59Z"/><path class="cls-1" d="M587.91,61.44a.87.87,0,0,1,.06-.32,1,1,0,0,1,.17-.27,1.51,1.51,0,0,1,.26-.18.94.94,0,0,1,.66,0,.91.91,0,0,1,.27.18.8.8,0,0,1,.18.27.71.71,0,0,1,.07.32.76.76,0,0,1-.25.59.86.86,0,0,1-1.19,0A.78.78,0,0,1,587.91,61.44Z"/><path class="cls-1" d="M597.83,62.14h-.41a.3.3,0,0,1-.24-.08.29.29,0,0,1-.07-.2l.3-2.82a9.57,9.57,0,0,1-.75,1.31,6.31,6.31,0,0,1-.88,1,4,4,0,0,1-1,.66,2.47,2.47,0,0,1-1.06.23,2.07,2.07,0,0,1-1-.22,1.84,1.84,0,0,1-.71-.62,3,3,0,0,1-.43-1,5.76,5.76,0,0,1-.14-1.3,5.64,5.64,0,0,1,.2-1.53,6.54,6.54,0,0,1,.56-1.43,6.29,6.29,0,0,1,.87-1.24,5.42,5.42,0,0,1,1.11-1,5,5,0,0,1,1.3-.65,4.34,4.34,0,0,1,1.43-.24,5.32,5.32,0,0,1,1,.1,3.28,3.28,0,0,1,.92.33Zm-3.8-.6a2,2,0,0,0,1-.29,3.7,3.7,0,0,0,1-.81,7.18,7.18,0,0,0,.85-1.27,11.89,11.89,0,0,0,.71-1.64l.45-3.65a3.51,3.51,0,0,0-1.15-.18,3.36,3.36,0,0,0-1.17.21,4.21,4.21,0,0,0-1.07.56,4.86,4.86,0,0,0-.91.85,6.28,6.28,0,0,0-.73,1.09,6,6,0,0,0-.47,1.24,5.55,5.55,0,0,0-.17,1.35,3.6,3.6,0,0,0,.41,1.87A1.4,1.4,0,0,0,594,61.54Z"/><path class="cls-1" d="M600.6,62.14l1.08-9h.39c.2,0,.31.11.31.33l-.27,2.59a7.93,7.93,0,0,1,.82-1.27,5.72,5.72,0,0,1,.94-1,3.8,3.8,0,0,1,1-.59,2.76,2.76,0,0,1,1.05-.2,1.77,1.77,0,0,1,1.5.65,3,3,0,0,1,.51,1.88,1.28,1.28,0,0,1,0,.19c0,.07,0,.18,0,.33s0,.36-.07.63-.07.64-.13,1.11-.12,1-.2,1.74-.18,1.55-.3,2.56h-.85l.68-5.73a7.45,7.45,0,0,0,.05-.79,2.25,2.25,0,0,0-.35-1.38,1.25,1.25,0,0,0-1.09-.48,2.32,2.32,0,0,0-1,.25,4.34,4.34,0,0,0-1,.73,6.38,6.38,0,0,0-.9,1.15A7.87,7.87,0,0,0,602,57.4l-.55,4.74Z"/><path class="cls-1" d="M615.24,61.37a4,4,0,0,1-.84.54,3.22,3.22,0,0,1-.83.27,5.14,5.14,0,0,1-.9.07,3.27,3.27,0,0,1-1.34-.26,2.68,2.68,0,0,1-1-.74,3.22,3.22,0,0,1-.57-1.14,5,5,0,0,1-.19-1.43,6.76,6.76,0,0,1,.15-1.41,6.67,6.67,0,0,1,.43-1.33,6,6,0,0,1,.67-1.16,5.19,5.19,0,0,1,.89-.92,4.08,4.08,0,0,1,1.08-.6,3.41,3.41,0,0,1,1.24-.22,3.84,3.84,0,0,1,.79.08,2.74,2.74,0,0,1,.66.25,2.9,2.9,0,0,1,.53.39,3.64,3.64,0,0,1,.46.5l-.26.3a.24.24,0,0,1-.19.1c-.06,0-.13,0-.22-.15a2.3,2.3,0,0,0-.35-.31,2.27,2.27,0,0,0-1.45-.45,2.62,2.62,0,0,0-1.41.4,3.77,3.77,0,0,0-1.13,1.09,5.51,5.51,0,0,0-.76,1.58,6.39,6.39,0,0,0-.27,1.86,4.6,4.6,0,0,0,.13,1.15,2.62,2.62,0,0,0,.44.92,1.93,1.93,0,0,0,.73.6,2.25,2.25,0,0,0,1,.22,3.69,3.69,0,0,0,.86-.1,3.47,3.47,0,0,0,.67-.26,2.83,2.83,0,0,0,.51-.34l.4-.34.29-.25a.35.35,0,0,1,.22-.11.28.28,0,0,1,.19.09l.19.24A8,8,0,0,1,615.24,61.37Z"/><path class="cls-1" d="M617.64,62.14,619.22,49h.85l-.83,6.84a7.15,7.15,0,0,1,.8-1.2,5.13,5.13,0,0,1,.92-.89,3.86,3.86,0,0,1,1-.55,2.83,2.83,0,0,1,1-.19,1.8,1.8,0,0,1,1.51.64,3.06,3.06,0,0,1,.5,1.87s0,.1,0,.16,0,.17,0,.32,0,.37-.07.65-.08.65-.13,1.12-.12,1.06-.2,1.77-.18,1.55-.3,2.56h-.85l.68-5.73a7.11,7.11,0,0,0,0-.78,2.39,2.39,0,0,0-.35-1.4,1.27,1.27,0,0,0-1.09-.47,2.32,2.32,0,0,0-1,.24,4,4,0,0,0-1,.72,6.54,6.54,0,0,0-.89,1.12,8,8,0,0,0-.75,1.46l-.58,4.84Z"/><path class="cls-1" d="M629,53.18l-1.09,9h-.84l1.09-9Zm.65-3.09a.81.81,0,0,1-.06.31.81.81,0,0,1-.17.24.62.62,0,0,1-.25.17.55.55,0,0,1-.28.07.59.59,0,0,1-.29-.07.66.66,0,0,1-.24-.17.78.78,0,0,1-.16-.24.67.67,0,0,1-.07-.31.63.63,0,0,1,.07-.3.87.87,0,0,1,.16-.26.81.81,0,0,1,.24-.17.59.59,0,0,1,.29-.07.55.55,0,0,1,.28.07.74.74,0,0,1,.25.17.77.77,0,0,1,.23.56Z"/><path class="cls-1" d="M630.54,65.3,632,53.15h.39c.21,0,.31.11.31.33l-.28,2.82a8.16,8.16,0,0,1,.78-1.33,6.22,6.22,0,0,1,.93-1,4.43,4.43,0,0,1,1-.66,2.63,2.63,0,0,1,1.08-.23,2.26,2.26,0,0,1,1,.22,2.06,2.06,0,0,1,.74.64,3.23,3.23,0,0,1,.45,1,5.3,5.3,0,0,1,.15,1.31,6.74,6.74,0,0,1-.15,1.4,8.2,8.2,0,0,1-.4,1.39,7.48,7.48,0,0,1-.65,1.26,5.27,5.27,0,0,1-.87,1,4.11,4.11,0,0,1-1.07.7,3,3,0,0,1-1.23.25,2.79,2.79,0,0,1-1.34-.32,2.63,2.63,0,0,1-1-1l-.53,4.32ZM636,53.74a2.13,2.13,0,0,0-1,.28,4,4,0,0,0-1,.81,7.3,7.3,0,0,0-.9,1.25,10.81,10.81,0,0,0-.75,1.64L632,60.29a2.24,2.24,0,0,0,1,1,2.64,2.64,0,0,0,1.19.29,2.52,2.52,0,0,0,1.06-.23,2.89,2.89,0,0,0,.89-.63,4.1,4.1,0,0,0,.71-.92,6.29,6.29,0,0,0,.53-1.11,7.08,7.08,0,0,0,.32-1.2,6.23,6.23,0,0,0,.11-1.2,3.27,3.27,0,0,0-.46-1.88A1.5,1.5,0,0,0,636,53.74Z"/><path class="cls-1" d="M641.77,53.18l-.68,5.7a7.43,7.43,0,0,0-.05.78,2.32,2.32,0,0,0,.35,1.4,1.25,1.25,0,0,0,1.09.48,2.21,2.21,0,0,0,1-.25,4.16,4.16,0,0,0,1-.72,6.66,6.66,0,0,0,.9-1.14,9,9,0,0,0,.75-1.49l.57-4.76h.85l-1.08,9h-.4a.33.33,0,0,1-.25-.09.37.37,0,0,1-.07-.25l.27-2.54a8.4,8.4,0,0,1-.82,1.27,5.92,5.92,0,0,1-.93.94,4.16,4.16,0,0,1-1,.58,2.79,2.79,0,0,1-1,.2,1.78,1.78,0,0,1-1.5-.66,3.09,3.09,0,0,1-.5-1.88c0-.06,0-.12,0-.18s0-.17,0-.32,0-.37.07-.64.07-.63.13-1.1.12-1,.2-1.74.18-1.55.3-2.55Z"/><path class="cls-1" d="M649.21,62.14l1.08-9h.39c.21,0,.31.11.31.33l-.26,2.66a7.13,7.13,0,0,1,1.4-2.26,2.36,2.36,0,0,1,1.68-.8,1.92,1.92,0,0,1,.76.16l-.16.8a2,2,0,0,0-.77-.16,2.22,2.22,0,0,0-1.73.95,8,8,0,0,0-1.32,2.74l-.54,4.57Z"/><path class="cls-1" d="M661,62.14h-.42a.33.33,0,0,1-.24-.08.34.34,0,0,1-.06-.2l.29-2.82a8.63,8.63,0,0,1-.75,1.31,5.81,5.81,0,0,1-.87,1,3.84,3.84,0,0,1-1,.66,2.44,2.44,0,0,1-1.06.23,2.07,2.07,0,0,1-1-.22,1.91,1.91,0,0,1-.71-.62,3,3,0,0,1-.42-1,5.22,5.22,0,0,1-.15-1.3,6.06,6.06,0,0,1,.2-1.53,6.54,6.54,0,0,1,.56-1.43,7.26,7.26,0,0,1,.87-1.24,6,6,0,0,1,1.11-1,5.1,5.1,0,0,1,1.3-.65,4.38,4.38,0,0,1,1.43-.24,5.24,5.24,0,0,1,1,.1,3.46,3.46,0,0,1,.93.33Zm-3.81-.6a1.92,1.92,0,0,0,1-.29,3.54,3.54,0,0,0,1-.81,6.68,6.68,0,0,0,.85-1.27,10.79,10.79,0,0,0,.72-1.64l.45-3.65A3.6,3.6,0,0,0,660,53.7a3.28,3.28,0,0,0-1.17.21,4.05,4.05,0,0,0-1.07.56,5.25,5.25,0,0,0-.92.85,5.72,5.72,0,0,0-.72,1.09,6,6,0,0,0-.48,1.24,5.54,5.54,0,0,0-.16,1.35,3.51,3.51,0,0,0,.41,1.87A1.38,1.38,0,0,0,657.14,61.54Z"/><path class="cls-1" d="M669.14,61.37a4,4,0,0,1-.84.54,3.22,3.22,0,0,1-.83.27,5.14,5.14,0,0,1-.9.07,3.23,3.23,0,0,1-1.34-.26,2.68,2.68,0,0,1-1-.74,3.39,3.39,0,0,1-.57-1.14,5,5,0,0,1-.19-1.43,6.76,6.76,0,0,1,.15-1.41,6.67,6.67,0,0,1,.43-1.33,6,6,0,0,1,.67-1.16,4.86,4.86,0,0,1,.89-.92,4.08,4.08,0,0,1,1.08-.6A3.36,3.36,0,0,1,668,53a3.87,3.87,0,0,1,.8.08,2.51,2.51,0,0,1,.65.25,2.66,2.66,0,0,1,.54.39,3,3,0,0,1,.45.5l-.25.3a.26.26,0,0,1-.19.1c-.06,0-.13,0-.22-.15a2.3,2.3,0,0,0-.35-.31,2.7,2.7,0,0,0-.57-.31,2.46,2.46,0,0,0-.88-.14,2.62,2.62,0,0,0-1.41.4,3.89,3.89,0,0,0-1.13,1.09,5.51,5.51,0,0,0-.76,1.58,6.39,6.39,0,0,0-.28,1.86,4.16,4.16,0,0,0,.15,1.15,2.45,2.45,0,0,0,.43.92,1.93,1.93,0,0,0,.73.6,2.25,2.25,0,0,0,1,.22,3.69,3.69,0,0,0,.86-.1,3.74,3.74,0,0,0,.67-.26,2.83,2.83,0,0,0,.51-.34,4.75,4.75,0,0,0,.39-.34l.3-.25a.35.35,0,0,1,.22-.11.28.28,0,0,1,.19.09l.18.24A7.21,7.21,0,0,1,669.14,61.37Z"/><path class="cls-1" d="M671.14,61.44a.71.71,0,0,1,.07-.32,1,1,0,0,1,.17-.27,1.2,1.2,0,0,1,.26-.18.94.94,0,0,1,.66,0,.83.83,0,0,1,.45.45.88.88,0,0,1,.07.32.8.8,0,0,1-.25.59.85.85,0,0,1-.6.24.81.81,0,0,1-.59-.24A.79.79,0,0,1,671.14,61.44Z"/><path class="cls-1" d="M680.45,61.37a4.54,4.54,0,0,1-.84.54,3.35,3.35,0,0,1-.83.27,5.33,5.33,0,0,1-.91.07,3.27,3.27,0,0,1-1.34-.26,2.68,2.68,0,0,1-.95-.74,3.39,3.39,0,0,1-.57-1.14,5.38,5.38,0,0,1-.19-1.43,6.76,6.76,0,0,1,.15-1.41,6.67,6.67,0,0,1,.43-1.33,6.08,6.08,0,0,1,.68-1.16,4.86,4.86,0,0,1,.89-.92,4,4,0,0,1,1.07-.6,3.41,3.41,0,0,1,1.24-.22,3.94,3.94,0,0,1,.8.08,2.83,2.83,0,0,1,.65.25,2.66,2.66,0,0,1,.54.39,4.32,4.32,0,0,1,.45.5l-.25.3a.28.28,0,0,1-.19.1.33.33,0,0,1-.22-.15,3.11,3.11,0,0,0-.36-.31,2.47,2.47,0,0,0-.57-.31,2.42,2.42,0,0,0-.88-.14,2.64,2.64,0,0,0-1.41.4,3.89,3.89,0,0,0-1.13,1.09,5.79,5.79,0,0,0-.76,1.58,6.39,6.39,0,0,0-.27,1.86,4.59,4.59,0,0,0,.14,1.15,2.61,2.61,0,0,0,.43.92,2,2,0,0,0,.73.6,2.32,2.32,0,0,0,1,.22,3.6,3.6,0,0,0,.85-.1,3.47,3.47,0,0,0,.67-.26,2.92,2.92,0,0,0,.52-.34l.39-.34.29-.25a.35.35,0,0,1,.22-.11.26.26,0,0,1,.19.09l.19.24A8.9,8.9,0,0,1,680.45,61.37Z"/><path class="cls-1" d="M685.76,62.25a3.26,3.26,0,0,1-1.31-.25,2.82,2.82,0,0,1-1-.73,3.48,3.48,0,0,1-.65-1.15,5,5,0,0,1-.23-1.55,6.67,6.67,0,0,1,.33-2.09,5.7,5.7,0,0,1,.91-1.77,4.64,4.64,0,0,1,1.4-1.22A3.62,3.62,0,0,1,687,53a3.26,3.26,0,0,1,1.31.25,2.85,2.85,0,0,1,1,.73,3.43,3.43,0,0,1,.65,1.16,4.91,4.91,0,0,1,.23,1.53,6.63,6.63,0,0,1-.33,2.09,6.17,6.17,0,0,1-.91,1.77,4.52,4.52,0,0,1-1.4,1.22A3.5,3.5,0,0,1,685.76,62.25Zm.07-.67a2.65,2.65,0,0,0,1.43-.41,3.8,3.8,0,0,0,1.1-1.09,5.31,5.31,0,0,0,.71-1.56,6.74,6.74,0,0,0,.24-1.8,3.45,3.45,0,0,0-.63-2.22,2.16,2.16,0,0,0-1.78-.79,2.48,2.48,0,0,0-1,.19,2.78,2.78,0,0,0-.84.51,4.08,4.08,0,0,0-.7.79,4.73,4.73,0,0,0-.52,1,6,6,0,0,0-.33,1.14,7.12,7.12,0,0,0-.11,1.23,3.45,3.45,0,0,0,.63,2.22A2.16,2.16,0,0,0,685.83,61.58Z"/><path class="cls-1" d="M691.66,62.14l1.08-9h.39a.29.29,0,0,1,.32.33l-.26,2.5a6.71,6.71,0,0,1,1.62-2.16,3,3,0,0,1,1.94-.77,1.44,1.44,0,0,1,1.28.56,3,3,0,0,1,.38,1.63c0,.21,0,.43,0,.66a6.92,6.92,0,0,1,.77-1.26,5,5,0,0,1,.88-.89,3.75,3.75,0,0,1,1-.53,2.94,2.94,0,0,1,1-.17,1.6,1.6,0,0,1,1.39.6,3.06,3.06,0,0,1,.42,1.74,1.48,1.48,0,0,1,0,.2c0,.07,0,.19,0,.35s0,.39-.07.67-.07.67-.13,1.15-.12,1.08-.2,1.79-.19,1.57-.31,2.59h-.84l.68-5.73c0-.19,0-.37,0-.53a3.86,3.86,0,0,0,0-.47,2.2,2.2,0,0,0-.28-1.23,1.07,1.07,0,0,0-1-.42,2.16,2.16,0,0,0-.9.2,3.45,3.45,0,0,0-.89.61,5.55,5.55,0,0,0-.83,1,7.73,7.73,0,0,0-.7,1.44l-.6,5.11h-.84l.67-5.73a8,8,0,0,0,.09-1.11,2,2,0,0,0-.27-1.15,1,1,0,0,0-.92-.39,2.57,2.57,0,0,0-1.9.93,8.11,8.11,0,0,0-1.52,2.65l-.57,4.8Z"/></svg>