<svg id="Capa_1" data-name="Capa 1" xmlns="http://www.w3.org/2000/svg" viewBox="0 0 59.47 17.59"><defs><style>.cls-1{fill:#f2f2f2;}.cls-2{fill:#3c3c3b;}.cls-3{fill:none;stroke:#575756;stroke-miterlimit:10;stroke-width:0.3px;}</style></defs><title>enviar</title><rect class="cls-1" width="59.47" height="17.62"/><path class="cls-2" d="M13.19,6.37H10.37L10.1,8.54h2.29l-.09.67H10l-.27,2.24h2.83l-.09.68H8.81l.8-6.45h3.67Z"/><path class="cls-2" d="M13.5,12.13,14,7.57h.4a.24.24,0,0,1,.27.27l-.06.88a2.72,2.72,0,0,1,.82-.91,1.7,1.7,0,0,1,.94-.31,1,1,0,0,1,.79.35,1.53,1.53,0,0,1,.29,1c0,.06,0,.12,0,.18a1.5,1.5,0,0,1,0,.2l-.34,2.9h-.8l.34-2.9c0-.06,0-.12,0-.18V8.9a.91.91,0,0,0-.13-.55.51.51,0,0,0-.43-.18.91.91,0,0,0-.44.12,1.83,1.83,0,0,0-.43.33,2.43,2.43,0,0,0-.39.52,3.76,3.76,0,0,0-.3.67l-.26,2.32Z"/><path class="cls-2" d="M18.11,7.57h.65a.2.2,0,0,1,.14,0,.21.21,0,0,1,.07.12l.68,2.93c0,.11,0,.22.05.34l0,.32c0-.1.06-.21.1-.32a3.07,3.07,0,0,1,.14-.34l1.41-2.93a.29.29,0,0,1,.1-.12.24.24,0,0,1,.14,0h.62L20,12.13h-.67Z"/><path class="cls-2" d="M23.82,7.57l-.55,4.56h-.78L23,7.57Zm.3-1.43a.54.54,0,0,1,0,.22.83.83,0,0,1-.13.18.57.57,0,0,1-.18.12.46.46,0,0,1-.21,0,.53.53,0,0,1-.2,0,.66.66,0,0,1-.17-.12.57.57,0,0,1-.12-.18.51.51,0,0,1,0-.44.57.57,0,0,1,.12-.18.59.59,0,0,1,.18-.13.45.45,0,0,1,.2,0,.52.52,0,0,1,.21,0,.66.66,0,0,1,.17.12.59.59,0,0,1,.13.19A.54.54,0,0,1,24.12,6.14Z"/><path class="cls-2" d="M27.92,12.13h-.41a.27.27,0,0,1-.22-.08.39.39,0,0,1-.05-.2l.08-.91a5.23,5.23,0,0,1-.35.52,2.45,2.45,0,0,1-.4.39,1.72,1.72,0,0,1-.43.25,1.36,1.36,0,0,1-.48.09,1.1,1.1,0,0,1-.49-.1,1,1,0,0,1-.38-.31,1.72,1.72,0,0,1-.24-.51,2.35,2.35,0,0,1-.08-.68,3,3,0,0,1,.1-.79,3.06,3.06,0,0,1,.28-.73,3.59,3.59,0,0,1,.45-.63A3.07,3.07,0,0,1,25.89,8a2.55,2.55,0,0,1,1.46-.44,3.66,3.66,0,0,1,.57,0,2.29,2.29,0,0,1,.55.16Zm-2-.6a.78.78,0,0,0,.43-.14,1.53,1.53,0,0,0,.4-.37,2.62,2.62,0,0,0,.35-.57,5.54,5.54,0,0,0,.3-.73l.19-1.54a.34.34,0,0,0-.2-.08h-.19a1.54,1.54,0,0,0-.52.09,1.63,1.63,0,0,0-.47.25,1.74,1.74,0,0,0-.4.37,2,2,0,0,0-.31.48,2.58,2.58,0,0,0-.2.55,2.48,2.48,0,0,0-.07.61Q25.27,11.53,26,11.53Z"/><path class="cls-2" d="M29.11,12.13l.55-4.56h.4a.3.3,0,0,1,.2.06.2.2,0,0,1,.07.18V8l-.06.83a3.09,3.09,0,0,1,.65-1,1.1,1.1,0,0,1,.76-.34.84.84,0,0,1,.38.08l-.14.77a1,1,0,0,0-.41-.09,1,1,0,0,0-.78.43A3.39,3.39,0,0,0,30.15,10l-.25,2.11Z"/><path class="cls-2" d="M43.94,8.81a.63.63,0,0,0,.45.57l4.72,1.43.18,3.25a.32.32,0,0,0,.22.29l.1,0a.32.32,0,0,0,.24-.11l1.67-1.85,2.37,1.64a.66.66,0,0,0,.36.11.63.63,0,0,0,.62-.5l2-10a.33.33,0,0,0-.12-.31.29.29,0,0,0-.32-.05L44.32,8.19A.63.63,0,0,0,43.94,8.81Zm6,4.45-.11-2.06L51,12Zm4.35.25-4.31-3,6-5.85Zm1.07-9.09-6,5.78L44.61,8.77Z"/><polyline class="cls-3" points="42.04 4.08 42.04 0.16 45.96 0.16"/><polyline class="cls-3" points="45.96 17.46 42.04 17.46 42.04 13.54"/><polyline class="cls-3" points="59.34 13.54 59.34 17.46 55.42 17.46"/><polyline class="cls-3" points="55.42 0.16 59.34 0.16 59.34 4.08"/></svg>