<?xml version="1.0" encoding="utf-8"?>
<!-- Generator: Adobe Illustrator 23.0.4, SVG Export Plug-In . SVG Version: 6.00 Build 0)  -->
<svg version="1.1" id="Capa_1" xmlns="http://www.w3.org/2000/svg" xmlns:xlink="http://www.w3.org/1999/xlink" x="0px" y="0px"
	 viewBox="0 0 253 37" style="enable-background:new 0 0 253 37;" xml:space="preserve">
<style type="text/css">
	.st0{fill:#575756;}
	.st1{fill-rule:evenodd;clip-rule:evenodd;fill:#575756;}
	.st2{clip-path:url(#SVGID_2_);fill:#575756;}
	.st3{clip-path:url(#SVGID_4_);fill:#575756;}
	.st4{clip-path:url(#SVGID_6_);fill:#575756;}
	.st5{clip-path:url(#SVGID_8_);fill:#575756;}
	.st6{clip-path:url(#SVGID_10_);fill:#575756;}
	.st7{clip-path:url(#SVGID_12_);fill:#575756;}
	.st8{clip-path:url(#SVGID_14_);fill:#575756;}
	.st9{clip-path:url(#SVGID_16_);fill:#575756;}
	.st10{clip-path:url(#SVGID_18_);fill:#575756;}
	.st11{clip-path:url(#SVGID_20_);fill:#575756;}
</style>
<g>
	<path class="st0" d="M197.7,7.2h-0.6l-1.7,4.2h0.8l0.3-0.8h1.7l0.3,0.8h0.8L197.7,7.2z M196.8,9.9l0.6-1.6l0.5,1.6H196.8z"/>
	<g>
		<rect x="123.3" y="4.2" class="st1" width="0.9" height="28.7"/>
		<path class="st0" d="M141.7,10.8c-0.4,0-0.8-0.1-1.2-0.2l-0.2,0.7c0.5,0.2,1,0.3,1.5,0.3c1,0,1.6-0.4,1.6-1.3c0-0.7-0.4-1-1.2-1.3
			c-0.7-0.3-0.9-0.4-0.9-0.6c0-0.3,0.2-0.5,0.8-0.5c0.3,0,0.7,0.1,1.1,0.2l0.2-0.7c-0.4-0.1-0.9-0.2-1.3-0.2c-1,0-1.5,0.5-1.5,1.2
			c0,0.8,0.5,1.1,1.3,1.4c0.5,0.2,0.9,0.3,0.9,0.7C142.5,10.8,142.1,10.8,141.7,10.8z"/>
		<rect x="169.2" y="7.2" class="st0" width="0.8" height="4.2"/>
		<polygon class="st0" points="170.6,6.1 169.7,6.1 169.1,6.8 169.9,6.8 		"/>
		<polygon class="st0" points="183.1,10.7 181,10.7 181,9.7 182.8,9.7 182.8,9 181,9 181,8 183,8 183,7.2 180.2,7.2 180.2,11.5 
			183.1,11.5 		"/>
		<path class="st0" d="M179.6,9.9V8.8c0-1-0.8-1.6-1.7-1.6h-1.7v4.2h1.7C178.8,11.5,179.6,10.9,179.6,9.9z M177,8h0.9
			c0.5,0,0.9,0.4,0.9,1v0.8c0,0.6-0.4,0.9-0.9,0.9H177V8z"/>
		<path class="st0" d="M171.2,11.5l0.3-0.8h1.7l0.3,0.8h0.8l-1.5-4.2h-0.6l-1.7,4.2H171.2z M172.4,8.3l0.5,1.6h-1.1L172.4,8.3z"/>
		<path class="st0" d="M166,9.9h0.8l1,1.5h0.9l-1.1-1.7c0.6-0.2,0.8-0.7,0.8-1.2c0-0.7-0.4-1.3-1.4-1.3h-1.8v4.2h0.8V9.9z M166,8h1
			c0.4,0,0.6,0.3,0.6,0.6c0,0.3-0.2,0.6-0.6,0.6h-1V8z"/>
		<path class="st0" d="M161.7,11.5l0.3-0.8h1.7l0.3,0.8h0.8l-1.5-4.2h-0.6l-1.7,4.2H161.7z M162.9,8.3l0.5,1.6h-1.1L162.9,8.3z"/>
		<polygon class="st0" points="159.2,11.5 160,11.5 160,8 161.2,8 161.2,7.2 157.9,7.2 157.9,8 159.2,8 		"/>
		<polygon class="st0" points="157.5,10.7 155.4,10.7 155.4,9.7 157.3,9.7 157.3,9 155.4,9 155.4,8 157.5,8 157.5,7.2 154.6,7.2 
			154.6,11.5 157.5,11.5 		"/>
		<path class="st0" d="M151.5,9.9h0.8l1,1.5h0.9l-1.1-1.7c0.6-0.2,0.8-0.7,0.8-1.2c0-0.7-0.4-1.3-1.4-1.3h-1.8v4.2h0.8V9.9z
			 M151.5,8h1c0.4,0,0.6,0.3,0.6,0.6c0,0.3-0.2,0.6-0.6,0.6h-1V8z"/>
		<path class="st0" d="M149,11.6c0.3,0,0.7,0,1.1-0.2l-0.2-0.7c-0.3,0.1-0.6,0.2-1,0.2c-0.7,0-1-0.3-1-1.2V9c0-0.9,0.4-1.2,1-1.2
			c0.3,0,0.7,0.1,1,0.2l0.2-0.7c-0.4-0.2-0.9-0.2-1.2-0.2c-1.3,0-1.9,0.7-1.9,1.8v0.8C147.1,10.9,147.7,11.6,149,11.6z"/>
		<polygon class="st0" points="146.7,10.7 144.6,10.7 144.6,9.7 146.4,9.7 146.4,9 144.6,9 144.6,8 146.6,8 146.6,7.2 143.8,7.2 
			143.8,11.5 146.7,11.5 		"/>
		<polygon class="st0" points="249.1,29.5 249.1,28.4 251.4,28.4 251.4,27.3 249.1,27.3 249.1,26.3 251.6,26.3 251.6,25.1 
			247.7,25.1 247.7,30.7 251.7,30.7 251.7,29.5 		"/>
		<polygon class="st0" points="244.7,25.1 243.3,25.1 243.3,30.7 247.3,30.7 247.3,29.5 244.7,29.5 		"/>
		<path class="st0" d="M242,27.7c0.3-0.2,0.5-0.6,0.5-1.1c0-0.9-0.8-1.5-1.8-1.5h-2.5v5.6h2.6c1,0,2-0.5,2-1.7
			C242.8,28.3,242.4,27.9,242,27.7z M239.6,26.3h1.2c0.3,0,0.5,0.3,0.5,0.5c0,0.2-0.2,0.5-0.5,0.5h-1.2V26.3z M240.8,29.5h-1.3v-1.2
			h1.3c0.4,0,0.6,0.3,0.6,0.6C241.5,29.2,241.4,29.5,240.8,29.5z"/>
		<path class="st0" d="M234.6,25.1l-2.3,5.6h1.3l0.4-1h2l0.4,1h1.3l-2-5.6H234.6z M234.5,28.5l0.6-1.7l0.5,1.7H234.5z"/>
		<polygon class="st0" points="232.9,25.1 228.2,25.1 228.2,26.3 229.9,26.3 229.9,30.7 231.2,30.7 231.2,26.3 232.9,26.3 		"/>
		<polygon class="st0" points="226.5,28.3 224.2,25.1 223.2,25.1 223.2,30.7 224.5,30.7 224.5,27.4 226.8,30.7 227.8,30.7 
			227.8,25.1 226.5,25.1 		"/>
		<polygon class="st0" points="219.9,28.4 222.2,28.4 222.2,27.3 219.9,27.3 219.9,26.3 222.5,26.3 222.5,25.1 218.6,25.1 
			218.6,30.7 222.5,30.7 222.5,29.5 219.9,29.5 		"/>
		<polygon class="st0" points="213.5,26.3 215.1,26.3 215.1,30.7 216.4,30.7 216.4,26.3 218.1,26.3 218.1,25.1 213.5,25.1 		"/>
		<path class="st0" d="M211.6,27.3c-1-0.4-1.2-0.5-1.2-0.8c0-0.4,0.3-0.5,0.8-0.5c0.4,0,1,0.1,1.4,0.3l0.3-1.1
			c-0.5-0.2-1.2-0.3-1.8-0.3c-1.4,0-2.1,0.6-2.1,1.6c0,1.1,0.7,1.5,1.7,1.9c0.6,0.2,1.1,0.4,1.1,0.8c0,0.4-0.4,0.5-0.9,0.5
			c-0.5,0-1.1-0.1-1.7-0.3l-0.3,1.1c0.7,0.3,1.4,0.4,2,0.4c1.4,0,2.1-0.6,2.1-1.8C213.2,28.3,212.7,27.8,211.6,27.3z"/>
		<path class="st0" d="M207.2,28.6c0,0.7-0.3,1.2-1,1.2c-0.7,0-1-0.5-1-1.2v-3.5h-1.3v3.5c0,1.4,0.8,2.3,2.3,2.3
			c1.6,0,2.4-0.9,2.4-2.3v-3.5h-1.3V28.6z"/>
		<path class="st0" d="M201.8,27.3c-1-0.4-1.2-0.5-1.2-0.8c0-0.4,0.3-0.5,0.8-0.5c0.4,0,1,0.1,1.4,0.3l0.3-1.1
			c-0.5-0.2-1.2-0.3-1.8-0.3c-1.4,0-2.1,0.6-2.1,1.6c0,1.1,0.7,1.5,1.7,1.9c0.6,0.2,1.1,0.4,1.1,0.8c0,0.4-0.4,0.5-0.9,0.5
			c-0.5,0-1.1-0.1-1.7-0.3l-0.3,1.1c0.7,0.3,1.4,0.4,2,0.4c1.4,0,2.1-0.6,2.1-1.8C203.4,28.3,202.9,27.8,201.8,27.3z"/>
		<path class="st0" d="M194.4,24.9c-1.3,0-2.5,0.8-2.5,2.2v1.6c0,1.4,1.1,2.2,2.5,2.2c1.4,0,2.5-0.8,2.5-2.2V27
			C196.8,25.7,195.7,24.9,194.4,24.9z M195.5,28.6c0,0.7-0.5,1.1-1.1,1.1c-0.6,0-1.1-0.4-1.1-1.1v-1.5c0-0.7,0.5-1.1,1.1-1.1
			c0.7,0,1.1,0.4,1.1,1.1V28.6z"/>
		<polygon class="st0" points="188.9,25.1 187.6,25.1 187.6,30.7 191.5,30.7 191.5,29.5 188.9,29.5 		"/>
		<polygon class="st0" points="184.5,25.1 183.2,25.1 183.2,30.7 187.1,30.7 187.1,29.5 184.5,29.5 		"/>
		<path class="st0" d="M180.1,24.9c-1.3,0-2.5,0.8-2.5,2.2v1.6c0,1.4,1.1,2.2,2.5,2.2c1.4,0,2.5-0.8,2.5-2.2V27
			C182.5,25.7,181.4,24.9,180.1,24.9z M181.2,28.6c0,0.7-0.5,1.1-1.1,1.1c-0.6,0-1.1-0.4-1.1-1.1v-1.5c0-0.7,0.5-1.1,1.1-1.1
			c0.7,0,1.1,0.4,1.1,1.1V28.6z"/>
		<path class="st0" d="M177,26.9c0-1-0.6-1.8-2-1.8h-2.5v5.6h1.3v-1.9h0.8l1.2,1.9h1.5l-1.4-2.2C176.7,28.2,177,27.6,177,26.9z
			 M175.1,27.6h-1.2v-1.3h1.2c0.5,0,0.6,0.3,0.6,0.6C175.7,27.2,175.5,27.6,175.1,27.6z"/>
		<path class="st0" d="M171.7,26.9c0-1-0.6-1.8-2-1.8h-2.5v5.6h1.3v-1.9h0.8l1.2,1.9h1.5l-1.4-2.2C171.3,28.2,171.7,27.6,171.7,26.9
			z M169.7,27.6h-1.2v-1.3h1.2c0.5,0,0.6,0.3,0.6,0.6C170.4,27.2,170.2,27.6,169.7,27.6z"/>
		<path class="st0" d="M163.6,25.1l-2.3,5.6h1.3l0.4-1h2l0.4,1h1.3l-2-5.6H163.6z M163.5,28.5l0.6-1.7l0.5,1.7H163.5z"/>
		<path class="st0" d="M159.6,27.3c-1-0.4-1.2-0.5-1.2-0.8c0-0.4,0.3-0.5,0.8-0.5c0.4,0,1,0.1,1.4,0.3l0.3-1.1
			c-0.5-0.2-1.2-0.3-1.8-0.3c-1.4,0-2.1,0.6-2.1,1.6c0,1.1,0.7,1.5,1.7,1.9c0.6,0.2,1.1,0.4,1.1,0.8c0,0.4-0.4,0.5-0.9,0.5
			c-0.5,0-1.1-0.1-1.7-0.3l-0.3,1.1c0.7,0.3,1.4,0.4,2,0.4c1.4,0,2.1-0.6,2.1-1.8C161.2,28.3,160.7,27.8,159.6,27.3z"/>
		<polygon class="st0" points="153.9,28.4 156.2,28.4 156.2,27.3 153.9,27.3 153.9,26.3 156.4,26.3 156.4,25.1 152.5,25.1 
			152.5,30.7 156.5,30.7 156.5,29.5 153.9,29.5 		"/>
		<path class="st0" d="M149.5,25.1h-2.3v5.6h2.4c1.2,0,2.3-0.8,2.3-2.1v-1.4C151.9,25.8,150.7,25.1,149.5,25.1z M150.5,28.4
			c0,0.7-0.5,1.1-1,1.1h-1v-3.2h1c0.5,0,1,0.4,1,1.2V28.4z"/>
		<polygon class="st0" points="142.4,27.3 141.3,25.1 139.9,25.1 141.7,28.7 141.7,30.7 143.1,30.7 143.1,28.7 144.9,25.1 
			143.5,25.1 		"/>
		<polygon class="st0" points="188.2,19 191.4,19 191.4,17.5 188.2,17.5 188.2,16 191.8,16 191.8,14.3 186.4,14.3 186.4,22.2 
			191.9,22.2 191.9,20.5 188.2,20.5 		"/>
		<polygon class="st0" points="183.4,22.2 183.4,16 185.7,16 185.7,14.3 179.3,14.3 179.3,16 181.6,16 181.6,22.2 		"/>
		<polygon class="st0" points="174.1,17.6 177.4,22.2 178.7,22.2 178.7,14.3 176.9,14.3 176.9,18.9 173.7,14.3 172.3,14.3 
			172.3,22.2 174.1,22.2 		"/>
		<polygon class="st0" points="166,22.2 171.5,22.2 171.5,20.5 167.8,20.5 167.8,19 171,19 171,17.5 167.8,17.5 167.8,16 171.4,16 
			171.4,14.3 166,14.3 		"/>
		<rect x="163.1" y="14.3" class="st0" width="1.8" height="7.8"/>
		<path class="st0" d="M162,16.4c0-1.3-1.1-2-2.5-2H156v7.8h3.6c1.4,0,2.8-0.7,2.8-2.3c0-1-0.6-1.6-1.1-1.9
			C161.7,17.6,162,17.1,162,16.4z M157.9,16h1.6c0.5,0,0.7,0.4,0.7,0.7c0,0.3-0.2,0.7-0.7,0.7h-1.7V16z M159.6,20.5h-1.8v-1.6h1.9
			c0.6,0,0.9,0.4,0.9,0.8C160.6,20.1,160.4,20.5,159.6,20.5z"/>
		<polygon class="st0" points="151.3,18.5 149,14.3 147.8,14.3 147.5,22.2 149.2,22.2 149.4,18 150.9,20.9 151.8,20.9 153.3,18 
			153.5,22.2 155.1,22.2 154.8,14.3 153.6,14.3 		"/>
		<path class="st0" d="M142.6,14.3l-3.1,7.8h1.8l0.5-1.4h2.8l0.5,1.4h1.8l-2.8-7.8H142.6z M142.5,19.1l0.9-2.3l0.7,2.3H142.5z"/>
		<path class="st0" d="M205.7,11.6c1,0,1.8-0.6,1.8-1.6V8.7c0-1-0.8-1.6-1.8-1.6c-1,0-1.8,0.6-1.8,1.6V10
			C203.9,11,204.7,11.6,205.7,11.6z M204.7,8.8c0-0.6,0.5-0.9,1-0.9c0.6,0,1,0.3,1,0.9V10c0,0.6-0.4,0.9-1,0.9c-0.5,0-1-0.3-1-0.9
			V8.8z"/>
		<polygon class="st0" points="217,10.7 214.9,10.7 214.9,9.7 216.8,9.7 216.8,9 214.9,9 214.9,8 217,8 217,7.3 214.1,7.3 
			214.1,11.5 217,11.5 		"/>
		<path class="st0" d="M211.6,7.3h-1.7v4.2h1.7c0.9,0,1.7-0.6,1.7-1.6V8.8C213.3,7.8,212.5,7.3,211.6,7.3z M212.5,9.8
			c0,0.6-0.4,0.9-0.9,0.9h-0.9V8h0.9c0.5,0,0.9,0.4,0.9,1V9.8z"/>
		<path class="st0" d="M190.2,10.8c-0.4,0-0.8-0.1-1.2-0.2l-0.2,0.7c0.5,0.2,1,0.3,1.5,0.3c1,0,1.6-0.4,1.6-1.3c0-0.7-0.4-1-1.2-1.3
			c-0.7-0.3-0.9-0.4-0.9-0.6c0-0.3,0.2-0.5,0.8-0.5c0.3,0,0.7,0.1,1.1,0.2l0.2-0.7c-0.4-0.1-0.9-0.2-1.3-0.2c-1,0-1.5,0.5-1.5,1.2
			c0,0.8,0.5,1.1,1.3,1.3c0.5,0.2,0.9,0.3,0.9,0.7C191,10.8,190.6,10.8,190.2,10.8z"/>
		<polygon class="st0" points="188.2,10.7 186.1,10.7 186.1,9.7 187.9,9.7 187.9,9 186.1,9 186.1,8 188.1,8 188.1,7.3 185.3,7.3 
			185.3,11.5 188.2,11.5 		"/>
		<polygon class="st0" points="193.4,11.5 194.2,11.5 194.2,8 195.5,8 195.5,7.3 192.2,7.3 192.2,8 193.4,8 		"/>
		<path class="st0" d="M203.2,9.9V8.8c0-1-0.8-1.6-1.7-1.6h-1.7v4.2h1.7C202.4,11.5,203.2,10.9,203.2,9.9z M200.6,8h0.9
			c0.5,0,0.9,0.4,0.9,1v0.8c0,0.6-0.4,0.9-0.9,0.9h-0.9V8z"/>
		<g>
			<g>
				<path class="st1" d="M74.3,14.6h-2.9v7.5c0,2-0.9,2.4-2.4,3.3l1.2,2.2c1.3-0.5,4.2-2,4.2-4.6V14.6z"/>
				<path class="st1" d="M95,27h2.8l-4.5-12.4H91l-5,12.4H89l0.8-2.2h4.5L95,27z M92.1,18.5l1.2,3.7h-2.6L92.1,18.5z"/>
				<path class="st1" d="M86.2,14.6h-2.9v7.7c0,1.6-0.7,2.6-2.3,2.6c-1.5,0-2.2-1-2.2-2.6v-7.7h-2.9v7.7c0,3.1,1.7,5,5.2,5
					c3.5,0,5.2-1.9,5.2-5V14.6z"/>
				<polygon class="st1" points="62.8,14.6 62.8,21.8 57.7,14.6 55.6,14.6 55.6,27 58.4,27 58.4,19.8 63.5,27 65.6,27 65.6,14.6 
									"/>
				<path class="st1" d="M52.2,27H55l-4.5-12.4h-2.3l-5,12.4h2.9l0.8-2.2h4.5L52.2,27z M49.3,18.5l1.2,3.7h-2.6L49.3,18.5z"/>
				<path class="st1" d="M38.9,14.2c-3,0-4.6,1.3-4.6,3.6c0,2.3,1.6,3.2,3.8,4.1c1.4,0.5,2.4,0.9,2.4,1.8c0,0.9-0.9,1.1-1.9,1.1
					c-1.1,0-2.4-0.2-3.7-0.7l-0.6,2.5c1.5,0.6,3,0.9,4.4,0.9c3.1,0,4.7-1.4,4.7-3.8c0-1.9-1-2.9-3.5-3.9c-2.2-0.8-2.6-1-2.6-1.7
					c0-0.8,0.7-1.2,1.8-1.2c0.9,0,2.2,0.2,3.1,0.6l0.7-2.5C41.7,14.4,40.2,14.2,38.9,14.2"/>
				<polygon class="st1" points="105.8,14.6 105.8,21.8 100.8,14.6 98.6,14.6 98.6,27 101.4,27 101.4,19.8 106.6,27 108.6,27 
					108.6,14.6 				"/>
			</g>
			<path class="st1" d="M36.3,9v0.8h0.9V11c-0.2,0-0.5,0.1-0.8,0.1c-0.7,0-1.2-0.3-1.2-1.3V9c0-1,0.5-1.3,1.3-1.3
				c0.5,0,0.9,0.1,1.2,0.2L38,7.2C37.6,7,37,7,36.5,7c-1.4,0-2.2,0.7-2.2,2v0.9c0,1.2,0.8,2,2,2c0.6,0,1.2-0.1,1.7-0.3V9H36.3z
				 M40.5,11.8c1.1,0,1.9-0.6,1.9-1.7V8.7c0-1.1-0.9-1.7-1.9-1.7c-1,0-1.9,0.6-1.9,1.7v1.4C38.6,11.1,39.5,11.8,40.5,11.8 M40.5,11
				c-0.6,0-1-0.4-1-1V8.7c0-0.6,0.5-1,1-1c0.6,0,1.1,0.3,1.1,1V10C41.6,10.6,41.1,11,40.5,11 M46,9.2c0.2-0.2,0.4-0.5,0.4-0.9
				c0-0.7-0.6-1.2-1.4-1.2h-2v4.5h2c0.8,0,1.6-0.4,1.6-1.3C46.7,9.7,46.3,9.4,46,9.2 M45,7.9c0.4,0,0.6,0.2,0.6,0.5
				c0,0.3-0.2,0.5-0.5,0.5h-1.2v-1H45z M45.1,10.8h-1.2V9.7h1.3c0.4,0,0.6,0.2,0.6,0.6C45.8,10.6,45.6,10.8,45.1,10.8 M48,7.1h-0.9
				v4.5H48V7.1z M49.5,10.8V9.7h2V9h-2v-1h2.2V7.1h-3v4.5h3.1v-0.8H49.5z M55.1,11.6h1L55,9.9c0.6-0.2,0.9-0.7,0.9-1.3
				c0-0.8-0.5-1.4-1.5-1.4h-2v4.5h0.9V10h0.9L55.1,11.6z M53.2,7.9h1.1c0.5,0,0.7,0.3,0.7,0.6c0,0.3-0.2,0.6-0.7,0.6h-1.1V7.9z
				 M59.3,7.1v2.8l-2.2-2.8h-0.6v4.5h0.8V8.8l2.2,2.9h0.6V7.1H59.3z M62.6,11.8c1.1,0,1.9-0.6,1.9-1.7V8.7c0-1.1-0.9-1.7-1.9-1.7
				c-1,0-1.9,0.6-1.9,1.7v1.4C60.7,11.1,61.6,11.8,62.6,11.8 M62.6,11c-0.6,0-1-0.4-1-1V8.7c0-0.6,0.5-1,1-1c0.6,0,1.1,0.3,1.1,1V10
				C63.7,10.6,63.2,11,62.6,11 M68.7,7.1H67v4.5h1.8c1,0,1.8-0.6,1.8-1.7V8.8C70.6,7.7,69.7,7.1,68.7,7.1 M69.8,9.8c0,0.6-0.4,1-1,1
				h-1V7.9h1c0.5,0,1,0.4,1,1V9.8z M72.1,10.8V9.7h2V9h-2v-1h2.2V7.1h-3v4.5h3.1v-0.8H72.1z"/>
			<g>
				<g>
					<defs>
						<path id="SVGID_1_" d="M21.5,6.6c-0.6,0.1-1.2,0.1-1.7,0c3.2,2.5,2.8,7,2.6,9.6c2.7-1.8,4-7.6,1.6-9.3
							c-0.4-0.3-0.9-0.4-1.4-0.4C22.3,6.5,21.9,6.6,21.5,6.6"/>
					</defs>
					<use xlink:href="#SVGID_1_"  style="overflow:visible;fill:#575756;"/>
					<clipPath id="SVGID_2_">
						<use xlink:href="#SVGID_1_"  style="overflow:visible;"/>
					</clipPath>
					
						<rect x="17.5" y="6.8" transform="matrix(0.3015 -0.9535 0.9535 0.3015 5.2836 30.0016)" class="st2" width="11.3" height="9.2"/>
				</g>
				<g>
					<defs>
						<path id="SVGID_3_" d="M26,11.4c1.1,3.9-1.8,7.3-3.6,9.3c3.2,0.1,7.7-3.8,6.8-6.6C28.8,12.7,27,12.4,26,11.4L26,11.4z"/>
					</defs>
					<use xlink:href="#SVGID_3_"  style="overflow:visible;fill:#575756;"/>
					<clipPath id="SVGID_4_">
						<use xlink:href="#SVGID_3_"  style="overflow:visible;"/>
					</clipPath>
					
						<rect x="20.2" y="10.1" transform="matrix(0.6179 -0.7862 0.7862 0.6179 -2.617 26.8157)" class="st3" width="12.2" height="11.9"/>
				</g>
				<g>
					<defs>
						<path id="SVGID_5_" d="M28.2,18.8c-1.4,3.8-5.8,4.9-8.4,5.4c2.5,2,8.5,1.4,9.4-1.3C29.7,21.6,28.4,20.2,28.2,18.8L28.2,18.8z"
							/>
					</defs>
					<use xlink:href="#SVGID_5_"  style="overflow:visible;fill:#575756;"/>
					<clipPath id="SVGID_6_">
						<use xlink:href="#SVGID_5_"  style="overflow:visible;"/>
					</clipPath>
					
						<rect x="19" y="17.6" transform="matrix(0.9592 -0.2827 0.2827 0.9592 -5.3656 7.9195)" class="st4" width="11.5" height="9.9"/>
				</g>
				<g>
					<defs>
						<path id="SVGID_7_" d="M24,30.1c1.1-0.8,0.9-2.7,1.6-3.9c-3.3,2.2-7.5,0.5-9.9-0.5C16.5,28.7,21.7,31.8,24,30.1"/>
					</defs>
					<use xlink:href="#SVGID_7_"  style="overflow:visible;fill:#575756;"/>
					<clipPath id="SVGID_8_">
						<use xlink:href="#SVGID_7_"  style="overflow:visible;"/>
					</clipPath>
					
						<rect x="14.8" y="23.2" transform="matrix(0.7698 -0.6383 0.6383 0.7698 -13.5841 19.7834)" class="st5" width="11.6" height="11.1"/>
				</g>
				<g>
					<defs>
						<path id="SVGID_9_" d="M15.6,32.8c1.4,0,2.3-1.6,3.6-2.2h0c-4-0.1-6.4-4-7.7-6.3C10.3,27.3,12.7,32.8,15.6,32.8"/>
					</defs>
					<use xlink:href="#SVGID_9_"  style="overflow:visible;fill:#575756;"/>
					<clipPath id="SVGID_10_">
						<use xlink:href="#SVGID_9_"  style="overflow:visible;"/>
					</clipPath>
					
						<rect x="9" y="22.9" transform="matrix(0.9188 -0.3947 0.3947 0.9188 -10.0758 8.142)" class="st6" width="11.5" height="11.3"/>
				</g>
				<g>
					<defs>
						<path id="SVGID_11_" d="M7.2,30.1c0.7,0.5,1.6,0.4,2.5,0.3c0.6-0.1,1.2-0.1,1.7,0c-3.2-2.5-2.8-7-2.6-9.6
							C6.2,22.5,4.8,28.4,7.2,30.1"/>
					</defs>
					<use xlink:href="#SVGID_11_"  style="overflow:visible;fill:#575756;"/>
					<clipPath id="SVGID_12_">
						<use xlink:href="#SVGID_11_"  style="overflow:visible;"/>
					</clipPath>
					
						<rect x="2.2" y="20.1" transform="matrix(0.5867 -0.8098 0.8098 0.5867 -17.4302 17.1895)" class="st7" width="11.8" height="11.1"/>
				</g>
				<g>
					<defs>
						<path id="SVGID_13_" d="M2,22.9c0.4,1.3,2.3,1.7,3.2,2.7c-1.1-3.9,1.8-7.3,3.6-9.3c-0.1,0-0.1,0-0.2,0
							C5.4,16.3,1.1,20.2,2,22.9"/>
					</defs>
					<use xlink:href="#SVGID_13_"  style="overflow:visible;fill:#575756;"/>
					<clipPath id="SVGID_14_">
						<use xlink:href="#SVGID_13_"  style="overflow:visible;"/>
					</clipPath>
					
						<rect x="-1" y="15.2" transform="matrix(0.5375 -0.8433 0.8433 0.5375 -15.394 13.892)" class="st8" width="12" height="11.5"/>
				</g>
				<g>
					<defs>
						<path id="SVGID_15_" d="M2,14.1c-0.4,1.3,0.8,2.7,1,4.1c1.4-3.8,5.8-4.9,8.4-5.4c-1-0.8-2.6-1.2-4.2-1.2
							C4.9,11.6,2.5,12.4,2,14.1"/>
					</defs>
					<use xlink:href="#SVGID_15_"  style="overflow:visible;fill:#575756;"/>
					<clipPath id="SVGID_16_">
						<use xlink:href="#SVGID_15_"  style="overflow:visible;"/>
					</clipPath>
					
						<rect x="0.7" y="9.9" transform="matrix(0.9206 -0.3906 0.3906 0.9206 -5.2887 3.7106)" class="st9" width="11.6" height="9.9"/>
				</g>
				<g>
					<defs>
						<path id="SVGID_17_" d="M7.2,6.9c-1.1,0.8-0.9,2.7-1.6,3.9c3.3-2.2,7.5-0.5,9.9,0.5c-0.7-2.5-4.1-4.9-6.7-4.9
							C8.2,6.4,7.7,6.6,7.2,6.9"/>
					</defs>
					<use xlink:href="#SVGID_17_"  style="overflow:visible;fill:#575756;"/>
					<clipPath id="SVGID_18_">
						<use xlink:href="#SVGID_17_"  style="overflow:visible;"/>
					</clipPath>
					<rect x="5.1" y="4.8" transform="matrix(0.9363 -0.3512 0.3512 0.9363 -2.448 4.2924)" class="st10" width="11" height="8.1"/>
				</g>
				<g>
					<defs>
						<path id="SVGID_19_" d="M12.1,6.4c4,0.1,6.4,4,7.7,6.3c1.1-3-1.2-8.5-4.2-8.5C14.2,4.2,13.3,5.8,12.1,6.4"/>
					</defs>
					<use xlink:href="#SVGID_19_"  style="overflow:visible;fill:#575756;"/>
					<clipPath id="SVGID_20_">
						<use xlink:href="#SVGID_19_"  style="overflow:visible;"/>
					</clipPath>
					
						<rect x="10.4" y="2.3" transform="matrix(0.6666 -0.7454 0.7454 0.6666 -0.7962 15.1044)" class="st11" width="12.3" height="12.3"/>
				</g>
			</g>
		</g>
	</g>
</g>
</svg>
