<?xml version="1.0" encoding="utf-8"?>
<!-- Generator: Adobe Illustrator 23.0.4, SVG Export Plug-In . SVG Version: 6.00 Build 0)  -->
<svg version="1.1" id="Capa_1" xmlns="http://www.w3.org/2000/svg" xmlns:xlink="http://www.w3.org/1999/xlink" x="0px" y="0px"
	 viewBox="0 0 20.2 13" style="enable-background:new 0 0 20.2 13;" xml:space="preserve">
<style type="text/css">
	.st0{opacity:0.7;}
	.st1{fill:#484848;}
	.st2{fill:#F5F5F5;}
	.st3{fill:#757575;}
</style>
<g class="st0">
	<path class="st1" d="M19.8,13H0.3C0.2,13,0,12.8,0,12.7V0.3C0,0.2,0.2,0,0.3,0h19.5c0.2,0,0.3,0.2,0.3,0.3v12.3
		C20.2,12.8,20,13,19.8,13z"/>
	<path class="st2" d="M20.2,0.3C20.2,0.2,20,0,19.8,0h-1.6l-6.4,4.2V0H8.4v4.2L1.9,0H0.3C0.2,0,0,0.2,0,0.3v0.9l5.5,3.6H0v3.4h5.5
		L0,11.8v0.9C0,12.8,0.2,13,0.3,13h1.6l6.4-4.2V13h3.5V8.8l6.4,4.2h1.6c0.2,0,0.3-0.2,0.3-0.3v-0.9l-5.5-3.6h5.5V4.8h-5.5l5.5-3.6
		V0.3z"/>
	<g>
		<polygon class="st3" points="20.2,5.5 11.1,5.5 11.1,0 9,0 9,5.5 0,5.5 0,7.5 9,7.5 9,13 11.1,13 11.1,7.5 20.2,7.5 		"/>
		<path class="st3" d="M7.1,8.2l-7,4.5C0,12.9,0.2,13,0.3,13h0.5l7.5-4.8L7.1,8.2L7.1,8.2z"/>
		<path class="st3" d="M13.7,8.2h-1.3l7.5,4.8c0.2,0,0.3-0.2,0.3-0.3v-0.3L13.7,8.2z"/>
		<path class="st3" d="M0,0.7l6.4,4.1h1.3L0.2,0C0.1,0.1,0,0.2,0,0.3V0.7z"/>
		<path class="st3" d="M13.1,4.8l7.1-4.5C20.1,0.1,20,0,19.8,0h-0.5l-7.5,4.8H13.1z"/>
	</g>
</g>
<g>
</g>
<g>
</g>
<g>
</g>
<g>
</g>
<g>
</g>
<g>
</g>
<g>
</g>
<g>
</g>
<g>
</g>
<g>
</g>
<g>
</g>
<g>
</g>
<g>
</g>
<g>
</g>
<g>
</g>
</svg>
