<?xml version="1.0" encoding="utf-8"?>
<!-- Generator: Adobe Illustrator 23.0.4, SVG Export Plug-In . SVG Version: 6.00 Build 0)  -->
<svg version="1.1" id="Capa_1" xmlns="http://www.w3.org/2000/svg" xmlns:xlink="http://www.w3.org/1999/xlink" x="0px" y="0px"
	 viewBox="0 0 19.8 13" style="enable-background:new 0 0 19.8 13;" xml:space="preserve">
<style type="text/css">
	.st0{fill:#414897;}
	.st1{fill:#F4F4F4;}
	.st2{fill:#E84C58;}
</style>
<g>
	<path class="st0" d="M19.5,13H0.3C0.2,13,0,12.8,0,12.7V0.3C0,0.2,0.2,0,0.3,0h19.2c0.2,0,0.3,0.2,0.3,0.3v12.3
		C19.8,12.8,19.7,13,19.5,13z"/>
	<path class="st1" d="M19.8,0.3c0-0.2-0.2-0.3-0.3-0.3H18l-6.3,4.2V0H8.2v4.2L1.9,0H0.3C0.2,0,0,0.2,0,0.3v0.9l5.4,3.6H0v3.4h5.4
		L0,11.8v0.9C0,12.8,0.2,13,0.3,13h1.5l6.3-4.2V13h3.4V8.8L18,13h1.5c0.2,0,0.3-0.2,0.3-0.3v-0.9l-5.4-3.6h5.4V4.8h-5.4l5.4-3.6V0.3
		z"/>
	<g>
		<polygon class="st2" points="19.8,5.5 10.9,5.5 10.9,0 8.9,0 8.9,5.5 0,5.5 0,7.5 8.9,7.5 8.9,13 10.9,13 10.9,7.5 19.8,7.5 		"/>
		<path class="st2" d="M6.9,8.2L0,12.7C0,12.9,0.2,13,0.3,13h0.5l7.4-4.8L6.9,8.2L6.9,8.2z"/>
		<path class="st2" d="M13.4,8.2h-1.3l7.4,4.8c0.2,0,0.3-0.2,0.3-0.3v-0.3L13.4,8.2z"/>
		<path class="st2" d="M0,0.7l6.3,4.1h1.3L0.2,0C0.1,0.1,0,0.2,0,0.3V0.7z"/>
		<path class="st2" d="M12.9,4.8l6.9-4.5c0-0.2-0.2-0.3-0.3-0.3H19l-7.4,4.8H12.9z"/>
	</g>
</g>
<g>
</g>
<g>
</g>
<g>
</g>
<g>
</g>
<g>
</g>
<g>
</g>
<g>
</g>
<g>
</g>
<g>
</g>
<g>
</g>
<g>
</g>
<g>
</g>
<g>
</g>
<g>
</g>
<g>
</g>
</svg>
