<?xml version="1.0" encoding="utf-8"?>
<!-- Generator: Adobe Illustrator 23.0.4, SVG Export Plug-In . SVG Version: 6.00 Build 0)  -->
<svg version="1.1" id="Capa_1" xmlns="http://www.w3.org/2000/svg" xmlns:xlink="http://www.w3.org/1999/xlink" x="0px" y="0px"
	 viewBox="0 0 19.9 13" style="enable-background:new 0 0 19.9 13;" xml:space="preserve">
<style type="text/css">
	.st0{opacity:0.7;}
	.st1{fill:#565656;}
	.st2{fill:#CFCFCF;}
	.st3{fill:#F5F5F5;}
	.st4{fill:#B5B5B5;}
	.st5{fill:#B4B4B4;}
	.st6{fill:#686868;}
	.st7{fill:#B6B6B6;}
</style>
<g class="st0">
	<path class="st1" d="M0.3,13h19.2c0.2,0,0.3-0.2,0.3-0.3V0.3c0-0.2-0.2-0.3-0.3-0.3H0.3C0.2,0,0,0.2,0,0.3v12.4
		C0,12.9,0.2,13,0.3,13z"/>
	<rect y="2.7" class="st2" width="19.9" height="7.6"/>
	<path class="st1" d="M8.4,6.5l0.3-1.3C8.7,5.1,8.6,5,8.5,5H8.3C8.2,5,8.1,5.1,8.1,5.2L8.4,6.5z"/>
	<rect x="8.1" y="5.8" class="st3" width="0.7" height="2.9"/>
	<rect x="7.9" y="5.5" class="st4" width="1" height="0.3"/>
	<g>
		<rect x="7.2" y="6.5" class="st1" width="1.7" height="0.3"/>
		<polygon class="st1" points="8.9,7.9 7.9,7.6 7.9,7.2 8.9,7.6 		"/>
		<path class="st1" d="M3.3,6.5l0.3-1.3C3.6,5.1,3.5,5,3.4,5H3.2C3,5,2.9,5.1,3,5.2L3.3,6.5z"/>
	</g>
	<path class="st3" d="M4.5,5.5c-0.2,0-0.3,0.2-0.3,0.3v2.2c0,0.4,0.4,1.2,1.7,1.2s1.7-0.8,1.7-1.2V5.8c0-0.2-0.2-0.3-0.3-0.3H4.5z"
		/>
	<g>
		<path class="st1" d="M5.8,7.2H4.1V5.8c0-0.2,0.2-0.3,0.3-0.3h1.4V7.2z"/>
		<path class="st1" d="M5.8,7.2h1.7v0.9c0,0.5-0.4,0.9-0.9,0.9l0,0c-0.5,0-0.9-0.4-0.9-0.9V7.2z"/>
	</g>
	<path class="st4" d="M4.1,7.2h1.7v0.9c0,0.5-0.4,0.9-0.9,0.9l0,0c-0.5,0-0.9-0.4-0.9-0.9V7.2z"/>
	<g>
		<path class="st1" d="M5.5,8.7V7.2H5.1v1.7C5.3,8.9,5.4,8.8,5.5,8.7z"/>
		<path class="st1" d="M4.8,8.9V7.2H4.5v1.5C4.6,8.8,4.7,8.9,4.8,8.9z"/>
	</g>
	<rect x="4.5" y="6.5" class="st5" width="1" height="0.3"/>
	<g>
		<rect x="4.5" y="5.8" class="st4" width="1" height="0.3"/>
		<rect x="4.6" y="6" class="st4" width="0.7" height="0.6"/>
	</g>
	<rect x="2.9" y="5.8" class="st3" width="0.7" height="2.9"/>
	<g>
		<rect x="2.7" y="8.6" class="st4" width="1" height="0.3"/>
		<rect x="2.7" y="5.5" class="st4" width="1" height="0.3"/>
	</g>
	<rect x="2.6" y="8.9" class="st6" width="1.4" height="0.3"/>
	<rect x="8.1" y="8.6" class="st4" width="1" height="0.3"/>
	<rect x="7.7" y="8.9" class="st6" width="1.4" height="0.3"/>
	<rect x="4.8" y="5.1" class="st4" width="2.1" height="0.3"/>
	<rect x="5.7" y="4.1" class="st5" width="0.3" height="1"/>
	<g>
		<path class="st3" d="M5.5,4.6C5.2,4.6,5,4.4,5,4.1c0-0.3,0.2-0.5,0.5-0.5C5.8,3.6,6,3.8,6,4.1C6,4.4,5.8,4.6,5.5,4.6z M5.5,3.9
			C5.4,3.9,5.3,4,5.3,4.1c0,0.1,0.1,0.2,0.2,0.2c0.1,0,0.2-0.1,0.2-0.2C5.7,4,5.6,3.9,5.5,3.9z"/>
		<path class="st3" d="M6.2,4.6c-0.3,0-0.5-0.2-0.5-0.5c0-0.3,0.2-0.5,0.5-0.5c0.3,0,0.5,0.2,0.5,0.5S6.5,4.6,6.2,4.6z M6.2,3.9
			C6.1,3.9,6,4,6,4.1c0,0.1,0.1,0.2,0.2,0.2c0.1,0,0.2-0.1,0.2-0.2C6.4,4,6.3,3.9,6.2,3.9z"/>
		<path class="st3" d="M6.9,5C6.6,5,6.4,4.7,6.4,4.5c0-0.3,0.2-0.5,0.5-0.5c0.3,0,0.5,0.2,0.5,0.5S7.1,5,6.9,5z M6.9,4.3
			c-0.1,0-0.2,0.1-0.2,0.2c0,0.1,0.1,0.2,0.2,0.2C7,4.6,7,4.6,7,4.5C7,4.4,7,4.3,6.9,4.3z"/>
		<path class="st3" d="M4.8,5C4.5,5,4.3,4.7,4.3,4.5c0-0.3,0.2-0.5,0.5-0.5c0.3,0,0.5,0.2,0.5,0.5C5.3,4.7,5.1,5,4.8,5z M4.8,4.3
			c-0.1,0-0.2,0.1-0.2,0.2c0,0.1,0.1,0.2,0.2,0.2C4.9,4.6,5,4.6,5,4.5C5,4.4,4.9,4.3,4.8,4.3z"/>
	</g>
	<path class="st4" d="M6.9,7.9v0.2c0,0.1-0.1,0.2-0.2,0.2c-0.1,0-0.2-0.1-0.2-0.2V7.9H6.9 M7.2,7.6h-1v0.5c0,0.3,0.2,0.5,0.5,0.5
		c0.3,0,0.5-0.2,0.5-0.5L7.2,7.6L7.2,7.6z"/>
	<path class="st7" d="M6.7,6.9L6.7,6.9c-0.2,0-0.3-0.2-0.3-0.3V6.2c0-0.2,0.2-0.3,0.3-0.3l0,0C6.9,5.8,7,6,7,6.2v0.3
		C7,6.7,6.9,6.9,6.7,6.9z"/>
	<circle class="st6" cx="5.8" cy="7.2" r="0.5"/>
	<rect x="5.7" y="3.4" class="st4" width="0.3" height="1"/>
	<path class="st1" d="M4.8,5.1L4.5,4.8l0.2-0.2C5,4.3,5.4,4.1,5.8,4.1l0,0c0.4,0,0.9,0.2,1.2,0.5l0.2,0.2L6.9,5.1H4.8z"/>
	<g>
		<circle class="st2" cx="5.8" cy="4.8" r="0.2"/>
		<circle class="st2" cx="5.1" cy="4.8" r="0.2"/>
		<circle class="st2" cx="6.5" cy="4.8" r="0.2"/>
	</g>
	<g>
		<rect x="2.7" y="6.5" class="st1" width="1.7" height="0.3"/>
		<polygon class="st1" points="2.7,7.9 3.8,7.6 3.8,7.2 2.7,7.6 		"/>
	</g>
</g>
<g>
</g>
<g>
</g>
<g>
</g>
<g>
</g>
<g>
</g>
<g>
</g>
<g>
</g>
<g>
</g>
<g>
</g>
<g>
</g>
<g>
</g>
<g>
</g>
<g>
</g>
<g>
</g>
<g>
</g>
</svg>
