<?xml version="1.0" encoding="utf-8"?>
<!-- Generator: Adobe Illustrator 23.0.3, SVG Export Plug-In . SVG Version: 6.00 Build 0)  -->
<svg version="1.1" id="Capa_1" xmlns="http://www.w3.org/2000/svg" xmlns:xlink="http://www.w3.org/1999/xlink" x="0px" y="0px"
	 viewBox="0 0 104.8 28.7" style="enable-background:new 0 0 104.8 28.7;" xml:space="preserve">
<style type="text/css">
	.st0{fill:#575756;}
	.st1{fill-rule:evenodd;clip-rule:evenodd;fill:#575756;}
</style>
<g>
	<g>
		<path class="st0" d="M39,16.3h-1.5c-0.2,0-0.3,0-0.4-0.1c-0.1-0.1-0.2-0.2-0.2-0.3l-0.5-1.4h-3.1l-0.5,1.4c0,0.1-0.1,0.2-0.2,0.3
			c-0.1,0.1-0.2,0.1-0.4,0.1h-1.5l3.2-8.2h1.9L39,16.3z M33.8,13.2H36L35.2,11c0-0.1-0.1-0.3-0.2-0.5c-0.1-0.2-0.1-0.4-0.2-0.6
			c-0.1,0.2-0.1,0.4-0.2,0.6c-0.1,0.2-0.1,0.4-0.2,0.5L33.8,13.2z"/>
		<path class="st0" d="M40.9,8.2c0.1,0,0.1,0,0.2,0s0.1,0,0.1,0.1c0,0,0.1,0.1,0.1,0.2l3.9,4.9c0-0.2,0-0.3,0-0.5c0-0.1,0-0.3,0-0.4
			V8.2h1.7v8.2h-1c-0.1,0-0.3,0-0.4-0.1c-0.1,0-0.2-0.1-0.3-0.2l-3.8-4.9c0,0.1,0,0.3,0,0.4c0,0.1,0,0.3,0,0.4v4.4h-1.7V8.2h1
			C40.7,8.2,40.8,8.2,40.9,8.2z"/>
		<path class="st0" d="M53.6,14.2c0,0,0.1,0,0.1,0c0,0,0.1,0,0.1,0.1l0.8,0.8c-0.3,0.4-0.7,0.8-1.2,1c-0.5,0.2-1.1,0.3-1.8,0.3
			c-0.6,0-1.2-0.1-1.7-0.3c-0.5-0.2-0.9-0.5-1.2-0.9c-0.3-0.4-0.6-0.8-0.8-1.3c-0.2-0.5-0.3-1.1-0.3-1.7c0-0.6,0.1-1.2,0.3-1.7
			c0.2-0.5,0.5-0.9,0.9-1.3c0.4-0.4,0.8-0.7,1.3-0.9c0.5-0.2,1.1-0.3,1.7-0.3c0.3,0,0.6,0,0.9,0.1c0.3,0.1,0.5,0.1,0.8,0.2
			c0.2,0.1,0.5,0.2,0.6,0.3c0.2,0.1,0.4,0.3,0.5,0.4L54.1,10c0,0.1-0.1,0.1-0.1,0.1c-0.1,0-0.1,0.1-0.2,0.1c-0.1,0-0.1,0-0.2,0
			c-0.1,0-0.1-0.1-0.2-0.1c-0.1,0-0.1-0.1-0.2-0.1c-0.1-0.1-0.2-0.1-0.3-0.1c-0.1,0-0.2-0.1-0.4-0.1c-0.1,0-0.3,0-0.5,0
			c-0.3,0-0.7,0.1-0.9,0.2c-0.3,0.1-0.5,0.3-0.7,0.5c-0.2,0.2-0.4,0.5-0.5,0.8c-0.1,0.3-0.2,0.7-0.2,1.1c0,0.4,0.1,0.8,0.2,1.1
			c0.1,0.3,0.3,0.6,0.5,0.8c0.2,0.2,0.4,0.4,0.7,0.5s0.5,0.2,0.8,0.2c0.2,0,0.3,0,0.5,0s0.3,0,0.4-0.1s0.2-0.1,0.3-0.2
			c0.1-0.1,0.2-0.1,0.3-0.2c0,0,0.1-0.1,0.1-0.1C53.5,14.2,53.6,14.2,53.6,14.2z"/>
		<path class="st0" d="M62.6,16.3h-1.9v-3.5h-3.3v3.5h-1.9V8.2h1.9v3.4h3.3V8.2h1.9V16.3z"/>
		<path class="st0" d="M66,16.3h-1.9V8.2H66V16.3z"/>
		<path class="st0" d="M69.4,13.6v2.7h-1.9V8.2h2.9c0.6,0,1.1,0.1,1.5,0.2c0.4,0.1,0.8,0.3,1,0.6c0.3,0.2,0.5,0.5,0.6,0.8
			c0.1,0.3,0.2,0.7,0.2,1.1c0,0.4-0.1,0.8-0.2,1.1c-0.1,0.3-0.3,0.6-0.6,0.9s-0.6,0.4-1,0.6c-0.4,0.1-0.9,0.2-1.5,0.2H69.4z
			 M69.4,12.2h1c0.5,0,0.8-0.1,1.1-0.4c0.2-0.2,0.3-0.6,0.3-1c0-0.2,0-0.4-0.1-0.5s-0.1-0.3-0.3-0.4c-0.1-0.1-0.3-0.2-0.4-0.3
			c-0.2-0.1-0.4-0.1-0.6-0.1h-1V12.2z"/>
		<path class="st0" d="M78.1,14.8c0.3,0,0.5,0,0.7-0.1c0.2-0.1,0.4-0.2,0.5-0.4c0.1-0.2,0.2-0.3,0.3-0.6c0.1-0.2,0.1-0.5,0.1-0.8
			V8.2h1.9V13c0,0.5-0.1,1-0.2,1.4c-0.2,0.4-0.4,0.8-0.7,1.1c-0.3,0.3-0.7,0.5-1.1,0.7c-0.4,0.2-0.9,0.3-1.5,0.3
			c-0.5,0-1-0.1-1.5-0.3c-0.4-0.2-0.8-0.4-1.1-0.7c-0.3-0.3-0.5-0.7-0.7-1.1c-0.2-0.4-0.2-0.9-0.2-1.4V8.2h1.9V13
			c0,0.3,0,0.5,0.1,0.8c0.1,0.2,0.2,0.4,0.3,0.6s0.3,0.3,0.5,0.4C77.6,14.8,77.8,14.8,78.1,14.8z"/>
		<path class="st0" d="M84.7,13.3v3h-1.9V8.2h2.7c0.6,0,1.1,0.1,1.5,0.2c0.4,0.1,0.8,0.3,1,0.5c0.3,0.2,0.5,0.5,0.6,0.8
			c0.1,0.3,0.2,0.6,0.2,1c0,0.3,0,0.5-0.1,0.8c-0.1,0.2-0.2,0.5-0.3,0.7c-0.1,0.2-0.3,0.4-0.5,0.5c-0.2,0.2-0.4,0.3-0.7,0.4
			c0.1,0.1,0.2,0.1,0.4,0.2c0.1,0.1,0.2,0.2,0.3,0.3l1.7,2.8h-1.7c-0.3,0-0.5-0.1-0.7-0.4l-1.4-2.4c-0.1-0.1-0.1-0.2-0.2-0.2
			c-0.1,0-0.2-0.1-0.3-0.1H84.7z M84.7,12h0.8c0.3,0,0.5,0,0.7-0.1c0.2-0.1,0.3-0.2,0.4-0.3c0.1-0.1,0.2-0.3,0.3-0.4
			c0.1-0.2,0.1-0.3,0.1-0.5c0-0.4-0.1-0.6-0.4-0.8c-0.2-0.2-0.6-0.3-1.1-0.3h-0.8V12z"/>
		<path class="st0" d="M97.9,16.3h-1.5c-0.2,0-0.3,0-0.4-0.1c-0.1-0.1-0.2-0.2-0.2-0.3l-0.5-1.4h-3.1l-0.5,1.4
			c0,0.1-0.1,0.2-0.2,0.3c-0.1,0.1-0.2,0.1-0.4,0.1h-1.5l3.2-8.2h1.9L97.9,16.3z M92.6,13.2h2.2L94.1,11c0-0.1-0.1-0.3-0.2-0.5
			c-0.1-0.2-0.1-0.4-0.2-0.6c-0.1,0.2-0.1,0.4-0.2,0.6c-0.1,0.2-0.1,0.4-0.2,0.5L92.6,13.2z"/>
		<path class="st0" d="M103.7,14.2c0,0,0.1,0,0.1,0c0,0,0.1,0,0.1,0.1l0.8,0.8c-0.3,0.4-0.7,0.8-1.2,1c-0.5,0.2-1.1,0.3-1.8,0.3
			c-0.6,0-1.2-0.1-1.7-0.3c-0.5-0.2-0.9-0.5-1.2-0.9c-0.3-0.4-0.6-0.8-0.8-1.3c-0.2-0.5-0.3-1.1-0.3-1.7c0-0.6,0.1-1.2,0.3-1.7
			c0.2-0.5,0.5-0.9,0.9-1.3c0.4-0.4,0.8-0.7,1.3-0.9c0.5-0.2,1.1-0.3,1.7-0.3c0.3,0,0.6,0,0.9,0.1c0.3,0.1,0.5,0.1,0.8,0.2
			c0.2,0.1,0.5,0.2,0.6,0.3c0.2,0.1,0.4,0.3,0.5,0.4l-0.6,0.9c0,0.1-0.1,0.1-0.1,0.1c-0.1,0-0.1,0.1-0.2,0.1c-0.1,0-0.1,0-0.2,0
			c-0.1,0-0.1-0.1-0.2-0.1c-0.1,0-0.1-0.1-0.2-0.1c-0.1-0.1-0.2-0.1-0.3-0.1c-0.1,0-0.2-0.1-0.4-0.1c-0.1,0-0.3,0-0.5,0
			c-0.3,0-0.7,0.1-0.9,0.2c-0.3,0.1-0.5,0.3-0.7,0.5c-0.2,0.2-0.4,0.5-0.5,0.8c-0.1,0.3-0.2,0.7-0.2,1.1c0,0.4,0.1,0.8,0.2,1.1
			c0.1,0.3,0.3,0.6,0.5,0.8c0.2,0.2,0.4,0.4,0.7,0.5s0.5,0.2,0.8,0.2c0.2,0,0.3,0,0.5,0c0.1,0,0.3,0,0.4-0.1c0.1,0,0.2-0.1,0.3-0.2
			c0.1-0.1,0.2-0.1,0.3-0.2c0,0,0.1-0.1,0.1-0.1C103.6,14.2,103.6,14.2,103.7,14.2z"/>
	</g>
	<g>
		<path class="st0" d="M33.8,21.7C33.9,21.7,33.9,21.7,33.8,21.7l0.3,0.3c-0.2,0.2-0.4,0.3-0.6,0.5c-0.2,0.1-0.5,0.2-0.9,0.2
			c-0.3,0-0.6-0.1-0.8-0.2c-0.2-0.1-0.4-0.2-0.6-0.4c-0.2-0.2-0.3-0.4-0.4-0.7c-0.1-0.3-0.1-0.5-0.1-0.8s0-0.6,0.1-0.8
			c0.1-0.3,0.2-0.5,0.4-0.7c0.2-0.2,0.4-0.3,0.6-0.4c0.2-0.1,0.5-0.2,0.8-0.2c0.3,0,0.6,0,0.8,0.1c0.2,0.1,0.4,0.2,0.6,0.4l-0.2,0.3
			c0,0,0,0,0,0c0,0,0,0-0.1,0c0,0-0.1,0-0.1,0c0,0-0.1,0-0.1-0.1c0,0-0.1-0.1-0.1-0.1c-0.1,0-0.1-0.1-0.2-0.1c-0.1,0-0.2,0-0.2-0.1
			c-0.1,0-0.2,0-0.3,0c-0.2,0-0.4,0-0.6,0.1c-0.2,0.1-0.3,0.2-0.5,0.3c-0.1,0.1-0.2,0.3-0.3,0.5c-0.1,0.2-0.1,0.4-0.1,0.7
			c0,0.3,0,0.5,0.1,0.7c0.1,0.2,0.2,0.4,0.3,0.5c0.1,0.1,0.3,0.2,0.4,0.3s0.4,0.1,0.6,0.1c0.1,0,0.2,0,0.3,0c0.1,0,0.2,0,0.3-0.1
			c0.1,0,0.2-0.1,0.2-0.1C33.6,21.8,33.7,21.8,33.8,21.7C33.8,21.7,33.8,21.7,33.8,21.7z"/>
		<path class="st0" d="M37.4,18.5v0.4h-1.9v1.3H37v0.4h-1.6v1.4h1.9v0.4h-2.5v-4.1H37.4z"/>
		<path class="st0" d="M38.5,18.5C38.6,18.5,38.6,18.5,38.5,18.5l2.4,3.1c0,0,0-0.1,0-0.1c0,0,0-0.1,0-0.1v-2.9h0.5v4.1h-0.3
			c0,0-0.1,0-0.1,0c0,0-0.1,0-0.1-0.1l-2.3-3.1c0,0,0,0.1,0,0.1c0,0,0,0.1,0,0.1v2.9h-0.5v-4.1h0.3C38.5,18.5,38.5,18.5,38.5,18.5z"
			/>
		<path class="st0" d="M45.2,18.5v0.5h-1.3v3.6h-0.5v-3.6H42v-0.5H45.2z"/>
		<path class="st0" d="M46.4,20.8v1.7h-0.5v-4.1H47c0.3,0,0.5,0,0.7,0.1c0.2,0.1,0.3,0.1,0.5,0.2c0.1,0.1,0.2,0.2,0.3,0.4
			c0.1,0.1,0.1,0.3,0.1,0.5c0,0.1,0,0.3-0.1,0.4c0,0.1-0.1,0.2-0.2,0.3c-0.1,0.1-0.2,0.2-0.3,0.3c-0.1,0.1-0.3,0.1-0.4,0.2
			c0.1,0,0.1,0.1,0.2,0.2l1.2,1.6h-0.5c-0.1,0-0.2,0-0.2-0.1l-1.1-1.4c0,0-0.1-0.1-0.1-0.1c0,0-0.1,0-0.2,0H46.4z M46.4,20.4h0.6
			c0.2,0,0.3,0,0.4-0.1c0.1,0,0.2-0.1,0.3-0.2c0.1-0.1,0.1-0.2,0.2-0.3c0-0.1,0.1-0.2,0.1-0.3c0-0.2-0.1-0.4-0.2-0.5
			c-0.2-0.1-0.4-0.2-0.7-0.2h-0.6V20.4z"/>
		<path class="st0" d="M53,20.5c0,0.3,0,0.6-0.1,0.8c-0.1,0.3-0.2,0.5-0.4,0.7c-0.2,0.2-0.4,0.3-0.6,0.4c-0.2,0.1-0.5,0.2-0.8,0.2
			s-0.6-0.1-0.8-0.2c-0.2-0.1-0.5-0.2-0.6-0.4c-0.2-0.2-0.3-0.4-0.4-0.7c-0.1-0.3-0.1-0.5-0.1-0.8c0-0.3,0-0.6,0.1-0.8
			c0.1-0.3,0.2-0.5,0.4-0.7c0.2-0.2,0.4-0.3,0.6-0.4c0.2-0.1,0.5-0.2,0.8-0.2s0.6,0.1,0.8,0.2c0.2,0.1,0.5,0.2,0.6,0.4
			c0.2,0.2,0.3,0.4,0.4,0.7C53,19.9,53,20.2,53,20.5z M52.5,20.5c0-0.2,0-0.5-0.1-0.7c-0.1-0.2-0.2-0.4-0.3-0.5
			c-0.1-0.1-0.3-0.2-0.5-0.3c-0.2-0.1-0.4-0.1-0.6-0.1c-0.2,0-0.4,0-0.6,0.1c-0.2,0.1-0.3,0.2-0.5,0.3c-0.1,0.1-0.2,0.3-0.3,0.5
			c-0.1,0.2-0.1,0.4-0.1,0.7c0,0.2,0,0.5,0.1,0.7c0.1,0.2,0.2,0.4,0.3,0.5c0.1,0.1,0.3,0.2,0.5,0.3c0.2,0.1,0.4,0.1,0.6,0.1
			c0.2,0,0.4,0,0.6-0.1c0.2-0.1,0.3-0.2,0.5-0.3c0.1-0.1,0.2-0.3,0.3-0.5C52.4,21,52.5,20.7,52.5,20.5z"/>
		<path class="st0" d="M58.2,22.5h-0.4c0,0-0.1,0-0.1,0c0,0-0.1-0.1-0.1-0.1l-0.4-1h-1.8l-0.4,1c0,0,0,0.1-0.1,0.1c0,0-0.1,0-0.1,0
			h-0.4l1.6-4.1h0.6L58.2,22.5z M55.6,21h1.5l-0.6-1.7c0-0.1-0.1-0.2-0.1-0.4c0,0.1,0,0.1-0.1,0.2c0,0.1,0,0.1-0.1,0.2L55.6,21z"/>
		<path class="st0" d="M60.8,21.2c0,0.1,0,0.1,0.1,0.2c0-0.1,0-0.1,0.1-0.2c0,0,0-0.1,0.1-0.1l1.4-2.5c0,0,0.1-0.1,0.1-0.1
			c0,0,0.1,0,0.1,0H63v4.1h-0.5v-3c0,0,0-0.1,0-0.1c0,0,0-0.1,0-0.1l-1.4,2.5c0,0.1-0.1,0.1-0.2,0.1h-0.1c-0.1,0-0.2,0-0.2-0.1
			l-1.4-2.5c0,0,0,0.1,0,0.1c0,0,0,0.1,0,0.1v3h-0.5v-4.1h0.4c0,0,0.1,0,0.1,0c0,0,0.1,0,0.1,0.1l1.4,2.5
			C60.8,21.1,60.8,21.1,60.8,21.2z"/>
		<path class="st0" d="M63.9,22.5v-4.1h1.3c0.2,0,0.5,0,0.6,0.1c0.2,0,0.3,0.1,0.4,0.2c0.1,0.1,0.2,0.2,0.3,0.3
			c0.1,0.1,0.1,0.3,0.1,0.4c0,0.1,0,0.2,0,0.3c0,0.1-0.1,0.2-0.1,0.3c-0.1,0.1-0.1,0.2-0.2,0.2c-0.1,0.1-0.2,0.1-0.3,0.2
			c0.3,0.1,0.5,0.2,0.7,0.3c0.2,0.2,0.2,0.4,0.2,0.6c0,0.2,0,0.3-0.1,0.5c-0.1,0.1-0.2,0.3-0.3,0.4c-0.1,0.1-0.3,0.2-0.4,0.2
			c-0.2,0.1-0.4,0.1-0.6,0.1H63.9z M64.5,20.3h0.7c0.2,0,0.3,0,0.4-0.1c0.1,0,0.2-0.1,0.3-0.1c0.1-0.1,0.1-0.1,0.2-0.2
			c0-0.1,0.1-0.2,0.1-0.3c0-0.2-0.1-0.4-0.2-0.5c-0.1-0.1-0.4-0.2-0.7-0.2h-0.7V20.3z M64.5,20.7v1.4h0.9c0.2,0,0.3,0,0.4-0.1
			c0.1,0,0.2-0.1,0.3-0.2c0.1-0.1,0.1-0.1,0.2-0.2c0-0.1,0.1-0.2,0.1-0.3c0-0.2-0.1-0.4-0.2-0.5c-0.1-0.1-0.4-0.2-0.7-0.2H64.5z"/>
		<path class="st0" d="M68.3,22.5h-0.5v-4.1h0.5V22.5z"/>
		<path class="st0" d="M71.8,18.5v0.4h-1.9v1.3h1.6v0.4h-1.6v1.4h1.9v0.4h-2.5v-4.1H71.8z"/>
		<path class="st0" d="M73,18.5C73,18.5,73.1,18.5,73,18.5l2.4,3.1c0,0,0-0.1,0-0.1c0,0,0-0.1,0-0.1v-2.9h0.5v4.1h-0.3
			c0,0-0.1,0-0.1,0c0,0-0.1,0-0.1-0.1l-2.3-3.1c0,0,0,0.1,0,0.1c0,0,0,0.1,0,0.1v2.9h-0.5v-4.1h0.3C73,18.5,73,18.5,73,18.5z"/>
		<path class="st0" d="M79.7,18.5v0.5h-1.3v3.6h-0.5v-3.6h-1.3v-0.5H79.7z"/>
		<path class="st0" d="M83.2,22.5h-0.4c0,0-0.1,0-0.1,0c0,0-0.1-0.1-0.1-0.1l-0.4-1h-1.8l-0.4,1c0,0,0,0.1-0.1,0.1c0,0-0.1,0-0.1,0
			h-0.4l1.6-4.1h0.6L83.2,22.5z M80.6,21h1.5l-0.6-1.7c0-0.1-0.1-0.2-0.1-0.4c0,0.1,0,0.1-0.1,0.2c0,0.1,0,0.1-0.1,0.2L80.6,21z"/>
		<path class="st0" d="M84.3,22H86v0.5h-2.3v-4.1h0.5V22z"/>
	</g>
	<path class="st1" d="M20,20.4c-0.4,0.9-0.9,1.8-1.4,2.6c0,0.1-0.1,0.1-0.1,0.2l0,0l-0.1,0.1l0,0l-0.1,0.1l0,0l-0.1,0.1l0,0
		c-0.1,0.1-0.1,0.2-0.2,0.3l0,0l-0.1,0.1l0,0L17.8,24l0,0l-0.1,0.1l0,0l-0.1,0.1l0,0l-0.1,0.1l0,0l-0.1,0.1l0,0l-0.1,0.1l0,0
		l-0.1,0.1l-0.1,0.1l0,0l0,0l0,0.1l0,0l0,0.1l0,0L17,24.9L17,25l0,0l0,0l-0.1,0.1l0,0l0,0l0,0l-0.1,0.1l0,0l0,0l0,0.1l-0.1,0.1l0,0
		l0,0l-0.1,0.1l0,0l0,0l-0.1,0.1l-0.1,0.1l0,0l-0.1,0.1l0,0L16.1,26l0,0l-0.1,0.1l0,0l0,0l-0.1,0.1l-0.1,0.1l-0.1,0.1l-0.1,0.1l0,0
		l-0.1,0.1l-0.1,0.1l-0.1,0.1l0,0l0,0l0,0L15.1,27L15,27.1l-0.1,0.1l0,0l0,0l0,0l-0.1,0.1l0,0l0,0l0,0c-0.1,0.1-0.2,0.2-0.3,0.3l0,0
		l0,0l-0.2,0.1l0,0L14,27.9L14,28L13.9,28l-0.2,0.1l0,0l-0.1,0.1l-0.1,0l-0.1,0.1c-0.1,0.1-0.2,0.2-0.3,0.3c-0.3,0-0.6-0.1-0.8-0.1
		c2-1.6,4.1-3.6,5.6-5.9c0.5-0.7,0.9-1.5,1.3-2.3C19.5,20.4,19.7,20.4,20,20.4 M15.3,28.6c-0.4,0-0.8,0-1.2,0c1-0.8,1.8-1.6,2.7-2.5
		l0,0l0,0L17,26l0,0l0,0l0.1-0.1l0.1-0.1l0,0l0,0l0.1-0.1l0.1-0.1l0,0l0,0l0-0.1l0.1-0.1l0.1-0.1l0,0l0.1-0.1l0,0l0.1-0.2l0,0l0,0
		l0.1-0.1l0-0.1l0,0l0.1-0.1l0,0l0-0.1l0,0l0-0.1l0,0l0.1-0.1l0,0l0-0.1l0,0l0.1-0.1l0,0l0.1-0.1l0.1-0.1l0,0l0.1-0.1l0,0l0.1-0.1
		l0,0l0.1-0.1l0,0l0.1-0.1l0,0l0.1-0.1l0,0l0.1-0.1l0-0.1l0,0l0,0l0.1-0.1l0,0l0.1-0.1c1.5-2.3,2.5-4.8,2.7-7.3c0-0.1,0-0.2,0-0.3
		l0,0c0-0.1,0-0.2,0-0.3c0-0.5-0.6-0.4-0.7,0c0,0.1,0,0.2,0,0.3l0,0c0,0.1,0,0.2,0,0.3c-0.1,1.2-0.4,2.4-0.8,3.5
		c-0.3,0.1-0.5,0.1-0.7,0c0.6-1.4,1-2.9,1-4.4c0-0.5,0.2-0.9,0.5-1c0.1-0.1,0.3-0.1,0.4-0.1c0.1,0,0.3,0.1,0.4,0.2
		c0.4,0.3,0.6,1,0.4,2.2c-0.4,2.7-1.3,5.1-2.6,7.2C18.6,25.6,17.1,27.2,15.3,28.6z M12.7,27.4c-0.4,0.3-0.8,0.7-1.3,1
		c-0.2,0-0.5-0.1-0.7-0.2c0.4-0.3,0.8-0.6,1.2-1C12.2,27.3,12.5,27.4,12.7,27.4z M20,24.5c0.1-0.2,0.2-0.4,0.4-0.6
		c1.3-2.2,2.2-4.6,2.7-7.4c0.2-1.4-0.1-2.3-0.6-2.7c-0.2-0.2-0.5-0.3-0.8-0.3c-0.3,0-0.6,0-0.8,0.1c-0.5,0.3-0.9,0.8-0.9,1.6
		c0,2.4-1,4.9-2.5,7.1c-1.1,1.6-2.4,3.1-3.9,4.4c-0.3,0-0.6,0-0.8-0.1c0.9-0.8,1.8-1.8,2.6-2.7c1.8-2.1,3.1-4.3,3.7-6.3
		c0.3-1,0.3-1.7,0.4-2.7l0-0.4c0.1-1.1,0.6-1.8,1.3-2.1c0.3-0.1,0.6-0.2,0.9-0.2c0.3,0,0.6,0.1,0.9,0.3c0.7,0.4,1.3,1.3,1.2,2.7
		c0,2.3-0.7,4.8-1.8,7.1c-0.3,0.7-0.7,1.4-1.1,2C20.4,24.5,20.1,24.5,20,24.5z M17.8,28.2c-0.4,0.1-0.9,0.2-1.3,0.3
		c1.2-1,2.2-2.1,3.1-3.4c0.2,0.1,0.5,0.1,0.8,0C19.6,26.2,18.8,27.3,17.8,28.2z M20.1,27.4c-0.4,0.2-0.8,0.3-1.1,0.4
		c1.5-1.6,2.6-3.4,3.5-5.2c1.2-2.4,1.8-5,1.9-7.4c0-1.6-0.6-2.7-1.5-3.2c-0.4-0.2-0.8-0.3-1.2-0.4c-0.4,0-0.8,0-1.2,0.2
		c-0.9,0.4-1.6,1.3-1.7,2.7l0,0.4c-0.1,0.9-0.1,1.6-0.4,2.5c-0.5,1.9-1.8,4-3.5,6c-1.4,1.7-3.2,3.3-4.9,4.5c-0.3-0.1-0.7-0.2-1-0.4
		c2.2-1.5,4.3-3.3,5.9-5.4c1.7-2.3,2.8-4.8,2.9-7.2c0.1-2.2,1-3.5,2-4.2c0.5-0.3,1-0.4,1.5-0.5c0.5,0,1,0.1,1.5,0.3
		c1,0.5,1.9,1.7,2,3.4c0.3,2.5-0.2,5.2-1.1,7.6C22.8,24,21.6,25.9,20.1,27.4z M23.3,25.5c-0.3,0.3-0.7,0.5-1,0.8
		c-0.2,0.1-0.4,0.2-0.6,0.4c1.1-1.4,1.9-3,2.6-4.8c1-2.5,1.5-5.3,1.2-7.9c-0.2-1.9-1.2-3.2-2.4-3.9c-0.6-0.3-1.2-0.4-1.8-0.4
		c-0.6,0-1.3,0.2-1.8,0.6c-1.2,0.8-2.2,2.3-2.3,4.7c-0.1,2.3-1.1,4.6-2.8,6.8c-1.6,2.1-3.8,4-6.1,5.5c-0.4-0.2-0.7-0.4-1.1-0.6
		c1.6-0.9,3.1-2,4.4-3.4c0.3-0.3,0.5-0.5,0.8-0.8c0.2-0.3,0.5-0.6,0.7-0.9l0,0c1.3-1.7,2.2-3.5,2.8-5.5c0.1-0.4,0.2-0.8,0.3-1.1
		c0.1-0.4,0.1-0.8,0.1-1.1l0,0l0,0l0,0c0.1-1.6,0.6-2.9,1.4-3.8c0.1-0.2,0.3-0.3,0.5-0.5c0.2-0.1,0.3-0.3,0.5-0.4l0,0
		c0.5-0.3,1-0.6,1.6-0.7c0.1,0,0.2,0,0.3-0.1c0.1,0,0.2,0,0.3,0l0,0c0.6,0,1.2,0,1.7,0.2c0.1,0,0.2,0.1,0.3,0.1
		c0.1,0,0.2,0.1,0.3,0.1l0,0l0,0c1,0.4,1.9,1.2,2.5,2.4c0.1,0.2,0.2,0.5,0.3,0.7c0.1,0.2,0.2,0.5,0.2,0.8l0,0l0,0v0l0,0
		c0.3,1.2,0.3,2.6,0.2,4.1c0,0.3-0.1,0.6-0.1,1c-0.1,0.3-0.1,0.6-0.2,1c0,0.2-0.1,0.4-0.1,0.6c-0.4,1.9-1,3.6-1.7,4.9
		c-0.1,0.3-0.3,0.5-0.4,0.7C23.5,25.2,23.4,25.4,23.3,25.5z M6.5,2.4C13.1-2,22-0.2,26.3,6.4C30,12,29.3,19.2,25,23.9
		c0.4-0.9,0.8-2,1.1-3.1c0.1-0.2,0.1-0.5,0.2-0.7c0.1-0.2,0.1-0.5,0.2-0.7l0,0l0,0c0.3-1.5,0.5-3,0.5-4.4c0-0.3,0-0.6,0-0.9
		c0-0.3-0.1-0.6-0.1-0.9c0-0.3-0.1-0.5-0.2-0.8C26.4,11,25.6,9.8,24.6,9c-0.2-0.2-0.4-0.3-0.6-0.4c-0.2-0.1-0.4-0.2-0.6-0.3l0,0
		c-0.6-0.3-1.3-0.4-1.9-0.5c-0.1,0-0.3,0-0.4,0c-0.1,0-0.3,0-0.4,0l0,0C20,7.8,19.4,8,18.8,8.3c-0.1,0.1-0.2,0.1-0.4,0.2
		c-0.1,0.1-0.2,0.1-0.3,0.2l0,0l0,0c-1,0.7-1.9,1.8-2.3,3.3c-0.1,0.3-0.2,0.6-0.2,0.9c-0.1,0.3-0.1,0.7-0.1,1l0,0l0,0
		c-0.1,1.8-0.8,3.7-1.7,5.4c-0.2,0.3-0.4,0.7-0.6,1c-0.2,0.3-0.4,0.6-0.7,0.9l0,0l0,0c-1.1,1.5-2.7,2.8-4.3,3.9
		c-0.3,0.2-0.6,0.4-1,0.6c-0.2,0.1-0.5,0.3-0.7,0.4c-1.5-1-2.9-2.4-4-4C-2,15.6-0.2,6.7,6.5,2.4z"/>
</g>
<g>
</g>
<g>
</g>
<g>
</g>
<g>
</g>
<g>
</g>
<g>
</g>
<g>
</g>
<g>
</g>
<g>
</g>
<g>
</g>
<g>
</g>
<g>
</g>
<g>
</g>
<g>
</g>
<g>
</g>
</svg>
