<?xml version="1.0" encoding="utf-8"?>
<!-- Generator: Adobe Illustrator 23.0.3, SVG Export Plug-In . SVG Version: 6.00 Build 0)  -->
<svg version="1.1" id="Capa_1" xmlns="http://www.w3.org/2000/svg" xmlns:xlink="http://www.w3.org/1999/xlink" x="0px" y="0px"
	 viewBox="0 0 253 37" style="enable-background:new 0 0 253 37;" xml:space="preserve">
<style type="text/css">
	.st0{fill:#575756;}
	.st1{fill-rule:evenodd;clip-rule:evenodd;fill:#575756;}
</style>
<path class="st0" d="M197.7,7.2h-0.6l-1.7,4.2h0.8l0.3-0.8h1.7l0.3,0.8h0.8L197.7,7.2z M196.8,9.9l0.6-1.6l0.5,1.6H196.8z"/>
<rect x="123.3" y="4.2" class="st1" width="0.9" height="28.7"/>
<path class="st0" d="M141.7,10.8c-0.4,0-0.8-0.1-1.2-0.2l-0.2,0.7c0.5,0.2,1,0.3,1.5,0.3c1,0,1.6-0.4,1.6-1.3c0-0.7-0.4-1-1.2-1.3
	c-0.7-0.3-0.9-0.4-0.9-0.6c0-0.3,0.2-0.5,0.8-0.5c0.3,0,0.7,0.1,1.1,0.2l0.2-0.7c-0.4-0.1-0.9-0.2-1.3-0.2c-1,0-1.5,0.5-1.5,1.2
	c0,0.8,0.5,1.1,1.3,1.4c0.5,0.2,0.9,0.3,0.9,0.7C142.5,10.8,142.1,10.8,141.7,10.8z"/>
<rect x="169.2" y="7.2" class="st0" width="0.8" height="4.2"/>
<polygon class="st0" points="170.6,6.1 169.7,6.1 169.1,6.8 169.9,6.8 "/>
<polygon class="st0" points="183.1,10.7 181,10.7 181,9.7 182.8,9.7 182.8,9 181,9 181,8 183,8 183,7.2 180.2,7.2 180.2,11.5 
	183.1,11.5 "/>
<path class="st0" d="M179.6,9.9V8.8c0-1-0.8-1.6-1.7-1.6h-1.7v4.2h1.7C178.8,11.5,179.6,10.9,179.6,9.9z M177,8h0.9
	c0.5,0,0.9,0.4,0.9,1v0.8c0,0.6-0.4,0.9-0.9,0.9H177V8z"/>
<path class="st0" d="M171.2,11.5l0.3-0.8h1.7l0.3,0.8h0.8l-1.5-4.2h-0.6l-1.7,4.2H171.2z M172.4,8.3l0.5,1.6h-1.1L172.4,8.3z"/>
<path class="st0" d="M166,9.9h0.8l1,1.5h0.9l-1.1-1.7c0.6-0.2,0.8-0.7,0.8-1.2c0-0.7-0.4-1.3-1.4-1.3h-1.8v4.2h0.8V9.9z M166,8h1
	c0.4,0,0.6,0.3,0.6,0.6s-0.2,0.6-0.6,0.6h-1V8z"/>
<path class="st0" d="M161.7,11.5l0.3-0.8h1.7l0.3,0.8h0.8l-1.5-4.2h-0.6l-1.7,4.2H161.7z M162.9,8.3l0.5,1.6h-1.1L162.9,8.3z"/>
<polygon class="st0" points="159.2,11.5 160,11.5 160,8 161.2,8 161.2,7.2 157.9,7.2 157.9,8 159.2,8 "/>
<polygon class="st0" points="157.5,10.7 155.4,10.7 155.4,9.7 157.3,9.7 157.3,9 155.4,9 155.4,8 157.5,8 157.5,7.2 154.6,7.2 
	154.6,11.5 157.5,11.5 "/>
<path class="st0" d="M151.5,9.9h0.8l1,1.5h0.9l-1.1-1.7c0.6-0.2,0.8-0.7,0.8-1.2c0-0.7-0.4-1.3-1.4-1.3h-1.8v4.2h0.8V9.9z M151.5,8
	h1c0.4,0,0.6,0.3,0.6,0.6s-0.2,0.6-0.6,0.6h-1V8z"/>
<path class="st0" d="M149,11.6c0.3,0,0.7,0,1.1-0.2l-0.2-0.7c-0.3,0.1-0.6,0.2-1,0.2c-0.7,0-1-0.3-1-1.2V9c0-0.9,0.4-1.2,1-1.2
	c0.3,0,0.7,0.1,1,0.2l0.2-0.7c-0.4-0.2-0.9-0.2-1.2-0.2c-1.3,0-1.9,0.7-1.9,1.8v0.8C147.1,10.9,147.7,11.6,149,11.6z"/>
<polygon class="st0" points="146.7,10.7 144.6,10.7 144.6,9.7 146.4,9.7 146.4,9 144.6,9 144.6,8 146.6,8 146.6,7.2 143.8,7.2 
	143.8,11.5 146.7,11.5 "/>
<polygon class="st0" points="249.1,29.5 249.1,28.4 251.4,28.4 251.4,27.3 249.1,27.3 249.1,26.3 251.6,26.3 251.6,25.1 247.7,25.1 
	247.7,30.7 251.7,30.7 251.7,29.5 "/>
<polygon class="st0" points="244.7,25.1 243.3,25.1 243.3,30.7 247.3,30.7 247.3,29.5 244.7,29.5 "/>
<path class="st0" d="M242,27.7c0.3-0.2,0.5-0.6,0.5-1.1c0-0.9-0.8-1.5-1.8-1.5h-2.5v5.6h2.6c1,0,2-0.5,2-1.7
	C242.8,28.3,242.4,27.9,242,27.7z M239.6,26.3h1.2c0.3,0,0.5,0.3,0.5,0.5s-0.2,0.5-0.5,0.5h-1.2V26.3z M240.8,29.5h-1.3v-1.2h1.3
	c0.4,0,0.6,0.3,0.6,0.6C241.5,29.2,241.4,29.5,240.8,29.5z"/>
<path class="st0" d="M234.6,25.1l-2.3,5.6h1.3l0.4-1h2l0.4,1h1.3l-2-5.6H234.6z M234.5,28.5l0.6-1.7l0.5,1.7H234.5z"/>
<polygon class="st0" points="232.9,25.1 228.2,25.1 228.2,26.3 229.9,26.3 229.9,30.7 231.2,30.7 231.2,26.3 232.9,26.3 "/>
<polygon class="st0" points="226.5,28.3 224.2,25.1 223.2,25.1 223.2,30.7 224.5,30.7 224.5,27.4 226.8,30.7 227.8,30.7 227.8,25.1 
	226.5,25.1 "/>
<polygon class="st0" points="219.9,28.4 222.2,28.4 222.2,27.3 219.9,27.3 219.9,26.3 222.5,26.3 222.5,25.1 218.6,25.1 218.6,30.7 
	222.5,30.7 222.5,29.5 219.9,29.5 "/>
<polygon class="st0" points="213.5,26.3 215.1,26.3 215.1,30.7 216.4,30.7 216.4,26.3 218.1,26.3 218.1,25.1 213.5,25.1 "/>
<path class="st0" d="M211.6,27.3c-1-0.4-1.2-0.5-1.2-0.8c0-0.4,0.3-0.5,0.8-0.5c0.4,0,1,0.1,1.4,0.3l0.3-1.1
	c-0.5-0.2-1.2-0.3-1.8-0.3c-1.4,0-2.1,0.6-2.1,1.6c0,1.1,0.7,1.5,1.7,1.9c0.6,0.2,1.1,0.4,1.1,0.8s-0.4,0.5-0.9,0.5
	s-1.1-0.1-1.7-0.3l-0.3,1.1c0.7,0.3,1.4,0.4,2,0.4c1.4,0,2.1-0.6,2.1-1.8C213.2,28.3,212.7,27.8,211.6,27.3z"/>
<path class="st0" d="M207.2,28.6c0,0.7-0.3,1.2-1,1.2s-1-0.5-1-1.2v-3.5h-1.3v3.5c0,1.4,0.8,2.3,2.3,2.3c1.6,0,2.4-0.9,2.4-2.3v-3.5
	h-1.3L207.2,28.6L207.2,28.6z"/>
<path class="st0" d="M201.8,27.3c-1-0.4-1.2-0.5-1.2-0.8c0-0.4,0.3-0.5,0.8-0.5c0.4,0,1,0.1,1.4,0.3l0.3-1.1
	c-0.5-0.2-1.2-0.3-1.8-0.3c-1.4,0-2.1,0.6-2.1,1.6c0,1.1,0.7,1.5,1.7,1.9c0.6,0.2,1.1,0.4,1.1,0.8s-0.4,0.5-0.9,0.5
	s-1.1-0.1-1.7-0.3l-0.3,1.1c0.7,0.3,1.4,0.4,2,0.4c1.4,0,2.1-0.6,2.1-1.8C203.4,28.3,202.9,27.8,201.8,27.3z"/>
<path class="st0" d="M194.4,24.9c-1.3,0-2.5,0.8-2.5,2.2v1.6c0,1.4,1.1,2.2,2.5,2.2s2.5-0.8,2.5-2.2V27
	C196.8,25.7,195.7,24.9,194.4,24.9z M195.5,28.6c0,0.7-0.5,1.1-1.1,1.1s-1.1-0.4-1.1-1.1v-1.5c0-0.7,0.5-1.1,1.1-1.1
	c0.7,0,1.1,0.4,1.1,1.1V28.6z"/>
<polygon class="st0" points="188.9,25.1 187.6,25.1 187.6,30.7 191.5,30.7 191.5,29.5 188.9,29.5 "/>
<polygon class="st0" points="184.5,25.1 183.2,25.1 183.2,30.7 187.1,30.7 187.1,29.5 184.5,29.5 "/>
<path class="st0" d="M180.1,24.9c-1.3,0-2.5,0.8-2.5,2.2v1.6c0,1.4,1.1,2.2,2.5,2.2s2.5-0.8,2.5-2.2V27
	C182.5,25.7,181.4,24.9,180.1,24.9z M181.2,28.6c0,0.7-0.5,1.1-1.1,1.1s-1.1-0.4-1.1-1.1v-1.5c0-0.7,0.5-1.1,1.1-1.1
	c0.7,0,1.1,0.4,1.1,1.1V28.6z"/>
<path class="st0" d="M177,26.9c0-1-0.6-1.8-2-1.8h-2.5v5.6h1.3v-1.9h0.8l1.2,1.9h1.5l-1.4-2.2C176.7,28.2,177,27.6,177,26.9z
	 M175.1,27.6h-1.2v-1.3h1.2c0.5,0,0.6,0.3,0.6,0.6C175.7,27.2,175.5,27.6,175.1,27.6z"/>
<path class="st0" d="M171.7,26.9c0-1-0.6-1.8-2-1.8h-2.5v5.6h1.3v-1.9h0.8l1.2,1.9h1.5l-1.4-2.2C171.3,28.2,171.7,27.6,171.7,26.9z
	 M169.7,27.6h-1.2v-1.3h1.2c0.5,0,0.6,0.3,0.6,0.6C170.4,27.2,170.2,27.6,169.7,27.6z"/>
<path class="st0" d="M163.6,25.1l-2.3,5.6h1.3l0.4-1h2l0.4,1h1.3l-2-5.6H163.6z M163.5,28.5l0.6-1.7l0.5,1.7H163.5z"/>
<path class="st0" d="M159.6,27.3c-1-0.4-1.2-0.5-1.2-0.8c0-0.4,0.3-0.5,0.8-0.5c0.4,0,1,0.1,1.4,0.3l0.3-1.1
	c-0.5-0.2-1.2-0.3-1.8-0.3c-1.4,0-2.1,0.6-2.1,1.6c0,1.1,0.7,1.5,1.7,1.9c0.6,0.2,1.1,0.4,1.1,0.8s-0.4,0.5-0.9,0.5
	s-1.1-0.1-1.7-0.3l-0.3,1.1c0.7,0.3,1.4,0.4,2,0.4c1.4,0,2.1-0.6,2.1-1.8C161.2,28.3,160.7,27.8,159.6,27.3z"/>
<polygon class="st0" points="153.9,28.4 156.2,28.4 156.2,27.3 153.9,27.3 153.9,26.3 156.4,26.3 156.4,25.1 152.5,25.1 152.5,30.7 
	156.5,30.7 156.5,29.5 153.9,29.5 "/>
<path class="st0" d="M149.5,25.1h-2.3v5.6h2.4c1.2,0,2.3-0.8,2.3-2.1v-1.4C151.9,25.8,150.7,25.1,149.5,25.1z M150.5,28.4
	c0,0.7-0.5,1.1-1,1.1h-1v-3.2h1c0.5,0,1,0.4,1,1.2V28.4z"/>
<polygon class="st0" points="142.4,27.3 141.3,25.1 139.9,25.1 141.7,28.7 141.7,30.7 143.1,30.7 143.1,28.7 144.9,25.1 143.5,25.1 
	"/>
<polygon class="st0" points="188.2,19 191.4,19 191.4,17.5 188.2,17.5 188.2,16 191.8,16 191.8,14.3 186.4,14.3 186.4,22.2 
	191.9,22.2 191.9,20.5 188.2,20.5 "/>
<polygon class="st0" points="183.4,22.2 183.4,16 185.7,16 185.7,14.3 179.3,14.3 179.3,16 181.6,16 181.6,22.2 "/>
<polygon class="st0" points="174.1,17.6 177.4,22.2 178.7,22.2 178.7,14.3 176.9,14.3 176.9,18.9 173.7,14.3 172.3,14.3 172.3,22.2 
	174.1,22.2 "/>
<polygon class="st0" points="166,22.2 171.5,22.2 171.5,20.5 167.8,20.5 167.8,19 171,19 171,17.5 167.8,17.5 167.8,16 171.4,16 
	171.4,14.3 166,14.3 "/>
<rect x="163.1" y="14.3" class="st0" width="1.8" height="7.8"/>
<path class="st0" d="M162,16.4c0-1.3-1.1-2-2.5-2H156v7.8h3.6c1.4,0,2.8-0.7,2.8-2.3c0-1-0.6-1.6-1.1-1.9
	C161.7,17.6,162,17.1,162,16.4z M157.9,16h1.6c0.5,0,0.7,0.4,0.7,0.7c0,0.3-0.2,0.7-0.7,0.7h-1.7L157.9,16L157.9,16z M159.6,20.5
	h-1.8v-1.6h1.9c0.6,0,0.9,0.4,0.9,0.8C160.6,20.1,160.4,20.5,159.6,20.5z"/>
<polygon class="st0" points="151.3,18.5 149,14.3 147.8,14.3 147.5,22.2 149.2,22.2 149.4,18 150.9,20.9 151.8,20.9 153.3,18 
	153.5,22.2 155.1,22.2 154.8,14.3 153.6,14.3 "/>
<path class="st0" d="M142.6,14.3l-3.1,7.8h1.8l0.5-1.4h2.8l0.5,1.4h1.8l-2.8-7.8H142.6z M142.5,19.1l0.9-2.3l0.7,2.3H142.5z"/>
<path class="st0" d="M205.7,11.6c1,0,1.8-0.6,1.8-1.6V8.7c0-1-0.8-1.6-1.8-1.6s-1.8,0.6-1.8,1.6V10C203.9,11,204.7,11.6,205.7,11.6z
	 M204.7,8.8c0-0.6,0.5-0.9,1-0.9c0.6,0,1,0.3,1,0.9V10c0,0.6-0.4,0.9-1,0.9c-0.5,0-1-0.3-1-0.9V8.8z"/>
<polygon class="st0" points="217,10.7 214.9,10.7 214.9,9.7 216.8,9.7 216.8,9 214.9,9 214.9,8 217,8 217,7.3 214.1,7.3 214.1,11.5 
	217,11.5 "/>
<path class="st0" d="M211.6,7.3h-1.7v4.2h1.7c0.9,0,1.7-0.6,1.7-1.6V8.8C213.3,7.8,212.5,7.3,211.6,7.3z M212.5,9.8
	c0,0.6-0.4,0.9-0.9,0.9h-0.9V8h0.9c0.5,0,0.9,0.4,0.9,1V9.8z"/>
<path class="st0" d="M190.2,10.8c-0.4,0-0.8-0.1-1.2-0.2l-0.2,0.7c0.5,0.2,1,0.3,1.5,0.3c1,0,1.6-0.4,1.6-1.3c0-0.7-0.4-1-1.2-1.3
	c-0.7-0.3-0.9-0.4-0.9-0.6c0-0.3,0.2-0.5,0.8-0.5c0.3,0,0.7,0.1,1.1,0.2l0.2-0.7c-0.4-0.1-0.9-0.2-1.3-0.2c-1,0-1.5,0.5-1.5,1.2
	c0,0.8,0.5,1.1,1.3,1.3c0.5,0.2,0.9,0.3,0.9,0.7C191,10.8,190.6,10.8,190.2,10.8z"/>
<polygon class="st0" points="188.2,10.7 186.1,10.7 186.1,9.7 187.9,9.7 187.9,9 186.1,9 186.1,8 188.1,8 188.1,7.3 185.3,7.3 
	185.3,11.5 188.2,11.5 "/>
<polygon class="st0" points="193.4,11.5 194.2,11.5 194.2,8 195.5,8 195.5,7.3 192.2,7.3 192.2,8 193.4,8 "/>
<path class="st0" d="M203.2,9.9V8.8c0-1-0.8-1.6-1.7-1.6h-1.7v4.2h1.7C202.4,11.5,203.2,10.9,203.2,9.9z M200.6,8h0.9
	c0.5,0,0.9,0.4,0.9,1v0.8c0,0.6-0.4,0.9-0.9,0.9h-0.9V8z"/>
<g>
	<path class="st0" d="M71.4,22.2c0,2-0.9,2.5-2.4,3.3l1.2,2.3c1.3-0.5,4.2-2,4.2-4.6v-8.4h-2.9L71.4,22.2L71.4,22.2z"/>
	<path class="st0" d="M91,14.6L86,27h2.9l0.8-2.2h4.4L95,27h2.8l-4.4-12.4H91z M90.7,22.3l1.4-3.7l1.2,3.7H90.7z"/>
	<path class="st0" d="M86.2,14.6h-2.9v7.7c0,1.6-0.7,2.6-2.3,2.6s-2.3-1-2.3-2.6v-7.7h-2.9v7.7c0,3.1,1.7,5,5.2,5s5.2-1.9,5.2-5
		V14.6z"/>
	<polygon class="st0" points="62.9,21.8 57.7,14.6 55.6,14.6 55.6,27 58.4,27 58.4,19.8 63.5,27 65.6,27 65.6,14.6 62.9,14.6 	"/>
	<path class="st0" d="M48.2,14.6l-5,12.4h2.9l0.8-2.2h4.4l0.8,2.2H55l-4.5-12.4H48.2z M47.9,22.3l1.4-3.7l1.2,3.7H47.9z"/>
	<path class="st0" d="M39.9,19.7c-2.2-0.9-2.7-1.1-2.7-1.7c0-0.8,0.7-1.2,1.8-1.2c0.9,0,2.2,0.3,3.1,0.6l0.7-2.5
		c-1.1-0.4-2.7-0.7-3.9-0.7c-3,0-4.6,1.3-4.6,3.7s1.6,3.3,3.8,4.1c1.3,0.5,2.4,0.9,2.4,1.8s-0.9,1.1-1.9,1.1c-1.1,0-2.4-0.3-3.7-0.7
		l-0.7,2.5c1.5,0.5,3.1,0.9,4.4,0.9c3.1,0,4.7-1.4,4.7-3.9C43.4,21.7,42.4,20.7,39.9,19.7z"/>
	<polygon class="st0" points="105.9,14.6 105.9,21.8 100.8,14.6 98.6,14.6 98.6,27 101.4,27 101.4,19.8 106.5,27 108.6,27 
		108.6,14.6 	"/>
	<polygon class="st0" points="57.3,8.9 59.5,11.7 60.1,11.7 60.1,7.2 59.3,7.2 59.3,10.1 57.1,7.2 56.5,7.2 56.5,11.7 57.3,11.7 	
		"/>
	<path class="st0" d="M36.4,11.8c0.5,0,1.2-0.1,1.7-0.3V9.1h-1.7V10h0.9v1.1c-0.2,0.1-0.5,0.1-0.7,0.1c-0.7,0-1.2-0.3-1.2-1.3V9.1
		c0-0.9,0.5-1.3,1.3-1.3c0.5,0,0.9,0.1,1.3,0.2L38,7.3C37.6,7.1,37,7,36.5,7c-1.5,0-2.2,0.7-2.2,2v0.9
		C34.4,11.2,35.2,11.8,36.4,11.8z"/>
	<rect x="47.1" y="7.2" class="st0" width="0.9" height="4.5"/>
	<path class="st0" d="M40.5,11.8c1.1,0,1.9-0.7,1.9-1.7V8.8c0-1.1-0.9-1.7-1.9-1.7c-1.1,0-1.9,0.6-1.9,1.7v1.4
		C38.6,11.2,39.5,11.8,40.5,11.8z M39.5,8.8c0-0.7,0.5-1,1.1-1c0.6,0,1.1,0.3,1.1,1v1.3c0,0.7-0.5,1-1.1,1c-0.5,0-1.1-0.3-1.1-1V8.8
		z"/>
	<path class="st0" d="M46.7,10.4c0-0.6-0.3-0.9-0.7-1.1c0.2-0.2,0.4-0.5,0.4-0.9c0-0.7-0.6-1.2-1.4-1.2h-2v4.5h2.1
		C45.9,11.7,46.7,11.3,46.7,10.4z M43.9,8h1.1c0.3,0,0.5,0.2,0.5,0.5c0,0.3-0.2,0.5-0.5,0.5h-1.2L43.9,8L43.9,8z M43.9,9.7h1.3
		c0.4,0,0.7,0.3,0.7,0.6s-0.3,0.6-0.7,0.6h-1.2V9.7z"/>
	<polygon class="st0" points="74.3,10.9 72.1,10.9 72.1,9.9 74.1,9.9 74.1,9.1 72.1,9.1 72.1,8 74.3,8 74.3,7.2 71.2,7.2 71.2,11.7 
		74.3,11.7 	"/>
	<path class="st0" d="M70.6,10.1V8.9c0-1.1-0.9-1.7-1.9-1.7H67v4.5h1.8C69.8,11.7,70.6,11.1,70.6,10.1z M69.8,9.9c0,0.6-0.5,1-1,1
		h-1V8h1c0.5,0,1,0.4,1,1V9.9z"/>
	<path class="st0" d="M55,10C55.6,9.8,56,9.3,56,8.7c0-0.8-0.5-1.4-1.5-1.4h-2v4.5h0.9v-1.7h0.9l1.1,1.7h1L55,10z M54.4,9.3h-1.1V8
		h1.1C54.8,8,55,8.3,55,8.6C55,8.9,54.8,9.3,54.4,9.3z"/>
	<polygon class="st0" points="51.8,10.9 49.5,10.9 49.5,9.9 51.5,9.9 51.5,9.1 49.5,9.1 49.5,8 51.7,8 51.7,7.2 48.6,7.2 48.6,11.7 
		51.8,11.7 	"/>
	<path class="st0" d="M62.7,11.8c1.1,0,1.9-0.7,1.9-1.7V8.8c0-1.1-0.9-1.7-1.9-1.7s-1.9,0.6-1.9,1.7v1.4
		C60.7,11.2,61.6,11.8,62.7,11.8z M61.6,8.8c0-0.7,0.5-1,1.1-1c0.6,0,1.1,0.3,1.1,1v1.3c0,0.7-0.5,1-1.1,1c-0.5,0-1.1-0.3-1.1-1V8.8
		z"/>
	<path class="st0" d="M22.4,16.4c2.7-1.8,4-7.6,1.7-9.4c-0.4-0.3-0.9-0.4-1.4-0.4c-0.3,0-0.7,0.1-1.1,0.1c-0.6,0.1-1.2,0.1-1.7,0
		C23,9.2,22.7,13.7,22.4,16.4z"/>
	<path class="st0" d="M26,11.4L26,11.4c1.1,3.9-1.8,7.3-3.6,9.3c3.2,0.1,7.7-3.9,6.8-6.6C28.9,12.8,27,12.5,26,11.4z"/>
	<path class="st0" d="M28.3,18.9c-1.4,3.8-5.8,4.8-8.4,5.4c2.5,2,8.5,1.5,9.4-1.3C29.7,21.7,28.4,20.3,28.3,18.9L28.3,18.9z"/>
	<path class="st0" d="M15.7,25.7c0.9,3.1,6,6.2,8.4,4.4c1.1-0.8,0.9-2.7,1.6-3.9C22.3,28.5,18.1,26.8,15.7,25.7z"/>
	<path class="st0" d="M11.5,24.4c-1.1,3,1.3,8.5,4.2,8.5c1.4,0,2.3-1.7,3.6-2.3l0,0C15.2,30.5,12.8,26.6,11.5,24.4z"/>
	<path class="st0" d="M8.9,20.8c-2.7,1.8-4,7.6-1.7,9.4c0.7,0.5,1.6,0.4,2.5,0.3c0.6-0.1,1.2-0.1,1.7,0C8.3,28,8.6,23.5,8.9,20.8z"
		/>
	<path class="st0" d="M8.9,16.4c-0.1,0-0.1,0-0.2,0c-3.2,0-7.5,3.9-6.6,6.6c0.5,1.3,2.3,1.7,3.3,2.7C4.2,21.9,7.1,18.4,8.9,16.4z"/>
	<path class="st0" d="M11.4,12.8c-1-0.8-2.6-1.2-4.2-1.2c-2.3,0-4.7,0.9-5.2,2.5c-0.5,1.3,0.9,2.7,1.1,4.1
		C4.4,14.5,8.8,13.4,11.4,12.8z"/>
	<path class="st0" d="M15.6,11.4c-0.7-2.5-4.1-5-6.7-5c-0.7,0-1.2,0.1-1.7,0.5c-1.1,0.8-0.9,2.7-1.6,3.9C9,8.7,13.2,10.4,15.6,11.4z
		"/>
	<path class="st0" d="M19.8,12.8c1.1-3-1.3-8.5-4.2-8.5c-1.4,0-2.3,1.7-3.6,2.3C16.1,6.7,18.5,10.5,19.8,12.8z"/>
</g>
</svg>
