<?xml version="1.0" encoding="utf-8"?>
<!-- Generator: Adobe Illustrator 23.0.3, SVG Export Plug-In . SVG Version: 6.00 Build 0)  -->
<svg version="1.1" id="Capa_1" xmlns="http://www.w3.org/2000/svg" xmlns:xlink="http://www.w3.org/1999/xlink" x="0px" y="0px"
	 viewBox="0 0 77.6 27.8" style="enable-background:new 0 0 77.6 27.8;" xml:space="preserve">
<style type="text/css">
	.st0{fill:#00A49D;}
	.st1{fill:#706F6F;}
	.st2{font-family:'Lato-Black';}
	.st3{font-size:10.2555px;}
	.st4{fill:#FFFFFF;}
	.st5{fill:none;stroke:#706F6F;stroke-width:0.75;stroke-linecap:round;stroke-miterlimit:10;}
	.st6{fill:none;stroke:#706F6F;stroke-width:0.75;stroke-linecap:round;stroke-miterlimit:10;stroke-dasharray:0,2.0568;}
</style>
<g>
	<g>
		<g>
			<g>
				<path class="st0" d="M4.8,6.1H4c-0.1,0-0.2,0-0.2-0.1C3.7,6,3.6,6,3.6,5.9L3.3,5.1H1.5L1.2,5.9C1.2,6,1.2,6,1.1,6.1
					C1,6.1,1,6.1,0.9,6.1H0l1.8-4.8H3L4.8,6.1z M1.8,4.3h1.3L2.6,3c0-0.1-0.1-0.2-0.1-0.3c0-0.1-0.1-0.2-0.1-0.4
					c0,0.1-0.1,0.3-0.1,0.4c0,0.1-0.1,0.2-0.1,0.3L1.8,4.3z"/>
				<path class="st0" d="M5.9,1.4C5.9,1.4,6,1.4,5.9,1.4C6,1.4,6,1.4,6.1,1.5c0,0,0.1,0.1,0.1,0.1l2.3,2.9c0-0.1,0-0.2,0-0.3
					c0-0.1,0-0.2,0-0.2V1.4h1v4.8H8.8c-0.1,0-0.2,0-0.2,0C8.5,6.1,8.4,6,8.4,6L6.1,3.1c0,0.1,0,0.2,0,0.2c0,0.1,0,0.2,0,0.2v2.5h-1
					V1.4h0.6C5.8,1.4,5.9,1.4,5.9,1.4z"/>
				<path class="st0" d="M13.3,4.9C13.3,4.9,13.4,4.9,13.3,4.9c0.1,0,0.1,0,0.2,0.1l0.4,0.5c-0.2,0.3-0.4,0.4-0.7,0.6
					c-0.3,0.1-0.6,0.2-1,0.2c-0.4,0-0.7-0.1-1-0.2c-0.3-0.1-0.5-0.3-0.7-0.5C10.3,5.3,10.1,5,10,4.7c-0.1-0.3-0.2-0.6-0.2-1
					c0-0.4,0.1-0.7,0.2-1c0.1-0.3,0.3-0.6,0.5-0.8c0.2-0.2,0.5-0.4,0.8-0.5c0.3-0.1,0.6-0.2,1-0.2c0.2,0,0.3,0,0.5,0
					c0.2,0,0.3,0.1,0.4,0.1c0.1,0.1,0.3,0.1,0.4,0.2C13.8,1.8,13.9,1.9,14,2l-0.4,0.5c0,0-0.1,0.1-0.1,0.1c0,0-0.1,0-0.1,0
					c0,0-0.1,0-0.1,0c0,0-0.1,0-0.1-0.1c0,0-0.1-0.1-0.1-0.1s-0.1-0.1-0.2-0.1c-0.1,0-0.1,0-0.2-0.1c-0.1,0-0.2,0-0.3,0
					c-0.2,0-0.4,0-0.5,0.1c-0.2,0.1-0.3,0.2-0.4,0.3c-0.1,0.1-0.2,0.3-0.3,0.5C11,3.3,11,3.5,11,3.8c0,0.2,0,0.5,0.1,0.6
					c0.1,0.2,0.2,0.3,0.3,0.5c0.1,0.1,0.2,0.2,0.4,0.3c0.2,0.1,0.3,0.1,0.5,0.1c0.1,0,0.2,0,0.3,0c0.1,0,0.2,0,0.2-0.1
					c0.1,0,0.1-0.1,0.2-0.1C13,5.1,13.1,5,13.1,5C13.2,5,13.2,4.9,13.3,4.9C13.3,4.9,13.3,4.9,13.3,4.9z"/>
				<path class="st0" d="M18.6,6.1h-1.1v-2h-1.9v2h-1.1V1.4h1.1v2h1.9v-2h1.1V6.1z"/>
				<path class="st0" d="M20.5,6.1h-1.1V1.4h1.1V6.1z"/>
				<path class="st0" d="M22.5,4.6v1.6h-1.1V1.4h1.7c0.3,0,0.6,0,0.9,0.1c0.2,0.1,0.4,0.2,0.6,0.3c0.2,0.1,0.3,0.3,0.3,0.5
					S25,2.7,25,2.9c0,0.2,0,0.5-0.1,0.7c-0.1,0.2-0.2,0.4-0.3,0.5c-0.2,0.1-0.4,0.3-0.6,0.3c-0.2,0.1-0.5,0.1-0.9,0.1H22.5z
					 M22.5,3.7h0.6c0.3,0,0.5-0.1,0.6-0.2c0.1-0.1,0.2-0.3,0.2-0.6c0-0.1,0-0.2,0-0.3c0-0.1-0.1-0.2-0.1-0.2
					c-0.1-0.1-0.2-0.1-0.3-0.1c-0.1,0-0.2-0.1-0.4-0.1h-0.6V3.7z"/>
				<path class="st0" d="M27.6,5.3c0.1,0,0.3,0,0.4-0.1c0.1,0,0.2-0.1,0.3-0.2c0.1-0.1,0.1-0.2,0.2-0.3c0-0.1,0.1-0.3,0.1-0.4V1.4
					h1.1v2.8c0,0.3,0,0.6-0.1,0.8c-0.1,0.2-0.2,0.5-0.4,0.6c-0.2,0.2-0.4,0.3-0.6,0.4c-0.3,0.1-0.5,0.1-0.9,0.1
					c-0.3,0-0.6,0-0.9-0.1c-0.3-0.1-0.5-0.2-0.6-0.4c-0.2-0.2-0.3-0.4-0.4-0.6c-0.1-0.2-0.1-0.5-0.1-0.8V1.4h1.1v2.8
					c0,0.2,0,0.3,0.1,0.4c0,0.1,0.1,0.2,0.2,0.3C27,5.1,27,5.1,27.2,5.2C27.3,5.2,27.4,5.3,27.6,5.3z"/>
				<path class="st0" d="M31.4,4.4v1.8h-1.1V1.4h1.5c0.3,0,0.6,0,0.9,0.1c0.2,0.1,0.4,0.2,0.6,0.3c0.2,0.1,0.3,0.3,0.3,0.4
					c0.1,0.2,0.1,0.4,0.1,0.6c0,0.2,0,0.3-0.1,0.4c0,0.1-0.1,0.3-0.2,0.4c-0.1,0.1-0.2,0.2-0.3,0.3C33.1,4,33,4.1,32.8,4.2
					c0.1,0,0.1,0.1,0.2,0.1c0.1,0.1,0.1,0.1,0.2,0.2l1,1.7h-1c-0.2,0-0.3-0.1-0.4-0.2L32,4.6c0-0.1-0.1-0.1-0.1-0.1c0,0-0.1,0-0.2,0
					H31.4z M31.4,3.6h0.4c0.2,0,0.3,0,0.4-0.1c0.1,0,0.2-0.1,0.3-0.2c0.1-0.1,0.1-0.1,0.1-0.2c0-0.1,0-0.2,0-0.3
					c0-0.2-0.1-0.4-0.2-0.5c-0.1-0.1-0.3-0.2-0.6-0.2h-0.4V3.6z"/>
				<path class="st0" d="M39.1,6.1h-0.9c-0.1,0-0.2,0-0.2-0.1c-0.1,0-0.1-0.1-0.1-0.2l-0.3-0.8h-1.8l-0.3,0.8c0,0.1-0.1,0.1-0.1,0.2
					c-0.1,0-0.1,0.1-0.2,0.1h-0.9l1.8-4.8h1.1L39.1,6.1z M36,4.3h1.3L36.9,3c0-0.1-0.1-0.2-0.1-0.3c0-0.1-0.1-0.2-0.1-0.4
					c0,0.1-0.1,0.3-0.1,0.4c0,0.1-0.1,0.2-0.1,0.3L36,4.3z"/>
				<path class="st0" d="M42.5,4.9C42.5,4.9,42.5,4.9,42.5,4.9c0.1,0,0.1,0,0.2,0.1l0.4,0.5c-0.2,0.3-0.4,0.4-0.7,0.6
					c-0.3,0.1-0.6,0.2-1,0.2c-0.4,0-0.7-0.1-1-0.2c-0.3-0.1-0.5-0.3-0.7-0.5c-0.2-0.2-0.4-0.5-0.5-0.8C39,4.4,39,4.1,39,3.8
					c0-0.4,0.1-0.7,0.2-1c0.1-0.3,0.3-0.6,0.5-0.8c0.2-0.2,0.5-0.4,0.8-0.5c0.3-0.1,0.6-0.2,1-0.2c0.2,0,0.3,0,0.5,0
					c0.2,0,0.3,0.1,0.4,0.1c0.1,0.1,0.3,0.1,0.4,0.2C42.9,1.8,43,1.9,43.1,2l-0.4,0.5c0,0-0.1,0.1-0.1,0.1c0,0-0.1,0-0.1,0
					c0,0-0.1,0-0.1,0c0,0-0.1,0-0.1-0.1c0,0-0.1-0.1-0.1-0.1S42.1,2.4,42,2.3c-0.1,0-0.1,0-0.2-0.1c-0.1,0-0.2,0-0.3,0
					c-0.2,0-0.4,0-0.5,0.1c-0.2,0.1-0.3,0.2-0.4,0.3c-0.1,0.1-0.2,0.3-0.3,0.5c-0.1,0.2-0.1,0.4-0.1,0.6c0,0.2,0,0.5,0.1,0.6
					c0.1,0.2,0.2,0.3,0.3,0.5c0.1,0.1,0.2,0.2,0.4,0.3c0.2,0.1,0.3,0.1,0.5,0.1c0.1,0,0.2,0,0.3,0c0.1,0,0.2,0,0.2-0.1
					c0.1,0,0.1-0.1,0.2-0.1c0.1,0,0.1-0.1,0.2-0.1C42.3,5,42.3,4.9,42.5,4.9C42.4,4.9,42.4,4.9,42.5,4.9z"/>
			</g>
		</g>
	</g>
	<g>
		<text transform="matrix(1 0 0 1 0.3628 15.6942)" class="st1 st2 st3">TICKETS</text>
	</g>
	<g>
		<text transform="matrix(1 0 0 1 4.841181e-04 25.9344)" class="st1 st2 st3">INGRESO</text>
	</g>
	<g>
		<g>
			<g>
				<circle class="st0" cx="57.8" cy="7.6" r="1"/>
				<circle class="st0" cx="70.2" cy="9.8" r="1"/>
				<path class="st0" d="M62.6,1.3v-1h5.8v2.4c0,1.1,0.9,1.9,1.9,1.9c0.7,0,1.4-0.4,1.7-1l0.4-0.8l5.2,2.4l-9.2,19.6l0,0v0h-5.8v-1
					c0-1.1-0.9-1.9-1.9-1.9s-1.9,0.9-1.9,1.9v1H53V0.4h5.8v1c0,1.1,0.9,1.9,1.9,1.9C61.7,3.3,62.6,2.4,62.6,1.3z M72.4,11.9
					c-0.5-0.2-0.7-0.8-0.4-1.3c0.2-0.5,0.8-0.7,1.3-0.5l1.8-3.9l-1.9-0.9c-0.7,0.8-1.8,1.3-2.9,1.3c-0.7,0-1.4-0.2-1.9-0.5v14.3
					L72.4,11.9z M57,2.3h-2v4.3c0.5,0,1,0.4,1,1s-0.4,1-1,1V23h2c0.4-1.7,1.9-2.9,3.7-2.9c1.8,0,3.3,1.2,3.7,2.9h2V8.5
					c-0.5,0-1-0.4-1-1s0.4-1,1-1V2.3h-2C64,4,62.5,5.2,60.7,5.2C58.9,5.2,57.4,4,57,2.3z"/>
				<circle class="st0" cx="63.6" cy="7.6" r="1"/>
				<circle class="st0" cx="60.7" cy="7.6" r="1"/>
			</g>
		</g>
	</g>
	<g>
		<line class="st4" x1="48.1" y1="0.4" x2="48.1" y2="27.1"/>
		<g>
			<line class="st5" x1="48.1" y1="0.4" x2="48.1" y2="0.4"/>
			<line class="st6" x1="48.1" y1="2.4" x2="48.1" y2="26.1"/>
			<line class="st5" x1="48.1" y1="27.1" x2="48.1" y2="27.1"/>
		</g>
	</g>
</g>
</svg>
