<?xml version="1.0" encoding="utf-8"?>
<!-- Generator: Adobe Illustrator 23.0.3, SVG Export Plug-In . SVG Version: 6.00 Build 0)  -->
<svg version="1.1" id="Capa_1" xmlns="http://www.w3.org/2000/svg" xmlns:xlink="http://www.w3.org/1999/xlink" x="0px" y="0px"
	 viewBox="0 0 30 30" style="enable-background:new 0 0 30 30;" xml:space="preserve">
<style type="text/css">
	.st0{fill:#575756;}
</style>
<g>
	<g>
		<g>
			<path class="st0" d="M15,18c1.7,0,3-1.3,3-3c0-0.7-0.2-1.3-0.6-1.8C16.9,12.5,16,12,15,12c-1,0-1.9,0.5-2.4,1.3
				C12.2,13.7,12,14.3,12,15C12,16.7,13.3,18,15,18z"/>
			<polygon class="st0" points="21.6,11.3 21.6,8.8 21.6,8.4 21.2,8.4 18.7,8.4 18.7,11.3 			"/>
			<path class="st0" d="M15,0C6.7,0,0,6.7,0,15c0,8.3,6.7,15,15,15c8.3,0,15-6.7,15-15C30,6.7,23.3,0,15,0z M23.5,13.2v7
				c0,1.8-1.5,3.3-3.3,3.3H9.8c-1.8,0-3.3-1.5-3.3-3.3v-7V9.8c0-1.8,1.5-3.3,3.3-3.3h10.5c1.8,0,3.3,1.5,3.3,3.3V13.2z"/>
			<path class="st0" d="M19.7,15c0,2.6-2.1,4.7-4.7,4.7s-4.7-2.1-4.7-4.7c0-0.6,0.1-1.2,0.3-1.8H8.1v7c0,0.9,0.7,1.6,1.6,1.6h10.5
				c0.9,0,1.6-0.7,1.6-1.6v-7h-2.5C19.5,13.8,19.7,14.4,19.7,15z"/>
		</g>
	</g>
</g>
<g>
</g>
<g>
</g>
<g>
</g>
<g>
</g>
<g>
</g>
<g>
</g>
<g>
</g>
<g>
</g>
<g>
</g>
<g>
</g>
<g>
</g>
<g>
</g>
<g>
</g>
<g>
</g>
<g>
</g>
</svg>
