<?xml version="1.0" encoding="utf-8"?>
<!-- Generator: Adobe Illustrator 23.0.3, SVG Export Plug-In . SVG Version: 6.00 Build 0)  -->
<svg version="1.1" id="Capa_1" xmlns="http://www.w3.org/2000/svg" xmlns:xlink="http://www.w3.org/1999/xlink" x="0px" y="0px"
	 viewBox="0 0 38.3 38.3" style="enable-background:new 0 0 38.3 38.3;" xml:space="preserve">
<style type="text/css">
	.st0{fill-rule:evenodd;clip-rule:evenodd;fill:#00A49D;}
</style>
<g>
	<path class="st0" d="M26.7,27.2c-0.5,1.2-1.2,2.4-1.9,3.5c-0.1,0.1-0.1,0.2-0.2,0.3l0,0l-0.1,0.1l0,0l-0.1,0.1l0,0l-0.1,0.1l0,0
		c-0.1,0.1-0.2,0.3-0.3,0.4l0,0l-0.1,0.1l0,0L23.8,32l0,0l-0.1,0.1l0,0l-0.1,0.1l0,0l-0.1,0.1l0,0l-0.1,0.1l0,0l-0.1,0.1l0,0
		l-0.1,0.1l-0.1,0.1l0,0l0,0L23,33.1l0,0l-0.1,0.1l0,0.1l-0.1,0.1l-0.1,0.1l-0.1,0.1l0,0l-0.1,0.1l0,0l-0.1,0.1l-0.1,0.1l-0.1,0.1
		l0,0l0,0.1L22.2,34l-0.1,0.1l0,0l0,0L22,34.2l0,0l0,0l-0.1,0.1l-0.1,0.1l0,0l-0.1,0.1l0,0l-0.1,0.1l-0.1,0.1L21.3,35l0,0l0,0
		l-0.2,0.2L21,35.3l-0.1,0.1l-0.1,0.1l0,0l-0.2,0.2l-0.1,0.1l-0.2,0.2l0,0l0,0l0,0l-0.1,0.1L20,36.2l-0.2,0.2l0,0l0,0l0,0l-0.2,0.2
		l0,0l0,0l0,0c-0.2,0.1-0.3,0.3-0.5,0.4l0,0l0,0l-0.2,0.2l0,0l-0.1,0.1l-0.1,0.1l-0.1,0.1l-0.2,0.2l0,0l-0.1,0.1l-0.1,0.1L18,37.9
		c-0.2,0.1-0.3,0.2-0.5,0.4c-0.4,0-0.7-0.1-1.1-0.1c2.7-2.1,5.5-4.8,7.5-7.9c0.7-1,1.3-2,1.8-3C26,27.2,26.4,27.2,26.7,27.2
		 M20.4,38.2c-0.5,0-1,0-1.5,0c1.3-1,2.5-2.1,3.6-3.3l0,0l0,0l0.2-0.2l0,0l0,0l0.1-0.1l0.1-0.1l0,0l0,0l0.1-0.1l0.1-0.1l0,0l0,0
		l0.1-0.1l0.1-0.1l0.1-0.1l0.1-0.1l0.1-0.1l0,0l0.2-0.2l0.1-0.1l0-0.1l0.1-0.1l0.1-0.1l0,0l0.1-0.1l0,0l0.1-0.1l0,0l0.1-0.1l0,0
		l0.1-0.1l0,0l0.1-0.1l0,0l0.1-0.1l0,0l0.1-0.1l0.1-0.1l0,0l0.1-0.1l0,0l0.1-0.1l0,0l0.1-0.1l0,0l0.1-0.1l0,0l0.1-0.1l0,0l0.1-0.1
		l0.1-0.1l0,0l0,0l0.1-0.1l0,0l0.1-0.1c2-3,3.3-6.4,3.6-9.8c0-0.2,0-0.3,0-0.4l0,0c0-0.2,0-0.3,0-0.4c0-0.7-0.9-0.6-0.9,0
		c0,0.2,0,0.3,0,0.4l0,0c0,0.1,0,0.3,0,0.4c-0.1,1.6-0.5,3.2-1.1,4.7c-0.4,0.1-0.7,0.1-0.9,0c0.8-1.9,1.3-3.9,1.3-5.9
		c0-0.7,0.3-1.2,0.7-1.4c0.2-0.1,0.3-0.1,0.5-0.1c0.2,0,0.4,0.1,0.5,0.3c0.5,0.4,0.8,1.4,0.6,2.9c-0.6,3.6-1.7,6.8-3.4,9.6
		C24.8,34.1,22.9,36.3,20.4,38.2z M17,36.6c-0.6,0.5-1.1,0.9-1.7,1.3c-0.3-0.1-0.7-0.1-1-0.2c0.6-0.4,1.1-0.8,1.6-1.3
		C16.3,36.5,16.7,36.6,17,36.6z M26.7,32.7c0.2-0.2,0.3-0.5,0.5-0.7c1.8-2.9,3-6.2,3.6-10c0.3-1.9-0.2-3.1-0.8-3.7
		c-0.3-0.3-0.6-0.4-1-0.5c-0.4,0-0.7,0-1.1,0.2c-0.7,0.3-1.2,1.1-1.2,2.2c0,3.2-1.4,6.5-3.4,9.5c-1.4,2.1-3.2,4.1-5.2,5.9
		c-0.3,0-0.8,0-1.1-0.1c1.3-1.1,2.4-2.4,3.5-3.6c2.4-2.8,4.2-5.8,4.9-8.4c0.4-1.3,0.4-2.3,0.5-3.5l0-0.5c0.1-1.5,0.8-2.5,1.7-2.8
		c0.4-0.2,0.8-0.2,1.2-0.2c0.4,0,0.8,0.1,1.2,0.4c1,0.6,1.7,1.8,1.6,3.6c-0.1,3.1-0.9,6.4-2.4,9.5c-0.4,0.9-0.9,1.8-1.5,2.7
		C27.3,32.8,26.9,32.8,26.7,32.7z M23.8,37.7c-0.6,0.1-1.2,0.3-1.8,0.4c1.6-1.4,2.9-2.9,4.1-4.5c0.3,0.1,0.6,0.1,1,0.1
		C26.2,35.1,25.1,36.4,23.8,37.7z M26.9,36.6c-0.5,0.2-1,0.4-1.5,0.6c2-2.2,3.4-4.5,4.6-7c1.6-3.3,2.4-6.6,2.5-9.9
		c0-2.2-0.9-3.6-2-4.3c-0.5-0.3-1-0.4-1.6-0.5c-0.5,0-1.1,0.1-1.6,0.3c-1.2,0.5-2.1,1.7-2.2,3.6l0,0.5c-0.1,1.2-0.2,2.1-0.5,3.4
		c-0.7,2.5-2.4,5.4-4.7,8c-1.9,2.2-4.2,4.4-6.5,6c-0.4-0.1-0.9-0.3-1.3-0.5c2.9-2,5.7-4.4,7.9-7.2c2.3-3,3.7-6.4,3.9-9.6
		c0.2-2.9,1.3-4.7,2.7-5.6c0.6-0.4,1.3-0.6,2-0.6c0.7,0,1.4,0.1,2,0.5c1.4,0.7,2.5,2.2,2.7,4.5c0.4,3.4-0.3,6.9-1.5,10.1
		C30.4,32,28.9,34.6,26.9,36.6z M31.1,34.1c-0.4,0.4-0.9,0.7-1.4,1c-0.2,0.2-0.5,0.3-0.8,0.5c1.4-1.9,2.6-3.9,3.5-6.3
		c1.3-3.4,1.9-7.1,1.6-10.6c-0.3-2.6-1.6-4.3-3.2-5.1c-0.8-0.4-1.6-0.6-2.4-0.6c-0.8,0-1.7,0.3-2.5,0.8c-1.7,1-3,3.1-3.1,6.3
		c-0.2,3.1-1.5,6.2-3.7,9.1C17,32,14,34.5,11,36.5c-0.5-0.2-1-0.5-1.5-0.8c2.1-1.2,4.1-2.7,5.8-4.5c0.4-0.4,0.7-0.7,1-1.1
		c0.3-0.4,0.6-0.8,0.9-1.1l0,0c1.7-2.2,3-4.7,3.7-7.3c0.1-0.5,0.2-1,0.3-1.5c0.1-0.5,0.2-1,0.2-1.5l0,0l0,0l0,0
		c0.1-2.2,0.8-3.9,1.8-5.1c0.2-0.2,0.4-0.5,0.6-0.6c0.2-0.2,0.4-0.4,0.7-0.5l0,0c0.7-0.4,1.4-0.8,2.1-0.9c0.1,0,0.3-0.1,0.4-0.1
		c0.1,0,0.3,0,0.4-0.1l0,0c0.8-0.1,1.5,0,2.3,0.2c0.1,0,0.3,0.1,0.4,0.1c0.1,0.1,0.3,0.1,0.4,0.2l0,0l0,0c1.3,0.6,2.5,1.7,3.3,3.2
		c0.2,0.3,0.3,0.6,0.4,0.9c0.1,0.3,0.2,0.7,0.3,1l0,0l0,0v0l0,0c0.4,1.6,0.5,3.5,0.3,5.5c0,0.4-0.1,0.9-0.2,1.3
		c-0.1,0.4-0.1,0.9-0.2,1.3c-0.1,0.3-0.1,0.5-0.2,0.8c-0.6,2.5-1.3,4.8-2.3,6.6c-0.2,0.3-0.4,0.7-0.6,1
		C31.5,33.6,31.3,33.9,31.1,34.1z M8.6,3.2c8.8-5.8,20.7-3.4,26.5,5.4c4.9,7.4,3.9,17-1.7,23.3c0.6-1.2,1.1-2.6,1.5-4.1
		c0.1-0.3,0.2-0.6,0.3-0.9c0.1-0.3,0.2-0.6,0.2-0.9l0,0l0,0c0.5-2,0.7-4,0.7-5.8c0-0.4,0-0.8,0-1.2c0-0.4-0.1-0.8-0.1-1.2
		c-0.1-0.4-0.1-0.7-0.2-1.1c-0.5-2.1-1.5-3.7-2.8-4.7c-0.3-0.2-0.5-0.4-0.8-0.6c-0.3-0.2-0.6-0.3-0.8-0.5l0,0
		c-0.8-0.4-1.7-0.6-2.6-0.6c-0.2,0-0.3,0-0.5,0c-0.2,0-0.3,0-0.5,0l0,0c-0.9,0.1-1.8,0.3-2.6,0.7c-0.2,0.1-0.3,0.2-0.5,0.3
		c-0.2,0.1-0.3,0.2-0.5,0.3l0,0l0,0C22.7,12.5,21.6,14,21,16c-0.1,0.4-0.2,0.8-0.3,1.2c-0.1,0.4-0.1,0.9-0.2,1.4l0,0l0,0
		c-0.2,2.5-1,4.9-2.3,7.2c-0.3,0.4-0.5,0.9-0.8,1.3c-0.3,0.4-0.6,0.9-0.9,1.3l0,0l0,0c-1.5,2-3.6,3.8-5.8,5.2
		c-0.4,0.3-0.9,0.6-1.3,0.8c-0.3,0.2-0.7,0.4-1,0.6c-2-1.4-3.9-3.2-5.3-5.4C-2.7,20.9-0.2,9,8.6,3.2z"/>
</g>
</svg>
