<?xml version="1.0" encoding="utf-8"?>
<!-- Generator: Adobe Illustrator 23.0.3, SVG Export Plug-In . SVG Version: 6.00 Build 0)  -->
<svg version="1.1" id="Capa_1" xmlns="http://www.w3.org/2000/svg" xmlns:xlink="http://www.w3.org/1999/xlink" x="0px" y="0px"
	 viewBox="0 0 35.4 6.5" style="enable-background:new 0 0 35.4 6.5;" xml:space="preserve">
<style type="text/css">
	.st0{fill:#888887;}
</style>
<g>
	<path class="st0" d="M1.2,1.7C1.1,1.7,1,1.8,1,1.9S1.1,2,1.2,2s0.2-0.1,0.2-0.2S1.3,1.7,1.2,1.7z"/>
	<circle class="st0" cx="4.6" cy="2.5" r="0.2"/>
	<path class="st0" d="M4.6,1.2C4.3,1.2,4,0.9,4,0.6V0H2.6v0.2c0,0.3-0.3,0.6-0.6,0.6S1.4,0.5,1.4,0.2V0H0v6.5h1.4V6.3
		C1.4,6,1.6,5.7,2,5.7S2.6,6,2.6,6.3v0.2H4V6.4l0.1,0l2.4-5.1L5.2,0.7L5.1,0.9C5,1.1,4.8,1.2,4.6,1.2z M3.7,1.7L3.7,1.7
		c-0.2,0-0.3,0.1-0.3,0.2S3.5,2,3.6,2h0.1v4.1H2.9l0-0.1C2.8,5.7,2.4,5.4,2,5.4c-0.4,0-0.8,0.3-0.9,0.7l0,0.1H0.3V2h0.1
		c0.1,0,0.2-0.1,0.2-0.2S0.5,1.7,0.4,1.7H0.3V0.3h0.7l0,0.1C1.2,0.8,1.6,1.1,2,1.1c0.4,0,0.8-0.3,0.9-0.7l0-0.1h0.7V1.7z M5.3,1.2
		L5.3,1.2L6,1.4L5.4,2.7l-0.1,0c-0.1,0-0.2,0-0.2,0.1c0,0.1,0,0.2,0.1,0.2l0.1,0L4,5.8V1.3l0.1,0.1C4.5,1.6,5,1.5,5.3,1.2z"/>
	<circle class="st0" cx="2.8" cy="1.9" r="0.2"/>
	<circle class="st0" cx="2" cy="1.9" r="0.2"/>
</g>
<g>
	<path class="st0" d="M12.3,1.6v0.6h-1v2.8h-0.8V2.2h-1V1.6H12.3z"/>
	<path class="st0" d="M14.5,5.1h-0.8V1.6h0.8V5.1z"/>
	<path class="st0" d="M18.5,4.2C18.5,4.2,18.5,4.2,18.5,4.2c0.1,0,0.1,0,0.1,0l0.3,0.3c-0.1,0.2-0.3,0.3-0.5,0.4
		c-0.2,0.1-0.5,0.1-0.8,0.1c-0.3,0-0.5,0-0.7-0.1s-0.4-0.2-0.5-0.4C16.2,4.4,16.1,4.3,16,4c-0.1-0.2-0.1-0.5-0.1-0.7
		c0-0.3,0-0.5,0.1-0.7c0.1-0.2,0.2-0.4,0.4-0.6s0.4-0.3,0.6-0.4s0.5-0.1,0.7-0.1c0.1,0,0.3,0,0.4,0s0.2,0.1,0.3,0.1
		c0.1,0,0.2,0.1,0.3,0.1c0.1,0.1,0.2,0.1,0.2,0.2l-0.3,0.4c0,0,0,0-0.1,0.1c0,0-0.1,0-0.1,0c0,0-0.1,0-0.1,0c0,0-0.1,0-0.1,0
		c0,0-0.1,0-0.1-0.1c0,0-0.1,0-0.1-0.1c0,0-0.1,0-0.2,0c-0.1,0-0.1,0-0.2,0c-0.1,0-0.3,0-0.4,0.1c-0.1,0.1-0.2,0.1-0.3,0.2
		s-0.2,0.2-0.2,0.4c0,0.1-0.1,0.3-0.1,0.5c0,0.2,0,0.3,0.1,0.5c0,0.1,0.1,0.3,0.2,0.4s0.2,0.2,0.3,0.2c0.1,0,0.2,0.1,0.4,0.1
		c0.1,0,0.1,0,0.2,0c0.1,0,0.1,0,0.2,0c0.1,0,0.1,0,0.1-0.1c0,0,0.1-0.1,0.1-0.1C18.3,4.2,18.4,4.2,18.5,4.2
		C18.4,4.2,18.4,4.2,18.5,4.2z"/>
	<path class="st0" d="M21,3h0.1c0.1,0,0.2,0,0.3-0.1l0.8-1.1c0-0.1,0.1-0.1,0.1-0.1c0.1,0,0.1,0,0.2,0h0.7l-1,1.4
		c0,0.1-0.1,0.1-0.1,0.1S22,3.2,22,3.2c0.1,0,0.1,0.1,0.2,0.1c0.1,0,0.1,0.1,0.1,0.2l1.1,1.6h-0.7c0,0-0.1,0-0.1,0c0,0-0.1,0-0.1,0
		c0,0,0,0-0.1,0c0,0,0,0-0.1-0.1l-0.8-1.2c0,0-0.1-0.1-0.1-0.1s-0.1,0-0.2,0H21v1.5h-0.8V1.6H21V3z"/>
	<path class="st0" d="M26.9,1.6v0.6h-1.4V3h1.1v0.6h-1.1v0.8h1.4v0.6h-2.2V1.6H26.9z"/>
	<path class="st0" d="M30.8,1.6v0.6h-1v2.8H29V2.2h-1V1.6H30.8z"/>
	<path class="st0" d="M34,2.3C34,2.3,34,2.4,34,2.3c-0.1,0.1-0.1,0.1-0.2,0.1c0,0-0.1,0-0.1,0c0,0-0.1,0-0.1-0.1s-0.1-0.1-0.2-0.1
		c-0.1,0-0.1,0-0.2,0c-0.2,0-0.3,0-0.3,0.1c-0.1,0.1-0.1,0.2-0.1,0.3c0,0.1,0,0.1,0.1,0.2s0.1,0.1,0.2,0.1c0.1,0,0.2,0.1,0.2,0.1
		C33.3,3,33.4,3,33.5,3c0.1,0,0.2,0.1,0.3,0.1c0.1,0,0.2,0.1,0.2,0.2c0.1,0.1,0.1,0.2,0.2,0.3c0,0.1,0.1,0.2,0.1,0.4
		c0,0.2,0,0.3-0.1,0.5S34.1,4.7,34,4.8S33.7,5,33.6,5c-0.2,0.1-0.3,0.1-0.5,0.1c-0.1,0-0.2,0-0.3,0c-0.1,0-0.2-0.1-0.3-0.1
		s-0.2-0.1-0.3-0.1c-0.1-0.1-0.2-0.1-0.2-0.2l0.2-0.4c0,0,0-0.1,0.1-0.1s0.1,0,0.1,0c0,0,0.1,0,0.1,0s0.1,0.1,0.2,0.1
		s0.1,0.1,0.2,0.1c0.1,0,0.2,0,0.3,0c0.1,0,0.3,0,0.3-0.1c0.1-0.1,0.1-0.2,0.1-0.3c0-0.1,0-0.1-0.1-0.2c0-0.1-0.1-0.1-0.2-0.1
		c-0.1,0-0.2-0.1-0.2-0.1s-0.2-0.1-0.3-0.1c-0.1,0-0.2-0.1-0.3-0.1c-0.1,0-0.2-0.1-0.2-0.2C32.2,3.2,32.1,3.1,32,3
		C32,2.9,32,2.7,32,2.6c0-0.1,0-0.3,0.1-0.4s0.1-0.2,0.2-0.3s0.2-0.2,0.4-0.2s0.3-0.1,0.5-0.1c0.1,0,0.2,0,0.3,0
		c0.1,0,0.2,0,0.3,0.1c0.1,0,0.2,0.1,0.3,0.1s0.1,0.1,0.2,0.2L34,2.3z"/>
</g>
<g>
</g>
<g>
</g>
<g>
</g>
<g>
</g>
<g>
</g>
<g>
</g>
<g>
</g>
<g>
</g>
<g>
</g>
<g>
</g>
<g>
</g>
<g>
</g>
<g>
</g>
<g>
</g>
<g>
</g>
</svg>
