<?xml version="1.0" encoding="utf-8"?>
<!-- Generator: Adobe Illustrator 23.0.3, SVG Export Plug-In . SVG Version: 6.00 Build 0)  -->
<svg version="1.1" id="Capa_1" xmlns="http://www.w3.org/2000/svg" xmlns:xlink="http://www.w3.org/1999/xlink" x="0px" y="0px"
	 viewBox="0 0 30 30" style="enable-background:new 0 0 30 30;" xml:space="preserve">
<style type="text/css">
	.st0{fill:#575756;}
</style>
<g>
	<g>
		<path class="st0" d="M15,0C6.7,0,0,6.7,0,15c0,8.3,6.7,15,15,15c8.3,0,15-6.7,15-15C30,6.7,23.3,0,15,0z M21.7,11.6
			c0,0.1,0,0.3,0,0.4c0,4.6-3.5,9.8-9.8,9.8c-1.9,0-3.8-0.6-5.3-1.5c0.3,0,0.5,0,0.8,0c1.6,0,3.1-0.6,4.3-1.5c-1.5,0-2.8-1-3.2-2.4
			c0.2,0,0.4,0.1,0.6,0.1c0.3,0,0.6,0,0.9-0.1c-1.6-0.3-2.8-1.7-2.8-3.4c0,0,0,0,0,0c0.5,0.3,1,0.4,1.6,0.4
			c-0.9-0.6-1.5-1.7-1.5-2.9c0-0.6,0.2-1.2,0.5-1.7c1.7,2.1,4.2,3.5,7.1,3.6c-0.1-0.3-0.1-0.5-0.1-0.8c0-1.9,1.5-3.5,3.5-3.5
			c1,0,1.9,0.4,2.5,1.1c0.8-0.2,1.5-0.4,2.2-0.8c-0.3,0.8-0.8,1.5-1.5,1.9c0.7-0.1,1.4-0.3,2-0.5C23,10.5,22.4,11.1,21.7,11.6z"/>
	</g>
</g>
<g>
</g>
<g>
</g>
<g>
</g>
<g>
</g>
<g>
</g>
<g>
</g>
<g>
</g>
<g>
</g>
<g>
</g>
<g>
</g>
<g>
</g>
<g>
</g>
<g>
</g>
<g>
</g>
<g>
</g>
</svg>
