<?xml version="1.0" encoding="utf-8"?>
<!-- Generator: Adobe Illustrator 23.0.3, SVG Export Plug-In . SVG Version: 6.00 Build 0)  -->
<svg version="1.1" id="Capa_1" xmlns="http://www.w3.org/2000/svg" xmlns:xlink="http://www.w3.org/1999/xlink" x="0px" y="0px"
	 viewBox="0 0 30 30" style="enable-background:new 0 0 30 30;" xml:space="preserve">
<style type="text/css">
	.st0{fill:#575756;}
</style>
<g>
	<polygon class="st0" points="11.7,15.6 8.4,15.6 8.4,16.6 9.5,16.6 9.5,22.6 10.6,22.6 10.6,16.6 11.7,16.6 	"/>
	<path class="st0" d="M13.4,21.3C13.4,21.3,13.4,21.3,13.4,21.3c-0.1,0.2-0.3,0.4-0.5,0.4c-0.2,0.1-0.3,0-0.3-0.2c0-0.1,0-0.1,0-0.2
		c0-1.3,0-3.9,0-3.9h-0.9c0,0,0,3.6,0,4.3c0,0.2,0,0.4,0.1,0.5c0.1,0.2,0.2,0.3,0.4,0.3c0.1,0,0.3,0,0.4,0c0.3-0.1,0.5-0.3,0.7-0.5
		c0,0,0,0,0.1-0.1v0.6h0.9v-2.5c0-0.9,0-2.7,0-2.7l-0.9,0V21.3z"/>
	<path class="st0" d="M17.8,17.8c-0.2-0.4-0.6-0.5-1-0.4c-0.2,0.1-0.4,0.2-0.5,0.3c0,0.1-0.1,0.2-0.1,0.2s0-1.5,0-2.3h-0.9v7h0.9
		v-0.4c0,0,0.1,0.1,0.1,0.1c0.2,0.2,0.5,0.4,0.8,0.4c0.4,0,0.7-0.2,0.8-0.6c0.1-0.2,0.1-0.4,0.1-0.5c0-1,0-1.9,0-2.9
		C18,18.3,18,18.1,17.8,17.8z M17,21.6c0,0.2-0.2,0.3-0.4,0.2c-0.1,0-0.2-0.1-0.3-0.2c0,0,0,0,0,0v-0.1l0-3.1c0,0,0-0.1,0.1-0.1
		c0.1-0.1,0.2-0.2,0.4-0.1c0.1,0,0.2,0.1,0.3,0.2c0,0.1,0.1,0.2,0.1,0.3c0,0.9,0,1.8,0,2.8C17,21.5,17,21.5,17,21.6z"/>
	<path class="st0" d="M15,0C6.7,0,0,6.7,0,15s6.7,15,15,15c8.3,0,15-6.7,15-15S23.3,0,15,0z M16.7,7.4h1v3.9c0,0.1,0,0.1,0,0.2
		c0,0.2,0.1,0.2,0.3,0.2c0.2-0.1,0.3-0.2,0.5-0.4c0,0,0-0.1,0-0.1V7.4h1l0,5.2h-1l0-0.6c-0.1,0.1-0.2,0.2-0.3,0.3
		c-0.2,0.2-0.4,0.3-0.6,0.3c-0.4,0.1-0.7,0-0.8-0.4c0-0.1-0.1-0.3-0.1-0.4V7.4z M14.5,7.3c0.8,0,1.4,0.6,1.4,1.4v2.7
		c0,0.8-0.6,1.4-1.4,1.4s-1.4-0.6-1.4-1.4V8.6C13.1,7.9,13.7,7.3,14.5,7.3z M10.8,5.6c0,0,0.4,1.8,0.6,2.7h0
		c0.2-0.9,0.6-2.7,0.6-2.7h1.1c0,0-0.8,2.8-1.2,4c0,0,0,0.1,0,0.1l0,2.8h-1l0-2.8c0,0,0-0.1,0-0.1c-0.4-1.2-1.2-4-1.2-4H10.8z
		 M22.8,22c0,1.3-1,2.3-2.3,2.3c-3.7,0.1-7.3,0.1-11,0c-1.3,0-2.3-1.1-2.3-2.3v-5.7c0-1.3,1-2.3,2.3-2.3c3.7-0.1,7.3-0.1,11,0
		c1.3,0,2.3,1.1,2.3,2.3V22z"/>
	<path class="st0" d="M14.5,11.8c0.2,0,0.4-0.2,0.4-0.4V8.6c0-0.2-0.2-0.4-0.4-0.4s-0.4,0.2-0.4,0.4v2.8
		C14.1,11.6,14.3,11.8,14.5,11.8z"/>
	<path class="st0" d="M21.5,20.1c0,0,0-0.9,0-1.3c0-0.2,0-0.3-0.1-0.5c-0.1-0.4-0.3-0.8-0.8-0.9c-0.1,0-0.3-0.1-0.4-0.1
		c-0.5,0-0.9,0.1-1.2,0.4c-0.3,0.3-0.4,0.7-0.4,1.1c0,0.8,0,1.5,0,2.3c0,0.2,0,0.4,0.1,0.6c0.1,0.4,0.3,0.7,0.7,0.9
		c0.3,0.1,0.6,0.1,0.9,0.1c0.5-0.1,0.8-0.3,1-0.8c0.1-0.4,0.1-1.1,0.1-1.1h-1v0.7c0,0.2-0.2,0.4-0.4,0.4c-0.2,0-0.4-0.2-0.4-0.4
		v-1.3H21.5z M19.7,18.6c0-0.2,0.2-0.4,0.4-0.4c0.2,0,0.4,0.2,0.4,0.4v0.7h-0.8V18.6z"/>
</g>
<g>
</g>
<g>
</g>
<g>
</g>
<g>
</g>
<g>
</g>
<g>
</g>
<g>
</g>
<g>
</g>
<g>
</g>
<g>
</g>
<g>
</g>
<g>
</g>
<g>
</g>
<g>
</g>
<g>
</g>
</svg>
