<?xml version="1.0" standalone="no"?>
<!DOCTYPE svg PUBLIC "-//W3C//DTD SVG 20010904//EN"
 "http://www.w3.org/TR/2001/REC-SVG-20010904/DTD/svg10.dtd">
<svg version="1.0" xmlns="http://www.w3.org/2000/svg"
 width="700.000000pt" height="700.000000pt" viewBox="0 0 700.000000 700.000000"
 preserveAspectRatio="xMidYMid meet">
<metadata>
Created by potrace 1.11, written by Peter Selinger 2001-2013
</metadata>
<g transform="translate(0.000000,700.000000) scale(0.100000,-0.100000)"
fill="#000000" stroke="none">
<path d="M3518 6996 c-1 -2 -79 -6 -173 -9 -93 -4 -181 -8 -195 -11 -14 -2
-52 -7 -85 -11 -32 -4 -68 -9 -79 -11 -11 -2 -38 -6 -61 -9 -281 -39 -673
-165 -975 -315 -482 -238 -914 -593 -1235 -1015 -276 -362 -490 -800 -603
-1237 -30 -114 -48 -194 -59 -258 -3 -19 -6 -39 -7 -45 -2 -5 -6 -32 -10 -60
-4 -27 -10 -61 -12 -75 -14 -89 -19 -209 -19 -455 0 -306 5 -373 40 -575 31
-175 31 -175 67 -310 79 -296 212 -612 362 -860 29 -47 58 -96 66 -110 8 -14
17 -27 20 -30 3 -3 25 -36 49 -73 133 -207 326 -421 614 -683 30 -27 221 -176
261 -203 24 -17 50 -31 56 -31 5 0 29 12 53 27 23 14 94 57 159 94 154 90 449
290 568 386 186 149 254 210 409 364 285 285 574 714 757 1124 91 206 163 423
205 620 7 33 13 65 15 70 4 20 33 231 39 289 4 32 8 68 10 80 2 11 9 56 14 99
19 134 78 354 134 491 102 251 280 466 510 617 273 180 464 240 767 244 273 3
423 -32 606 -141 352 -209 551 -439 683 -790 45 -119 85 -268 96 -354 4 -30 8
-57 10 -61 25 -39 25 -750 1 -899 -3 -14 -7 -52 -10 -85 -7 -68 -11 -96 -32
-215 -16 -95 -14 -88 -42 -225 -12 -55 -24 -120 -28 -145 -3 -25 -29 -110 -55
-190 -27 -80 -49 -146 -49 -148 1 -5 -33 -120 -57 -197 -30 -94 -119 -324
-158 -410 -15 -33 -29 -64 -32 -70 -8 -17 43 43 148 175 59 74 220 317 269
405 42 75 128 245 157 311 61 135 174 462 198 572 30 135 57 272 65 333 6 41
12 85 15 97 27 141 27 723 0 863 -3 12 -7 43 -10 68 -7 57 -10 78 -40 222
-165 803 -642 1555 -1300 2051 -390 295 -835 504 -1305 614 -123 29 -288 59
-380 69 -36 4 -78 9 -95 11 -16 2 -88 6 -160 10 -71 3 -135 7 -142 9 -6 2 -13
2 -15 1z"/>
<path d="M5050 4918 c-54 -8 -75 -12 -206 -44 -134 -31 -373 -145 -463 -221
-151 -127 -279 -312 -359 -518 -33 -87 -76 -249 -88 -330 -3 -27 -8 -58 -10
-68 -1 -9 -6 -63 -9 -120 -6 -95 -18 -194 -29 -243 -2 -12 -7 -37 -10 -55 -73
-459 -262 -924 -561 -1379 -85 -129 -324 -435 -419 -539 -153 -164 -351 -352
-486 -461 -51 -41 -97 -80 -104 -85 -34 -32 -300 -215 -421 -290 -77 -48 -141
-88 -143 -90 -4 -4 187 -112 231 -130 l38 -16 112 77 c610 421 1108 890 1436
1353 72 101 196 295 222 346 9 17 33 62 54 100 129 235 247 567 291 815 2 14
6 34 9 46 2 11 7 45 11 75 3 30 7 65 10 79 2 14 6 56 9 95 22 275 33 348 82
505 112 366 331 607 683 754 91 38 269 58 370 42 25 -4 59 -10 75 -12 17 -3
53 -12 80 -21 47 -15 75 -25 155 -60 111 -47 275 -183 360 -298 47 -64 117
-178 126 -207 3 -13 15 -41 25 -63 24 -55 56 -161 69 -234 5 -34 13 -73 15
-88 19 -97 25 -478 12 -668 -40 -561 -199 -1156 -450 -1675 -119 -246 -220
-419 -382 -650 -45 -63 -85 -121 -90 -129 -8 -13 104 45 115 59 3 4 37 27 75
50 82 51 171 118 202 151 34 37 54 81 43 94 -7 8 7 39 41 96 99 163 190 357
266 569 91 255 255 866 268 1000 4 36 10 81 15 100 5 19 11 49 14 65 3 17 9
55 14 85 32 184 36 632 7 845 -5 38 -27 163 -40 230 -13 65 -89 293 -116 346
-58 116 -173 274 -269 369 -208 208 -444 324 -704 346 -108 9 -130 9 -176 2z"/>
<path d="M5135 4469 c-99 -15 -161 -36 -240 -82 -238 -138 -414 -411 -485
-752 -24 -115 -30 -162 -55 -415 -3 -36 -10 -87 -15 -115 -5 -27 -12 -66 -15
-85 -9 -54 -62 -256 -89 -340 -136 -419 -353 -809 -655 -1180 -119 -145 -160
-190 -361 -391 -151 -151 -219 -215 -395 -368 -79 -69 -308 -247 -449 -349
-86 -63 -156 -116 -156 -118 0 -7 83 -42 162 -69 l67 -24 128 96 c246 184 412
331 678 597 210 211 306 314 420 451 28 33 60 71 73 85 30 33 206 266 267 354
149 217 300 493 387 710 36 90 95 264 103 305 23 114 44 236 49 276 4 28 9 68
11 90 12 94 15 125 20 225 8 152 14 202 35 283 72 284 264 463 538 503 187 28
378 -32 519 -162 110 -101 216 -304 238 -457 4 -23 10 -62 15 -87 8 -44 5
-354 -4 -398 -3 -13 -8 -58 -12 -100 -3 -42 -8 -84 -9 -94 -2 -9 -7 -38 -11
-65 -3 -26 -8 -55 -9 -63 -2 -8 -6 -35 -10 -60 -4 -25 -13 -70 -20 -100 -8
-30 -17 -71 -20 -90 -3 -19 -11 -53 -16 -75 -6 -22 -13 -47 -14 -55 -32 -143
-157 -503 -232 -670 -13 -30 -38 -86 -56 -125 -103 -231 -297 -580 -441 -795
-114 -172 -278 -386 -381 -498 -16 -19 -33 -39 -37 -46 -4 -7 52 11 125 41
120 48 137 59 187 111 175 185 325 388 498 677 114 190 331 633 381 778 74
213 155 502 176 631 3 17 8 38 10 46 2 8 7 31 10 50 3 19 7 46 10 60 8 43 14
83 21 145 3 33 8 68 10 78 22 117 21 660 -1 747 -3 8 -7 38 -10 65 -17 135
-73 299 -143 420 -108 184 -337 355 -529 395 -70 15 -199 19 -268 9z"/>
<path d="M5175 3980 c-73 -8 -94 -14 -165 -48 -123 -58 -228 -208 -255 -361
-3 -19 -8 -38 -11 -42 -2 -5 -7 -61 -9 -126 -3 -64 -7 -137 -10 -162 -2 -26
-7 -82 -10 -126 -3 -44 -8 -91 -10 -105 -3 -14 -7 -45 -10 -70 -11 -97 -85
-354 -145 -506 -33 -82 -148 -322 -197 -409 -116 -207 -330 -520 -486 -710
-107 -130 -119 -145 -212 -246 -27 -31 -85 -93 -127 -140 -104 -114 -247 -259
-342 -345 l-78 -72 30 -7 c17 -3 63 -8 102 -9 l72 -4 212 209 c116 115 234
235 261 267 28 32 75 87 107 122 241 275 526 706 681 1031 94 196 202 481 221
583 2 11 13 57 24 101 28 108 50 267 57 400 11 226 21 277 69 359 87 149 260
216 419 163 167 -56 279 -274 280 -547 1 -132 -20 -276 -74 -515 -11 -49 -23
-101 -25 -115 -33 -174 -183 -626 -275 -828 -16 -35 -29 -66 -29 -68 0 -3 -21
-47 -47 -97 -25 -51 -55 -110 -66 -132 -35 -71 -128 -228 -189 -317 l-58 -87
35 -7 c47 -9 135 2 151 18 47 48 211 351 314 578 145 322 277 736 324 1018 3
15 12 68 20 117 9 50 18 115 21 145 3 30 8 65 10 76 8 36 18 243 18 344 0 157
-17 236 -73 355 -48 99 -122 184 -217 246 -97 63 -184 82 -308 69z"/>
<path d="M5211 3507 c-70 -33 -117 -114 -126 -217 -2 -19 -6 -91 -9 -160 -4
-69 -11 -150 -16 -180 -5 -30 -11 -72 -14 -92 -21 -141 -87 -382 -158 -572
-33 -87 -38 -110 -27 -116 12 -8 137 -6 144 2 9 11 79 216 104 305 61 216 88
380 97 603 4 84 11 133 21 148 31 49 98 54 128 8 18 -27 23 -160 11 -261 -7
-58 -10 -80 -21 -162 -11 -77 -47 -251 -72 -338 -14 -49 -27 -99 -29 -109 -9
-45 -71 -221 -126 -358 -91 -228 -203 -447 -341 -668 -47 -75 -96 -132 -236
-272 -97 -97 -176 -181 -176 -186 0 -5 -133 -141 -295 -303 -265 -265 -393
-384 -559 -517 -30 -23 -50 -42 -45 -43 5 0 66 0 136 -1 l127 -1 42 34 c288
232 483 419 777 746 40 45 82 94 94 110 12 15 25 30 28 33 3 3 39 45 80 95 41
49 86 102 100 118 72 81 253 437 364 718 67 168 189 576 220 734 3 11 9 40 15
65 5 25 12 59 15 75 3 17 10 55 16 85 6 30 13 71 16 90 3 19 7 46 10 60 6 40
6 201 -1 245 -12 73 -35 141 -64 186 -37 58 -89 109 -112 111 -61 5 -80 3
-118 -15z"/>
<path d="M4728 2017 c-27 -6 -39 -17 -52 -45 -77 -164 -368 -613 -533 -825
-232 -297 -547 -627 -818 -858 -22 -19 -49 -42 -60 -52 -11 -11 -73 -62 -138
-114 -64 -53 -115 -98 -113 -101 3 -2 18 -6 33 -7 151 -15 149 -15 169 3 35
33 68 52 89 52 11 0 44 25 75 57 30 31 91 88 135 126 44 39 95 86 114 104 18
18 36 33 40 33 11 0 191 178 236 234 22 27 95 104 161 170 107 106 124 128
139 176 14 43 32 69 87 123 37 38 68 73 68 77 0 5 6 15 13 22 7 7 26 31 42 53
17 22 38 46 47 53 53 39 292 450 388 667 12 28 24 54 27 58 6 10 -100 5 -149
-6z"/>
<path d="M4743 823 c-15 -21 -30 -40 -33 -43 -3 -3 -32 -39 -64 -80 -136 -170
-281 -331 -445 -491 -117 -114 -166 -168 -150 -165 13 3 67 15 119 26 52 12
114 25 137 30 34 8 58 27 131 103 116 120 221 240 309 352 75 96 204 278 200
282 -2 1 -38 4 -80 7 -43 3 -82 8 -87 11 -5 3 -21 -12 -37 -32z"/>
<path d="M2838 284 c-40 -36 -93 -80 -118 -97 -25 -17 -47 -34 -50 -37 -3 -4
-16 -13 -29 -19 -30 -16 -17 -28 39 -35 62 -8 88 -14 100 -21 14 -9 327 222
316 232 -2 2 -40 10 -85 18 -45 8 -86 17 -91 20 -5 3 -42 -24 -82 -61z"/>
</g>
</svg>
