<svg id="Capa_1" data-name="Capa 1" xmlns="http://www.w3.org/2000/svg" viewBox="0 0 331.53 20.4"><defs><style>.cls-1{fill:#fff;}</style></defs><title>banner_ticket_bco</title><path class="cls-1" d="M11.85,10.6a5.38,5.38,0,0,1-.4,2.2,4.83,4.83,0,0,1-2.8,2.8,5.38,5.38,0,0,1-2.2.4h-4V5.2h4a5.38,5.38,0,0,1,2.2.4,6.19,6.19,0,0,1,1.7,1.1,5,5,0,0,1,1.1,1.7A5.38,5.38,0,0,1,11.85,10.6Zm-1.5,0a5.23,5.23,0,0,0-.3-1.8,2.42,2.42,0,0,0-.8-1.3,5,5,0,0,0-1.2-.8,4.15,4.15,0,0,0-1.6-.3H3.85v8.4h2.6a4.15,4.15,0,0,0,1.6-.3,3.6,3.6,0,0,0,1.2-.8,4.11,4.11,0,0,0,.8-1.3A4.84,4.84,0,0,0,10.35,10.6Z"/><path class="cls-1" d="M16.65,8.2a5.07,5.07,0,0,1,1.3.2,3.59,3.59,0,0,1,1,.7,3,3,0,0,1,.7,1.1,3.18,3.18,0,0,1,.2,1.4c0,.2,0,.4-.1.4s-.1.1-.3.1h-5.1a5.07,5.07,0,0,0,.2,1.3,1.93,1.93,0,0,0,.5.9,2.18,2.18,0,0,0,.8.5,3,3,0,0,0,1,.2,2.77,2.77,0,0,0,.9-.1,1.63,1.63,0,0,0,.6-.3c.1-.1.3-.2.4-.3a.5.5,0,0,1,.6,0l.4.5a2.65,2.65,0,0,1-.6.5c-.2.1-.5.3-.7.4a2.35,2.35,0,0,1-.8.2c-.3,0-.6.1-.8.1a4,4,0,0,1-1.5-.3,2.84,2.84,0,0,1-1.1-.8,4.11,4.11,0,0,1-.8-1.3,4.67,4.67,0,0,1-.3-1.7,7.72,7.72,0,0,1,.2-1.5,3.46,3.46,0,0,1,.7-1.2,4.44,4.44,0,0,1,1.1-.8A6.05,6.05,0,0,1,16.65,8.2Zm0,1a1.89,1.89,0,0,0-1.5.6,2.63,2.63,0,0,0-.7,1.5h4.1a2.77,2.77,0,0,0-.1-.9,1.61,1.61,0,0,0-.4-.7,2.09,2.09,0,0,0-.6-.4C17.25,9.3,17,9.2,16.65,9.2Z"/><path class="cls-1" d="M25.85,9.6c-.1.1-.2.2-.3.2a.37.37,0,0,1-.3-.1c-.1-.1-.2-.1-.3-.2s-.3-.1-.5-.2a1.48,1.48,0,0,0-.7-.1,1.27,1.27,0,0,0-.6.1c-.2.1-.3.1-.5.2l-.3.3a.6.6,0,0,0-.1.4.76.76,0,0,0,.2.5c.1.1.3.2.4.3l.6.3c.2.1.5.1.7.2s.5.2.7.3a2.09,2.09,0,0,1,.6.4,1.27,1.27,0,0,1,.4.6,1.88,1.88,0,0,1,.2.8,3.55,3.55,0,0,1-.2,1,1.56,1.56,0,0,1-.6.8,1.93,1.93,0,0,1-.9.5,5,5,0,0,1-1.2.2,3.19,3.19,0,0,1-1.4-.3,4.13,4.13,0,0,1-1.1-.7l.3-.5c0-.1.1-.1.1-.2s.1-.1.2-.1a.37.37,0,0,1,.3.1c.1.1.2.1.4.2s.3.2.5.2a2,2,0,0,0,.8.1,1.48,1.48,0,0,0,.7-.1,2.19,2.19,0,0,0,.5-.3,1.38,1.38,0,0,0,.3-.4.9.9,0,0,0,.1-.5.76.76,0,0,0-.2-.5l-.4-.4-.6-.3c-.2-.1-.5-.1-.7-.2s-.5-.2-.7-.3a2.09,2.09,0,0,1-.6-.4,1.27,1.27,0,0,1-.4-.6,1.7,1.7,0,0,1,0-1.6,1.79,1.79,0,0,1,.5-.7,2.18,2.18,0,0,1,.8-.5,3.59,3.59,0,0,1,1.1-.2,5.07,5.07,0,0,1,1.3.2,8.79,8.79,0,0,1,1,.6Z"/><path class="cls-1" d="M33.15,9.7a.1.1,0,0,1-.1.1h-.2c-.1,0-.2,0-.2-.1s-.2-.1-.3-.2-.3-.1-.5-.2a1.48,1.48,0,0,0-.7-.1,3,3,0,0,0-1,.2,1.34,1.34,0,0,0-.7.6,3.55,3.55,0,0,0-.4.9,4.87,4.87,0,0,0-.1,1.2,3.73,3.73,0,0,0,.2,1.2,3.92,3.92,0,0,0,.4.9,4.35,4.35,0,0,0,.7.6,2.92,2.92,0,0,0,.9.2,2,2,0,0,0,.8-.1,2.19,2.19,0,0,0,.5-.3c.1-.1.3-.2.3-.3a.5.5,0,0,1,.6,0l.4.5a2.73,2.73,0,0,1-1.2.9A4.15,4.15,0,0,1,31,16a2.77,2.77,0,0,1-1.3-.3,2.84,2.84,0,0,1-1.1-.8,3.46,3.46,0,0,1-.7-1.2,4.31,4.31,0,0,1-.3-1.7,7.77,7.77,0,0,1,.2-1.6,3.46,3.46,0,0,1,.7-1.2,4.44,4.44,0,0,1,1.1-.8,3.65,3.65,0,0,1,1.5-.3,3.19,3.19,0,0,1,1.4.3,4.13,4.13,0,0,1,1.1.7Z"/><path class="cls-1" d="M36.15,8.4v4.8a1.7,1.7,0,0,0,.4,1.3,1.66,1.66,0,0,0,1.2.5,2,2,0,0,0,1.1-.3,3.51,3.51,0,0,0,1-.8V8.4h1.3V16h-.8c-.2,0-.3-.1-.4-.3l-.1-.8a3.13,3.13,0,0,1-1.1.9,3.19,3.19,0,0,1-1.4.3,3.59,3.59,0,0,1-1.1-.2,1.56,1.56,0,0,1-.8-.6,2.62,2.62,0,0,1-.5-.9,3.73,3.73,0,0,1-.2-1.2V8.4Z"/><path class="cls-1" d="M43.35,16V5h1.3V9.5a3.13,3.13,0,0,1,1.1-.9,3.19,3.19,0,0,1,1.4-.3,5,5,0,0,1,1.2.2,2.18,2.18,0,0,1,.9.7,6.66,6.66,0,0,1,.6,1.2,4.42,4.42,0,0,1,.2,1.7,7.77,7.77,0,0,1-.2,1.6c-.2.5-.4.9-.6,1.3a2.54,2.54,0,0,1-1,.8,3.19,3.19,0,0,1-1.4.3,2.13,2.13,0,0,1-1.2-.3,6.47,6.47,0,0,1-.9-.8l-.1.7a.32.32,0,0,1-.3.3Zm3.4-6.7a2,2,0,0,0-1.1.3,6.47,6.47,0,0,0-.9.8v3.7a1.78,1.78,0,0,0,.8.7,3,3,0,0,0,1,.2,1.82,1.82,0,0,0,1.6-.8,3.4,3.4,0,0,0,.6-2.2,5.28,5.28,0,0,0-.1-1.3,2.47,2.47,0,0,0-.4-.9,1.33,1.33,0,0,0-.6-.5A2.72,2.72,0,0,1,46.75,9.3Z"/><path class="cls-1" d="M51.75,16V8.4h.8a.37.37,0,0,1,.3.1c.1.1.1.1.1.3l.1,1.2a4,4,0,0,1,1-1.2,2,2,0,0,1,1.3-.4,1.27,1.27,0,0,1,.6.1c.2.1.3.1.5.2l-.2,1a.22.22,0,0,1-.2.2.37.37,0,0,1-.3-.1,3.54,3.54,0,0,0-.6-.1,1.59,1.59,0,0,0-1.2.4,3.6,3.6,0,0,0-.8,1.2v4.8h-1.4Z"/><path class="cls-1" d="M60.85,5.1,59.15,7l-.2.2h-1.1L59,5.4c.1-.1.1-.2.2-.3s.2-.1.4-.1h1.3Zm-1.6,3.3V16H58V8.4Z"/><path class="cls-1" d="M73.55,16h-1.1a.37.37,0,0,1-.3-.1l-.2-.2-1-2.6h-4.8l-1,2.6a.22.22,0,0,1-.2.2.37.37,0,0,1-.3.1h-1.1l4.3-10.7h1.5Zm-7-4h4l-1.7-4.4c-.1-.3-.2-.6-.3-1-.1.2-.1.4-.2.6s-.1.3-.2.5Z"/><path class="cls-1" d="M74.65,16V8.4h.8c.2,0,.3.1.4.3l.1.8a3.13,3.13,0,0,1,1.1-.9,3.19,3.19,0,0,1,1.4-.3,3.59,3.59,0,0,1,1.1.2,1.56,1.56,0,0,1,.8.6,4.05,4.05,0,0,1,.5.9,4.3,4.3,0,0,1,.2,1.2V16h-1.3V11.2a1.7,1.7,0,0,0-.4-1.3,1.66,1.66,0,0,0-1.2-.5,2,2,0,0,0-1.1.3,2.28,2.28,0,0,0-.9.8v5.6h-1.5Z"/><path class="cls-1" d="M88.25,9.7a.1.1,0,0,1-.1.1H88c-.1,0-.2,0-.2-.1s-.2-.1-.3-.2-.3-.1-.5-.2a1.48,1.48,0,0,0-.7-.1,3,3,0,0,0-1,.2,1.34,1.34,0,0,0-.7.6,3.55,3.55,0,0,0-.4.9,4.87,4.87,0,0,0-.1,1.2,3.73,3.73,0,0,0,.2,1.2,3.92,3.92,0,0,0,.4.9,4.35,4.35,0,0,0,.7.6,2.92,2.92,0,0,0,.9.2,2,2,0,0,0,.8-.1,2.19,2.19,0,0,0,.5-.3c.1-.1.3-.2.3-.3a.5.5,0,0,1,.6,0l.4.5a2.73,2.73,0,0,1-1.2.9,4.15,4.15,0,0,1-1.6.3,2.77,2.77,0,0,1-1.3-.3,2.84,2.84,0,0,1-1.1-.8,3.46,3.46,0,0,1-.7-1.2,4.31,4.31,0,0,1-.3-1.7,7.77,7.77,0,0,1,.2-1.6,3.46,3.46,0,0,1,.7-1.2,4.44,4.44,0,0,1,1.1-.8,3.65,3.65,0,0,1,1.5-.3,3.19,3.19,0,0,1,1.4.3,4.13,4.13,0,0,1,1.1.7Z"/><path class="cls-1" d="M90.05,16V5h1.3V9.4a4.44,4.44,0,0,1,1.1-.8,3.19,3.19,0,0,1,1.4-.3,3.59,3.59,0,0,1,1.1.2,1.56,1.56,0,0,1,.8.6,4.05,4.05,0,0,1,.5.9,4.3,4.3,0,0,1,.2,1.2V16h-1.3V11.2a1.7,1.7,0,0,0-.4-1.3,1.66,1.66,0,0,0-1.2-.5,2,2,0,0,0-1.1.3,2.28,2.28,0,0,0-.9.8v5.6h-1.5Z"/><path class="cls-1" d="M100.15,6a.6.6,0,0,1-.1.4c-.1.1-.1.2-.2.3s-.2.2-.3.2-.2.1-.4.1-.3,0-.4-.1-.2-.1-.3-.2-.2-.2-.2-.3-.1-.2-.1-.4,0-.3.1-.4.1-.2.2-.3.2-.2.3-.2.2-.1.4-.1.3,0,.4.1.2.1.3.2.2.2.2.3A.6.6,0,0,1,100.15,6Zm-.3,2.4V16h-1.3V8.4Z"/><path class="cls-1" d="M102.25,18.5V8.4h.8c.2,0,.3.1.4.3l.1.9a5.24,5.24,0,0,1,1.1-1,3.26,3.26,0,0,1,1.4-.4,2.66,2.66,0,0,1,1.2.3,2.18,2.18,0,0,1,.9.7,6.66,6.66,0,0,1,.6,1.2,4.42,4.42,0,0,1,.2,1.7,7.77,7.77,0,0,1-.2,1.6,5.17,5.17,0,0,1-.6,1.3,2.54,2.54,0,0,1-1,.8,3.19,3.19,0,0,1-1.4.3,3.73,3.73,0,0,1-1.2-.2,5.5,5.5,0,0,1-.9-.7v3.4h-1.4Zm3.4-9.2a2,2,0,0,0-1.1.3,6.47,6.47,0,0,0-.9.8v3.7a1.78,1.78,0,0,0,.8.7,3,3,0,0,0,1,.2,1.94,1.94,0,0,0,1.6-.8,3.4,3.4,0,0,0,.6-2.2,5.28,5.28,0,0,0-.1-1.3,2.47,2.47,0,0,0-.4-.9,1.33,1.33,0,0,0-.6-.5A2.7,2.7,0,0,1,105.65,9.3Z"/><path class="cls-1" d="M111.65,8.4v4.8a1.7,1.7,0,0,0,.4,1.3,1.66,1.66,0,0,0,1.2.5,2,2,0,0,0,1.1-.3,3.51,3.51,0,0,0,1-.8V8.4h1.3V16h-.8c-.2,0-.3-.1-.4-.3l-.1-.8a3.13,3.13,0,0,1-1.1.9,3.19,3.19,0,0,1-1.4.3,3.59,3.59,0,0,1-1.1-.2,1.56,1.56,0,0,1-.8-.6,2.62,2.62,0,0,1-.5-.9,3.73,3.73,0,0,1-.2-1.2V8.4Z"/><path class="cls-1" d="M118.85,16V8.4h.8a.37.37,0,0,1,.3.1c.1.1.1.1.1.3l.1,1.2a4,4,0,0,1,1-1.2,2,2,0,0,1,1.3-.4,1.27,1.27,0,0,1,.6.1c.2.1.3.1.5.2l-.2,1a.22.22,0,0,1-.2.2.37.37,0,0,1-.3-.1,3.54,3.54,0,0,0-.6-.1,1.59,1.59,0,0,0-1.2.4,3.6,3.6,0,0,0-.8,1.2v4.8h-1.4Z"/><path class="cls-1" d="M130.15,16h-.6a.37.37,0,0,1-.3-.1.77.77,0,0,1-.2-.3l-.2-.7c-.2.2-.4.3-.6.5a2.09,2.09,0,0,1-.6.4,1.45,1.45,0,0,1-.7.2c-.3,0-.5.1-.8.1a2,2,0,0,1-.8-.1,1.61,1.61,0,0,1-.7-.4c-.2-.2-.3-.4-.5-.6a2.92,2.92,0,0,1-.2-.9,2.92,2.92,0,0,1,.2-.9,1.85,1.85,0,0,1,.8-.7,4.57,4.57,0,0,1,1.4-.5,12.73,12.73,0,0,1,2.2-.2v-.6a1.7,1.7,0,0,0-.4-1.3,1.43,1.43,0,0,0-1.1-.5,2,2,0,0,0-.8.1l-.6.3a1.38,1.38,0,0,0-.4.3.37.37,0,0,1-.3.1c-.1,0-.2,0-.2-.1s-.1-.1-.2-.2l-.2-.4a4.19,4.19,0,0,1,1.4-.9,4.15,4.15,0,0,1,1.6-.3,3.59,3.59,0,0,1,1.1.2,1.56,1.56,0,0,1,.8.6,2.62,2.62,0,0,1,.5.9,4.3,4.3,0,0,1,.2,1.2V16Zm-3.4-.9c.2,0,.5,0,.6-.1a1.42,1.42,0,0,0,.6-.2c.2-.1.3-.2.5-.3s.3-.3.5-.4V12.5a8.08,8.08,0,0,0-1.6.1,4.05,4.05,0,0,0-1,.3,1.54,1.54,0,0,0-.6.4,1.42,1.42,0,0,0-.2.6.75.75,0,0,0,.1.5c.1.1.2.3.3.4a.52.52,0,0,0,.4.2C126.35,15.1,126.55,15.1,126.75,15.1Z"/><path class="cls-1" d="M137.35,9.7a.1.1,0,0,1-.1.1h-.2c-.1,0-.2,0-.2-.1s-.2-.1-.3-.2-.3-.1-.5-.2a1.48,1.48,0,0,0-.7-.1,3,3,0,0,0-1,.2,1.34,1.34,0,0,0-.7.6,3.55,3.55,0,0,0-.4.9,4.87,4.87,0,0,0-.1,1.2,3.73,3.73,0,0,0,.2,1.2,3.92,3.92,0,0,0,.4.9,4.35,4.35,0,0,0,.7.6,2.92,2.92,0,0,0,.9.2,2,2,0,0,0,.8-.1,2.19,2.19,0,0,0,.5-.3c.1-.1.3-.2.3-.3a.5.5,0,0,1,.6,0l.4.5a2.73,2.73,0,0,1-1.2.9,4.15,4.15,0,0,1-1.6.3,2.77,2.77,0,0,1-1.3-.3,2.84,2.84,0,0,1-1.1-.8,3.46,3.46,0,0,1-.7-1.2,4.31,4.31,0,0,1-.3-1.7,7.77,7.77,0,0,1,.2-1.6,3.46,3.46,0,0,1,.7-1.2,4.44,4.44,0,0,1,1.1-.8,3.65,3.65,0,0,1,1.5-.3,3.19,3.19,0,0,1,1.4.3,4.13,4.13,0,0,1,1.1.7Z"/><path class="cls-1" d="M147.45,16c-.2,0-.3-.1-.4-.3l-.1-.9a3.13,3.13,0,0,1-1.1.9,3.26,3.26,0,0,1-1.4.4,2.66,2.66,0,0,1-1.2-.3,2.18,2.18,0,0,1-.9-.7,6.66,6.66,0,0,1-.6-1.2,7.93,7.93,0,0,1-.2-1.7,7.77,7.77,0,0,1,.2-1.6c.2-.5.4-.9.6-1.3a2.54,2.54,0,0,1,1-.8,3.19,3.19,0,0,1,1.4-.3,3.73,3.73,0,0,1,1.2.2,5.5,5.5,0,0,1,.9.7V4.9h1.3v11h-.7Zm-2.6-1a2,2,0,0,0,1.1-.3,6.47,6.47,0,0,0,.9-.8V10.2a1.78,1.78,0,0,0-.8-.7,3,3,0,0,0-1-.2,1.82,1.82,0,0,0-1.6.8,3.4,3.4,0,0,0-.6,2.2,5.28,5.28,0,0,0,.1,1.3,2.47,2.47,0,0,0,.4.9,1.33,1.33,0,0,0,.6.5A2.72,2.72,0,0,1,144.85,15Z"/><path class="cls-1" d="M153.45,8.2a5.07,5.07,0,0,1,1.3.2,3.59,3.59,0,0,1,1,.7,3,3,0,0,1,.7,1.1,3.18,3.18,0,0,1,.2,1.4c0,.2,0,.4-.1.4s-.1.1-.3.1h-5.1a5.07,5.07,0,0,0,.2,1.3,1.93,1.93,0,0,0,.5.9,2.18,2.18,0,0,0,.8.5,3,3,0,0,0,1,.2,2.77,2.77,0,0,0,.9-.1,1.63,1.63,0,0,0,.6-.3c.1-.1.3-.2.4-.3a.5.5,0,0,1,.6,0l.4.5a2.65,2.65,0,0,1-.6.5c-.2.1-.5.3-.7.4a2.35,2.35,0,0,1-.8.2c-.3,0-.6.1-.8.1a4,4,0,0,1-1.5-.3,2.84,2.84,0,0,1-1.1-.8,4.11,4.11,0,0,1-.8-1.3,4.67,4.67,0,0,1-.3-1.7,7.72,7.72,0,0,1,.2-1.5,3.46,3.46,0,0,1,.7-1.2,4.44,4.44,0,0,1,1.1-.8A7.72,7.72,0,0,1,153.45,8.2Zm.1,1a1.89,1.89,0,0,0-1.5.6,2.63,2.63,0,0,0-.7,1.5h4.1a2.77,2.77,0,0,0-.1-.9,1.61,1.61,0,0,0-.4-.7,2.09,2.09,0,0,0-.6-.4C154.15,9.3,153.85,9.2,153.55,9.2Z"/><path class="cls-1" d="M162.75,9.6c-.1.1-.2.2-.3.2a.37.37,0,0,1-.3-.1c-.1-.1-.2-.1-.3-.2s-.3-.1-.5-.2a1.48,1.48,0,0,0-.7-.1,1.27,1.27,0,0,0-.6.1c-.2.1-.3.1-.5.2l-.3.3a.6.6,0,0,0-.1.4.76.76,0,0,0,.2.5c.1.1.3.2.4.3l.6.3c.2.1.5.1.7.2s.5.2.7.3a2.09,2.09,0,0,1,.6.4,1.27,1.27,0,0,1,.4.6,1.88,1.88,0,0,1,.2.8,3.55,3.55,0,0,1-.2,1,1.56,1.56,0,0,1-.6.8,1.93,1.93,0,0,1-.9.5,5,5,0,0,1-1.2.2,3.19,3.19,0,0,1-1.4-.3,4.13,4.13,0,0,1-1.1-.7l.3-.5c0-.1.1-.1.1-.2s.1-.1.2-.1a.37.37,0,0,1,.3.1c.1.1.2.1.4.2s.3.2.5.2a2,2,0,0,0,.8.1,1.48,1.48,0,0,0,.7-.1,2.19,2.19,0,0,0,.5-.3,1.38,1.38,0,0,0,.3-.4.9.9,0,0,0,.1-.5.76.76,0,0,0-.2-.5l-.4-.4-.6-.3c-.2-.1-.5-.1-.7-.2s-.5-.2-.7-.3a2.09,2.09,0,0,1-.6-.4,1.27,1.27,0,0,1-.4-.6,1.7,1.7,0,0,1,0-1.6,1.79,1.79,0,0,1,.5-.7,2.18,2.18,0,0,1,.8-.5,3.59,3.59,0,0,1,1.1-.2,5.07,5.07,0,0,1,1.3.2,8.79,8.79,0,0,1,1,.6Z"/><path class="cls-1" d="M170.25,16c-.2,0-.3-.1-.4-.3l-.1-.9a3.13,3.13,0,0,1-1.1.9,3.26,3.26,0,0,1-1.4.4,2.66,2.66,0,0,1-1.2-.3,2.18,2.18,0,0,1-.9-.7,6.66,6.66,0,0,1-.6-1.2,7.93,7.93,0,0,1-.2-1.7,7.77,7.77,0,0,1,.2-1.6c.2-.5.4-.9.6-1.3a2.54,2.54,0,0,1,1-.8,3.19,3.19,0,0,1,1.4-.3,3.73,3.73,0,0,1,1.2.2,5.5,5.5,0,0,1,.9.7V4.9H171v11h-.7Zm-2.6-1a2,2,0,0,0,1.1-.3,6.47,6.47,0,0,0,.9-.8V10.2a1.78,1.78,0,0,0-.8-.7,3,3,0,0,0-1-.2,1.82,1.82,0,0,0-1.6.8,3.4,3.4,0,0,0-.6,2.2,5.28,5.28,0,0,0,.1,1.3,2.47,2.47,0,0,0,.4.9,2.65,2.65,0,0,0,.6.5A2.72,2.72,0,0,1,167.65,15Z"/><path class="cls-1" d="M176.25,8.2a5.07,5.07,0,0,1,1.3.2,3.59,3.59,0,0,1,1,.7,3,3,0,0,1,.7,1.1,3.4,3.4,0,0,1,.2,1.4c0,.2,0,.4-.1.4s-.1.1-.3.1H174a5.07,5.07,0,0,0,.2,1.3,1.93,1.93,0,0,0,.5.9,2.18,2.18,0,0,0,.8.5,3,3,0,0,0,1,.2,2.77,2.77,0,0,0,.9-.1,1.63,1.63,0,0,0,.6-.3,1.38,1.38,0,0,0,.4-.3.5.5,0,0,1,.6,0l.4.5a2.65,2.65,0,0,1-.6.5c-.2.1-.5.3-.7.4a2.35,2.35,0,0,1-.8.2c-.3,0-.6.1-.8.1a4,4,0,0,1-1.5-.3,2.84,2.84,0,0,1-1.1-.8,5.67,5.67,0,0,1-.8-1.3,4.67,4.67,0,0,1-.3-1.7,7.72,7.72,0,0,1,.2-1.5,3.46,3.46,0,0,1,.7-1.2,4.44,4.44,0,0,1,1.1-.8A3.64,3.64,0,0,1,176.25,8.2Zm0,1a1.89,1.89,0,0,0-1.5.6,3.48,3.48,0,0,0-.7,1.5h4.1a2.77,2.77,0,0,0-.1-.9,1.61,1.61,0,0,0-.4-.7,2.09,2.09,0,0,0-.6-.4C176.85,9.3,176.55,9.2,176.25,9.2Z"/><path class="cls-1" d="M189.55,16H189a.37.37,0,0,1-.3-.1.77.77,0,0,1-.2-.3l-.2-.7c-.2.2-.4.3-.6.5s-.4.3-.6.4a1.45,1.45,0,0,1-.7.2c-.2,0-.5.1-.8.1a2,2,0,0,1-.8-.1,1.61,1.61,0,0,1-.7-.4c-.2-.2-.3-.4-.5-.6a2.92,2.92,0,0,1-.2-.9,2.92,2.92,0,0,1,.2-.9,1.85,1.85,0,0,1,.8-.7,4.57,4.57,0,0,1,1.4-.5,12.73,12.73,0,0,1,2.2-.2v-.6a1.7,1.7,0,0,0-.4-1.3,1.43,1.43,0,0,0-1.1-.5,2,2,0,0,0-.8.1l-.6.3a1.38,1.38,0,0,0-.4.3.37.37,0,0,1-.3.1c-.1,0-.2,0-.2-.1s-.1-.1-.2-.2l-.2-.4a4.19,4.19,0,0,1,1.4-.9,4.15,4.15,0,0,1,1.6-.3,3.59,3.59,0,0,1,1.1.2,1.56,1.56,0,0,1,.8.6,2.62,2.62,0,0,1,.5.9,4.3,4.3,0,0,1,.2,1.2V16Zm-3.4-.9a1.27,1.27,0,0,0,.6-.1,1.42,1.42,0,0,0,.6-.2c.2-.1.3-.2.5-.3s.3-.3.5-.4V12.5a8.08,8.08,0,0,0-1.6.1,4.05,4.05,0,0,0-1,.3,1.54,1.54,0,0,0-.6.4,1.42,1.42,0,0,0-.2.6.75.75,0,0,0,.1.5c.1.1.2.3.3.4a.52.52,0,0,0,.4.2C186,15,186,15.1,186.15,15.1Z"/><path class="cls-1" d="M197.75,8.4V18.6h-1.3V14.9a3.13,3.13,0,0,1-1.1.9,3.19,3.19,0,0,1-1.4.3,2.66,2.66,0,0,1-1.2-.3,2.18,2.18,0,0,1-.9-.7,6.66,6.66,0,0,1-.6-1.2,7.93,7.93,0,0,1-.2-1.7,7.77,7.77,0,0,1,.2-1.6,5.39,5.39,0,0,1,.7-1.3,2.54,2.54,0,0,1,1-.8,3.19,3.19,0,0,1,1.4-.3,2.13,2.13,0,0,1,1.2.3,5.5,5.5,0,0,1,.9.7l.1-.6c.1-.2.2-.3.4-.3h.8Zm-3.4,6.6a2,2,0,0,0,1.1-.3,6.47,6.47,0,0,0,.9-.8V10.2a2.7,2.7,0,0,0-.8-.7,3,3,0,0,0-1-.2,1.82,1.82,0,0,0-1.6.8,3.4,3.4,0,0,0-.6,2.2,5.28,5.28,0,0,0,.1,1.3,2.47,2.47,0,0,0,.4.9,2.65,2.65,0,0,0,.6.5A2.72,2.72,0,0,1,194.35,15Z"/><path class="cls-1" d="M201.15,8.4v4.8a1.7,1.7,0,0,0,.4,1.3,1.66,1.66,0,0,0,1.2.5,2,2,0,0,0,1.1-.3,3.51,3.51,0,0,0,1-.8V8.4h1.3V16h-.8c-.2,0-.3-.1-.4-.3l-.1-.8a3.13,3.13,0,0,1-1.1.9,3.19,3.19,0,0,1-1.4.3,3.59,3.59,0,0,1-1.1-.2,1.56,1.56,0,0,1-.8-.6,2.62,2.62,0,0,1-.5-.9,3.73,3.73,0,0,1-.2-1.2V8.4Z"/><path class="cls-1" d="M211.35,5.1,209.65,7l-.2.2h-1.1l1.1-1.8c.1-.1.1-.2.2-.3s.2-.1.4-.1h1.3Zm-1.5,3.3V16h-1.3V8.4Z"/><circle class="cls-1" cx="225.75" cy="6" r="0.8"/><circle class="cls-1" cx="236.05" cy="7.8" r="0.8"/><path class="cls-1" d="M229.75.8V0h4.8V2a1.58,1.58,0,0,0,1.6,1.6,1.51,1.51,0,0,0,1.4-.9L238,2l4.3,2-7.6,16.2h-4.8v-.8a1.6,1.6,0,0,0-3.2,0v1h-4.8V0h4.8V.8a1.58,1.58,0,0,0,1.6,1.6A1.5,1.5,0,0,0,229.75.8Zm8.1,8.7a.86.86,0,0,1-.4-1,.73.73,0,0,1,1-.4L240,4.9l-1.6-.7A3.19,3.19,0,0,1,236,5.3a4.19,4.19,0,0,1-1.6-.4V16.7Zm-12.8-7.9h-1.7V5.2a.86.86,0,0,1,.8.8.86.86,0,0,1-.8.8v12h1.7a3.2,3.2,0,0,1,6.2,0H233V6.8a.86.86,0,0,1-.8-.8.86.86,0,0,1,.8-.8V1.6h-1.7a3.2,3.2,0,0,1-6.2,0Z"/><circle class="cls-1" cx="230.55" cy="6" r="0.8"/><circle class="cls-1" cx="228.15" cy="6" r="0.8"/><path class="cls-1" d="M260.45,5.2v2h-3.1v9h-2.5v-9h-3.1v-2Z"/><path class="cls-1" d="M267.35,16.2h-2.6V5.2h2.6Z"/><path class="cls-1" d="M279.75,13.3h.2c.1,0,.1.1.2.1l1,1.1a3.71,3.71,0,0,1-1.7,1.3,6.05,6.05,0,0,1-2.4.4,5.09,5.09,0,0,1-2.2-.4,5.23,5.23,0,0,1-1.7-1.2,5.44,5.44,0,0,1-1.1-1.8,7.8,7.8,0,0,1-.4-2.2,5.87,5.87,0,0,1,.4-2.3,5.52,5.52,0,0,1,3-3,5.87,5.87,0,0,1,2.3-.4,4.87,4.87,0,0,1,1.2.1c.4.1.7.2,1,.3a4.05,4.05,0,0,1,.9.5,4.35,4.35,0,0,1,.7.6l-.9,1.2-.2.2a.5.5,0,0,1-.6,0,.37.37,0,0,0-.3-.1c-.1-.1-.2-.1-.3-.2s-.2-.1-.4-.2a.75.75,0,0,0-.5-.1c-.2,0-.4-.1-.7-.1a5.07,5.07,0,0,0-1.3.2,3.59,3.59,0,0,0-1,.7,2.38,2.38,0,0,0-.6,1.1,3.42,3.42,0,0,0-.2,1.5,6.05,6.05,0,0,0,.2,1.5,10.91,10.91,0,0,0,.6,1.1,5.5,5.5,0,0,0,.9.7,2.15,2.15,0,0,0,1.1.2h.6a4.33,4.33,0,0,0,.5-.1c.2-.1.3-.1.5-.2s.3-.2.4-.3.1-.1.2-.1A4.55,4.55,0,0,1,279.75,13.3Z"/><path class="cls-1" d="M288,9.6h.4a.81.81,0,0,0,.8-.4l2.5-3.6a1,1,0,0,1,.5-.4,1.27,1.27,0,0,1,.6-.1H295l-3.3,4.5a.78.78,0,0,1-.4.4,1.38,1.38,0,0,0-.4.3,2.19,2.19,0,0,1,.5.3,1,1,0,0,1,.4.5l3.3,5.1h-2.7c-.1,0-.2-.1-.3-.1s-.1-.1-.2-.1l-.2-.2-2.5-3.8-.3-.3c-.1-.1-.3-.1-.6-.1h-.6v4.7h-2.6V5.3h2.6V9.6Z"/><path class="cls-1" d="M306.25,5.2v2h-4.5V9.8h3.5v1.9h-3.5v2.6h4.5v2h-7.1V5.3h7.1Z"/><path class="cls-1" d="M318.75,5.2v2h-3.1v9h-2.6v-9H310v-2Z"/><path class="cls-1" d="M329,7.4c-.1.1-.2.2-.2.3a.37.37,0,0,1-.3.1.76.76,0,0,1-.4-.1.76.76,0,0,0-.5-.2,1.42,1.42,0,0,0-.6-.2,1.7,1.7,0,0,0-.7-.1,1.8,1.8,0,0,0-1.1.3,1.23,1.23,0,0,0-.4.8,1.42,1.42,0,0,0,.2.6,1.54,1.54,0,0,0,.6.4,6.89,6.89,0,0,0,.8.3l.9.3a3.55,3.55,0,0,1,.9.4,1.56,1.56,0,0,1,.8.6,5.55,5.55,0,0,1,.6.8,3.73,3.73,0,0,1,.2,1.2,3.19,3.19,0,0,1-.3,1.4,4.18,4.18,0,0,1-.8,1.2,3.6,3.6,0,0,1-1.2.8,4.31,4.31,0,0,1-1.7.3,3.4,3.4,0,0,1-1-.1c-.4-.1-.7-.2-1-.3a4.05,4.05,0,0,1-.9-.5c-.3-.2-.5-.4-.8-.6l.8-1.2c.1-.1.1-.2.2-.2a.37.37,0,0,1,.3-.1.9.9,0,0,1,.5.1c.2.1.3.2.5.3a4.88,4.88,0,0,0,.7.3,2.48,2.48,0,0,0,.9.1,1.8,1.8,0,0,0,1.1-.3,1.05,1.05,0,0,0,.4-1,.85.85,0,0,0-.2-.6.92.92,0,0,0-.6-.4,6.89,6.89,0,0,0-.8-.3l-.9-.3a3.55,3.55,0,0,1-.9-.4,1.56,1.56,0,0,1-.8-.6,3.49,3.49,0,0,1-.6-.9,5.07,5.07,0,0,1-.2-1.3,5,5,0,0,1,.2-1.2,6.73,6.73,0,0,1,.7-1.1,2.4,2.4,0,0,1,1.2-.7,4.15,4.15,0,0,1,1.6-.3,3.4,3.4,0,0,1,1,.1c.3.1.6.1.9.2a2,2,0,0,1,.8.4,3,3,0,0,1,.7.5Z"/></svg>