<?xml version="1.0" encoding="utf-8"?>
<!-- Generator: Adobe Illustrator 23.0.4, SVG Export Plug-In . SVG Version: 6.00 Build 0)  -->
<svg version="1.1" id="Capa_1" xmlns="http://www.w3.org/2000/svg" xmlns:xlink="http://www.w3.org/1999/xlink" x="0px" y="0px"
	 viewBox="0 0 998.8 35" style="enable-background:new 0 0 998.8 35;" xml:space="preserve">
<style type="text/css">
	.st0{fill:#008D88;}
	.st1{fill:#FFFFFF;}
</style>
<g>
	<rect class="st0" width="998.8" height="35"/>
	<g>
		<g>
			<path class="st1" d="M346,17.2c0,0.8-0.1,1.5-0.4,2.2c-0.3,0.7-0.6,1.2-1.1,1.7s-1,0.8-1.7,1.1c-0.7,0.3-1.4,0.4-2.2,0.4h-4V11.8
				h4c0.8,0,1.5,0.1,2.2,0.4c0.6,0.3,1.2,0.6,1.7,1.1c0.5,0.5,0.8,1,1.1,1.7C345.9,15.7,346,16.4,346,17.2z M344.5,17.2
				c0-0.7-0.1-1.2-0.3-1.8s-0.4-1-0.8-1.3s-0.7-0.6-1.2-0.8c-0.5-0.2-1-0.3-1.6-0.3h-2.6v8.4h2.6c0.6,0,1.1-0.1,1.6-0.3
				c0.5-0.2,0.9-0.5,1.2-0.8s0.6-0.8,0.8-1.3S344.5,17.9,344.5,17.2z"/>
			<path class="st1" d="M350.8,14.8c0.5,0,0.9,0.1,1.3,0.2c0.4,0.2,0.7,0.4,1,0.7c0.3,0.3,0.5,0.6,0.7,1.1c0.2,0.4,0.2,0.9,0.2,1.4
				c0,0.2,0,0.4-0.1,0.4c0,0.1-0.1,0.1-0.3,0.1h-5.1c0,0.5,0.1,0.9,0.2,1.3c0.1,0.4,0.3,0.7,0.5,0.9c0.2,0.2,0.5,0.4,0.8,0.5
				c0.3,0.1,0.6,0.2,1,0.2c0.3,0,0.6,0,0.9-0.1s0.5-0.2,0.6-0.3s0.3-0.2,0.4-0.3c0.1-0.1,0.2-0.1,0.3-0.1c0.1,0,0.2,0,0.3,0.1
				l0.4,0.5c-0.2,0.2-0.4,0.4-0.6,0.5c-0.2,0.1-0.5,0.3-0.7,0.4c-0.3,0.1-0.5,0.2-0.8,0.2c-0.3,0-0.6,0.1-0.8,0.1
				c-0.5,0-1-0.1-1.5-0.3c-0.4-0.2-0.8-0.4-1.1-0.8c-0.3-0.3-0.6-0.8-0.8-1.3c-0.2-0.5-0.3-1.1-0.3-1.7c0-0.5,0.1-1,0.2-1.5
				c0.2-0.5,0.4-0.9,0.7-1.2c0.3-0.3,0.7-0.6,1.1-0.8C349.7,14.9,350.2,14.8,350.8,14.8z M350.8,15.8c-0.6,0-1.2,0.2-1.5,0.6
				c-0.4,0.4-0.6,0.9-0.7,1.5h4.1c0-0.3,0-0.6-0.1-0.9c-0.1-0.3-0.2-0.5-0.4-0.7s-0.4-0.3-0.6-0.4C351.4,15.9,351.1,15.8,350.8,15.8
				z"/>
			<path class="st1" d="M360,16.2c-0.1,0.1-0.2,0.2-0.3,0.2c-0.1,0-0.2,0-0.3-0.1c-0.1-0.1-0.2-0.1-0.3-0.2s-0.3-0.1-0.5-0.2
				c-0.2-0.1-0.4-0.1-0.7-0.1c-0.2,0-0.4,0-0.6,0.1s-0.3,0.1-0.5,0.2c-0.1,0.1-0.2,0.2-0.3,0.3c-0.1,0.1-0.1,0.3-0.1,0.4
				c0,0.2,0.1,0.4,0.2,0.5s0.3,0.2,0.4,0.3c0.2,0.1,0.4,0.2,0.6,0.3c0.2,0.1,0.5,0.1,0.7,0.2c0.2,0.1,0.5,0.2,0.7,0.3
				c0.2,0.1,0.4,0.2,0.6,0.4c0.2,0.2,0.3,0.3,0.4,0.6c0.1,0.2,0.2,0.5,0.2,0.8c0,0.3-0.1,0.7-0.2,1c-0.1,0.3-0.3,0.6-0.6,0.8
				c-0.2,0.2-0.5,0.4-0.9,0.5c-0.4,0.1-0.8,0.2-1.2,0.2c-0.5,0-1-0.1-1.4-0.3c-0.4-0.2-0.8-0.4-1.1-0.7l0.3-0.5
				c0-0.1,0.1-0.1,0.1-0.2c0.1,0,0.1-0.1,0.2-0.1c0.1,0,0.2,0,0.3,0.1c0.1,0.1,0.2,0.1,0.4,0.2s0.3,0.2,0.5,0.2
				c0.2,0.1,0.5,0.1,0.8,0.1c0.3,0,0.5,0,0.7-0.1s0.4-0.2,0.5-0.3c0.1-0.1,0.2-0.2,0.3-0.4c0.1-0.2,0.1-0.3,0.1-0.5
				c0-0.2-0.1-0.4-0.2-0.5c-0.1-0.1-0.3-0.3-0.4-0.4c-0.2-0.1-0.4-0.2-0.6-0.3s-0.5-0.1-0.7-0.2c-0.2-0.1-0.5-0.2-0.7-0.3
				s-0.4-0.2-0.6-0.4c-0.2-0.2-0.3-0.3-0.4-0.6c-0.1-0.2-0.2-0.5-0.2-0.8c0-0.3,0.1-0.6,0.2-0.8c0.1-0.3,0.3-0.5,0.5-0.7
				c0.2-0.2,0.5-0.4,0.8-0.5s0.7-0.2,1.1-0.2c0.5,0,0.9,0.1,1.3,0.2c0.4,0.2,0.7,0.4,1,0.6L360,16.2z"/>
			<path class="st1" d="M367.3,16.3c0,0.1-0.1,0.1-0.1,0.1c0,0-0.1,0-0.2,0c-0.1,0-0.2,0-0.2-0.1c-0.1-0.1-0.2-0.1-0.3-0.2
				c-0.1-0.1-0.3-0.1-0.5-0.2c-0.2-0.1-0.4-0.1-0.7-0.1c-0.4,0-0.7,0.1-1,0.2c-0.3,0.1-0.5,0.3-0.7,0.6s-0.3,0.6-0.4,0.9
				c-0.1,0.4-0.1,0.8-0.1,1.2c0,0.5,0.1,0.9,0.2,1.2c0.1,0.4,0.3,0.7,0.4,0.9c0.2,0.2,0.4,0.4,0.7,0.6c0.3,0.1,0.6,0.2,0.9,0.2
				c0.3,0,0.6,0,0.8-0.1c0.2-0.1,0.4-0.2,0.5-0.3c0.1-0.1,0.3-0.2,0.3-0.3c0.1-0.1,0.2-0.1,0.3-0.1c0.1,0,0.2,0,0.3,0.1l0.4,0.5
				c-0.3,0.4-0.7,0.7-1.2,0.9c-0.5,0.2-1,0.3-1.6,0.3c-0.5,0-0.9-0.1-1.3-0.3c-0.4-0.2-0.8-0.4-1.1-0.8c-0.3-0.3-0.5-0.7-0.7-1.2
				c-0.2-0.5-0.3-1-0.3-1.7c0-0.6,0.1-1.1,0.2-1.6c0.2-0.5,0.4-0.9,0.7-1.2c0.3-0.3,0.7-0.6,1.1-0.8c0.4-0.2,1-0.3,1.5-0.3
				c0.5,0,1,0.1,1.4,0.3c0.4,0.2,0.8,0.4,1.1,0.7L367.3,16.3z"/>
			<path class="st1" d="M370.3,15v4.8c0,0.6,0.1,1,0.4,1.3c0.3,0.3,0.7,0.5,1.2,0.5c0.4,0,0.8-0.1,1.1-0.3s0.7-0.4,1-0.8V15h1.3v7.6
				h-0.8c-0.2,0-0.3-0.1-0.4-0.3l-0.1-0.8c-0.3,0.4-0.7,0.7-1.1,0.9s-0.9,0.3-1.4,0.3c-0.4,0-0.8-0.1-1.1-0.2
				c-0.3-0.1-0.6-0.3-0.8-0.6c-0.2-0.2-0.4-0.6-0.5-0.9s-0.2-0.7-0.2-1.2V15H370.3z"/>
			<path class="st1" d="M377.5,22.6v-11h1.3v4.5c0.3-0.4,0.7-0.7,1.1-0.9c0.4-0.2,0.9-0.3,1.4-0.3c0.4,0,0.8,0.1,1.2,0.2
				c0.4,0.2,0.7,0.4,0.9,0.7c0.2,0.3,0.4,0.7,0.6,1.2s0.2,1,0.2,1.7c0,0.6-0.1,1.1-0.2,1.6c-0.2,0.5-0.4,0.9-0.6,1.3
				c-0.3,0.4-0.6,0.6-1,0.8c-0.4,0.2-0.9,0.3-1.4,0.3c-0.5,0-0.9-0.1-1.2-0.3c-0.3-0.2-0.6-0.5-0.9-0.8l-0.1,0.7
				c0,0.2-0.2,0.3-0.3,0.3H377.5z M380.9,15.9c-0.4,0-0.8,0.1-1.1,0.3c-0.3,0.2-0.6,0.5-0.9,0.8v3.7c0.2,0.3,0.5,0.6,0.8,0.7
				s0.6,0.2,1,0.2c0.7,0,1.3-0.3,1.6-0.8c0.4-0.5,0.6-1.2,0.6-2.2c0-0.5,0-0.9-0.1-1.3c-0.1-0.4-0.2-0.6-0.4-0.9s-0.4-0.4-0.6-0.5
				C381.5,16,381.2,15.9,380.9,15.9z"/>
			<path class="st1" d="M385.9,22.6V15h0.8c0.1,0,0.2,0,0.3,0.1c0.1,0.1,0.1,0.1,0.1,0.3l0.1,1.2c0.3-0.5,0.6-0.9,1-1.2
				s0.8-0.4,1.3-0.4c0.2,0,0.4,0,0.6,0.1s0.3,0.1,0.5,0.2l-0.2,1c0,0.1-0.1,0.2-0.2,0.2c-0.1,0-0.2,0-0.3-0.1
				c-0.1,0-0.3-0.1-0.6-0.1c-0.5,0-0.9,0.1-1.2,0.4s-0.6,0.7-0.8,1.2v4.8H385.9z"/>
			<path class="st1" d="M395,11.7l-1.7,1.9c-0.1,0.1-0.1,0.1-0.2,0.2c-0.1,0-0.2,0-0.3,0h-0.8l1.1-1.8c0.1-0.1,0.1-0.2,0.2-0.3
				c0.1-0.1,0.2-0.1,0.4-0.1H395z M393.4,15v7.6h-1.3V15H393.4z"/>
			<path class="st1" d="M407.7,22.6h-1.1c-0.1,0-0.2,0-0.3-0.1c-0.1-0.1-0.1-0.1-0.2-0.2l-1-2.6h-4.8l-1,2.6c0,0.1-0.1,0.2-0.2,0.2
				c-0.1,0.1-0.2,0.1-0.3,0.1h-1.1l4.3-10.7h1.5L407.7,22.6z M400.7,18.6h4l-1.7-4.4c-0.1-0.3-0.2-0.6-0.3-1
				c-0.1,0.2-0.1,0.4-0.2,0.6c-0.1,0.2-0.1,0.3-0.2,0.5L400.7,18.6z"/>
			<path class="st1" d="M408.8,22.6V15h0.8c0.2,0,0.3,0.1,0.4,0.3l0.1,0.8c0.3-0.4,0.7-0.7,1.1-0.9c0.4-0.2,0.9-0.3,1.4-0.3
				c0.4,0,0.8,0.1,1.1,0.2s0.6,0.3,0.8,0.6c0.2,0.3,0.4,0.6,0.5,0.9c0.1,0.4,0.2,0.7,0.2,1.2v4.8h-1.3v-4.8c0-0.6-0.1-1-0.4-1.3
				s-0.7-0.5-1.2-0.5c-0.4,0-0.8,0.1-1.1,0.3c-0.3,0.2-0.7,0.4-0.9,0.8v5.6H408.8z"/>
			<path class="st1" d="M422.4,16.3c0,0.1-0.1,0.1-0.1,0.1c0,0-0.1,0-0.2,0c-0.1,0-0.2,0-0.2-0.1c-0.1-0.1-0.2-0.1-0.3-0.2
				c-0.1-0.1-0.3-0.1-0.5-0.2c-0.2-0.1-0.4-0.1-0.7-0.1c-0.4,0-0.7,0.1-1,0.2c-0.3,0.1-0.5,0.3-0.7,0.6s-0.3,0.6-0.4,0.9
				c-0.1,0.4-0.1,0.8-0.1,1.2c0,0.5,0.1,0.9,0.2,1.2c0.1,0.4,0.3,0.7,0.4,0.9c0.2,0.2,0.4,0.4,0.7,0.6c0.3,0.1,0.6,0.2,0.9,0.2
				c0.3,0,0.6,0,0.8-0.1c0.2-0.1,0.4-0.2,0.5-0.3c0.1-0.1,0.3-0.2,0.3-0.3c0.1-0.1,0.2-0.1,0.3-0.1c0.1,0,0.2,0,0.3,0.1l0.4,0.5
				c-0.3,0.4-0.7,0.7-1.2,0.9c-0.5,0.2-1,0.3-1.6,0.3c-0.5,0-0.9-0.1-1.3-0.3c-0.4-0.2-0.8-0.4-1.1-0.8c-0.3-0.3-0.5-0.7-0.7-1.2
				c-0.2-0.5-0.3-1-0.3-1.7c0-0.6,0.1-1.1,0.2-1.6c0.2-0.5,0.4-0.9,0.7-1.2c0.3-0.3,0.7-0.6,1.1-0.8c0.4-0.2,1-0.3,1.5-0.3
				c0.5,0,1,0.1,1.4,0.3c0.4,0.2,0.8,0.4,1.1,0.7L422.4,16.3z"/>
			<path class="st1" d="M424.2,22.6v-11h1.3V16c0.3-0.3,0.7-0.6,1.1-0.8c0.4-0.2,0.9-0.3,1.4-0.3c0.4,0,0.8,0.1,1.1,0.2
				s0.6,0.3,0.8,0.6c0.2,0.3,0.4,0.6,0.5,0.9c0.1,0.4,0.2,0.7,0.2,1.2v4.8h-1.3v-4.8c0-0.6-0.1-1-0.4-1.3s-0.7-0.5-1.2-0.5
				c-0.4,0-0.8,0.1-1.1,0.3c-0.3,0.2-0.7,0.4-0.9,0.8v5.6H424.2z"/>
			<path class="st1" d="M434.3,12.6c0,0.1,0,0.3-0.1,0.4c-0.1,0.1-0.1,0.2-0.2,0.3c-0.1,0.1-0.2,0.2-0.3,0.2c-0.1,0-0.2,0.1-0.4,0.1
				s-0.3,0-0.4-0.1c-0.1-0.1-0.2-0.1-0.3-0.2c-0.1-0.1-0.2-0.2-0.2-0.3c0-0.1-0.1-0.2-0.1-0.4s0-0.3,0.1-0.4c0-0.1,0.1-0.2,0.2-0.3
				c0.1-0.1,0.2-0.2,0.3-0.2c0.1,0,0.2-0.1,0.4-0.1s0.3,0,0.4,0.1c0.1,0.1,0.2,0.1,0.3,0.2c0.1,0.1,0.2,0.2,0.2,0.3
				C434.3,12.3,434.3,12.5,434.3,12.6z M434,15v7.6h-1.3V15H434z"/>
			<path class="st1" d="M436.4,25.1V15h0.8c0.2,0,0.3,0.1,0.4,0.3l0.1,0.9c0.3-0.4,0.7-0.7,1.1-1c0.4-0.2,0.9-0.4,1.4-0.4
				c0.4,0,0.8,0.1,1.2,0.3c0.4,0.2,0.7,0.4,0.9,0.7c0.2,0.3,0.4,0.7,0.6,1.2s0.2,1,0.2,1.7c0,0.6-0.1,1.1-0.2,1.6
				c-0.1,0.5-0.4,0.9-0.6,1.3c-0.3,0.4-0.6,0.6-1,0.8c-0.4,0.2-0.9,0.3-1.4,0.3c-0.5,0-0.9-0.1-1.2-0.2c-0.3-0.2-0.6-0.4-0.9-0.7
				v3.4H436.4z M439.8,15.9c-0.4,0-0.8,0.1-1.1,0.3c-0.3,0.2-0.6,0.5-0.9,0.8v3.7c0.2,0.3,0.5,0.6,0.8,0.7c0.3,0.1,0.6,0.2,1,0.2
				c0.7,0,1.2-0.3,1.6-0.8s0.6-1.2,0.6-2.2c0-0.5,0-0.9-0.1-1.3s-0.2-0.6-0.4-0.9s-0.4-0.4-0.6-0.5C440.3,16,440.1,15.9,439.8,15.9z
				"/>
			<path class="st1" d="M445.8,15v4.8c0,0.6,0.1,1,0.4,1.3c0.3,0.3,0.7,0.5,1.2,0.5c0.4,0,0.8-0.1,1.1-0.3s0.7-0.4,1-0.8V15h1.3v7.6
				H450c-0.2,0-0.3-0.1-0.4-0.3l-0.1-0.8c-0.3,0.4-0.7,0.7-1.1,0.9s-0.9,0.3-1.4,0.3c-0.4,0-0.8-0.1-1.1-0.2
				c-0.3-0.1-0.6-0.3-0.8-0.6c-0.2-0.2-0.4-0.6-0.5-0.9s-0.2-0.7-0.2-1.2V15H445.8z"/>
			<path class="st1" d="M453,22.6V15h0.8c0.1,0,0.2,0,0.3,0.1c0.1,0.1,0.1,0.1,0.1,0.3l0.1,1.2c0.3-0.5,0.6-0.9,1-1.2
				s0.8-0.4,1.3-0.4c0.2,0,0.4,0,0.6,0.1s0.3,0.1,0.5,0.2l-0.2,1c0,0.1-0.1,0.2-0.2,0.2c-0.1,0-0.2,0-0.3-0.1
				c-0.1,0-0.3-0.1-0.6-0.1c-0.5,0-0.9,0.1-1.2,0.4s-0.6,0.7-0.8,1.2v4.8H453z"/>
			<path class="st1" d="M464.3,22.6h-0.6c-0.1,0-0.2,0-0.3-0.1s-0.1-0.1-0.2-0.3l-0.2-0.7c-0.2,0.2-0.4,0.3-0.6,0.5
				s-0.4,0.3-0.6,0.4s-0.4,0.2-0.7,0.2s-0.5,0.1-0.8,0.1c-0.3,0-0.6,0-0.8-0.1c-0.3-0.1-0.5-0.2-0.7-0.4c-0.2-0.2-0.3-0.4-0.5-0.6
				c-0.1-0.3-0.2-0.6-0.2-0.9c0-0.3,0.1-0.6,0.2-0.9c0.2-0.3,0.4-0.5,0.8-0.7c0.4-0.2,0.8-0.4,1.4-0.5c0.6-0.1,1.3-0.2,2.2-0.2v-0.6
				c0-0.6-0.1-1-0.4-1.3c-0.3-0.3-0.6-0.5-1.1-0.5c-0.3,0-0.6,0-0.8,0.1c-0.2,0.1-0.4,0.2-0.6,0.3c-0.2,0.1-0.3,0.2-0.4,0.3
				c-0.1,0.1-0.2,0.1-0.3,0.1c-0.1,0-0.2,0-0.2-0.1c-0.1,0-0.1-0.1-0.2-0.2l-0.2-0.4c0.4-0.4,0.9-0.7,1.4-0.9c0.5-0.2,1-0.3,1.6-0.3
				c0.4,0,0.8,0.1,1.1,0.2s0.6,0.3,0.8,0.6c0.2,0.2,0.4,0.6,0.5,0.9c0.1,0.4,0.2,0.7,0.2,1.2V22.6z M460.9,21.7c0.2,0,0.5,0,0.6-0.1
				c0.2,0,0.4-0.1,0.6-0.2c0.2-0.1,0.3-0.2,0.5-0.3s0.3-0.3,0.5-0.4v-1.6c-0.6,0-1.1,0-1.6,0.1s-0.8,0.2-1,0.3
				c-0.3,0.1-0.5,0.3-0.6,0.4c-0.1,0.2-0.2,0.4-0.2,0.6c0,0.2,0,0.4,0.1,0.5c0.1,0.1,0.2,0.3,0.3,0.4c0.1,0.1,0.2,0.2,0.4,0.2
				C460.5,21.7,460.7,21.7,460.9,21.7z"/>
			<path class="st1" d="M471.5,16.3c0,0.1-0.1,0.1-0.1,0.1c0,0-0.1,0-0.2,0c-0.1,0-0.2,0-0.2-0.1c-0.1-0.1-0.2-0.1-0.3-0.2
				c-0.1-0.1-0.3-0.1-0.5-0.2c-0.2-0.1-0.4-0.1-0.7-0.1c-0.4,0-0.7,0.1-1,0.2c-0.3,0.1-0.5,0.3-0.7,0.6s-0.3,0.6-0.4,0.9
				c-0.1,0.4-0.1,0.8-0.1,1.2c0,0.5,0.1,0.9,0.2,1.2c0.1,0.4,0.3,0.7,0.4,0.9c0.2,0.2,0.4,0.4,0.7,0.6c0.3,0.1,0.6,0.2,0.9,0.2
				c0.3,0,0.6,0,0.8-0.1c0.2-0.1,0.4-0.2,0.5-0.3c0.1-0.1,0.3-0.2,0.3-0.3c0.1-0.1,0.2-0.1,0.3-0.1c0.1,0,0.2,0,0.3,0.1l0.4,0.5
				c-0.3,0.4-0.7,0.7-1.2,0.9c-0.5,0.2-1,0.3-1.6,0.3c-0.5,0-0.9-0.1-1.3-0.3c-0.4-0.2-0.8-0.4-1.1-0.8c-0.3-0.3-0.5-0.7-0.7-1.2
				c-0.2-0.5-0.3-1-0.3-1.7c0-0.6,0.1-1.1,0.2-1.6c0.2-0.5,0.4-0.9,0.7-1.2c0.3-0.3,0.7-0.6,1.1-0.8c0.4-0.2,1-0.3,1.5-0.3
				c0.5,0,1,0.1,1.4,0.3c0.4,0.2,0.8,0.4,1.1,0.7L471.5,16.3z"/>
			<path class="st1" d="M481.6,22.6c-0.2,0-0.3-0.1-0.4-0.3l-0.1-0.9c-0.3,0.4-0.7,0.7-1.1,0.9c-0.4,0.2-0.9,0.4-1.4,0.4
				c-0.4,0-0.8-0.1-1.2-0.3c-0.4-0.2-0.7-0.4-0.9-0.7c-0.2-0.3-0.4-0.7-0.6-1.2c-0.1-0.5-0.2-1-0.2-1.7c0-0.6,0.1-1.1,0.2-1.6
				c0.2-0.5,0.4-0.9,0.6-1.3c0.3-0.4,0.6-0.6,1-0.8c0.4-0.2,0.9-0.3,1.4-0.3c0.5,0,0.9,0.1,1.2,0.2c0.3,0.2,0.6,0.4,0.9,0.7v-4.2
				h1.3v11H481.6z M479,21.6c0.4,0,0.8-0.1,1.1-0.3c0.3-0.2,0.6-0.5,0.9-0.8v-3.7c-0.2-0.3-0.5-0.6-0.8-0.7c-0.3-0.1-0.6-0.2-1-0.2
				c-0.7,0-1.3,0.3-1.6,0.8c-0.4,0.5-0.6,1.2-0.6,2.2c0,0.5,0,0.9,0.1,1.3c0.1,0.4,0.2,0.6,0.4,0.9s0.4,0.4,0.6,0.5
				C478.4,21.5,478.7,21.6,479,21.6z"/>
			<path class="st1" d="M487.6,14.8c0.5,0,0.9,0.1,1.3,0.2c0.4,0.2,0.7,0.4,1,0.7c0.3,0.3,0.5,0.6,0.7,1.1c0.2,0.4,0.2,0.9,0.2,1.4
				c0,0.2,0,0.4-0.1,0.4c0,0.1-0.1,0.1-0.3,0.1h-5.1c0,0.5,0.1,0.9,0.2,1.3c0.1,0.4,0.3,0.7,0.5,0.9c0.2,0.2,0.5,0.4,0.8,0.5
				c0.3,0.1,0.6,0.2,1,0.2c0.3,0,0.6,0,0.9-0.1s0.5-0.2,0.6-0.3s0.3-0.2,0.4-0.3c0.1-0.1,0.2-0.1,0.3-0.1c0.1,0,0.2,0,0.3,0.1
				l0.4,0.5c-0.2,0.2-0.4,0.4-0.6,0.5c-0.2,0.1-0.5,0.3-0.7,0.4c-0.3,0.1-0.5,0.2-0.8,0.2c-0.3,0-0.6,0.1-0.8,0.1
				c-0.5,0-1-0.1-1.5-0.3c-0.4-0.2-0.8-0.4-1.1-0.8c-0.3-0.3-0.6-0.8-0.8-1.3c-0.2-0.5-0.3-1.1-0.3-1.7c0-0.5,0.1-1,0.2-1.5
				c0.2-0.5,0.4-0.9,0.7-1.2c0.3-0.3,0.7-0.6,1.1-0.8C486.6,14.9,487.1,14.8,487.6,14.8z M487.7,15.8c-0.6,0-1.2,0.2-1.5,0.6
				c-0.4,0.4-0.6,0.9-0.7,1.5h4.1c0-0.3,0-0.6-0.1-0.9c-0.1-0.3-0.2-0.5-0.4-0.7s-0.4-0.3-0.6-0.4C488.3,15.9,488,15.8,487.7,15.8z"
				/>
			<path class="st1" d="M496.9,16.2c-0.1,0.1-0.2,0.2-0.3,0.2c-0.1,0-0.2,0-0.3-0.1c-0.1-0.1-0.2-0.1-0.3-0.2s-0.3-0.1-0.5-0.2
				c-0.2-0.1-0.4-0.1-0.7-0.1c-0.2,0-0.4,0-0.6,0.1s-0.3,0.1-0.5,0.2c-0.1,0.1-0.2,0.2-0.3,0.3c-0.1,0.1-0.1,0.3-0.1,0.4
				c0,0.2,0.1,0.4,0.2,0.5s0.3,0.2,0.4,0.3c0.2,0.1,0.4,0.2,0.6,0.3c0.2,0.1,0.5,0.1,0.7,0.2c0.2,0.1,0.5,0.2,0.7,0.3
				c0.2,0.1,0.4,0.2,0.6,0.4c0.2,0.2,0.3,0.3,0.4,0.6c0.1,0.2,0.2,0.5,0.2,0.8c0,0.3-0.1,0.7-0.2,1c-0.1,0.3-0.3,0.6-0.6,0.8
				c-0.2,0.2-0.5,0.4-0.9,0.5c-0.4,0.1-0.8,0.2-1.2,0.2c-0.5,0-1-0.1-1.4-0.3c-0.4-0.2-0.8-0.4-1.1-0.7l0.3-0.5
				c0-0.1,0.1-0.1,0.1-0.2c0.1,0,0.1-0.1,0.2-0.1c0.1,0,0.2,0,0.3,0.1c0.1,0.1,0.2,0.1,0.4,0.2s0.3,0.2,0.5,0.2
				c0.2,0.1,0.5,0.1,0.8,0.1c0.3,0,0.5,0,0.7-0.1s0.4-0.2,0.5-0.3c0.1-0.1,0.2-0.2,0.3-0.4c0.1-0.2,0.1-0.3,0.1-0.5
				c0-0.2-0.1-0.4-0.2-0.5c-0.1-0.1-0.3-0.3-0.4-0.4c-0.2-0.1-0.4-0.2-0.6-0.3s-0.5-0.1-0.7-0.2c-0.2-0.1-0.5-0.2-0.7-0.3
				s-0.4-0.2-0.6-0.4c-0.2-0.2-0.3-0.3-0.4-0.6c-0.1-0.2-0.2-0.5-0.2-0.8c0-0.3,0.1-0.6,0.2-0.8c0.1-0.3,0.3-0.5,0.5-0.7
				c0.2-0.2,0.5-0.4,0.8-0.5s0.7-0.2,1.1-0.2c0.5,0,0.9,0.1,1.3,0.2c0.4,0.2,0.7,0.4,1,0.6L496.9,16.2z"/>
			<path class="st1" d="M504.4,22.6c-0.2,0-0.3-0.1-0.4-0.3l-0.1-0.9c-0.3,0.4-0.7,0.7-1.1,0.9c-0.4,0.2-0.9,0.4-1.4,0.4
				c-0.4,0-0.8-0.1-1.2-0.3c-0.4-0.2-0.7-0.4-0.9-0.7c-0.2-0.3-0.4-0.7-0.6-1.2c-0.1-0.5-0.2-1-0.2-1.7c0-0.6,0.1-1.1,0.2-1.6
				c0.2-0.5,0.4-0.9,0.6-1.3c0.3-0.4,0.6-0.6,1-0.8c0.4-0.2,0.9-0.3,1.4-0.3c0.5,0,0.9,0.1,1.2,0.2c0.3,0.2,0.6,0.4,0.9,0.7v-4.2
				h1.3v11H504.4z M501.8,21.6c0.4,0,0.8-0.1,1.1-0.3s0.6-0.5,0.9-0.8v-3.7c-0.2-0.3-0.5-0.6-0.8-0.7c-0.3-0.1-0.6-0.2-1-0.2
				c-0.7,0-1.3,0.3-1.6,0.8c-0.4,0.5-0.6,1.2-0.6,2.2c0,0.5,0,0.9,0.1,1.3c0.1,0.4,0.2,0.6,0.4,0.9c0.2,0.2,0.4,0.4,0.6,0.5
				C501.2,21.5,501.5,21.6,501.8,21.6z"/>
			<path class="st1" d="M510.4,14.8c0.5,0,0.9,0.1,1.3,0.2c0.4,0.2,0.7,0.4,1,0.7c0.3,0.3,0.5,0.6,0.7,1.1s0.2,0.9,0.2,1.4
				c0,0.2,0,0.4-0.1,0.4c0,0.1-0.1,0.1-0.3,0.1h-5.1c0,0.5,0.1,0.9,0.2,1.3c0.1,0.4,0.3,0.7,0.5,0.9c0.2,0.2,0.5,0.4,0.8,0.5
				c0.3,0.1,0.6,0.2,1,0.2c0.3,0,0.6,0,0.9-0.1s0.5-0.2,0.6-0.3c0.2-0.1,0.3-0.2,0.4-0.3c0.1-0.1,0.2-0.1,0.3-0.1
				c0.1,0,0.2,0,0.3,0.1l0.4,0.5c-0.2,0.2-0.4,0.4-0.6,0.5c-0.2,0.1-0.5,0.3-0.7,0.4c-0.3,0.1-0.5,0.2-0.8,0.2
				c-0.3,0-0.6,0.1-0.8,0.1c-0.5,0-1-0.1-1.5-0.3c-0.4-0.2-0.8-0.4-1.1-0.8s-0.6-0.8-0.8-1.3s-0.3-1.1-0.3-1.7c0-0.5,0.1-1,0.2-1.5
				c0.2-0.5,0.4-0.9,0.7-1.2c0.3-0.3,0.7-0.6,1.1-0.8S509.9,14.8,510.4,14.8z M510.4,15.8c-0.6,0-1.2,0.2-1.5,0.6s-0.6,0.9-0.7,1.5
				h4.1c0-0.3,0-0.6-0.1-0.9c-0.1-0.3-0.2-0.5-0.4-0.7c-0.2-0.2-0.4-0.3-0.6-0.4C511,15.9,510.7,15.8,510.4,15.8z"/>
			<path class="st1" d="M523.7,22.6h-0.6c-0.1,0-0.2,0-0.3-0.1s-0.1-0.1-0.2-0.3l-0.2-0.7c-0.2,0.2-0.4,0.3-0.6,0.5
				c-0.2,0.1-0.4,0.3-0.6,0.4c-0.2,0.1-0.4,0.2-0.7,0.2c-0.2,0-0.5,0.1-0.8,0.1c-0.3,0-0.6,0-0.8-0.1c-0.3-0.1-0.5-0.2-0.7-0.4
				c-0.2-0.2-0.3-0.4-0.5-0.6c-0.1-0.3-0.2-0.6-0.2-0.9c0-0.3,0.1-0.6,0.2-0.9c0.2-0.3,0.4-0.5,0.8-0.7c0.4-0.2,0.8-0.4,1.4-0.5
				c0.6-0.1,1.3-0.2,2.2-0.2v-0.6c0-0.6-0.1-1-0.4-1.3c-0.3-0.3-0.6-0.5-1.1-0.5c-0.3,0-0.6,0-0.8,0.1c-0.2,0.1-0.4,0.2-0.6,0.3
				c-0.2,0.1-0.3,0.2-0.4,0.3c-0.1,0.1-0.2,0.1-0.3,0.1c-0.1,0-0.2,0-0.2-0.1c-0.1,0-0.1-0.1-0.2-0.2l-0.2-0.4
				c0.4-0.4,0.9-0.7,1.4-0.9c0.5-0.2,1-0.3,1.6-0.3c0.4,0,0.8,0.1,1.1,0.2s0.6,0.3,0.8,0.6c0.2,0.2,0.4,0.6,0.5,0.9
				c0.1,0.4,0.2,0.7,0.2,1.2V22.6z M520.3,21.7c0.2,0,0.4,0,0.6-0.1c0.2,0,0.4-0.1,0.6-0.2c0.2-0.1,0.3-0.2,0.5-0.3
				c0.2-0.1,0.3-0.3,0.5-0.4v-1.6c-0.6,0-1.1,0-1.6,0.1s-0.8,0.2-1,0.3c-0.3,0.1-0.5,0.3-0.6,0.4c-0.1,0.2-0.2,0.4-0.2,0.6
				c0,0.2,0,0.4,0.1,0.5c0.1,0.1,0.2,0.3,0.3,0.4c0.1,0.1,0.2,0.2,0.4,0.2S520.1,21.7,520.3,21.7z"/>
			<path class="st1" d="M531.9,15v10.2h-1.3v-3.7c-0.3,0.4-0.7,0.7-1.1,0.9c-0.4,0.2-0.9,0.3-1.4,0.3c-0.4,0-0.8-0.1-1.2-0.3
				s-0.7-0.4-0.9-0.7c-0.2-0.3-0.4-0.7-0.6-1.2c-0.1-0.5-0.2-1-0.2-1.7c0-0.6,0.1-1.1,0.2-1.6c0.2-0.5,0.4-0.9,0.7-1.3
				c0.3-0.4,0.6-0.6,1-0.8c0.4-0.2,0.9-0.3,1.4-0.3c0.5,0,0.9,0.1,1.2,0.3c0.3,0.2,0.6,0.4,0.9,0.7l0.1-0.6c0.1-0.2,0.2-0.3,0.4-0.3
				H531.9z M528.5,21.6c0.4,0,0.8-0.1,1.1-0.3s0.6-0.5,0.9-0.8v-3.7c-0.2-0.3-0.5-0.5-0.8-0.7c-0.3-0.1-0.6-0.2-1-0.2
				c-0.7,0-1.3,0.3-1.6,0.8c-0.4,0.5-0.6,1.2-0.6,2.2c0,0.5,0,0.9,0.1,1.3c0.1,0.4,0.2,0.6,0.4,0.9c0.2,0.2,0.4,0.4,0.6,0.5
				C527.9,21.5,528.2,21.6,528.5,21.6z"/>
			<path class="st1" d="M535.3,15v4.8c0,0.6,0.1,1,0.4,1.3c0.3,0.3,0.7,0.5,1.2,0.5c0.4,0,0.8-0.1,1.1-0.3c0.3-0.2,0.7-0.4,1-0.8V15
				h1.3v7.6h-0.8c-0.2,0-0.3-0.1-0.4-0.3l-0.1-0.8c-0.3,0.4-0.7,0.7-1.1,0.9s-0.9,0.3-1.4,0.3c-0.4,0-0.8-0.1-1.1-0.2
				c-0.3-0.1-0.6-0.3-0.8-0.6c-0.2-0.2-0.4-0.6-0.5-0.9s-0.2-0.7-0.2-1.2V15H535.3z"/>
			<path class="st1" d="M545.5,11.7l-1.7,1.9c-0.1,0.1-0.1,0.1-0.2,0.2c-0.1,0-0.2,0-0.3,0h-0.8l1.1-1.8c0.1-0.1,0.1-0.2,0.2-0.3
				c0.1-0.1,0.2-0.1,0.4-0.1H545.5z M544,15v7.6h-1.3V15H544z"/>
		</g>
		<g>
			<g>
				<g>
					<g>
						<g>
							<circle class="st1" cx="559.9" cy="12.6" r="0.8"/>
							<circle class="st1" cx="570.2" cy="14.4" r="0.8"/>
							<path class="st1" d="M563.9,7.4V6.6h4.8v2c0,0.9,0.7,1.6,1.6,1.6c0.6,0,1.1-0.3,1.4-0.9l0.4-0.7l4.3,2l-7.6,16.2l0,0v0h-4.8
								v-0.8c0-0.9-0.7-1.6-1.6-1.6c-0.9,0-1.6,0.7-1.6,1.6V27h-4.8V6.6h4.8v0.8c0,0.9,0.7,1.6,1.6,1.6S563.9,8.3,563.9,7.4z
								 M572,16.1c-0.4-0.2-0.5-0.7-0.4-1c0.2-0.4,0.6-0.6,1-0.4l1.5-3.2l-1.6-0.7c-0.6,0.7-1.5,1.1-2.4,1.1c-0.6,0-1.1-0.2-1.6-0.4
								v11.8L572,16.1z M559.2,8.2h-1.7v3.6c0.4,0,0.8,0.4,0.8,0.8c0,0.4-0.4,0.8-0.8,0.8v12h1.7c0.4-1.4,1.6-2.4,3.1-2.4
								c1.5,0,2.7,1,3.1,2.4h1.7v-12c-0.4,0-0.8-0.4-0.8-0.8c0-0.4,0.4-0.8,0.8-0.8V8.2h-1.7c-0.4,1.4-1.6,2.4-3.1,2.4
								C560.8,10.6,559.6,9.6,559.2,8.2z"/>
							<circle class="st1" cx="564.7" cy="12.6" r="0.8"/>
							<circle class="st1" cx="562.3" cy="12.6" r="0.8"/>
						</g>
					</g>
				</g>
			</g>
			<g>
				<path class="st1" d="M594.6,11.8v2h-3.1v9H589v-9h-3.1v-2H594.6z"/>
				<path class="st1" d="M601.5,22.8h-2.6v-11h2.6V22.8z"/>
				<path class="st1" d="M613.9,19.9c0.1,0,0.1,0,0.2,0c0.1,0,0.1,0.1,0.2,0.1l1,1.1c-0.4,0.6-1,1-1.7,1.3c-0.7,0.3-1.5,0.4-2.4,0.4
					c-0.8,0-1.6-0.1-2.2-0.4c-0.7-0.3-1.2-0.7-1.7-1.2c-0.5-0.5-0.8-1.1-1.1-1.8c-0.2-0.7-0.4-1.4-0.4-2.2c0-0.8,0.1-1.6,0.4-2.3
					c0.3-0.7,0.7-1.3,1.2-1.8c0.5-0.5,1.1-0.9,1.8-1.2c0.7-0.3,1.5-0.4,2.3-0.4c0.4,0,0.8,0,1.2,0.1c0.4,0.1,0.7,0.2,1,0.3
					c0.3,0.1,0.6,0.3,0.9,0.5c0.3,0.2,0.5,0.4,0.7,0.6l-0.9,1.2c-0.1,0.1-0.1,0.1-0.2,0.2c-0.1,0.1-0.2,0.1-0.3,0.1
					c-0.1,0-0.2,0-0.3-0.1s-0.2-0.1-0.3-0.1c-0.1-0.1-0.2-0.1-0.3-0.2c-0.1-0.1-0.2-0.1-0.4-0.2c-0.1-0.1-0.3-0.1-0.5-0.1
					c-0.2,0-0.4-0.1-0.7-0.1c-0.5,0-0.9,0.1-1.3,0.2c-0.4,0.2-0.7,0.4-1,0.7c-0.3,0.3-0.5,0.7-0.6,1.1c-0.2,0.4-0.2,0.9-0.2,1.5
					c0,0.6,0.1,1.1,0.2,1.5c0.2,0.4,0.4,0.8,0.6,1.1c0.3,0.3,0.6,0.5,0.9,0.7c0.4,0.2,0.7,0.2,1.1,0.2c0.2,0,0.4,0,0.6,0
					c0.2,0,0.4-0.1,0.5-0.1c0.2-0.1,0.3-0.1,0.5-0.2c0.1-0.1,0.3-0.2,0.4-0.3c0.1-0.1,0.1-0.1,0.2-0.1
					C613.8,19.9,613.9,19.9,613.9,19.9z"/>
				<path class="st1" d="M622.1,16.2h0.4c0.4,0,0.6-0.1,0.8-0.4l2.5-3.6c0.1-0.2,0.3-0.3,0.5-0.4c0.2-0.1,0.4-0.1,0.6-0.1h2.2
					l-3.3,4.5c-0.1,0.2-0.2,0.3-0.4,0.4s-0.3,0.2-0.4,0.3c0.2,0.1,0.4,0.2,0.5,0.3c0.2,0.1,0.3,0.3,0.4,0.5l3.3,5.1h-2.3
					c-0.1,0-0.3,0-0.4,0c-0.1,0-0.2-0.1-0.3-0.1c-0.1,0-0.1-0.1-0.2-0.1c-0.1-0.1-0.1-0.1-0.2-0.2l-2.5-3.8
					c-0.1-0.1-0.2-0.2-0.3-0.3c-0.1-0.1-0.3-0.1-0.6-0.1h-0.6v4.7h-2.6v-11h2.6V16.2z"/>
				<path class="st1" d="M640.4,11.8v2h-4.5v2.6h3.5v1.9h-3.5v2.6h4.5v2h-7.1v-11H640.4z"/>
				<path class="st1" d="M652.9,11.8v2h-3.1v9h-2.6v-9h-3.1v-2H652.9z"/>
				<path class="st1" d="M663.1,14c-0.1,0.1-0.2,0.2-0.2,0.3c-0.1,0.1-0.2,0.1-0.3,0.1c-0.1,0-0.2,0-0.4-0.1
					c-0.1-0.1-0.3-0.2-0.5-0.2c-0.2-0.1-0.4-0.2-0.6-0.2c-0.2-0.1-0.5-0.1-0.7-0.1c-0.5,0-0.8,0.1-1.1,0.3c-0.2,0.2-0.4,0.5-0.4,0.8
					c0,0.2,0.1,0.4,0.2,0.6c0.1,0.1,0.3,0.3,0.6,0.4c0.2,0.1,0.5,0.2,0.8,0.3c0.3,0.1,0.6,0.2,0.9,0.3c0.3,0.1,0.6,0.2,0.9,0.4
					c0.3,0.1,0.6,0.3,0.8,0.6c0.2,0.2,0.4,0.5,0.6,0.8c0.1,0.3,0.2,0.7,0.2,1.2c0,0.5-0.1,1-0.3,1.4c-0.2,0.4-0.4,0.8-0.8,1.2
					c-0.3,0.3-0.7,0.6-1.2,0.8c-0.5,0.2-1,0.3-1.7,0.3c-0.3,0-0.7,0-1-0.1c-0.4-0.1-0.7-0.2-1-0.3c-0.3-0.1-0.6-0.3-0.9-0.5
					c-0.3-0.2-0.5-0.4-0.8-0.6l0.8-1.2c0.1-0.1,0.1-0.2,0.2-0.2c0.1-0.1,0.2-0.1,0.3-0.1c0.2,0,0.3,0,0.5,0.1
					c0.2,0.1,0.3,0.2,0.5,0.3s0.4,0.2,0.7,0.3c0.3,0.1,0.5,0.1,0.9,0.1c0.5,0,0.8-0.1,1.1-0.3c0.3-0.2,0.4-0.5,0.4-1
					c0-0.3-0.1-0.5-0.2-0.6c-0.1-0.2-0.3-0.3-0.6-0.4c-0.2-0.1-0.5-0.2-0.8-0.3c-0.3-0.1-0.6-0.2-0.9-0.3c-0.3-0.1-0.6-0.2-0.9-0.4
					c-0.3-0.1-0.6-0.3-0.8-0.6c-0.2-0.2-0.4-0.5-0.6-0.9c-0.1-0.4-0.2-0.8-0.2-1.3c0-0.4,0.1-0.8,0.2-1.2c0.2-0.4,0.4-0.7,0.7-1.1
					c0.3-0.3,0.7-0.6,1.2-0.7c0.5-0.2,1-0.3,1.6-0.3c0.3,0,0.7,0,1,0.1c0.3,0.1,0.6,0.1,0.9,0.2c0.3,0.1,0.6,0.2,0.8,0.4
					c0.2,0.1,0.5,0.3,0.7,0.5L663.1,14z"/>
			</g>
		</g>
	</g>
</g>
</svg>
