<?xml version="1.0" standalone="no"?>
<!DOCTYPE svg PUBLIC "-//W3C//DTD SVG 20010904//EN"
 "http://www.w3.org/TR/2001/REC-SVG-20010904/DTD/svg10.dtd">
<svg version="1.0" xmlns="http://www.w3.org/2000/svg"
 width="700.000000pt" height="700.000000pt" viewBox="0 0 700.000000 700.000000"
 preserveAspectRatio="xMidYMid meet">
<metadata>
Created by potrace 1.11, written by Peter Selinger 2001-2013
</metadata>
<g transform="translate(0.000000,700.000000) scale(0.100000,-0.100000)"
fill="#000000" stroke="none">
<path d="M0 3500 l0 -3500 3500 0 3500 0 0 3500 0 3500 -3500 0 -3500 0 0
-3500z m2860 1419 c0 -765 3 -960 13 -956 314 129 508 166 776 146 145 -11
232 -28 369 -74 416 -139 747 -455 912 -869 134 -339 133 -755 -4 -1097 -89
-222 -228 -421 -396 -566 -177 -153 -387 -266 -601 -322 -147 -39 -242 -51
-394 -51 -202 0 -381 34 -552 105 -136 56 -123 59 -123 -29 l0 -76 -410 0
-410 0 0 2375 0 2375 410 0 410 0 0 -961z"/>
<path d="M3465 3289 c-153 -15 -286 -80 -400 -194 -150 -150 -216 -339 -193
-552 16 -151 79 -282 188 -393 75 -76 158 -129 262 -168 66 -24 86 -27 213
-27 152 0 190 8 310 67 169 83 308 263 350 454 25 109 17 264 -18 362 -108
304 -390 482 -712 451z"/>
</g>
</svg>
