<?xml version="1.0" encoding="utf-8"?>
<!-- Generator: Adobe Illustrator 23.0.3, SVG Export Plug-In . SVG Version: 6.00 Build 0)  -->
<svg version="1.1" id="Capa_1" xmlns="http://www.w3.org/2000/svg" xmlns:xlink="http://www.w3.org/1999/xlink" x="0px" y="0px"
	 viewBox="0 0 816 43.9" style="enable-background:new 0 0 816 43.9;" xml:space="preserve">
<style type="text/css">
	.st0{fill-rule:evenodd;clip-rule:evenodd;fill:#575756;}
	.st1{fill:#575756;}
</style>
<rect x="182.7" y="0" class="st0" width="1.3" height="43.5"/>
<g>
	<path class="st1" d="M218,14.6l-0.2-4.2l-1.6,3h-0.8l-1.6-3l-0.2,4.2H212l0.3-7.9h1.2l2.3,4.3l2.3-4.3h1.2l0.3,7.9H218z"/>
	<path class="st1" d="M222.8,14.6h-1.9V6.7h1.9V14.6z"/>
	<path class="st1" d="M230.6,6.7v7.9h-1.3L226,10v4.6h-1.8V6.7h1.4l3.3,4.6V6.7H230.6z"/>
	<path class="st1" d="M233.9,14.6H232V6.7h1.9V14.6z"/>
	<path class="st1" d="M240.5,6.8L240,8.4c-0.6-0.2-1.4-0.4-2-0.4c-0.7,0-1.2,0.2-1.2,0.8c0,0.4,0.3,0.6,1.7,1.1
		c1.6,0.6,2.3,1.3,2.3,2.5c0,1.5-1,2.5-3,2.5c-0.9,0-1.9-0.2-2.8-0.6l0.4-1.6c0.8,0.3,1.6,0.5,2.4,0.5c0.6,0,1.2-0.1,1.2-0.7
		c0-0.6-0.7-0.8-1.5-1.2c-1.4-0.6-2.4-1.1-2.4-2.6s1-2.3,2.9-2.3C238.8,6.4,239.8,6.6,240.5,6.8z"/>
	<path class="st1" d="M248,8.4h-2.3v6.2h-1.9V8.4h-2.3V6.7h6.5V8.4z"/>
	<path class="st1" d="M254.5,12.9v1.7h-5.6V6.7h5.5v1.7h-3.6v1.5h3.3v1.6h-3.3V13h3.7V12.9z"/>
	<path class="st1" d="M258.8,11.9h-1.1v2.7h-1.9V6.7h3.5c1.9,0,2.8,1.2,2.8,2.5c0,1-0.5,1.9-1.4,2.4l1.9,3h-2.2L258.8,11.9z
		 M257.6,10.2h1.7c0.6,0,0.9-0.5,0.9-1c0-0.4-0.3-0.9-0.9-0.9h-1.7V10.2z"/>
	<path class="st1" d="M265.3,14.6h-1.9V6.7h1.9V14.6z"/>
	<path class="st1" d="M266.6,11.8V9.5c0-1.9,1.6-3,3.4-3c1.9,0,3.5,1.1,3.5,3v2.3c0,1.9-1.5,3.1-3.5,3.1
		C268.1,14.9,266.6,13.7,266.6,11.8z M271.6,11.7V9.6c0-1-0.6-1.5-1.6-1.5c-0.8,0-1.6,0.5-1.6,1.5v2.1c0,1,0.7,1.6,1.6,1.6
		C271,13.2,271.6,12.7,271.6,11.7z"/>
	<path class="st1" d="M284.5,9.6v1.9c0,1.9-1.5,3-3.3,3h-3.3V6.7h3.3C282.8,6.7,284.5,7.8,284.5,9.6z M282.6,10c0-1-0.6-1.7-1.4-1.7
		h-1.5v4.6h1.5c0.8,0,1.4-0.6,1.4-1.6V10z"/>
	<path class="st1" d="M291.4,12.9v1.7h-5.6V6.7h5.5v1.7h-3.6v1.5h3.3v1.6h-3.3V13h3.7V12.9z"/>
</g>
<g>
	<path class="st1" d="M222.7,32.5v3.2h-10.5V20.8h10.3V24h-6.8v2.8h6.1v2.9h-6.1v2.9L222.7,32.5L222.7,32.5z"/>
	<path class="st1" d="M237.6,26.4v3.7c0,3.5-2.9,5.6-6.1,5.6h-6.3V20.8h6.2C234.5,20.8,237.6,22.8,237.6,26.4z M234.1,27.1
		c0-2-1.2-3.1-2.6-3.1h-2.8v8.6h2.8c1.4,0,2.6-1.1,2.6-2.9V27.1z"/>
	<path class="st1" d="M252.2,30.1c0,3.7-2.1,6-6.2,6c-4.1,0-6.2-2.3-6.2-6v-9.3h3.5v9.3c0,1.9,0.9,3.1,2.7,3.1
		c1.9,0,2.7-1.2,2.7-3.1v-9.3h3.5V30.1z"/>
	<path class="st1" d="M265.5,21.1l-0.9,2.8c-1.3-0.5-2.4-0.7-3.5-0.7c-2,0-3.3,0.9-3.3,3.9v2.4c0,3,1.2,3.9,3.3,3.9
		c1.1,0,2-0.2,3.3-0.7l0.9,2.8c-1.7,0.7-2.9,0.8-4.1,0.8c-4.9,0-6.8-2.4-6.8-6.6v-2.8c0-4.2,2-6.6,6.8-6.6
		C262.3,20.3,263.7,20.4,265.5,21.1z"/>
	<path class="st1" d="M276.3,33.1h-5.4l-0.9,2.6h-3.5l6-14.9h2.8l5.4,14.9h-3.4L276.3,33.1z M272.1,29.9h3.1l-1.4-4.5L272.1,29.9z"
		/>
	<path class="st1" d="M292.9,21.1l-0.9,2.8c-1.3-0.5-2.4-0.7-3.5-0.7c-2,0-3.3,0.9-3.3,3.9v2.4c0,3,1.2,3.9,3.3,3.9
		c1.1,0,2-0.2,3.3-0.7l0.9,2.8c-1.7,0.7-2.9,0.8-4.1,0.8c-4.9,0-6.8-2.4-6.8-6.6v-2.8c0-4.2,2-6.6,6.8-6.6
		C289.8,20.3,291.2,20.4,292.9,21.1z"/>
	<path class="st1" d="M298.4,35.7h-3.5V20.8h3.5V35.7z"/>
	<path class="st1" d="M300.9,30.4V26c0-3.7,2.9-5.7,6.5-5.7s6.5,2.1,6.5,5.7v4.4c0,3.6-2.9,5.8-6.5,5.8
		C303.7,36.2,300.9,34,300.9,30.4z M310.3,30.2v-3.9c0-1.9-1.2-2.9-3-2.9c-1.5,0-3,1-3,2.9v3.9c0,1.9,1.4,3,3,3
		C309.1,33.2,310.3,32.1,310.3,30.2z M308.4,19H305l2.9-3.6h4.1L308.4,19z"/>
	<path class="st1" d="M328.4,20.8v14.9h-2.5l-6.2-8.7v8.7h-3.3V20.8h2.6l6.1,8.6v-8.6H328.4z"/>
</g>
<rect x="350.7" y="0" class="st0" width="1.3" height="43.5"/>
<g>
	<path class="st1" d="M384.8,14.7l-0.2-4.2l-1.6,3h-0.8l-1.6-3l-0.2,4.2h-1.7l0.3-8h1.2l2.4,4.3l2.4-4.3h1.2l0.3,8H384.8z"/>
	<path class="st1" d="M389.7,14.7h-1.9v-8h1.9V14.7z"/>
	<path class="st1" d="M397.5,6.7v8h-1.3l-3.3-4.6v4.6h-1.8v-8h1.4l3.3,4.6V6.7H397.5z"/>
	<path class="st1" d="M400.8,14.7H399v-8h1.9v8H400.8z"/>
	<path class="st1" d="M407.5,6.8L407,8.4c-0.6-0.2-1.4-0.4-2-0.4c-0.7,0-1.2,0.2-1.2,0.8c0,0.4,0.3,0.6,1.7,1.1
		c1.6,0.6,2.3,1.3,2.3,2.5c0,1.6-1,2.5-3,2.5c-0.9,0-1.9-0.2-2.9-0.6l0.4-1.6c0.8,0.3,1.6,0.5,2.4,0.5c0.7,0,1.2-0.1,1.2-0.7
		c0-0.6-0.7-0.8-1.6-1.2c-1.4-0.6-2.4-1.1-2.4-2.6s1-2.3,3-2.3C405.8,6.4,406.8,6.6,407.5,6.8z"/>
	<path class="st1" d="M415,8.4h-2.3v6.3h-1.9V8.4h-2.3V6.7h6.6v1.7H415z"/>
	<path class="st1" d="M421.6,13v1.7H416v-8h5.5v1.7h-3.6v1.5h3.3v1.6h-3.3V13H421.6z"/>
	<path class="st1" d="M425.9,11.9h-1.1v2.8h-1.9v-8h3.6c1.9,0,2.8,1.2,2.8,2.6c0,1-0.5,1.9-1.4,2.4l2,3h-2.2L425.9,11.9z
		 M424.8,10.2h1.7c0.6,0,0.9-0.5,0.9-1c0-0.4-0.3-0.9-0.9-0.9h-1.7V10.2z"/>
	<path class="st1" d="M432.4,14.7h-1.9v-8h1.9V14.7z"/>
	<path class="st1" d="M433.8,11.8V9.5c0-2,1.6-3.1,3.5-3.1s3.5,1.1,3.5,3.1v2.3c0,1.9-1.5,3.1-3.5,3.1S433.8,13.8,433.8,11.8z
		 M438.8,11.7V9.6c0-1-0.7-1.6-1.6-1.6c-0.8,0-1.6,0.5-1.6,1.6v2.1c0,1,0.8,1.6,1.6,1.6C438.2,13.3,438.8,12.7,438.8,11.7z"/>
	<path class="st1" d="M451.8,9.7v2c0,1.9-1.5,3-3.3,3h-3.4v-8h3.3C450.1,6.7,451.8,7.8,451.8,9.7z M449.9,10c0-1.1-0.6-1.7-1.4-1.7
		H447V13h1.5c0.8,0,1.4-0.6,1.4-1.6V10z"/>
	<path class="st1" d="M458.7,13v1.7h-5.6v-8h5.5v1.7H455v1.5h3.3v1.6H455V13H458.7z"/>
</g>
<g>
	<path class="st1" d="M390.9,23.9h-4.4v11.8H383V23.9h-4.4v-3.2h12.3V23.9z"/>
	<path class="st1" d="M404.9,30.1c0,3.8-2.1,6-6.3,6c-4.1,0-6.3-2.3-6.3-6v-9.3h3.5v9.3c0,1.9,0.9,3.1,2.7,3.1
		c1.9,0,2.7-1.2,2.7-3.1v-9.3h3.5v9.3H404.9z"/>
	<path class="st1" d="M412.9,30.6h-2.1v5.2h-3.5v-15h6.7c3.6,0,5.2,2.2,5.2,4.8c0,1.9-1,3.6-2.6,4.5l3.7,5.7h-4.1L412.9,30.6z
		 M410.8,27.4h3.2c1.2,0,1.7-0.9,1.7-1.8c0-0.8-0.5-1.6-1.7-1.6h-3.2V27.4z"/>
	<path class="st1" d="M425.3,35.8h-3.5v-15h3.5V35.8z"/>
	<path class="st1" d="M437.7,21l-0.8,3c-1.1-0.5-2.6-0.8-3.8-0.8c-1.4,0-2.2,0.5-2.2,1.5c0,0.8,0.6,1,3.2,2.1c3,1.2,4.3,2.5,4.3,4.8
		c0,2.9-2,4.7-5.7,4.7c-1.7,0-3.6-0.4-5.4-1l0.8-3c1.6,0.6,3.1,0.9,4.5,0.9c1.2,0,2.3-0.2,2.3-1.3s-1.3-1.6-2.9-2.2
		c-2.7-1-4.6-2.1-4.6-5s1.9-4.4,5.6-4.4C434.5,20.2,436.4,20.5,437.7,21z"/>
	<path class="st1" d="M451.6,35.8l-0.4-8l-3,5.6h-1.6l-3-5.6l-0.4,8H440l0.6-15h2.3l4.4,8.1l4.4-8.1h2.3l0.6,15
		C454.6,35.8,451.6,35.8,451.6,35.8z"/>
	<path class="st1" d="M456.9,30.4V26c0-3.7,3-5.8,6.5-5.8c3.6,0,6.6,2.1,6.6,5.8v4.4c0,3.7-2.9,5.8-6.6,5.8
		C459.8,36.3,456.9,34.1,456.9,30.4z M466.5,30.2v-3.9c0-2-1.2-2.9-3-2.9c-1.5,0-3,1-3,2.9v3.9c0,2,1.4,3,3,3
		C465.3,33.2,466.5,32.1,466.5,30.2z"/>
	<path class="st1" d="M490.4,20.7l-4.9,9.7v5.3H482v-5.3l-4.9-9.7h3.7l2.9,6l2.9-6H490.4z"/>
	<path class="st1" d="M507.8,21l-0.9,2.9c-1.3-0.5-2.4-0.7-3.5-0.7c-2,0-3.3,0.9-3.3,3.9v2.4c0,3,1.3,3.9,3.3,3.9
		c1.1,0,2-0.2,3.3-0.7l0.9,2.9c-1.7,0.7-2.9,0.8-4.1,0.8c-4.9,0-6.9-2.4-6.9-6.6V27c0-4.2,2-6.6,6.9-6.6
		C504.7,20.2,506.1,20.4,507.8,21z"/>
	<path class="st1" d="M521.9,30.1c0,3.8-2.1,6-6.3,6c-4.1,0-6.3-2.3-6.3-6v-9.3h3.5v9.3c0,1.9,0.9,3.1,2.7,3.1
		c1.9,0,2.7-1.2,2.7-3.1v-9.3h3.5v9.3H521.9z"/>
	<path class="st1" d="M534.7,32.6v3.2h-10.4v-15h3.5v11.8H534.7z"/>
	<path class="st1" d="M546.3,23.9h-4.4v11.8h-3.5V23.9H534v-3.2h12.3V23.9z"/>
	<path class="st1" d="M560.3,30.1c0,3.8-2.1,6-6.3,6c-4.1,0-6.3-2.3-6.3-6v-9.3h3.5v9.3c0,1.9,0.9,3.1,2.7,3.1
		c1.9,0,2.7-1.2,2.7-3.1v-9.3h3.5v9.3H560.3z"/>
	<path class="st1" d="M568.3,30.6h-2.1v5.2h-3.5v-15h6.7c3.6,0,5.2,2.2,5.2,4.8c0,1.9-1,3.6-2.6,4.5l3.7,5.7h-4.1L568.3,30.6z
		 M566.2,27.4h3.2c1.2,0,1.7-0.9,1.7-1.8c0-0.8-0.5-1.6-1.7-1.6h-3.2V27.4z"/>
	<path class="st1" d="M586,33.1h-5.4l-1,2.6h-3.5l6-15h2.8l5.4,15H587L586,33.1z M581.8,29.9h3.1l-1.4-4.5L581.8,29.9z"/>
</g>
<rect x="613.2" y="0.5" class="st0" width="1.3" height="42.7"/>
<path class="st0" d="M651,19.4L651,19.4v2.9c0,2.7-2.3,4.4-4.8,4.4h-4.9V15h4.8C648.6,15,651,16.6,651,19.4 M660.6,24.2L660.6,24.2
	v2.5h-8.2V15h8v2.5h-5.3v2.2h4.8V22h-4.8v2.2H660.6z M669.6,15.2L669.6,15.2l-0.6,2.3c-0.9-0.4-2-0.6-2.9-0.6
	c-1.1,0-1.7,0.4-1.7,1.1c0,0.6,0.4,0.8,2.5,1.6c2.4,0.9,3.3,1.9,3.3,3.7c0,2.3-1.5,3.6-4.4,3.6c-1.3,0-2.8-0.3-4.2-0.8l0.6-2.3
	c1.2,0.4,2.4,0.7,3.5,0.7c1,0,1.8-0.2,1.8-1s-1-1.2-2.3-1.7c-2.1-0.8-3.5-1.7-3.5-3.8c0-2.2,1.5-3.4,4.3-3.4
	C667.2,14.6,668.6,14.8,669.6,15.2z M678.1,24.6L678.1,24.6h-4.2l-0.7,2h-2.7l4.7-11.6h2.2l4.2,11.6H679L678.1,24.6z M674.9,22.1
	L674.9,22.1h2.4l-1.1-3.5L674.9,22.1z M686.9,22.6L686.9,22.6h-1.6v4h-2.8V15h5.2c2.8,0,4.1,1.7,4.1,3.7c0,1.5-0.7,2.8-2,3.5
	l2.9,4.4h-3.2L686.9,22.6z M685.3,20.2L685.3,20.2h2.5c0.9,0,1.3-0.7,1.3-1.4c0-0.6-0.4-1.3-1.3-1.3h-2.5V20.2z M697.9,22.6
	L697.9,22.6h-1.6v4h-2.8V15h5.2c2.8,0,4.1,1.7,4.1,3.7c0,1.5-0.7,2.8-2,3.5l2.9,4.4h-3.2L697.9,22.6z M696.2,20.2L696.2,20.2h2.5
	c0.9,0,1.3-0.7,1.3-1.4c0-0.6-0.4-1.3-1.3-1.3h-2.5V20.2z M703.9,22.5L703.9,22.5v-3.4c0-2.9,2.3-4.5,5.1-4.5s5.1,1.6,5.1,4.5v3.4
	c0,2.8-2.3,4.5-5.1,4.5S703.9,25.3,703.9,22.5z M711.3,22.3L711.3,22.3v-3.1c0-1.5-1-2.3-2.3-2.3c-1.2,0-2.3,0.8-2.3,2.3v3.1
	c0,1.5,1.1,2.3,2.3,2.3C710.4,24.7,711.3,23.8,711.3,22.3z M723.5,24.2L723.5,24.2v2.5h-8.1V15h2.8v9.2H723.5z M732.6,24.2
	L732.6,24.2v2.5h-8.1V15h2.8v9.2H732.6z M733.3,22.5L733.3,22.5v-3.4c0-2.9,2.3-4.5,5.1-4.5s5.1,1.6,5.1,4.5v3.4
	c0,2.8-2.3,4.5-5.1,4.5S733.3,25.3,733.3,22.5z M740.7,22.3L740.7,22.3v-3.1c0-1.5-1-2.3-2.3-2.3c-1.2,0-2.3,0.8-2.3,2.3v3.1
	c0,1.5,1.1,2.3,2.3,2.3C739.8,24.7,740.7,23.8,740.7,22.3z M758.6,15L758.6,15v11.6h-2.8V22h-4.2v4.7h-2.8V15h2.8v4.5h4.2V15H758.6z
	 M769.7,22.2L769.7,22.2c0,2.9-1.6,4.7-4.9,4.7c-3.2,0-4.9-1.8-4.9-4.7V15h2.8v7.2c0,1.5,0.7,2.4,2.1,2.4c1.4,0,2.1-0.9,2.1-2.4V15
	h2.8L769.7,22.2L769.7,22.2z M779.7,26.6L779.7,26.6l-0.3-6.2l-2.3,4.3h-1.2l-2.3-4.3l-0.3,6.2h-2.5l0.5-11.6h1.8l3.4,6.2l3.4-6.2
	h1.8l0.5,11.6C782.2,26.6,779.7,26.6,779.7,26.6z M790.7,24.6L790.7,24.6h-4.2l-0.7,2H783l4.7-11.6h2.2l4.2,11.6h-2.6L790.7,24.6z
	 M787.4,22.1L787.4,22.1h2.4l-1.1-3.5L787.4,22.1z M804.5,15L804.5,15v11.6h-1.9l-4.9-6.8v6.8h-2.6V15h2l4.8,6.7V15H804.5z
	 M805.9,22.5L805.9,22.5v-3.4c0-2.9,2.3-4.5,5.1-4.5s5.1,1.6,5.1,4.5v3.4c0,2.8-2.3,4.5-5.1,4.5C808.1,27,805.9,25.3,805.9,22.5z
	 M813.3,22.3L813.3,22.3v-3.1c0-1.5-1-2.3-2.3-2.3c-1.2,0-2.3,0.8-2.3,2.3v3.1c0,1.5,1.1,2.3,2.3,2.3
	C812.3,24.7,813.3,23.8,813.3,22.3z M647.8,31L647.8,31l-2.7,5.4v3h-2v-3l-2.7-5.4h2.1l1.6,3.4l1.6-3.4C645.7,31,647.8,31,647.8,31z
	 M658,33.8L658,33.8c0,1.6-0.9,2.9-2.9,2.9h-1.9v2.7h-2V31h3.9C657.1,31,658,32.2,658,33.8z M656.1,33.8L656.1,33.8
	c0-0.5-0.3-1-0.9-1h-1.9v2.1h1.9C655.8,34.9,656.1,34.4,656.1,33.8z M662,36.5L662,36.5h-1.2v2.9h-2V31h3.8c2,0,2.9,1.2,2.9,2.7
	c0,1.1-0.5,2-1.5,2.5l2.1,3.2h-2.3L662,36.5z M660.8,34.7L660.8,34.7h1.8c0.7,0,0.9-0.5,0.9-1c0-0.4-0.3-0.9-0.9-0.9h-1.8V34.7z
	 M666.4,36.4L666.4,36.4v-2.5c0-2.1,1.7-3.2,3.7-3.2s3.7,1.2,3.7,3.2v2.5c0,2-1.6,3.3-3.7,3.3S666.4,38.4,666.4,36.4z M671.7,36.3
	L671.7,36.3v-2.2c0-1.1-0.7-1.6-1.7-1.6c-0.9,0-1.7,0.5-1.7,1.6v2.2c0,1.1,0.8,1.7,1.7,1.7C671,37.9,671.7,37.4,671.7,36.3z
	 M680.9,39.4L680.9,39.4l-0.2-4.5L679,38h-0.9l-1.7-3.1l-0.2,4.5h-1.8l0.3-8.4h1.3l2.5,4.5L681,31h1.3l0.3,8.4H680.9z M683.5,36.4
	L683.5,36.4v-2.5c0-2.1,1.7-3.2,3.7-3.2s3.7,1.2,3.7,3.2v2.5c0,2-1.6,3.3-3.7,3.3S683.5,38.4,683.5,36.4z M688.8,36.3L688.8,36.3
	v-2.2c0-1.1-0.7-1.6-1.7-1.6c-0.9,0-1.7,0.5-1.7,1.6v2.2c0,1.1,0.8,1.7,1.7,1.7C688.1,37.9,688.8,37.4,688.8,36.3z M698,31.1
	L698,31.1l-0.5,1.6c-0.7-0.3-1.4-0.4-2-0.4c-1.1,0-1.8,0.5-1.8,2.2v1.3c0,1.7,0.7,2.2,1.8,2.2c0.6,0,1.1-0.1,1.8-0.4l0.5,1.6
	c-1,0.4-1.6,0.4-2.3,0.4c-2.7,0-3.9-1.3-3.9-3.7v-1.6c0-2.4,1.1-3.7,3.9-3.7C696.2,30.7,697,30.8,698,31.1z M700.7,39.4L700.7,39.4
	h-2V31h2V39.4z M701.7,36.4L701.7,36.4v-2.5c0-2.1,1.7-3.2,3.7-3.2s3.7,1.2,3.7,3.2v2.5c0,2-1.6,3.3-3.7,3.3
	C703.4,39.7,701.7,38.4,701.7,36.4z M707.1,36.3L707.1,36.3v-2.2c0-1.1-0.7-1.6-1.7-1.6c-0.9,0-1.7,0.5-1.7,1.6v2.2
	c0,1.1,0.8,1.7,1.7,1.7C706.4,37.9,707.1,37.4,707.1,36.3z M716.9,31L716.9,31v8.4h-1.4l-3.5-4.9v4.9h-1.9V31h1.5l3.5,4.9V31H716.9z
	 M726.4,31.1L726.4,31.1l-0.5,1.7c-0.6-0.3-1.5-0.4-2.1-0.4c-0.8,0-1.2,0.3-1.2,0.8s0.3,0.6,1.8,1.2c1.7,0.7,2.4,1.4,2.4,2.7
	c0,1.6-1.1,2.6-3.2,2.6c-1,0-2-0.2-3-0.6l0.4-1.7c0.9,0.3,1.7,0.5,2.5,0.5c0.7,0,1.3-0.1,1.3-0.7c0-0.6-0.7-0.9-1.6-1.2
	c-1.5-0.6-2.6-1.2-2.6-2.8c0-1.6,1.1-2.5,3.1-2.5C724.6,30.7,725.6,30.9,726.4,31.1z M727.5,36.4L727.5,36.4v-2.5
	c0-2.1,1.7-3.2,3.7-3.2s3.7,1.2,3.7,3.2v2.5c0,2-1.6,3.3-3.7,3.3S727.5,38.4,727.5,36.4z M732.9,36.3L732.9,36.3v-2.2
	c0-1.1-0.7-1.6-1.7-1.6c-0.9,0-1.7,0.5-1.7,1.6v2.2c0,1.1,0.8,1.7,1.7,1.7C732.2,37.9,732.9,37.4,732.9,36.3z M742,31.1L742,31.1
	l-0.5,1.6c-0.7-0.3-1.4-0.4-2-0.4c-1.1,0-1.8,0.5-1.8,2.2v1.3c0,1.7,0.7,2.2,1.8,2.2c0.6,0,1.1-0.1,1.8-0.4l0.5,1.6
	c-1,0.4-1.6,0.4-2.3,0.4c-2.7,0-3.9-1.3-3.9-3.7v-1.6c0-2.4,1.1-3.7,3.9-3.7C740.2,30.7,741,30.8,742,31.1z M744.8,39.4L744.8,39.4
	h-2V31h2V39.4z M751,37.9L751,37.9h-3l-0.5,1.5h-2l3.4-8.4h1.6l3,8.4h-1.9L751,37.9z M748.6,36.1L748.6,36.1h1.8l-0.8-2.5
	L748.6,36.1z M760.1,37.6L760.1,37.6v1.8h-5.8V31h2v6.6H760.1z M646.1,10.6L646.1,10.6l-0.2-3.8l-1.5,2.7h-0.6l-1.5-2.7l-0.2,3.8
	H641l0.2-6.3h0.8l2,3.6l2-3.6h0.8l0.2,6.3H646.1z M649.2,10.6L649.2,10.6H648V4.3h1.2V10.6z M655.2,4.3L655.2,4.3v6.3h-0.8l-3-4v4
	h-1.2V4.3h0.8l3,3.9V4.3H655.2z M657.4,10.6L657.4,10.6h-1.2V4.3h1.2V10.6z M662.4,4.4L662.4,4.4l-0.3,1.1c-0.5-0.2-1.1-0.3-1.6-0.3
	c-0.8,0-1.1,0.3-1.1,0.7c0,0.4,0.3,0.5,1.4,1c1.3,0.5,1.9,1,1.9,2c0,1.3-0.9,1.9-2.3,1.9c-0.7,0-1.4-0.1-2.2-0.4l0.3-1.1
	c0.7,0.2,1.3,0.4,1.9,0.4c0.6,0,1.2-0.1,1.2-0.7c0-0.6-0.6-0.8-1.4-1c-1.1-0.4-1.9-0.9-1.9-2s0.7-1.8,2.3-1.8
	C661.1,4.1,661.8,4.2,662.4,4.4z M668,5.4L668,5.4h-1.9v5.1h-1.2V5.4H663V4.3h5V5.4z M673,9.4L673,9.4v1.2h-4.3V4.3h4.2v1.2h-3v1.4
	h2.7V8h-2.7v1.5h3.1V9.4z M676.2,8.3L676.2,8.3H675v2.3h-1.2V4.3h2.8c1.5,0,2.1,0.9,2.1,2c0,0.8-0.4,1.6-1.3,1.9l1.6,2.5h-1.4
	L676.2,8.3z M675,7.2L675,7.2h1.6c0.7,0,0.9-0.4,0.9-0.9c0-0.4-0.3-0.8-0.9-0.8H675V7.2z M680.9,10.6L680.9,10.6h-1.2V4.3h1.2V10.6z
	 M681.8,8.4L681.8,8.4V6.5c0-1.5,1.2-2.4,2.6-2.4c1.5,0,2.7,0.9,2.7,2.4v1.9c0,1.5-1.2,2.4-2.7,2.4C683,10.8,681.8,9.9,681.8,8.4z
	 M685.9,8.3L685.9,8.3V6.5c0-0.9-0.6-1.3-1.5-1.3c-0.8,0-1.5,0.5-1.5,1.3v1.8c0,0.9,0.7,1.4,1.5,1.4C685.3,9.7,685.9,9.2,685.9,8.3z
	 M695.3,6.6L695.3,6.6v1.6c0,1.5-1.2,2.3-2.5,2.3h-2.5V4.3h2.5C694.1,4.3,695.3,5.1,695.3,6.6z M694.1,6.9L694.1,6.9
	c0-0.9-0.6-1.4-1.4-1.4h-1.3v4h1.3c0.7,0,1.4-0.5,1.4-1.4V6.9z M700.5,9.4L700.5,9.4v1.2h-4.3V4.3h4.2v1.2h-3v1.4h2.7V8h-2.7v1.5
	h3.1V9.4z M706,30L706,30h-1.9l1.1-1.4h2.2L706,30z M648.3,19.9c0-1.5-0.9-2.4-2-2.4h-2.2v6.7h2.2c1.1,0,2-0.9,2-2.3V19.9z"/>
<g>
	<path class="st1" d="M105.7,27.4c0,3-1.3,3.7-3.6,4.9l1.8,3.4c2-0.8,6.3-3,6.3-7V16h-4.4V27.4z"/>
	<path class="st1" d="M135.2,16l-7.5,18.7h4.4l1.2-3.3h6.7l1.2,3.3h4.2L138.8,16H135.2z M134.8,27.5l2.1-5.6l1.8,5.6H134.8z"/>
	<path class="st1" d="M127.9,16h-4.4v11.6c0,2.4-1.1,3.9-3.4,3.9c-2.3,0-3.4-1.5-3.4-3.9V16h-4.4v11.6c0,4.7,2.6,7.5,7.8,7.5
		c5.2,0,7.8-2.8,7.8-7.5V16z"/>
	<polygon class="st1" points="92.8,26.8 85.1,16 81.9,16 81.9,34.7 86.1,34.7 86.1,23.8 93.8,34.7 97,34.7 97,16 92.8,16 	"/>
	<path class="st1" d="M70.7,16l-7.5,18.7h4.4l1.2-3.3h6.7l1.2,3.3H81L74.2,16H70.7z M70.2,27.5l2.1-5.6l1.8,5.6H70.2z"/>
	<path class="st1" d="M58.2,23.6c-3.3-1.3-4-1.6-4-2.6c0-1.2,1-1.8,2.7-1.8c1.4,0,3.3,0.4,4.7,0.9l1-3.7c-1.6-0.6-4-1-5.9-1
		c-4.5,0-6.9,2-6.9,5.5c0,3.5,2.4,4.9,5.7,6.2c2,0.8,3.6,1.4,3.6,2.7c0,1.3-1.4,1.6-2.9,1.6c-1.7,0-3.6-0.4-5.5-1.1l-1,3.7
		c2.2,0.8,4.6,1.3,6.7,1.3c4.7,0,7.1-2.1,7.1-5.8C63.5,26.6,62,25.1,58.2,23.6z"/>
	<polygon class="st1" points="157.6,16 157.6,26.8 149.9,16 146.7,16 146.7,34.7 150.9,34.7 150.9,23.8 158.6,34.7 161.7,34.7 
		161.7,16 	"/>
	<polygon class="st1" points="84.5,7.3 87.8,11.6 88.7,11.6 88.7,4.8 87.4,4.8 87.4,9.1 84.2,4.8 83.3,4.8 83.3,11.6 84.5,11.6 	"/>
	<path class="st1" d="M52.9,11.8c0.8,0,1.8-0.2,2.5-0.5V7.7h-2.6v1.3h1.3v1.7c-0.3,0.1-0.7,0.1-1.1,0.1c-1,0-1.8-0.5-1.8-1.9V7.6
		c0-1.4,0.8-1.9,1.9-1.9c0.7,0,1.4,0.2,1.9,0.3l0.3-1.1c-0.6-0.2-1.4-0.4-2.2-0.4c-2.2,0-3.3,1-3.3,3v1.4
		C49.9,10.8,51.1,11.8,52.9,11.8z"/>
	<rect x="69.1" y="4.8" class="st1" width="1.3" height="6.8"/>
	<path class="st1" d="M59.2,11.8c1.6,0,2.9-1,2.9-2.6V7.2c0-1.6-1.3-2.6-2.9-2.6c-1.6,0-2.9,0.9-2.9,2.6v2.1
		C56.3,10.9,57.6,11.8,59.2,11.8z M57.6,7.2c0-1,0.8-1.5,1.6-1.5c0.9,0,1.6,0.5,1.6,1.5v1.9c0,1-0.7,1.5-1.6,1.5
		c-0.8,0-1.6-0.5-1.6-1.5V7.2z"/>
	<path class="st1" d="M68.4,9.6c0-0.9-0.5-1.4-1-1.7c0.3-0.3,0.6-0.7,0.6-1.4c0-1.1-0.9-1.8-2.1-1.8h-3v6.8h3.1
		C67.3,11.6,68.4,11,68.4,9.6z M64.3,6H66c0.5,0,0.8,0.3,0.8,0.7c0,0.4-0.3,0.7-0.8,0.7h-1.8V6z M64.3,8.6h1.9c0.6,0,1,0.4,1,0.9
		c0,0.5-0.4,0.9-1.1,0.9h-1.8V8.6z"/>
	<polygon class="st1" points="110.1,10.4 106.7,10.4 106.7,8.8 109.7,8.8 109.7,7.6 106.7,7.6 106.7,6 110,6 110,4.8 105.4,4.8 
		105.4,11.6 110.1,11.6 	"/>
	<path class="st1" d="M104.5,9.1V7.3c0-1.6-1.4-2.5-2.8-2.5H99v6.8h2.7C103.2,11.6,104.5,10.7,104.5,9.1z M103.2,8.9
		c0,0.9-0.7,1.5-1.5,1.5h-1.5V6h1.5c0.8,0,1.5,0.6,1.5,1.5V8.9z"/>
	<path class="st1" d="M81,9c0.9-0.3,1.4-1.1,1.4-2c0-1.2-0.7-2.1-2.3-2.1h-3v6.8h1.3V9.2h1.3l1.6,2.5h1.5L81,9z M80,7.9h-1.7V6H80
		c0.7,0,1,0.5,1,0.9C81,7.4,80.7,7.9,80,7.9z"/>
	<polygon class="st1" points="76.1,10.4 72.7,10.4 72.7,8.8 75.7,8.8 75.7,7.6 72.7,7.6 72.7,6 76,6 76,4.8 71.4,4.8 71.4,11.6 
		76.1,11.6 	"/>
	<path class="st1" d="M92.5,11.8c1.6,0,2.9-1,2.9-2.6V7.2c0-1.6-1.3-2.6-2.9-2.6c-1.6,0-2.9,0.9-2.9,2.6v2.1
		C89.6,10.9,90.9,11.8,92.5,11.8z M90.9,7.2c0-1,0.8-1.5,1.6-1.5c0.9,0,1.6,0.5,1.6,1.5v1.9c0,1-0.7,1.5-1.6,1.5
		c-0.8,0-1.6-0.5-1.6-1.5V7.2z"/>
	<path class="st1" d="M31.9,18.6c4.1-2.7,6-11.5,2.5-14.1C33.8,4,33,3.9,32.3,3.9c-0.5,0-1.1,0.1-1.6,0.1c-0.9,0.1-1.8,0.2-2.6,0
		C32.8,7.8,32.3,14.6,31.9,18.6z"/>
	<path class="st1" d="M37.3,11.2L37.3,11.2c1.7,5.8-2.7,11-5.4,14c4.8,0.2,11.6-5.8,10.3-9.9C41.6,13.3,38.8,12.8,37.3,11.2z"/>
	<path class="st1" d="M40.7,22.5c-2.1,5.7-8.7,7.3-12.6,8.1c3.8,3,12.8,2.2,14.2-2C42.9,26.6,40.9,24.6,40.7,22.5L40.7,22.5z"/>
	<path class="st1" d="M21.8,32.7c1.3,4.7,9.1,9.3,12.6,6.7c1.7-1.2,1.4-4,2.4-5.9C31.7,36.9,25.4,34.3,21.8,32.7z"/>
	<path class="st1" d="M15.4,30.7c-1.7,4.5,1.9,12.8,6.3,12.8c2.1,0,3.5-2.5,5.4-3.4h0C21,39.9,17.4,34.1,15.4,30.7z"/>
	<path class="st1" d="M11.5,25.3C7.4,28,5.5,36.8,9,39.4c1,0.8,2.4,0.6,3.8,0.5c0.9-0.1,1.8-0.2,2.6,0
		C10.6,36.1,11.1,29.3,11.5,25.3z"/>
	<path class="st1" d="M11.5,18.7c-0.1,0-0.2,0-0.3,0c-4.8,0-11.3,5.8-10,9.9c0.7,2,3.4,2.5,4.9,4.1C4.4,26.9,8.8,21.6,11.5,18.7z"/>
	<path class="st1" d="M15.3,13.3c-1.5-1.2-3.9-1.8-6.3-1.8c-3.5,0-7.1,1.3-7.9,3.8c-0.7,2,1.3,4.1,1.6,6.2
		C4.8,15.8,11.4,14.1,15.3,13.3z"/>
	<path class="st1" d="M21.6,11.2c-1-3.7-6.2-7.5-10.1-7.5c-1,0-1.8,0.2-2.5,0.7c-1.7,1.2-1.4,4-2.4,5.9C11.7,7,18,9.6,21.6,11.2z"/>
	<path class="st1" d="M28,13.2c1.7-4.5-1.9-12.8-6.3-12.8c-2.1,0-3.5,2.5-5.4,3.4C22.4,4,26,9.8,28,13.2z"/>
</g>
</svg>
